<svg xmlns="http://www.w3.org/2000/svg" id="Ebene_1" data-name="Ebene 1" viewBox="0 0 1920 1920"><defs><style>.cls-1,.cls-14,.cls-15,.cls-8,.cls-9{fill:none}.cls-2{fill:#e10079}.cls-4{fill:#a231ef}.cls-5{fill:#fff}.cls-8{stroke:#f76272}.cls-10,.cls-8,.cls-9{stroke-linecap:round}.cls-10,.cls-15,.cls-8,.cls-9{stroke-linejoin:round}.cls-10,.cls-8,.cls-9{stroke-width:16.93px}.cls-10,.cls-9{stroke:#fff}.cls-10{fill:#fb8a8b}.cls-11{fill:#15216b}.cls-12{fill:#f76272}.cls-14,.cls-15{stroke-width:41.96px}.cls-14{stroke-miterlimit:10;stroke:#e10079}.cls-15{stroke:#000a77}</style>
<clipPath id="clip-path"><path d="M397.24 397.24h466.2v466.2h-466.2z" class="cls-1" transform="rotate(-135 630.34302854 630.34731155)"/></clipPath><clipPath id="clip-path-2"><path d="M397.24 1056.55h466.2v466.2h-466.2z" class="cls-1" transform="rotate(-45 630.34207897 1289.65376196)"/></clipPath><clipPath id="clip-path-3"><path d="M67.59 1386.21h396.27a69.93 69.93 0 0 1 69.93 69.93v326.34a69.93 69.93 0 0 1-69.93 69.93H67.59v-466.2z" class="cls-1" transform="rotate(135 300.68648431 1619.31138845)"/></clipPath><clipPath id="clip-path-4"><path d="M1456.14 67.59h396.27v466.2h-396.27a69.93 69.93 0 0 1-69.93-69.93V137.52a69.93 69.93 0 0 1 69.93-69.93z" class="cls-1" transform="rotate(135 1619.31349581 300.68860332)"/></clipPath><clipPath id="clip-path-5"><path d="M137.52 67.59h396.27v466.2H137.52a69.93 69.93 0 0 1-69.93-69.93V137.52a69.93 69.93 0 0 1 69.93-69.93z" class="cls-1" transform="rotate(45 300.6901496 300.68993803)"/></clipPath><clipPath id="clip-path-6"><path d="M726.9 726.9h466.2v466.2H726.9z" class="cls-1" transform="rotate(-45 959.99750994 960.00601154)"/></clipPath></defs><rect width="100%" height="100%" fill="#FB8A8B"/><path d="M397.24 397.24h466.2v466.2h-466.2z" class="cls-2" transform="rotate(-135 630.34302854 630.34731155)"/><g clip-path="url(#clip-path)"><path d="M960 630.35L630.35 960 300.69 630.35H960z" class="cls-4"/></g><path d="M1456.14 1386.21h396.27v466.2h-396.27a69.93 69.93 0 0 1-69.93-69.93v-326.34a69.93 69.93 0 0 1 69.93-69.93z" class="cls-4" transform="rotate(-135 1619.3099661 1619.30991816)"/><path d="M1536.44 1536.43h165.75v165.75h-165.75z" class="cls-5" transform="rotate(-135 1619.3099661 1619.30991816)"/><path fill="#f33a58" d="M397.24 1056.55h466.2v466.2h-466.2z" transform="rotate(-45 630.34207897 1289.65376196)"/><g clip-path="url(#clip-path-2)"><path d="M318.87 1231.02l41.95-41.95" class="cls-8"/><path d="M360.82 1231.02l-41.95-41.95" class="cls-8"/><path d="M451.41 901.11l-56.28-18.75" class="cls-8"/><path d="M432.65 863.6l-18.76 56.27" class="cls-8"/><path d="M434.98 1053.39h-59.32" class="cls-8"/><path d="M405.32 1023.72v59.33" class="cls-8"/><path d="M484.71 1418.65l-56.28-18.76" class="cls-9"/><path d="M465.95 1381.13l-18.76 56.28" class="cls-9"/><path d="M539.9 1234.77h-59.32" class="cls-8"/><path d="M510.24 1205.11v59.32" class="cls-8"/><path d="M667.21 1542.75l-56.28-18.76" class="cls-8"/><path d="M648.45 1505.23l-18.76 56.28" class="cls-8"/><path d="M678.54 1338.93l-53.06 26.53" class="cls-9"/><path d="M638.74 1325.67l26.53 53.06" class="cls-9"/><path d="M635.94 1076.72l-56.28 18.76" class="cls-8"/><path d="M598.42 1057.96l18.76 56.28" class="cls-8"/><path d="M776.68 1179.33l-41.95 41.94" class="cls-8"/><path d="M734.73 1179.33l41.95 41.94" class="cls-8"/><path d="M954.34 1524.02h-59.32" class="cls-8"/><path d="M924.68 1494.36v59.32" class="cls-8"/><path d="M617.47 862.7l-41.95 41.95" class="cls-8"/><path d="M575.52 862.7l41.95 41.95" class="cls-8"/><path d="M829.28 1412.32l-41.95 41.94" class="cls-8"/><path d="M787.33 1412.32l41.95 41.94" class="cls-8"/><path d="M782.96 973.74l-50.87 30.52" class="cls-10"/><path d="M742.26 963.57l30.53 50.86" class="cls-10"/><path d="M939.43 1238.31l-41.95 41.95" class="cls-8"/><path d="M897.48 1238.31l41.95 41.95" class="cls-8"/></g><path d="M1056.55 1056.55h466.2v466.2h-466.2z" class="cls-11" transform="rotate(-135 1289.65696322 1289.65266857)"/><circle cx="1289.66" cy="1289.66" r="82.88" class="cls-12"/><path d="M67.59 1386.21h396.27a69.93 69.93 0 0 1 69.93 69.93v326.34a69.93 69.93 0 0 1-69.93 69.93H67.59v-466.2z" class="cls-4" transform="rotate(135 300.68648431 1619.31138845)"/><g clip-path="url(#clip-path-3)"><path d="M145.87 1282.25l-45.94 48.56c-18.35 19.39-18.35 52 0 71.45l12.14 12.83c18.35 19.39 18.35 52.05 0 71.45l-12.14 12.83c-18.35 19.4-18.35 52.06 0 71.45l12.14 12.83c18.35 19.4 18.35 52.06 0 71.45l-12.14 12.83c-18.35 19.4-18.35 52.06 0 71.45l12.14 12.84c18.35 19.39 18.35 52 0 71.45l-12.14 12.83c-18.35 19.39-18.35 52 0 71.45l12.14 12.83c18.35 19.39 18.35 52 0 71.45" class="cls-14"/><path d="M332.85 1282.25l-45.93 48.56c-18.35 19.39-18.35 52 0 71.45l12.13 12.83c18.35 19.39 18.35 52.05 0 71.45l-12.13 12.83c-18.35 19.4-18.35 52.06 0 71.45l12.13 12.83c18.35 19.4 18.35 52.06 0 71.45l-12.13 12.83c-18.35 19.4-18.35 52.06 0 71.45l12.13 12.84c18.35 19.39 18.35 52 0 71.45l-12.13 12.83c-18.35 19.39-18.35 52 0 71.45l12.13 12.83c18.35 19.39 18.35 52 0 71.45" class="cls-15"/><path d="M519.83 1282.25l-45.93 48.56c-18.35 19.39-18.35 52 0 71.45l12.1 12.83c18.35 19.39 18.35 52.05 0 71.45l-12.14 12.83c-18.35 19.4-18.35 52.06 0 71.45l12.14 12.83c18.35 19.4 18.35 52.06 0 71.45l-12.14 12.83c-18.35 19.4-18.35 52.06 0 71.45l12.14 12.84c18.35 19.39 18.35 52 0 71.45l-12.1 12.83c-18.35 19.39-18.35 52 0 71.45l12.1 12.83c18.35 19.39 18.35 52 0 71.45" class="cls-14"/><path fill="none" stroke="#f76272" stroke-linejoin="round" stroke-width="42.32" d="M706.82 1282.25l-45.94 48.56c-18.35 19.39-18.35 52 0 71.45l12.12 12.83c18.35 19.39 18.35 52.05 0 71.45l-12.14 12.83c-18.35 19.4-18.35 52.06 0 71.45l12.14 12.83c18.35 19.4 18.35 52.06 0 71.45l-12.14 12.83c-18.35 19.4-18.35 52.06 0 71.45l12.14 12.84c18.35 19.39 18.35 52 0 71.45l-12.14 12.83c-18.35 19.39-18.35 52 0 71.45l12.14 12.83c18.35 19.39 18.35 52 0 71.45"/></g><path d="M1056.55 397.24h466.2v466.2h-466.2z" class="cls-4" transform="rotate(135 1289.65549294 630.34378184)"/><path d="M1279 801.38a21.2 21.2 0 1 1-15 6.21 21 21 0 0 1 15-6.21m0-12.93a34.11 34.11 0 1 0 24.12 10 34 34 0 0 0-24.12-10z" class="cls-5"/><circle cx="1182.81" cy="726.41" r="34.11" class="cls-12"/><circle cx="1086.65" cy="630.25" r="34.11" class="cls-5"/><circle cx="1380.42" cy="721.11" r="34.11" class="cls-5"/><circle cx="1284.26" cy="624.95" r="34.11" class="cls-5"/><circle cx="1188.11" cy="528.8" r="34.11" class="cls-2"/><circle cx="1481.87" cy="619.66" r="34.11" class="cls-11"/><path d="M1385.72 502.32a21.18 21.18 0 1 1-15 6.2 21 21 0 0 1 15-6.2m0-12.93a34.11 34.11 0 1 0 24.12 10 34 34 0 0 0-24.12-10z" class="cls-5"/><circle cx="1289.56" cy="427.34" r="34.11" class="cls-5"/><path d="M1456.14 67.59h396.27v466.2h-396.27a69.93 69.93 0 0 1-69.93-69.93V137.52a69.93 69.93 0 0 1 69.93-69.93z" class="cls-2" transform="rotate(135 1619.31349581 300.68860332)"/><g clip-path="url(#clip-path-4)"><path fill="none" stroke="#fff" stroke-linejoin="round" stroke-width="41.96" d="M1599.83-125.46c235 235 235 617.31 0 852.29s-617.31 235-852.29 0-235-617.31 0-852.29 617.31-234.97 852.29 0z"/><path d="M1509.78-35.4c185.32 185.32 185.32 486.86 0 672.18s-486.86 185.32-672.18 0-185.32-486.86 0-672.17 486.86-185.33 672.18-.01z" class="cls-15"/><path fill="none" stroke="#f76272" stroke-miterlimit="10" stroke-width="41.96" d="M1419.73 54.65c135.67 135.67 135.67 356.41 0 492.08s-356.41 135.66-492.08 0-135.65-356.42 0-492.08 356.41-135.65 492.08 0z"/></g><path d="M137.52 67.59h396.27v466.2H137.52a69.93 69.93 0 0 1-69.93-69.93V137.52a69.93 69.93 0 0 1 69.93-69.93z" class="cls-11" transform="rotate(45 300.6901496 300.68993803)"/><g clip-path="url(#clip-path-5)"><path fill="none" stroke="#e10079" stroke-linecap="round" stroke-miterlimit="10" stroke-width="55.94" d="M505.88 643.88L278.5 416.5"/><path fill="#f33a58" stroke="#fff" stroke-linecap="round" stroke-miterlimit="10" stroke-width="55.94" d="M585.24 564.52L312.45 291.73"/><path fill="none" stroke="#a231ef" stroke-linecap="round" stroke-miterlimit="10" stroke-width="55.94" d="M664.6 485.15L484.97 305.53"/><circle cx="422.82" cy="243.38" r="29.62" class="cls-4"/><circle cx="248.06" cy="227.33" r="29.62" fill="#7246b2"/><circle cx="214.82" cy="352.81" r="29.62" class="cls-2"/></g><path d="M726.9 726.9h466.2v466.2H726.9z" class="cls-2" transform="rotate(-45 959.99750994 960.00601154)"/><g clip-path="url(#clip-path-6)"><path d="M863.77 993.17a64.28 64.28 0 0 1 63.94-64.26 63.17 63.17 0 0 1 62-64.26h1.9c36.12-.13 63.29 26.9 64.26 65.69l.31 124.62-124.61.3c-39.71 1.9-67.76-26-67.85-62.09" class="cls-5"/></g></svg>