<svg width="457" height="381" xmlns="http://www.w3.org/2000/svg" xmlns:xlink="http://www.w3.org/1999/xlink"><defs><path id="a" d="M11 .72h96.773v118.46H11z"/></defs><g fill="none" fill-rule="evenodd"><g fill="#DE0076"><path d="M439.122 356.241a15.572 15.572 0 0 1-4.771-1.489l-97.723-48.735c-7.7-3.839-10.826-13.196-6.987-20.897 3.843-7.699 13.206-10.833 20.897-6.986l97.723 48.735c7.7 3.839 10.826 13.196 6.987 20.896-3.07 6.159-9.67 9.392-16.126 8.476"/><path d="M365.893 380.735a15.572 15.572 0 0 1-4.771-1.489c-7.7-3.839-10.826-13.196-6.987-20.896l48.736-97.724c3.843-7.704 13.203-10.82 20.896-6.987 7.7 3.84 10.826 13.196 6.987 20.897l-48.736 97.723c-3.07 6.16-9.67 9.392-16.125 8.476"/></g><g transform="translate(304)"><path d="M13.55 108.18a15.533 15.533 0 0 1-10.266-6.064C-1.886 95.236-.501 85.47 6.378 80.3l87.297-65.612c6.879-5.17 16.646-3.784 21.815 3.095 5.17 6.878 3.786 16.645-3.093 21.815L25.1 105.209a15.526 15.526 0 0 1-11.55 2.972" fill="#FFF"/><mask id="b" fill="#fff"><use xlink:href="#a"/></mask><path d="M90.005 119.024a15.537 15.537 0 0 1-10.267-6.065L14.127 25.662c-5.17-6.88-3.785-16.646 3.094-21.816C24.104-1.324 33.87.062 39.037 6.94l65.61 87.297c5.17 6.879 3.785 16.646-3.094 21.816a15.53 15.53 0 0 1-11.548 2.97" fill="#FFF" mask="url(#b)"/></g><path d="M81.866 289.106c32.536 0 58.912-26.375 58.912-58.912 0-32.536-26.376-58.912-58.912-58.912-32.537 0-58.913 26.375-58.913 58.911 0 32.537 26.376 58.913 58.913 58.913" fill="#FFD2BB"/><path d="M22.953 126.906c12.677 0 22.953-10.276 22.953-22.953C45.906 91.277 35.63 81 22.953 81S0 91.277 0 103.953c0 12.677 10.276 22.953 22.953 22.953" fill="#FB8A8B"/><path d="M288.903 235c21.55 0 39.02-17.47 39.02-39.02 0-21.55-17.47-39.02-39.02-39.02-21.55 0-39.02 17.47-39.02 39.02 0 21.55 17.47 39.02 39.02 39.02" fill="#F76272"/></g></svg>