<svg xmlns="http://www.w3.org/2000/svg" id="Ebene_1" data-name="Ebene 1" viewBox="0 0 1366 938"><defs><style>.cls-1,.cls-3{fill:none}.cls-2{fill:#303f62}.cls-3{stroke:#303f62;stroke-linecap:round;stroke-miterlimit:10;stroke-width:8px}.cls-5{fill:#ff008f}</style><pattern id="Neues_Muster" width="264" height="212" data-name="Neues Muster" patternUnits="userSpaceOnUse"><path d="M0 0h264v212H0z" class="cls-1"/><path d="M125 220c-1 4-5 4-7 3a9 9 0 0 1-3-7 8 8 0 0 1 2-5 5 5 0 0 1 4-2c2 0 3 3 3 6a24 24 0 0 1 1 5z" class="cls-2"/><path d="M163 222c-3 1-5-2-5-4a8 8 0 0 1 3-6 7 7 0 0 1 6-1 5 5 0 0 1 3 2c1 1-1 3-3 5a23 23 0 0 1-4 4z" class="cls-2"/><path d="M142 220c-3 1-5-2-5-4a8 8 0 0 1 3-6 8 8 0 0 1 6-1 5 5 0 0 1 3 2c1 1-1 3-3 5a23 23 0 0 1-4 4z" class="cls-2"/><path d="M214 218c-3 0-5-3-4-5a8 8 0 0 1 5-5 7 7 0 0 1 5 0 5 5 0 0 1 2 3c1 2-1 3-3 4a22 22 0 0 1-5 3z" class="cls-2"/><path d="M36 216c1 2-2 4-4 4a8 8 0 0 1-6-3 7 7 0 0 1-1-5 5 5 0 0 1 2-3c2 0 4 1 5 3a21 21 0 0 1 4 4z" class="cls-2"/><path d="M266 210c2 3-1 6-3 6a8 8 0 0 1-7-2 8 8 0 0 1-2-5 5 5 0 0 1 1-4c1-1 4 0 6 2a24 24 0 0 1 5 3z" class="cls-2"/><path d="M1 210c2 3-1 6-3 6a8 8 0 0 1-6-2 8 8 0 0 1-3-5 5 5 0 0 1 2-4c1-1 4 0 6 2a23 23 0 0 1 4 3z" class="cls-2"/><path d="M271 191c3-1 5 2 5 4a8 8 0 0 1-3 6 8 8 0 0 1-6 2 5 5 0 0 1-3-3c-1-1 0-3 2-5a23 23 0 0 1 5-4z" class="cls-2"/><path d="M263 28c-2-2 1-4 3-4a7 7 0 0 1 5 3 6 6 0 0 1 1 4 4 4 0 0 1-2 3l-5-2a18 18 0 0 1-2-4z" class="cls-2"/><path d="M51 117c2-3 6-1 7 0a8 8 0 0 1 1 7 8 8 0 0 1-4 4 5 5 0 0 1-4 0c-2-1-2-3-1-6a23 23 0 0 1 1-5z" class="cls-2"/><path d="M88 184c1-3 5-1 6 0a8 8 0 0 1 1 7 7 7 0 0 1-4 4 5 5 0 0 1-4 0l-1-6a22 22 0 0 1 2-5z" class="cls-2"/><path d="M62 95c1-2 5-1 7 1a9 9 0 0 1 0 7 8 8 0 0 1-4 5 5 5 0 0 1-4 0l-1-7a24 24 0 0 1 2-6z" class="cls-2"/><path d="M67 185c1-3 5-1 6 0a8 8 0 0 1 0 7 7 7 0 0 1-4 4 5 5 0 0 1-3-1c-2 0-2-3-1-5a22 22 0 0 1 2-5z" class="cls-2"/><path d="M49 141c2-2 6-1 7 1a8 8 0 0 1 0 6 7 7 0 0 1-4 4 5 5 0 0 1-3 0c-2 0-2-3-1-5a23 23 0 0 1 1-6z" class="cls-2"/><path d="M79 147c2-3 6-1 7 1a8 8 0 0 1 0 6 7 7 0 0 1-4 4 5 5 0 0 1-4 0v-6a22 22 0 0 1 1-5z" class="cls-2"/><path d="M44 196c2-2 5 1 5 2a8 8 0 0 1-1 7 7 7 0 0 1-5 2 5 5 0 0 1-4-1c-1-1 0-4 1-6a22 22 0 0 1 4-4z" class="cls-2"/><path d="M49 165c2-2 5 1 6 3a8 8 0 0 1-1 6 7 7 0 0 1-5 3 5 5 0 0 1-3-1c-2-1-1-4 0-6a23 23 0 0 1 3-5z" class="cls-2"/><path d="M69 130c2-3 6-2 7 0a8 8 0 0 1 0 7 8 8 0 0 1-4 4 5 5 0 0 1-3 0c-2-1-2-3-1-6a23 23 0 0 1 1-5z" class="cls-2"/><path d="M9 163c3-2 6 0 6 2a8 8 0 0 1-2 7 7 7 0 0 1-5 2 5 5 0 0 1-3-1c-1-1 0-4 1-6a23 23 0 0 1 3-4z" class="cls-2"/><path d="M6 191c3-1 6 2 6 4a8 8 0 0 1-4 6 8 8 0 0 1-5 2 5 5 0 0 1-4-3l3-5a23 23 0 0 1 4-4z" class="cls-2"/><path d="M33 103c2-1 5 1 5 3a8 8 0 0 1-2 6 7 7 0 0 1-5 2 5 5 0 0 1-3-1c-1-1 0-4 1-6a21 21 0 0 1 4-4z" class="cls-2"/><path d="M7 84c3-2 5 1 5 3a7 7 0 0 1-2 5 6 6 0 0 1-5 2 4 4 0 0 1-3-2c-1-1 1-3 2-5a19 19 0 0 1 3-3z" class="cls-2"/><path d="M9 108c3-2 5 1 5 3a7 7 0 0 1-3 5 6 6 0 0 1-5 1 4 4 0 0 1-3-2l3-4a19 19 0 0 1 3-3z" class="cls-2"/><path d="M26 179c3-1 5 2 5 4a8 8 0 0 1-3 6 7 7 0 0 1-6 1 5 5 0 0 1-3-2c-1-1 1-4 3-5a22 22 0 0 1 4-4z" class="cls-2"/><path d="M67 209c3 1 2 5 1 6a8 8 0 0 1-6 2 7 7 0 0 1-5-3 5 5 0 0 1-1-4l6-2a22 22 0 0 1 5 1z" class="cls-2"/><path d="M30 151c1 3-2 5-4 5a8 8 0 0 1-6-3 7 7 0 0 1-1-5 5 5 0 0 1 2-3c2-1 4 1 5 2a22 22 0 0 1 4 4z" class="cls-2"/><path d="M16 136c1 3-2 5-4 5a7 7 0 0 1-5-3 7 7 0 0 1-1-5 5 5 0 0 1 1-3c2-1 4 1 6 2a21 21 0 0 1 3 4z" class="cls-2"/><path d="M36 92c0 3-4 3-6 2a8 8 0 0 1-2-6 7 7 0 0 1 2-5 5 5 0 0 1 4-2l2 6a23 23 0 0 1 0 5z" class="cls-2"/><path d="M128 79c-1 3-5 3-7 2a9 9 0 0 1-3-7 8 8 0 0 1 2-6 6 6 0 0 1 4-1c2 0 3 3 3 6a26 26 0 0 1 1 6z" class="cls-2"/><path d="M146 51c0 4-4 5-6 4a9 9 0 0 1-5-5 8 8 0 0 1 0-7 6 6 0 0 1 4-2l5 5a26 26 0 0 1 2 5z" class="cls-2"/><path d="M125 28c0 4-4 5-6 4a9 9 0 0 1-5-5 8 8 0 0 1 1-6 6 6 0 0 1 3-3c2 0 3 2 5 5a26 26 0 0 1 2 5z" class="cls-2"/><path d="M125 8c-1 4-5 4-7 2a9 9 0 0 1-3-6 8 8 0 0 1 2-6 5 5 0 0 1 4-1c2 0 3 3 3 5a24 24 0 0 1 1 6z" class="cls-2"/><path d="M163 10c-3 1-5-2-5-4a8 8 0 0 1 3-6 7 7 0 0 1 6-1 5 5 0 0 1 3 2c1 1-1 3-3 5a23 23 0 0 1-4 4z" class="cls-2"/><path d="M142 8c-3 1-5-2-5-4a8 8 0 0 1 3-6 8 8 0 0 1 6-2 5 5 0 0 1 3 3c1 1-1 3-3 5a23 23 0 0 1-4 4z" class="cls-2"/><path d="M148 31c-3 1-5-2-5-4a9 9 0 0 1 3-7 8 8 0 0 1 6-1 5 5 0 0 1 3 2c1 2-1 4-3 6a24 24 0 0 1-4 4z" class="cls-2"/><path d="M180 27c-3 0-4-3-4-5a8 8 0 0 1 5-5 7 7 0 0 1 5 0 5 5 0 0 1 3 2c0 2-2 4-4 5a23 23 0 0 1-5 3z" class="cls-2"/><path d="M169 46c-3 1-5-3-5-5a8 8 0 0 1 5-6 8 8 0 0 1 6 0 5 5 0 0 1 2 3c1 1-1 3-3 5a23 23 0 0 1-5 3z" class="cls-2"/><path d="M214 6c-3 0-5-4-4-5a8 8 0 0 1 5-5 7 7 0 0 1 5 0 5 5 0 0 1 2 3c1 1-1 3-3 4a22 22 0 0 1-5 3z" class="cls-2"/><path d="M199 22c-3 0-2-4-1-6a8 8 0 0 1 6-2 7 7 0 0 1 5 2 5 5 0 0 1 1 3c0 2-3 3-5 3a21 21 0 0 1-6 0z" class="cls-2"/><path d="M222 30c-3 0-4-4-3-6a8 8 0 0 1 6-4 7 7 0 0 1 5 2 5 5 0 0 1 2 3c0 1-2 3-5 3a22 22 0 0 1-5 2z" class="cls-2"/><path d="M199 48c-3-2-1-5 0-7a8 8 0 0 1 7 0 7 7 0 0 1 4 4 5 5 0 0 1 0 3c-1 2-3 2-6 1a22 22 0 0 1-5-1z" class="cls-2"/><path d="M182 87c-3-1-2-5 0-6a8 8 0 0 1 7-1 8 8 0 0 1 4 4 5 5 0 0 1 0 3c0 2-3 2-6 2a23 23 0 0 1-5-2z" class="cls-2"/><path d="M221 49c-1-3 2-5 4-5a8 8 0 0 1 5 3 7 7 0 0 1 2 6 5 5 0 0 1-2 2c-2 1-4 0-6-2a23 23 0 0 1-3-4z" class="cls-2"/><path d="M224 68c1-3 5-2 6-1a8 8 0 0 1 2 7 7 7 0 0 1-3 4 5 5 0 0 1-3 1c-2 0-2-3-2-5a22 22 0 0 1 0-6z" class="cls-2"/><path d="M186 58c1-3 4-3 6-3a8 8 0 0 1 4 6 7 7 0 0 1-1 5 5 5 0 0 1-3 2c-2 0-3-2-4-4a22 22 0 0 1-2-6z" class="cls-2"/><path d="M242 22c0-3 4-4 6-3a8 8 0 0 1 3 6 7 7 0 0 1-1 5 5 5 0 0 1-3 2c-2 0-3-2-4-5a22 22 0 0 1-1-5z" class="cls-2"/><path d="M209 80c2-3 6-1 6 1a8 8 0 0 1 0 6 7 7 0 0 1-4 4 5 5 0 0 1-4-1v-6a22 22 0 0 1 2-4z" class="cls-2"/><path d="M211 106c1-2 5 0 6 1a8 8 0 0 1 0 7 7 7 0 0 1-4 4 5 5 0 0 1-4-1v-5a22 22 0 0 1 2-6z" class="cls-2"/><path d="M151 63c3-3 6 0 7 2a8 8 0 0 1-1 6 8 8 0 0 1-5 4 5 5 0 0 1-4-1v-6a24 24 0 0 1 3-5z" class="cls-2"/><path d="M157 97c3-2 6 1 6 3a9 9 0 0 1-2 7 8 8 0 0 1-5 2 5 5 0 0 1-4-1c-1-2 0-4 2-6a24 24 0 0 1 3-5z" class="cls-2"/><path d="M142 85c3-1 5 3 5 5a9 9 0 0 1-3 6 8 8 0 0 1-6 1 5 5 0 0 1-4-2c-1-1 1-4 3-6a25 25 0 0 1 5-4z" class="cls-2"/><path d="M112 43c3-2 6 2 6 4a9 9 0 0 1-3 7 9 9 0 0 1-6 2 6 6 0 0 1-4-2c-1-2 1-5 3-7a26 26 0 0 1 4-4z" class="cls-2"/><path d="M22 40c3 0 4 3 4 5a7 7 0 0 1-4 4 7 7 0 0 1-5 1 5 5 0 0 1-2-2c-1-2 1-4 3-5a21 21 0 0 1 4-3z" class="cls-2"/><path d="M55 51c3-1 5 2 5 4a8 8 0 0 1-4 6 8 8 0 0 1-5 1 5 5 0 0 1-3-3c-1-1 1-3 3-5a23 23 0 0 1 4-3z" class="cls-2"/><path d="M253 42c3-1 4 2 3 4a7 7 0 0 1-3 4 6 6 0 0 1-5 0 4 4 0 0 1-2-2c0-2 1-3 3-4a19 19 0 0 1 4-2z" class="cls-2"/><path d="M106 88c3-1 5 3 4 5a9 9 0 0 1-5 6 8 8 0 0 1-6-1 6 6 0 0 1-3-3l5-5a25 25 0 0 1 5-2z" class="cls-2"/><path d="M87 50c4 0 4 5 3 7a9 9 0 0 1-7 3 8 8 0 0 1-6-2 6 6 0 0 1-1-3c0-2 2-4 5-4a26 26 0 0 1 6-1z" class="cls-2"/><path d="M74 72c3 0 4 5 3 7a9 9 0 0 1-7 3 8 8 0 0 1-6-1 6 6 0 0 1-1-4c0-2 2-3 5-4a25 25 0 0 1 6-1z" class="cls-2"/><path d="M68 31c3 1 3 5 2 7a9 9 0 0 1-7 3 8 8 0 0 1-5-2 5 5 0 0 1-2-4c1-2 4-3 6-3a24 24 0 0 1 6-1z" class="cls-2"/><path d="M59 9c3 0 4 4 2 6a8 8 0 0 1-6 3 8 8 0 0 1-5-1 5 5 0 0 1-2-4c0-1 3-3 5-3a23 23 0 0 1 6-1z" class="cls-2"/><path d="M40 22c3 1 3 5 2 6a8 8 0 0 1-6 3 7 7 0 0 1-5-3 5 5 0 0 1-1-3l5-3a22 22 0 0 1 5 0z" class="cls-2"/><path d="M19 9c2 1 2 5 1 6a7 7 0 0 1-5 2 6 6 0 0 1-5-2 4 4 0 0 1-1-3c0-2 3-2 5-2a20 20 0 0 1 5-1z" class="cls-2"/><path d="M36 3c1 3-2 5-4 5a8 8 0 0 1-6-3 7 7 0 0 1-1-5 5 5 0 0 1 2-3c2-1 4 1 5 2a22 22 0 0 1 4 4z" class="cls-2"/><path d="M81 8c-2-3 0-6 2-7a9 9 0 0 1 7 0 8 8 0 0 1 3 5 5 5 0 0 1 0 4c-1 2-4 1-7 0a24 24 0 0 1-5-2z" class="cls-2"/><path d="M87 28c-2-3 0-7 3-7a9 9 0 0 1 7 1 8 8 0 0 1 3 6 6 6 0 0 1-1 3c-1 2-4 1-7 0a25 25 0 0 1-5-3z" class="cls-2"/><path d="M90 73c-2-2 0-6 2-7a9 9 0 0 1 8 1 8 8 0 0 1 4 5 6 6 0 0 1-1 4c-2 2-4 1-7 0a26 26 0 0 1-6-3z" class="cls-2"/><path d="M12 68c-2-2 1-5 3-5a7 7 0 0 1 5 2 7 7 0 0 1 2 4 4 4 0 0 1-1 3c-2 1-4 0-6-1a20 20 0 0 1-3-3z" class="cls-2"/><path d="M-2 28c-1-2 2-4 4-4a7 7 0 0 1 4 3 6 6 0 0 1 1 4 4 4 0 0 1-1 3l-5-2a18 18 0 0 1-3-4z" class="cls-2"/><path d="M68 172c-2-1-2-5 0-6a8 8 0 0 1 6-2 7 7 0 0 1 5 3 5 5 0 0 1 0 3c0 2-3 2-5 2a23 23 0 0 1-6 0z" class="cls-2"/><path d="M244 216c0 3-4 3-6 2a8 8 0 0 1-3-5 7 7 0 0 1 2-6 5 5 0 0 1 3-1c2 0 3 2 3 5a22 22 0 0 1 1 5z" class="cls-2"/><path d="M232 197c-1 3-5 2-6 0a8 8 0 0 1-1-7 7 7 0 0 1 4-4 5 5 0 0 1 4 0l1 6a23 23 0 0 1-2 5z" class="cls-2"/><path d="M266-2c2 3-1 6-3 6a8 8 0 0 1-7-2 8 8 0 0 1-2-6 5 5 0 0 1 1-3c1-1 4 0 6 1a24 24 0 0 1 5 4z" class="cls-2"/><path d="M249 143c2-2 6 0 7 1a9 9 0 0 1 0 7 8 8 0 0 1-4 5 5 5 0 0 1-4-1c-2-1-1-3-1-6a24 24 0 0 1 2-6z" class="cls-2"/><path d="M246 186c-2-2 0-6 2-7a9 9 0 0 1 7 1 8 8 0 0 1 3 5 5 5 0 0 1 0 4h-7a24 24 0 0 1-5-3z" class="cls-2"/><path d="M229 160c2-3 5-2 6 0a8 8 0 0 1 1 7 7 7 0 0 1-4 4 5 5 0 0 1-3 0c-2-1-2-3-1-6a23 23 0 0 1 1-5z" class="cls-2"/><path d="M206 181c2-3 6-1 7 0a8 8 0 0 1 0 7 7 7 0 0 1-4 4 5 5 0 0 1-3 0c-2-1-2-4-1-6a22 22 0 0 1 1-5z" class="cls-2"/><path d="M191 208c1-2 5-1 6 1a8 8 0 0 1 1 6 7 7 0 0 1-4 4 5 5 0 0 1-4 0l-1-5a22 22 0 0 1 2-6z" class="cls-2"/><path d="M187 163c2-2 5-1 6 1a8 8 0 0 1 0 7 7 7 0 0 1-4 3 5 5 0 0 1-4 0v-6a22 22 0 0 1 2-5z" class="cls-2"/><path d="M188 189c3-1 5 2 5 4a8 8 0 0 1-3 6 7 7 0 0 1-6 1 5 5 0 0 1-3-2l3-5a22 22 0 0 1 4-4z" class="cls-2"/><path d="M179 146c2-2 5 0 6 2a8 8 0 0 1 0 6 7 7 0 0 1-4 4 5 5 0 0 1-4-1v-6a22 22 0 0 1 2-5z" class="cls-2"/><path d="M186 104c3-2 5 2 5 4a8 8 0 0 1-3 5 7 7 0 0 1-6 2 5 5 0 0 1-3-2l3-6a22 22 0 0 1 4-3z" class="cls-2"/><path d="M167 175c2-2 5 1 6 2a8 8 0 0 1-1 7 7 7 0 0 1-5 3 5 5 0 0 1-4-1c-1-1 0-4 1-6a22 22 0 0 1 3-5z" class="cls-2"/><path d="M150 146c3-2 5 1 6 3a8 8 0 0 1-2 6 7 7 0 0 1-5 2 5 5 0 0 1-4-1c-1-1 0-4 2-6a23 23 0 0 1 3-4z" class="cls-2"/><path d="M143 125c2-2 5 1 5 3a8 8 0 0 1-2 6 7 7 0 0 1-5 2 5 5 0 0 1-3-1c-1-2 0-4 1-6a23 23 0 0 1 4-4z" class="cls-2"/><path d="M146 171c2-2 5 1 5 3a8 8 0 0 1-2 6 7 7 0 0 1-5 2 5 5 0 0 1-4-2c-1-1 1-4 2-6a21 21 0 0 1 4-3z" class="cls-2"/><path d="M157 190c3-1 5 2 5 4a8 8 0 0 1-3 6 7 7 0 0 1-5 1 5 5 0 0 1-3-2c-1-2 0-4 2-5a22 22 0 0 1 4-4z" class="cls-2"/><path d="M84 110c3-1 5 2 5 4a8 8 0 0 1-3 6 7 7 0 0 1-6 1 5 5 0 0 1-3-2c-1-1 1-3 3-5a23 23 0 0 1 4-4z" class="cls-2"/><path d="M123 140c-2 2-5-1-6-3a8 8 0 0 1 3-7 8 8 0 0 1 5-2 5 5 0 0 1 4 2c1 1 0 4-2 6a23 23 0 0 1-4 4z" class="cls-2"/><path d="M112 115c2 2-1 5-4 5a9 9 0 0 1-6-2 8 8 0 0 1-2-6 5 5 0 0 1 2-3c1-1 4 0 6 2a24 24 0 0 1 4 4z" class="cls-2"/><path d="M133 118c-2 3-6 0-6-2a8 8 0 0 1 1-7 8 8 0 0 1 5-3 5 5 0 0 1 4 1c1 1 0 4-1 6a24 24 0 0 1-3 5z" class="cls-2"/><path d="M167 137c-3 2-6 0-7-2a8 8 0 0 1 2-7 7 7 0 0 1 5-3 5 5 0 0 1 3 1c1 1 1 4-1 6a23 23 0 0 1-2 5z" class="cls-2"/><path d="M198 136c-2 3-5 1-6-1a8 8 0 0 1 0-7 7 7 0 0 1 5-3 5 5 0 0 1 3 1c2 1 1 3 0 6a22 22 0 0 1-2 4z" class="cls-2"/><path d="M211 156c-2 2-6 0-6-2a8 8 0 0 1 1-7 7 7 0 0 1 5-3 5 5 0 0 1 3 1v6a22 22 0 0 1-3 5z" class="cls-2"/><path d="M231 137c-1 3-5 1-6-1a8 8 0 0 1 0-7 8 8 0 0 1 4-4 5 5 0 0 1 4 1l1 6a23 23 0 0 1-3 5z" class="cls-2"/><path d="M238 112c-2 3-6 2-7 0a8 8 0 0 1 0-7 8 8 0 0 1 4-4 5 5 0 0 1 4 0l1 6a24 24 0 0 1-2 5z" class="cls-2"/><path d="M251 95c-2 3-6 1-7 0a9 9 0 0 1-1-7 8 8 0 0 1 4-5 5 5 0 0 1 4 0c2 1 2 4 2 6a24 24 0 0 1-2 6z" class="cls-2"/><path d="M256 126c-3 2-6-1-7-3a9 9 0 0 1 2-7 8 8 0 0 1 5-3 5 5 0 0 1 4 1c1 1 0 4-1 6a24 24 0 0 1-3 6z" class="cls-2"/><path d="M263 65c2 3-2 5-4 5a8 8 0 0 1-6-3 8 8 0 0 1-1-6 5 5 0 0 1 2-3c2-1 4 1 6 2a24 24 0 0 1 3 5z" class="cls-2"/><path d="M113 206c2 3-1 5-3 5a8 8 0 0 1-6-3 7 7 0 0 1-1-6 5 5 0 0 1 2-3l5 3a22 22 0 0 1 3 4z" class="cls-2"/><path d="M130 198c2 2-1 5-3 5a8 8 0 0 1-6-2 7 7 0 0 1-2-5 5 5 0 0 1 1-3c1-1 4 0 6 1a23 23 0 0 1 4 4z" class="cls-2"/><path d="M115 186c1 3-2 5-4 5a8 8 0 0 1-5-3 7 7 0 0 1-2-5 5 5 0 0 1 2-3c2-1 4 0 6 2a22 22 0 0 1 3 4z" class="cls-2"/><path d="M112 166c2 3-2 5-4 5a8 8 0 0 1-5-3 7 7 0 0 1-1-5 5 5 0 0 1 2-3c1-1 3 0 5 2a22 22 0 0 1 3 4z" class="cls-2"/><path d="M130 160c2 3-2 5-4 5a8 8 0 0 1-5-3 7 7 0 0 1-2-5 5 5 0 0 1 2-3c2-1 4 0 6 2a22 22 0 0 1 3 4z" class="cls-2"/><path d="M103 139c2 3-2 5-4 5a8 8 0 0 1-5-3 7 7 0 0 1-1-5 5 5 0 0 1 2-3c1-1 3 0 5 2a23 23 0 0 1 3 4z" class="cls-2"/><path d="M1-2c2 3-1 6-3 6a8 8 0 0 1-6-2 8 8 0 0 1-3-6 5 5 0 0 1 2-3c1-1 4 0 6 1a24 24 0 0 1 4 4z" class="cls-2"/><path d="M67-3c3 1 2 4 1 6a8 8 0 0 1-6 2 7 7 0 0 1-5-3 5 5 0 0 1-1-4l6-2a23 23 0 0 1 5 1z" class="cls-2"/><path d="M244 4c0 3-4 3-6 2a8 8 0 0 1-3-6 7 7 0 0 1 2-5 5 5 0 0 1 3-2c2 1 3 3 3 5a22 22 0 0 1 1 6z" class="cls-2"/><path d="M191-4c1-2 5-1 6 0a8 8 0 0 1 1 7 7 7 0 0 1-4 4 5 5 0 0 1-4 0l-1-6a22 22 0 0 1 2-5z" class="cls-2"/></pattern><pattern id="New_Pattern_Swatch_2" width="290" height="290" data-name="New Pattern Swatch 2" patternUnits="userSpaceOnUse"><path d="M0 0h290v290H0z" class="cls-1"/><path d="M173 277c20 0 4 26 21 29" class="cls-3"/><path d="M254 275q15 11 8 28" class="cls-3"/><path d="M290 158c15 0 5 25 19 27" class="cls-3"/><path d="M287 199c4-2 19 29 32 24" class="cls-3"/><path d="M279 227q18 7 15 26" class="cls-3"/><path d="M24 23C7 32 37 49 36 57" class="cls-3"/><path d="M55 29c-2 10 14 13 20 15" class="cls-3"/><path d="M268 257c1-10-9-18-21-14" class="cls-3"/><path d="M77 11c0-1 28 7 32 33" class="cls-3"/><path d="M116 10c17 2 6 24 21 29" class="cls-3"/><path d="M158 23c10-9 19 17 27 18" class="cls-3"/><path d="M210 29c-10 11 12 22 9 40" class="cls-3"/><path d="M173-13c20 0 4 26 21 29" class="cls-3"/><path d="M225 6c-1 19 20 20 18 35" class="cls-3"/><path d="M264 28c15 1 12 20 24 20" class="cls-3"/><path d="M254-15q15 11 8 28" class="cls-3"/><path d="M245 54c7-2 8 24 20 25" class="cls-3"/><path d="M282 61c13-1 7 29 20 34" class="cls-3"/><path d="M254 95c-1 12 34 20 28 25" class="cls-3"/><path d="M233 88c-1 4 0 36 16 34" class="cls-3"/><path d="M256 141c25 0 20 29 19 28" class="cls-3"/><path d="M219 134c0-1 7 21 23 17" class="cls-3"/><path d="M191 59s7 40 21 37" class="cls-3"/><path d="M154 57c24 8-5 22 11 30" class="cls-3"/><path d="M183 103c13-6 13 28 25 31" class="cls-3"/><path d="M157 122c16 4 11 25 22 29" class="cls-3"/><path d="M127 62c10 4 1 23 14 29" class="cls-3"/><path d="M91 55c2 31 14 12 27 33" class="cls-3"/><path d="M51 64c-1 11 31 10 27 20" class="cls-3"/><path d="M109 104c2 14 34 1 29 21" class="cls-3"/><path d="M80 101c13 0 3 27 21 27" class="cls-3"/><path d="M36 80c11 0 13 35 26 30" class="cls-3"/><path d="M17 107c3 5 24 14 23 17" class="cls-3"/><path d="M53 132c13 2 20 8 17 22" class="cls-3"/><path d="M119 150c21-9 17 22 32 23" class="cls-3"/><path d="M84 161a88 88 0 0 0 28 20" class="cls-3"/><path d="M44 167s9 33 29 33" class="cls-3"/><path d="M5 138c10-2 23 11 26 19" class="cls-3"/><path d="M0 158c15 0 5 25 19 27" class="cls-3"/><path d="M-3 199c4-2 19 29 32 24" class="cls-3"/><path d="M52 213c-1 2 14 33 13 33" class="cls-3"/><path d="M32 240c-14 1 17 21 16 25" class="cls-3"/><path d="M-11 227q18 7 15 26" class="cls-3"/><path d="M10 279c14-3 21 22 33 17" class="cls-3"/><path d="M85 223c26-2 29 26 29 26" class="cls-3"/><path d="M100 196c-1 10 17 10 21 15" class="cls-3"/><path d="M134 234c3 18 25 1 25 17" class="cls-3"/><path d="M123 265c12 3 11 26 21 25" class="cls-3"/><path d="M69 267c15-4 18 20 33 19" class="cls-3"/><path d="M135 195c4 8 16 2 22 6 6 5 0 15 9 21" class="cls-3"/><path d="M175 182c15-3 11 25 24 27" class="cls-3"/><path d="M197 161c-6 14 26 15 23 32" class="cls-3"/><path d="M242 172c1 9 23 10 26 27" class="cls-3"/><path d="M236 209c17-11 14 13 29 16" class="cls-3"/><path d="M203 229c16-9 13 23 28 21" class="cls-3"/><path d="M183 255c22-9 21 26 36 21" class="cls-3"/><path d="M-26 28c15 1 12 20 24 20" class="cls-3"/><path d="M-8 61c13-1 7 29 20 34" class="cls-3"/><path d="M10-11c14-3 21 22 33 17" class="cls-3"/><path d="M123-25c12 3 11 26 21 25" class="cls-3"/><path d="M69-23c15-4 18 20 33 19" class="cls-3"/></pattern></defs><path fill="#6058c5" d="M1366 0h-286c-4 6-8 10-11 9-9 14-25 30-28 44-9 14-16 20-28 44-9 14-21 21-28 43-10 15-18 13-28 43-9 14-28 24-26 41l-25 39c-16 25-32 45-42 66-25 38-42 50-40 61-11 17-5 52 21 41l57 4c18 1 54 10 63 4l79 6c14 1 32-2 43 2 15 1 27-3 46 4 16 1 33-10 48 3 16 1 44 14 48 3 16 1 25 19 48 4 16 1 25-7 47 3 15 1 22 12 42 5z"/><path d="M0 485c10 4 19 7 22 1 16 4 23 23 48 12 15 3 25-3 46 10 15 4 20 18 45 11l42 10c27 7 51-1 77 18 23 6 51 11 61 15 35 8 61 18 56 13 21 5 40-19 31-36 0 0-1-24-21-51-7-16-7-48-23-57-9-22-19-39-29-72-5-13-11-33-16-40-5-14-23-33-17-42-5-14-9-36-17-42-6-14-14-22-17-44-6-14-8-36-17-44-6-14-10-36-18-42-6-14-5-33-17-42-5-13-3-33-15-39L210 0H0z" class="cls-5"/><path fill="#dde4f2" d="M595 575c-11-6-32-13-41-13-14-3-37-8-43-7l-44-7c-17-5-48-4-51-12-17-4-36-10-51-11-16-4-34-13-50-10-17-3-32-8-50-9-17-3-32 2-50-8l-51-6c-20-3-43 0-61-8-12-1-24 6-43-7-16-3-33 6-53-7l-7-1v469h226a2 2 0 0 1 1-1c7-8 21-11 22-23 8-8 22-17 23-23 12-12 26-28 37-35 13-11 32-29 39-31 13-10 31-14 41-30 14-9 28-22 42-28 14-9 28-8 42-29 15-10 26-16 42-31 10-7 14-22 31-22 10-8 16-21 30-24 9-9 22-15 25-28 6-11 15-24 13-34-1-10-13-14-19-24z"/><path fill="#0024dd" d="M146 18a30 30 0 0 0 1 4c3 15 11 27 11 49a31 31 0 0 0 1 7c5 16 13 31 12 50a31 31 0 0 0 1 7c4 18 8 29 12 54 4 18 5 35 11 50a31 31 0 0 1 1 4l6 29a31 31 0 0 0 36 26l2-1a333 333 0 0 1 33-6l2-1c15-3 28-3 49-10a33 33 0 0 1 3-1c18-4 38-10 56-13 19-4 33-3 56-12a31 31 0 0 1 5-1c17-4 34-5 49-11a30 30 0 0 1 4-1c14-3 27-7 38-14l2-1c11-6 17-14 29-21a31 31 0 0 0 6-4l22-25a29 29 0 0 0 2-3c6-10 10-21 14-33l1-2c4-11 9-19 7-34a31 31 0 0 1 0-5c0-12 0-30-3-37a23 23 0 0 1-1-2c-4-12-11-23-14-33a32 32 0 0 0-2-7L586 0H144l2 18z"/><path d="M1366 350l-12 4c-11 13-17 32-36 33-2 4-4 5-8 4-14-10-4-23-3-36-4-13 0-40-25-20-2 1-6-1-7-3-9-9-16-3-23 4-5 5-9 12-19 10 1-17 0-35 2-52 5-32-2-64-8-95-3-13-9-17-20-6l-46 43c-2 9-8 14-13 20-29 35-64 61-97 90-7 6-8 21-21 19-17 33-45 53-72 73h-1c-10 21-23 35-44 37-58 53-124 92-183 143a99 99 0 0 0-36 75v78c6 16 15 23 31 15 11-5 19 0 17 16a217 217 0 0 0 8 96c3 7 5 14-3 20l-20 20h151c5-6 12-8 21-9 0-11 3-18 14-12 8-12 18-21 28-29-5-8-10-17-3-27 5-9 12 3 18 2 12-20 32-31 42-53 1-2 8-1 12-1 1-8 3-17 12-18 11-17 23-33 43-33 4-6 10-5 15-6 1-21 20-26 30-36 20-20 35-46 62-56 12-23 32-34 51-45 3-9 8-11 16-9 7-8 11-20 23-20l10-12c-5-26 10-16 20-13 4-3 8-6 13-1 8 11 19 8 30 8 6-17 17-29 31-37z" class="cls-5"/><path fill="#ffc4bc" d="M861 0l8 11 14 20c4 6 9 7 13 18 5 6 13 14 13 18l13 16c4 6 12 9 11 16 7 9 12 19 19 25 10 14 21 23 17 23 7 9 16 11 28 12 10 0 16-8 25-17 0 0 11-6 12-23l14-26c3-5 11-10 8-16 3-6 5-13 9-17l10-18 10-19 10-20 1-3zM414 490c-5 1-9 0-13-2q-7 8-9-2c-5 0-8-3-11-6-4 3-8 10-12 1-4-2-6-7-12-7-4 5-7 3-9-2-4 4-11 4-13 0-3-5 1-12 5-15 10-7 17-17 26-24-2-3-4-5-8-5-9 1-18-3-26-6l-21-5c-12-3-25-1-36-7l-25 24a42 42 0 0 1-36 11c-36-5-72-16-108-20-10 2-19 2-27-4-5 4-11 2-16 1-11-1-22 0-33-4-3-5-8-1-13-1l-17-3v98c6 3 3 9 2 14 6-5 10-5 14 1 3-2 5-1 8-1 6-6 11-2 16 2 3-2 6-1 8 2 7 1 15-2 21 4 4-7 8-5 11 1 3 2 6-1 9 0l3 2c7-4 13-10 22-11 8-1 8 2 6 8a16 16 0 0 1-5 8c-3 3-4 6 0 9l6 6c8-5 18-3 28 5 4 3 9 4 14 4l40 2 28 3c17-1 32 3 48 7 12-5 24-4 34 3a25 25 0 0 1 17 2c9-5 18-5 26 0 7 0 13-4 20-1 1-9 6-13 15-13 4-3 3-12 12-9 1-3 2-7 7-9 3-7 6-13-4-18-4-3-2-7 1-11a96 96 0 0 1 9-9c5-4 7-9 4-16-5 0-4-4-6-7z"/><path d="M1366 819a39 39 0 0 0-6-5c-18-11-43-8-60 4-10 6-18 14-25 22-5 6-10 11-16 15-8 7-22 11-28 5a7 7 0 0 1-1-1c-3-4-3-12-1-19 3-8 9-16 15-24l5-7c7-12 18-29 16-49a50 50 0 0 0-10-26 56 56 0 0 0-13-13c-14-9-30-12-45-8-17 6-28 18-38 28l-8 10c-9 8-21 13-25 9-2-1-3-4-3-7 0-6 2-14 6-21l4-8c9-14 19-31 17-51-3-25-26-46-53-48-21-1-44 8-62 26-10 10-18 21-25 33l-8 13-1 2a16 16 0 0 0 29 16l2-3 6-11c6-10 12-20 20-27 11-11 25-17 37-16 11 0 21 9 22 18s-5 20-12 31l-5 9c-8 13-12 30-9 45a39 39 0 0 0 15 25c10 8 24 10 38 6a72 72 0 0 0 30-18l9-10c8-9 15-17 23-19h1c5-2 11-1 16 3a23 23 0 0 1 6 5 17 17 0 0 1 3 9c1 8-3 17-10 28l-6 8c-6 9-13 19-18 31-5 16-4 33 3 46a42 42 0 0 0 8 10c20 18 51 12 71-4l19-19c6-6 12-13 19-17s17-7 22-4a8 8 0 0 1 4 2c4 6-2 19-9 28l-8 8a87 87 0 0 0-26 43 47 47 0 0 0 0 16h33a17 17 0 0 0 0-4 16 16 0 0 1-1-4 16 16 0 0 0 1-2c2-9 10-18 18-27l8-8a91 91 0 0 0 6-8z" class="cls-2"/><path fill="url(#Neues_Muster)" d="M205 0c4 8 7 16 8 24 6 14 12 30 24 37 9 11 11 18 31 29 12 9 26 17 38 21 14 5 28 6 43 10 14 1 29-5 45-1 2 15 12 26 13 43 6 14 16 26 23 37 9 12 17 17 32 30 11 9 18 18 38 21 13 5 30 13 42 10 15 2 26 1 45-1 16-2 28-9 44-12 13-6 25-10 37-23 11-10 26-19 29-32 8-12 19-26 20-40 5-14 8-23 10-45 1-16-2-35-3-50-3-18-11-32-10-58z"/><path fill="url(#New_Pattern_Swatch_2)" d="M249 659L65 935a29 29 0 0 0-2 3h399L299 660a29 29 0 0 0-50-1z"/></svg>