<svg xmlns="http://www.w3.org/2000/svg" viewBox="0 0 595.28 841.89">
  <defs>
    <style>
      .cls-2{fill:#fff}.cls-3{fill:#e4ecf5}.cls-16,.cls-4,.cls-5,.cls-7{fill:none}.cls-4,.cls-7{stroke:#15216b}.cls-16,.cls-4,.cls-5,.cls-7{stroke-linecap:round;stroke-linejoin:round}.Graphic-Style-5{fill:#ced6db;mix-blend-mode:multiply}.cls-5{stroke:#bfcfe2}.cls-6{fill:#bfcfe2}.cls-7{stroke-dasharray:1.93 2.89}.cls-16{stroke:#fb8a8b}.cls-17{fill:#fb8a8b}.cls-18{font-size:18px;fill:#15216b;font-family:Domus-Bold,Domus;font-weight:700}
    </style>
  </defs>
  <g style="isolation:isolate">
    <g id="Layer_2" data-name="Layer 2">
      <path class="cls-2" d="M206 193.88l-.88 57c-11.54 1.08-56.43-1.66-56.43-1.66l-1.6-2 3.46-52.89z"/>
      <path class="cls-3" d="M205.13 250.89l-58.49 56.43 2.06-58.09s44.89 2.77 56.43 1.66zM150.56 194.37l-3.46 52.89h-55s48.77-44.48 58.46-52.89z"/>
      <path class="cls-2" d="M147.1 247.26l1.6 1.97-2.06 58.09-58.45-1.24 3.9-58.82h55.01z"/>
      <path class="cls-4" d="M146.64 307.32l-58.45-1.24 3.9-58.82h55.01l3.46-52.89 55.45-.49-.88 57.01-58.49 56.43z"/>
      <path class="cls-4" d="M146.64 307.32l2.06-58.09s44.89 2.74 56.43 1.66M92.09 247.26s48.78-44.48 58.47-52.89"/>
      <path class="Graphic-Style-5" d="M148.7 249.23l-5.59 58.09 2.8-.01 2.79-58.08zM147.1 247.26H92.09v3.88l55.01-3.88zM146.75 304.19l55.1-53.11 3.28-.19-58.49 56.43.11-3.13z"/>
      <path class="cls-3" d="M157.61 420.11c4.07 14.7 8.12 29.4 8.12 29.76 0 0-37.9-20.27-39.23-21.81v-.07l31.14-7.88z"/>
      <path class="cls-2" d="M149.34 390.35s4.15 14.88 8.26 29.76L126.46 428c0-.89 22.88-37.65 22.88-37.65z"/>
      <path class="cls-3" d="M165.73 449.87c0 .72-21.3 40.42-21.79 40.9l-17.39-62.46a.43.43 0 0 0 0-.24c1.28 1.53 39.18 21.8 39.18 21.8z"/>
      <path class="cls-2" d="M126.55 428.31l17.39 62.46c-.48.49-39.8-22.08-39.8-22.08s22.38-36.26 22.41-40.38zM149.34 390.35s-22.88 36.76-22.88 37.65L111 367.76c.61 0 38.34 22.59 38.34 22.59z"/>
      <path class="cls-2" d="M126.55 428.3c0 4.12-22.41 40.38-22.41 40.38l-8.47-31.61 30.79-9.07z"/>
      <path class="cls-3" d="M111 367.76L126.46 428c-1.72-1.72-39.26-22.51-39.26-22.51s23.12-37.73 23.8-37.73z"/>
      <path class="cls-3" d="M126.46 428l-30.79 9.09-8.47-31.6s37.54 20.78 39.26 22.51z"/>
      <path class="cls-5" d="M95.67 437.07l30.79-9.08 31.14-7.88"/>
      <path class="cls-5" d="M126.55 428.3l-.09-.31-15.49-60.24M143.94 490.77l-17.39-62.46"/>
      <path class="cls-4" d="M104.14 468.69l-8.47-31.61-8.47-31.6s23.12-37.72 23.77-37.72 38.37 22.59 38.37 22.59 4.15 14.88 8.26 29.76c4.07 14.7 8.12 29.4 8.12 29.76 0 .72-21.3 40.42-21.79 40.9s-39.79-22.08-39.79-22.08zM126.46 428c-1.72-1.72-39.26-22.51-39.26-22.51"/>
      <path class="cls-4" d="M104.14 468.69s22.38-36.26 22.41-40.38a.43.43 0 0 0 0-.24"/>
      <path class="cls-4" d="M165.73 449.87s-37.9-20.27-39.23-21.81v-.07c0-.88 22.88-37.64 22.88-37.64"/>
      <path class="Graphic-Style-5" d="M126.46 427.99l35.35 29.61 3.55-9.23-38.9-20.38zM104.14 468.69l22.34-37.82c0-.07.16 0 .12.06l-19 39.76zM132.85 450.94l13.06 36.34-1.97 3.48-11.09-39.82z"/>
      <path class="cls-3" d="M480.27 388.89l31.07-7.56S493.71 408.92 489.4 415l-1.69-1.35z"/>
      <path class="cls-3" d="M519.22 411.15l-30.75 5a5.77 5.77 0 0 0 .93-1.16c4.31-6 21.94-33.62 21.94-33.62s3.89 14.63 7.88 29.78zM488.81 418.87l.81.42-.3.48c-3.45 5.72-23.17 39.9-23.17 39.9l-8.47-31.61z"/>
      <path class="cls-3" d="M497.13 450.21l.37 1.46-31.35 8s19.72-34.18 23.17-39.9l.76.08z"/>
      <path class="cls-2" d="M527.74 444c-1.15-.11-37.4-25.48-37.88-25 0 0-.09.13-.21.32l-.81-.42-.34-2.76 30.75-5c4.17 15.97 8.49 32.45 8.49 32.86z"/>
      <path class="cls-2" d="M527.71 444l-30.21 7.7-.37-1.46-7.05-30.36-.76-.08.3-.48c.12-.19.19-.3.21-.32.48-.51 36.73 24.86 37.88 25zM487.71 413.6l1.69 1.4a5.77 5.77 0 0 1-.93 1.16c-.65 0-39.27-19.66-39.27-19.66l31.07-7.56z"/>
      <path class="cls-2" d="M488.47 416.11l.34 2.76-31.13 9.19-8.48-31.61s38.62 19.66 39.27 19.66z"/>
      <path class="cls-5" d="M488.47 416.11l30.75-4.96.4-.06M480.27 388.89l7.44 24.71M488.81 418.87l-31.13 9.19M497.13 450.21l-7.05-30.36"/>
      <path class="cls-4" d="M527.71 444c-1.15-.11-37.4-25.48-37.88-25 0 0-.09.13-.21.32l-.3.48c-3.45 5.72-23.17 39.9-23.17 39.9l-8.47-31.61-8.48-31.61s38.62 19.66 39.27 19.66a5.77 5.77 0 0 0 .93-1.16c4.31-6 21.94-33.62 21.94-33.62s3.89 14.68 7.88 29.82c4.2 16 8.52 32.44 8.52 32.81M449.2 396.45l31.07-7.56 31.07-7.56"/>
      <path class="cls-4" d="M466.15 459.67l31.35-8 30.21-7.7.03-.01"/>
      <path class="Graphic-Style-5" d="M488.81 418.87l-24.24 34.92 1.58 5.88 22.66-40.8zM490.08 418.72l36.61 21 1.02 4.25-37.63-25.25zM455.27 400.44l34.05 18.43 23-33.86-1.42-3-22.09 34.67s-34.22-16.92-33.54-16.24z"/>
      <path class="cls-2" d="M162.79 578.37c3 17 5.66 33.76 5.06 33.76L127 583.34l-.87-.61-.83 1.38-.45-3.77-28.67 8.31-6.06-32.19s18.68 11.11 24.52 13.54l21.69.85s2 13.51 3.63 15.15c.04 0 20.63-4.57 22.83-7.63z"/>
      <path class="cls-2" d="M127 583.34l40.84 28.79c-.63 0-18.55 2.7-35.47 5.27l-5.92-33.28z"/>
      <path class="cls-3" d="M136.33 570.86l-21.69-.86 6-19-.22-1.2c17.08-3.11 35.13-6.08 35.6-6.08s3.78 17.42 6.81 34.69C160.59 581.43 140 586 140 586c-1.69-1.63-3.67-15.14-3.67-15.14zM126.46 584.12l5.92 33.28-29.92 4.6 22.85-37.84.83-1.38.87.61zM125.31 584.11l-22.85 37.84-6.27-33.3 28.67-8.31.45 3.77z"/>
      <path class="cls-2" d="M120.38 549.76l.22 1.2-6 19c-5.84-2.44-24.51-13.55-24.51-13.55.39-.93 14.91-3.85 30.29-6.65z"/>
      <path class="cls-5" d="M136.33 570.86l13.07-16.84M114.64 570.01l5.96-19.05M139.96 586.01l14.28-35.59M126.46 584.12l5.92 33.28M124.86 580.34l-28.67 8.31-.3.06"/>
      <path class="cls-4" d="M90.13 556.46l6.06 32.19 6.27 33.3 29.92-4.55c16.92-2.57 34.84-5.27 35.47-5.27s-2.09-16.81-5.06-33.76c-3-17.27-6.36-34.69-6.81-34.69s-18.52 3-35.6 6.08c-15.38 2.8-29.9 5.72-30.25 6.7z"/>
      <path class="cls-4" d="M90.13 556.46s18.67 11.11 24.51 13.54c0 0 24.39-15.19 37.29-23.47M162.79 578.37C160.59 581.43 140 586 140 586c-1.65-1.64-3.63-15.15-3.63-15.15l-21.73-.85M167.85 612.13l-40.84-28.79-.87-.61-.83 1.38-22.85 37.84"/>
      <path class="Graphic-Style-5" d="M101.28 615.66l24.86-32.93-23.68 39.22-1.18-6.29zM114.64 570.49l17.74 6 6.34 14.28 24.42-7.77-.42-4.08S146.36 586 140 586.34c0 0-2.05-3.94-4.08-14.9z"/>
      <path class="Graphic-Style-5" d="M126.14 582.73l41.45 25.38.26 4.02-41.71-29.4z"/>
      <path class="cls-3" d="M367.28 562l-36.17 5.77c-3.58.79-35.94 7.09-35.94 7.09l-3.11-1.86 2.74-.74c-1.59-9.16-4.25-29.64-4.25-29.64l33.85-8.54zM296.57 581.35l-.13.18-25.68 34.13-6.64-32.84 31.05-6.38.89 4.53.51.38zM298.16 582.82l6.02 26.57-33.42 6.27 25.68-34.13 1.72 1.29z"/>
      <path class="cls-2" d="M331.11 567.8l7 35.23-39.71-24.12-1.84 2.44-.51-.38-.89-4.53v-1.55s32.37-6.3 35.95-7.09z"/>
      <path class="cls-2" d="M338.12 603.03l-33.94 6.36-6.02-26.57-1.72-1.29.13-.18 1.84-2.44 39.71 24.12zM295.17 574.89v1.55l-31.05 6.38-6.45-31.82c3.37 3.37 26 17.06 34.39 22.08z"/>
      <path class="cls-2" d="M294.8 572.3l-2.74.74c-8.37-5-31-18.71-34.39-22.08l32.88-8.3s2.66 20.48 4.25 29.64z"/>
      <path class="cls-5" d="M290.55 542.66s2.66 20.48 4.25 29.64M298.16 582.82l6.02 26.57v.01M264.12 582.82l31.05-6.38.89 4.53"/>
      <path class="cls-4" d="M270.76 615.66l-6.64-32.84-6.45-31.86 32.88-8.3 33.85-8.54 42.88 27.91-36.17 5.77 7.01 35.23-33.94 6.36-33.42 6.27zM295.17 574.89s32.36-6.3 35.94-7.09"/>
      <path class="cls-4" d="M295.17 574.89l-3.11-1.89c-8.37-5-31-18.71-34.39-22.08M270.76 615.66l25.68-34.13.13-.18 1.84-2.44 39.71 24.12"/>
      <path class="Graphic-Style-5" d="M269.74 610.6l28.67-32.59-27.65 37.65-1.02-5.06zM294.8 574.89l-35.34-18.43-1.79-5.5 37.13 23.93zM294.8 574.89l37.2-2.59-.89-4.5-36.31 7.09z"/>
      <path class="cls-3" d="M491.31 605.32l-34.3 5.28-38.68-30 65.86-9.98.13.08.65.42-.78 1.22 7.12 32.98zM559.04 556.54l-36.1 8.54-.42-2.27 36.52-6.27z"/>
      <path class="cls-3" d="M559.04 556.54l-36.52 6.27-36.82 5.74-1.61-1.08 1.61-2.39-5.73-28.95 36.44-6.59 42.63 27z"/>
      <path class="cls-2" d="M529.25 599.49l-37.94 5.83-7.12-32.98.78-1.22 44.28 28.37zM522.94 565.08l6.31 34.41-44.28-28.37-.65-.42 1.38-2.15 36.82-5.74.42 2.27zM484.19 570.62l-65.86 9.98 32.97-7.06-4.83-31.35 37.62 25.28 1.61 1.08-1.38 2.15-.13-.08z"/>
      <path class="cls-2" d="M479.97 536.13l5.73 28.95-1.61 2.39-37.62-25.28 33.5-6.06z"/>
      <path class="cls-5" d="M491.31 605.32l-7.12-32.98M479.97 536.13l5.73 28.95"/>
      <path class="cls-4" d="M522.52 562.81l.42 2.27 6.31 34.41-37.94 5.83-34.3 5.28M451.51 574.89l-.21-1.35-4.83-31.35 33.5-6.06 36.44-6.59"/>
      <path class="cls-4" d="M522.93 565.08h.01l36.1-8.54M485.7 568.55l36.82-5.74 36.52-6.27-42.63-27M484.19 570.62l-65.86 9.98 38.68 30M484.19 570.62l.13.08.65.42 44.28 28.37M485.7 568.55l-1.61-1.08-37.62-25.28M451.3 573.54l-32.97 7.06"/>
      <path class="Graphic-Style-5" d="M447.53 549.04l37.17 21.07 38.23-1.56-.41-5.74-36.82 6.04L446.6 543l.93 6.04zM451.3 572.34l33.4-2.23-33.19 4.78-.21-2.55zM484.7 570.11l43.85 25.54.7 3.84-44.55-29.38z"/>
      <path class="cls-3" d="M185.1 736.54l-35.78 9.81 35.03-12.07.75 2.26z"/>
      <path class="cls-3" d="M213.04 724.26l-28.69 10.02-35.03 12.07 24.38-44.18 39.34 22.09zM173.7 702.17l35.13-11.75-7.61 15.41 20.43 6.63-6.5 10.97-2.11.83-39.34-22.09z"/>
      <path class="cls-2" d="M241.11 679.62l-39.89 26.21 7.61-15.41 32.28-10.8z"/>
      <path class="cls-2" d="M251.49 708.17l.91 2.5-37.25 12.76 6.5-10.97 19.46-32.84 10.38 28.55z"/>
      <path class="cls-2" d="M221.65 712.46l-20.43-6.63 39.89-26.21-19.46 32.84z"/>
      <path class="cls-3" d="M284.26 699.75l-31.86 10.92-.91-2.5 32.77-8.42z"/>
      <path class="cls-3" d="M284.26 699.75l-19.49 44.91-48.25-20.64v-.01l-1.37-.58 37.25-12.76 31.86-10.92zM228.22 757.97l-12.31-32.54.61-1.41 48.25 20.64-36.55 13.31z"/>
      <path class="cls-2" d="M215.91 725.43l12.31 32.54-32.13 11.7 16.95-45.41 2.11-.83 1.37.58v.01l-.61 1.41z"/>
      <path class="cls-2" d="M213.04 724.26l-16.95 45.41-10.99-33.13-.75-2.26 28.69-10.02z"/>
      <path class="cls-4" d="M252.4 710.67l-.91-2.5-10.38-28.55-32.28 10.8-35.13 11.75M184.35 734.28l.75 2.26 10.99 33.13 32.13-11.7 36.55-13.31"/>
      <path class="cls-4" d="M173.7 702.17l-24.38 44.18 35.03-12.07 28.69-10.02-39.34-22.09zM208.83 690.42l-7.61 15.41M215.15 723.43l37.25-12.76 31.86-10.92-19.49 44.91-48.25-20.64v-.01l-1.37-.58 6.5-10.97 19.46-32.84-39.89 26.21 20.43 6.63M196.09 769.67l16.95-45.41M149.32 746.35l35.78-9.81M284.26 699.75l-32.77 8.42"/>
      <path class="Graphic-Style-5" d="M181.18 699.67l32.47 24.35-39.95-21.85 7.48-2.5zM196.09 769.67l10.35-3.77 6.6-41.64-16.95 45.41zM240.34 679.88l-25.19 30.79 6.5 1.79 18.69-31.54M217.88 711.43l-2.73 12 6.5-10.97-3.77-1.03zM214.84 723.74l40.98 24.18 8.95-3.26-49.93-20.92z"/>
      <path class="Graphic-Style-5" d="M213.04 724.26l-26.97 15.2-1.55-4.67 28.52-10.53zM215.91 725.43l12.22 32.31 2.01-1.05-14.23-31.26z"/>
      <path class="cls-2" d="M432.76 713.47l.09 1.71-31.21 1.83-.04-.39-2.99-30.72-3.04-31.12 35.69 29.66 1.5 29.03z"/>
      <path class="cls-6" d="M395.57 654.78l3.04 31.12-1.34.09v-.01l-1.7-31.2z"/>
      <path class="cls-3" d="M397.27 685.99l1.34-.09 2.99 30.72-2.77.27-30.56-29.01 29-1.89z"/>
      <path class="cls-3" d="M368.27 687.88l30.56 29.01-60.24 4.11 29.68-33.12zM432.76 713.47h29.16l-29.07 1.71-.09-1.71z"/>
      <path class="cls-3" d="M432.85 715.18l29.07-1.71-27.3 32.98-32.98-29.44 31.21-1.83z"/>
      <path class="cls-3" d="M398.83 716.89l2.77-.27.04.39 32.98 29.44-30.61 1.73-1.81.1-3.37-31.39zM338.59 721l60.24-4.11-28.76 2.02.12 2.09h-31.6z"/>
      <path class="cls-2" d="M370.07 718.91l28.76-2.02 3.37 31.39 2.99 27.86-33.35-26.68-1.65-28.46-.12-2.09z"/>
      <path class="cls-6" d="M402.2 748.28l1.81-.1.01.1 1.17 27.86-2.99-27.86z"/>
      <path class="cls-4" d="M371.84 749.46L370.19 721l-.12-2.09"/>
      <path class="cls-4" d="M371.84 749.46l33.35 26.68-2.99-27.86-3.37-31.39-28.76 2.02M398.83 716.89l-30.56-29.01L338.59 721l60.24-4.11zM431.26 684.44l1.5 29.03.09 1.71M431.26 684.44l-35.69-29.66 3.04 31.12 2.99 30.72.04.39"/>
      <path class="cls-4" d="M401.64 717.01l32.98 29.44 27.3-32.98-29.07 1.71-31.21 1.83zM461.92 713.47h-29.17M338.59 721h31.6"/>
      <path class="cls-4" d="M402.2 748.28l1.81-.1 30.61-1.73M368.27 687.88l29-1.89 1.34-.09M405.19 776.14l-1.17-27.86M395.57 654.78l1.7 31.2"/>
      <path class="Graphic-Style-5" d="M369.41 688.25l32 26.3 3.78 33.56-2.99.17-2.85-31.64-29.94-28.39z"/>
      <path class="Graphic-Style-5" d="M370.36 723.82l28.25-6.82-28.54 1.9.29 4.92zM401.47 717.58l29.79 29.06 3.36-.56-33.15-28.5zM396.42 686.04l4.56 30.84-2.37-30.99-2.19.15z"/>
      <path class="cls-3" d="M546.82 246.91l-53.23 71.21-10.96-61.93 2.14-1.98 62.05-7.3z"/>
      <path class="cls-2" d="M546.82 246.91l-62.05 7.3-11.67-60.66.61-.82 73.11 54.18zM482.63 256.19l10.96 61.93-72.04-54.82 61.08-7.11z"/>
      <path class="cls-3" d="M473.1 193.55l11.67 60.66-2.14 1.98-61.08 7.11 51.55-69.75z"/>
      <path class="cls-4" d="M421.55 263.3l51.55-69.75.61-.82 73.11 54.18-53.23 71.21-72.04-54.82z"/>
      <path class="cls-4" d="M421.55 263.3l61.08-7.11 10.96 61.93M473.09 193.49l.01.06 11.67 60.66 62.05-7.3"/>
      <path class="Graphic-Style-5" d="M482.63 256.19l16.26 54.84-5.3 7.09-10.96-61.93zM484.77 254.21l58.55-2.62 3.5-4.68-62.05 7.3z"/>
      <path class="cls-4" d="M519.71 283.17l-.14-.99"/>
      <path class="cls-7" d="M519.15 279.32l-8.19-55.73"/>
      <path class="cls-4" d="M510.75 222.16l-.14-.99M457.57 290.12l-.15-.99"/>
      <path class="cls-7" d="M457.01 286.27l-8.19-55.74"/>
      <path class="cls-4" d="M448.61 229.1l-.15-.99"/>
      <path stroke-linecap="round" stroke-linejoin="round" stroke="#15216b" fill="#fff" d="M235.26 32.38h128.3v131.6l-131.39-.9 3.09-130.7z"/>
      <path class="cls-4" d="M298.77 163.53l.71-.7"/>
      <path stroke-dasharray="2.03 3.04" stroke-linecap="round" stroke-linejoin="round" stroke="#15216b" fill="none" d="M301.64 160.69l60.13-59.66"/>
      <path class="cls-4" d="M362.85 99.96l.71-.7M233.78 95.09l.7-.71"/>
      <path stroke-dasharray="1.97 2.96" stroke-linecap="round" stroke-linejoin="round" stroke="#15216b" fill="none" d="M236.56 92.28l58.03-58.48"/>
      <path class="cls-4" d="M295.63 32.74l.7-.7"/>
      <path class="cls-3" d="M355.32 202.84l21.27 37.97-48.6 64.39-57.26 6.38-6.53-57.41 51.03-62.57 40.09 11.24z"/>
      <path class="cls-4" d="M270.73 311.58l-6.53-57.41 51.03-62.57 40.09 11.24 21.27 37.97-48.6 64.39-57.26 6.38z"/>
      <path class="Graphic-Style-5" d="M315.23 191.6l61.36 49.21-21.27-37.97-38.54-11.24"/>
      <path class="cls-4" d="M315.23 191.6l.78.62"/>
      <path d="M318.31 194.06c10.92 8.69 47.55 37.88 56.39 45.15" stroke-dasharray="1.97 2.95" stroke-linecap="round" stroke-linejoin="round" stroke="#15216b" fill="none"/>
      <path class="cls-4" d="M375.83 240.15c.4.34.66.56.76.66M264.2 254.17l.78.63"/>
      <path stroke-dasharray="2.04 3.06" stroke-linecap="round" stroke-linejoin="round" stroke="#15216b" fill="none" d="M267.38 256.71l58.63 46.91"/>
      <path class="cls-4" d="M327.21 304.57l.78.63"/>
      <path class="cls-3" d="M308.31 421.66l17.48 62.78c-.48.49-39.8-22.08-39.8-22.08l-8.47-31.61zM339.06 413.84l-30.75 5-14.7-57c5.52 3 37.58 22.2 37.58 22.2s3.89 14.66 7.87 29.8z"/>
      <path class="cls-2" d="M339.06 413.84c4.21 16 8.52 32.44 8.52 32.81 0 .73-21.3 37.31-21.79 37.79l-17.48-62.78v-2.86z"/>
      <path class="cls-2" d="M308.31 418.8v2.86l-30.79 9.09-8.47-31.61s23.12-37.71 23.77-37.71a5.07 5.07 0 0 1 .79.39z"/>
      <path class="cls-5" d="M293.61 361.82l14.7 56.98 30.75-4.96.4-.06M325.79 484.44l-17.48-62.78-30.79 9.09"/>
      <path class="cls-4" d="M325.79 484.44c-.48.49-39.8-22.08-39.8-22.08l-8.47-31.61-8.47-31.61s23.12-37.71 23.77-37.71a5.07 5.07 0 0 1 .79.39c5.52 3 37.58 22.2 37.58 22.2s3.89 14.68 7.87 29.82c4.21 16 8.52 32.44 8.52 32.81 0 .73-21.3 37.35-21.79 37.79z"/>
      <path class="Graphic-Style-5" d="M293.2 362.15l12.94 59.62 2.02-.62.59.1.45 1.81 29.86-8.66-31.1 4.92-14.76-57.17zM309.69 424.01l4.94-1 11.43 61.02-16.37-60.02z"/>
      <path class="cls-4" d="M269.05 399.14l.97-.23"/>
      <path stroke-dasharray="1.97 2.95" stroke-linecap="round" stroke-linejoin="round" stroke="#15216b" fill="none" d="M272.88 398.21l55.9-13.6"/>
      <path class="cls-4" d="M330.21 384.26l.98-.24M285.99 462.36l.97-.25"/>
      <path stroke-dasharray="1.95 2.93" stroke-linecap="round" stroke-linejoin="round" stroke="#15216b" fill="none" d="M289.8 461.39l55.39-14.13"/>
      <path class="cls-4" d="M346.61 446.9l.97-.25"/>
      <ellipse cx="452.29" cy="341.58" rx="58.32" ry="24.33" fill="none"/>
    </g>
    <g id="Layer_3" data-name="Layer 3">
      <path class="cls-16" d="M351.47 148.05a43.13 43.13 0 0 0-42.07-43.14"/>
      <path class="cls-17" d="M312.91 101.03l.65.77-3.78 3.17 3.44 3.53-.72.7-4.19-4.31 4.6-3.86z"/>
      <path class="cls-16" d="M352.72 207.69a32.3 32.3 0 0 0-32.31 31.24"/>
      <path class="cls-17" d="M316.57 235.38l.78-.64 3.13 3.81 3.57-3.41.69.73-4.35 4.14-3.82-4.63z"/>
      <path class="cls-16" d="M284.72 294.14a32.29 32.29 0 0 0 32.86-30.65"/>
      <path class="cls-17" d="M321.36 267.11l-.79.63-3.06-3.87-3.63 3.34-.68-.73 4.42-4.07 3.74 4.7z"/>
      <path class="cls-16" d="M505.92 406.17a32.29 32.29 0 0 0 32.86-30.64"/>
      <path class="cls-17" d="M542.56 379.14l-.79.63-3.06-3.87-3.63 3.35-.68-.74 4.42-4.07 3.74 4.7z"/>
      <path class="cls-16" d="M279.11 593a32.31 32.31 0 0 0-42.41 14.89"/>
      <path class="cls-17" d="M234.7 603.1l.97-.26 1.26 4.77 4.66-1.6.32.94-5.68 1.95-1.53-5.8z"/>
      <path class="cls-16" d="M210.7 704.84a32.29 32.29 0 0 1-3.92-44.76"/>
      <path class="cls-17" d="M208.04 665.22l-1 .1-.46-4.91-4.86.82-.17-.99 5.92-.99.57 5.97z"/>
      <path class="cls-16" d="M213.65 754.74a32.3 32.3 0 0 1 34.43 28.87"/>
      <path class="cls-17" d="M243.55 780.87l.63-.77 3.8 3.14 2.86-4.02.82.58-3.49 4.9-4.62-3.83z"/>
      <path class="cls-16" d="M326.92 461a32.28 32.28 0 0 0-3.92-33.24"/>
      <path class="cls-17" d="M328.2 428.04l-.18.98-4.85-.92-.56 4.9-.99-.12.68-5.96 5.9 1.12z"/>
      <path class="cls-16" d="M295.2 379a32.31 32.31 0 0 0 3.94 33.26"/>
      <path class="cls-17" d="M293.92 412.02l.19-.98 4.84.92.56-4.9 1 .12-.69 5.96-5.9-1.12z"/>
      <path class="cls-16" d="M247.39 44a43.13 43.13 0 0 1 43.14 42"/>
      <path class="cls-17" d="M286.24 82.94l.7-.72 3.53 3.44 3.17-3.78.77.64-3.86 4.6-4.31-4.18z"/>
      <path class="cls-16" d="M430.37 259.21A34.14 34.14 0 0 1 477.2 251"/>
      <path class="cls-17" d="M472.18 252.71l-.18-.98 4.86-.86-1.21-4.78.97-.24 1.47 5.82-5.91 1.04z"/>
      <path class="cls-16" d="M534.72 246.08a34.14 34.14 0 0 0-47.5 1.83"/>
      <path class="cls-17" d="M486.71 242.7l1 .04-.19 4.92 4.93-.17.04 1-6 .21.22-6z"/>
      <text class="cls-18" transform="translate(385.9 163.07)">
        1
      </text>
      <text class="cls-18" transform="translate(115.93 326.62)">
        2
      </text>
      <text class="cls-18" transform="translate(294.35 326.62)">
        3
      </text>
      <text class="cls-18" transform="translate(472.78 326.62)">
        4
      </text>
      <text class="cls-18" transform="translate(115.93 496.01)">
        5
      </text>
      <text class="cls-18" transform="translate(294.35 496.01)">
        6
      </text>
      <text class="cls-18" transform="translate(472.78 496.01)">
        7
      </text>
      <text class="cls-18" transform="translate(115.93 639.16)">
        8
      </text>
      <text class="cls-18" transform="translate(294.35 639.16)">
        9
      </text>
      <text class="cls-18" transform="translate(472.78 639.16)">
        10
      </text>
      <text class="cls-18" transform="translate(205.14 795.42)">
        11
      </text>
      <text class="cls-18" transform="translate(383.57 795.42)">
        12
      </text>
      <path class="cls-16" d="M154.24 182c-9.07-1.06-15.72-4.54-15.72-8.66 0-5 9.64-9 21.54-9s21.54 4 21.54 9c0 4.44-7.69 8.12-17.81 8.85"/>
      <path class="cls-17" d="M151.51 177.51l-.77.63 3.13 3.81-4.03 2.85.57.81 4.91-3.46-3.81-4.64z"/>
      <path class="cls-16" d="M145.48 371.79c-9.07-1.06-15.72-4.54-15.72-8.66 0-5 9.64-9 21.54-9s21.54 4 21.54 9c0 4.43-7.69 8.12-17.81 8.85"/>
      <path class="cls-17" d="M142.75 367.26l-.78.63 3.13 3.81-4.02 2.85.57.81 4.91-3.46-3.81-4.64z"/>
      <path class="cls-16" d="M410.91 555.26c-9.07-1.06-15.72-4.53-15.72-8.65 0-5 9.64-9 21.54-9s21.54 4 21.54 9c0 4.43-7.69 8.11-17.81 8.85"/>
      <path class="cls-17" d="M408.18 550.73l-.78.64 3.13 3.8-4.03 2.85.58.82 4.91-3.47-3.81-4.64z"/>
    </g>
  </g>
</svg>
