<svg id="jsconf-vibes" xmlns="http://www.w3.org/2000/svg" viewBox="0 0 497 325"><defs><style>.cls-1{fill:#e00079}.cls-2{fill:#051add}.cls-3{fill:#fcf3e6}.cls-4{fill:#dde4f2}.cls-5{fill:#5b0e3a}.cls-6{fill:#272d38}.cls-7{fill:#f5f6f7}.cls-8{fill:#e4a1c8}.cls-9{fill:none}</style></defs><title>jsconf-vibes</title><path class="cls-1" d="M461.64 318.05c-6.44 2.3-13.16 4.64-20.11 6.95H497v-29.81c-8.77 9.69-20.37 17.5-35.36 22.86zM497 30.11V0H392.64A69.4 69.4 0 0 1 412 7.44c6.63.56 12.84 1.07 18.53 1.56zM356.52 0h-3.76l.59.65q1.59-.35 3.17-.65zM123.58 0H0v93.54C4.16 59.75 8.88 32.12 12 21 15.51 8.5 61.74 2.3 123.58 0z"/><path class="cls-2" d="M486.12 76.84q2.53 5.63 4.79 11.92Q494 97.4 497 106.35V30.11c-7.22-9.13-15.54-15.86-24.9-19.64-11.72-4.72-25.93-5.16-41.57-1.47z"/><path class="cls-3" d="M377.48 308.35c-35.77 10.13-74.65 17.2-108.87 12.84a59.78 59.78 0 0 1-5.14 3.81h178.07c6.94-2.3 13.67-4.64 20.11-6.95 15-5.36 26.58-13.18 35.36-22.87V106.35q-3-8.93-6.09-17.59-2.25-6.3-4.79-11.92c1.3 30.21-.56 67.3-3.68 102.15 2.16 25.17.29 48.77-8 68.4z"/><path class="cls-4" d="M143.31 2.86q7-1.6 14.46-2.86h-34.19C61.74 2.3 15.51 8.5 12 21 8.88 32.12 4.16 59.75 0 93.54v157.25C8.27 219.87 23.39 191 40 178a42.54 42.54 0 0 1 8.24-5z"/><path class="cls-2" d="M392.12 300l18.42 4.7q5.85.52 11.46.73c31.92 1.15 57.44-5.63 69.3-21.26a39.52 39.52 0 0 0 5.7-10.78V231a162.88 162.88 0 0 0-15.57-38.63c-17.71 39.85-49.9 80.46-89.31 107.63z"/><path class="cls-5" d="M481.43 192.33c16.36-36.82 20.38-73 6.37-97.52C461.51 48.88 355.29 66.42 335 53.49s-22.8.26-22.8.26c62.12 62.4 95.15 120.53 76.15 162.63-28.73 63.68-196 37.23-199.7 67.6-1.47 12.07 23.21 30.63 57.13 41h97.08a194.85 194.85 0 0 0 49.29-25c39.38-27.15 71.57-67.76 89.28-107.65z"/><path class="cls-4" d="M482.44 179c3.13-34.85 5-71.94 3.68-102.15C484.66 42.74 479.18 17.42 467 14c-5.42-1.52-18.32-3.24-36.47-5-5.69-.49-11.9-1-18.53-1.56zM377.48 308.35C428 304.62 463.93 297.94 467 287c2-7.29 4.71-21.44 7.4-39.61z"/><path class="cls-6" d="M64 53.47C73.8 29.22 103.33 12 143.31 2.86 77 5.93 23.82 26.25 10 60.47c-11.3 28 1.89 70.27 38.21 112.49 26.13-12.18 62.4 3.12 88 27l.29-.29C74.77 147.45 49.71 89 64 53.47z"/><path class="cls-2" d="M250.79 0h-93q-7.43 1.26-14.46 2.86C103.33 12 73.8 29.22 64 53.47 49.71 89 74.77 147.45 136.5 199.72l40.15-40.17z"/><path class="cls-7" d="M195.86 155.66L271 230.82c25.76 25.76 25.21 63.31 1.79 86.6a58.866 58.866 0 0 1-4.17 3.77c34.22 4.36 73.1-2.71 108.87-12.84 16.66-4.72 32.64-10.1 47.16-15.29 25.43-9.1 41.09-25.23 49.76-45.66 8.33-19.63 10.2-43.24 8-68.4-3.23-37.61-15.46-78.71-28.52-115.23-10.13-28.32-24.63-46.45-42-56.33A69.4 69.4 0 0 0 392.64 0h-36.12q-1.58.3-3.17.65zm-19.21 3.89l5.45-5.45-3.85-.44q-.86 2.92-1.6 5.89z"/><path class="cls-8" d="M178.66 325h19.09a60.05 60.05 0 0 1-9.54-7.8 60.07 60.07 0 0 1-9.55 7.8zm-42.45-125c-25.58-23.93-61.84-39.23-88-27a42.54 42.54 0 0 0-8.21 5c-16.61 13-31.73 41.87-40 72.79V325h112.93z"/><path class="cls-1" d="M272.79 317.42c23.42-23.29 24-60.84-1.79-86.6l-75.14-75.16-13.76-1.56-5.45 5.45-40.15 40.17-.29.29-30.81 30.81c-25.76 25.76-25.21 63.31-1.79 86.6a60.09 60.09 0 0 0 9.32 7.58h65.73a60.07 60.07 0 0 0 9.55-7.8 60.05 60.05 0 0 0 9.54 7.8h65.72a59.78 59.78 0 0 0 5.14-3.81c1.39-1.19 2.83-2.43 4.18-3.77z"/><path class="cls-3" d="M372.46 175.67c15.07-74.12 8.42-143.73-19.11-175l-.59-.67h-102c-45 24.06-95.24 72.9-134.34 146.67l65.68 37.43z"/><path class="cls-8" d="M303.2 239.83c8.06-8.05 54-54.07 82.8-82.82 25.76-25.76 25.21-63.31 1.79-86.6a59.81 59.81 0 0 0-84.59.22 59.81 59.81 0 0 0-84.59-.22c-23.42 23.29-24 60.84 1.79 86.6z"/><path class="cls-9" d="M188.62 284c3.69-30.37 171-3.92 199.7-67.6 19-42.1-14-100.23-76.15-162.63 0 0 2.48-13.18 22.8-.26s126.54-4.63 152.83 41.31c14 24.48 10 60.69-6.37 97.52A162.88 162.88 0 0 1 497 231V44H114v281h131.76c-33.93-10.39-58.6-28.95-57.14-41zm302.68.2c-11.86 15.63-37.38 22.41-69.3 21.26q-5.61-.2-11.46-.73L392.12 300a194.85 194.85 0 0 1-49.29 25H497v-51.58a39.52 39.52 0 0 1-5.7 10.78z"/></svg>