<?xml version="1.0" standalone="no"?>
<!DOCTYPE svg PUBLIC "-//W3C//DTD SVG 20010904//EN"
 "http://www.w3.org/TR/2001/REC-SVG-20010904/DTD/svg10.dtd">
<svg version="1.0" xmlns="http://www.w3.org/2000/svg"
 width="700.000000pt" height="700.000000pt" viewBox="0 0 700.000000 700.000000"
 preserveAspectRatio="xMidYMid meet">
<metadata>
Created by potrace 1.11, written by Peter Selinger 2001-2013
</metadata>
<g transform="translate(0.000000,700.000000) scale(0.100000,-0.100000)"
fill="#000000" stroke="none">
<path d="M314 6984 c-148 -40 -269 -166 -303 -314 -7 -31 -10 -1050 -8 -3195
2 -2799 4 -3154 18 -3185 70 -162 174 -251 324 -280 44 -8 876 -10 3195 -8
2784 3 3139 5 3170 19 112 49 184 108 234 194 59 100 56 -95 56 3285 0 2617
-3 3115 -14 3170 -34 157 -154 278 -311 316 -89 20 -6284 19 -6361 -2z"/>
</g>
</svg>
