<svg height="124" viewBox="0 0 520 124" width="520" xmlns="http://www.w3.org/2000/svg"><g fill="#fff" fill-rule="evenodd"><path d="m67.0438377 7.94657431c4.4244275 1.9467481 5.6632672 4.77838169 5.6632672 8.14094659 0 4.6014046-2.3007023 12.388397-9.2028092 12.388397-3.0086107 0-7.2560611-1.4158168-11.1495573-1.4158168-4.9553588 0-7.079084 2.3007023-8.3179237 4.6014046s-1.2388397 5.6632672-1.2388397 8.4949008v1.5927939h9.9107176c7.079084 0 10.618626 3.7165191 10.618626 11.1495573 0 7.2560611-3.539542 10.9725802-10.618626 10.9725802h-9.9107176v48.1377711c0 7.079084-4.4244275 10.618626-13.2732825 10.618626s-13.2732825-3.539542-13.2732825-10.618626v-48.1377711h-5.4862901c-7.079084 0-10.618626-3.7165191-10.618626-11.1495573 0-7.2560611 3.539542-10.9725802 10.618626-10.9725802h5.4862901v-1.5927939c0-4.0704733 0-14.158168 5.6632672-22.1221375s16.1049161-13.09630539 28.8472673-13.09630539c5.8402443 0 12.0344428 1.0618626 16.2818932 3.0086107z"/><path d="m126.188006 95.9380095c5.663267 0 10.441649 6.3711755 10.441649 12.0344425 0 3.716519-2.123726 6.371176-6.548153 9.025832-6.017222 3.539542-14.689099 6.017222-25.838657 6.017222-27.4314503 0-42.6514809-15.220031-42.6514809-41.4126416 0-25.8386566 14.8660764-42.2975269 39.4658929-42.2975269 25.130749 0 37.696123 16.9898016 37.696123 34.6875116 0 13.0963054-6.72513 14.8660764-14.6891 14.8660764h-36.9882135c2.1237252 8.4949008 7.6100153 12.9193285 17.5207325 12.9193285 5.840245 0 10.087695-1.592794 14.335146-3.5395422 3.00861-1.4158168 5.132335-2.3007023 7.256061-2.3007023zm-25.307726-36.9882139c-8.1409463 0-12.7423509 4.6014046-14.3351448 13.4502596h27.4314508c0-7.2560611-3.893496-13.4502596-13.096306-13.4502596z"/><path d="m184.213835 97.8620979c0-10.618626-41.058688-6.0172214-41.058688-33.2716948 0-14.3351451 11.149558-25.1307482 33.094718-25.1307482 9.202809 0 18.228641 1.9467481 24.953771 5.8402443 4.070474 2.3007023 6.548153 4.9553588 6.548153 8.848855 0 4.9553588-3.716519 12.2114199-10.087695 12.2114199-1.769771 0-3.362565-.5309313-7.610015-2.3007023-6.548153-2.6546565-11.326534-3.8934962-15.220031-3.8934962-3.893496 0-6.371175 1.2388397-6.371175 3.7165191 0 10.2646718 41.058687 5.8402443 41.058687 33.8026261 0 15.0430532-11.857466 24.9537712-33.979603 24.9537712-10.618626 0-18.93655-2.300702-26.015634-6.548153-4.424427-2.654656-7.079084-5.48629-7.079084-9.556763 0-4.424428 3.362565-12.3883972 10.441649-12.3883972 2.477679 0 4.955359 1.0618626 7.610015 2.4776794 5.48629 2.8316336 10.087695 5.3093128 16.281893 5.3093128 4.601405 0 7.433039-1.238839 7.433039-4.0704731z"/><path d="m270.926153 98.9174994c7.256061 0 9.202809 7.7869926 9.202809 12.0344426 0 2.831634-.884886 5.48629-4.424428 7.610016-3.893496 2.300702-10.97258 3.893496-18.051664 3.893496-12.565374 0-21.414229-4.955359-25.661679-12.742351-3.539542-6.548153-3.893497-14.3351456-3.893497-22.4760922v-23.8919085h-5.132335c-7.079084 0-10.618626-3.7165191-10.618626-11.1495573 0-7.2560611 3.539542-10.9725802 10.618626-10.9725802h5.132335v-14.5121222c0-7.079084 4.424428-10.618626 13.273283-10.618626s13.273282 3.539542 13.273282 10.618626v14.5121222h13.096306c7.079084 0 10.618626 3.7165191 10.618626 11.1495573 0 7.2560611-3.539542 10.9725802-10.618626 10.9725802h-13.096306v23.7149314c0 2.8316336 0 6.9021069 1.415817 9.7337405 1.23884 2.4776794 3.362565 3.1855878 5.840245 3.1855878 1.769771 0 3.716519-.3539542 4.955358-.5309313 1.23884-.1769771 2.47768-.5309313 4.070474-.5309313z"/><path d="m312.883403 50.0854975v61.2340765c0 7.079084-4.424428 10.618626-13.273283 10.618626s-13.273282-3.539542-13.273282-10.618626v-61.2340765c0-7.079084 4.424427-10.618626 13.273282-10.618626s13.273283 3.539542 13.273283 10.618626z"/><path d="m363.924713 93.6937692 14.158168-43.5363666c2.477679-7.4330382 5.309313-10.7956031 14.866076-10.7956031 9.20281 0 12.21142 3.1855878 12.21142 7.4330382 0 2.6546565-1.061862 5.8402443-1.946748 8.3179237l-20.883298 54.1549926c-3.716519 9.733741-7.433038 12.565374-18.936549 12.565374-11.857466 0-15.750962-3.008611-19.290504-12.565374l-20.352367-54.1549926c-.884885-2.4776794-1.946748-5.6632672-1.946748-8.3179237 0-4.2474504 3.008611-7.4330382 12.742351-7.4330382 9.20281 0 12.388397 2.8316336 15.043054 10.7956031z"/><path d="m455.565246 69.4143018c0-5.6632672-2.300702-9.2028092-10.97258-9.2028092-4.601405 0-8.671878 1.0618626-14.866077 3.539542-3.00861 1.2388397-5.48629 2.1237252-7.610015 2.1237252-6.017221 0-9.910717-7.2560611-9.910717-12.388397 0-3.7165191 2.123725-6.1941985 6.725129-8.6718779 7.610016-4.0704733 17.343756-6.0172214 27.785405-6.0172214 13.45026 0 23.184 3.1855878 28.67029 9.3797863 3.893496 4.4244275 5.840245 11.1495573 5.840245 19.8214352v43.005435c0 7.433039-4.070474 10.618626-13.096306 10.618626-7.963969 0-10.97258-2.477679-10.97258-8.317923v-.176977c-4.778382 5.663267-12.034443 8.4949-21.414229 8.4949-16.635848 0-26.900519-9.025832-26.900519-23.3609769 0-15.927939 12.388397-24.776794 46.721954-27.9623818zm0 15.5739848c-13.627237 1.769771-20.175389 4.7783817-20.175389 10.7956031 0 3.7165191 2.300702 6.3711753 7.963969 6.3711753 4.424428 0 8.671878-1.592794 12.21142-4.6014043z"/><path d="m519.081305 11.3470935v99.4611305c0 7.079084-4.424427 10.618626-13.273282 10.618626s-13.273283-3.539542-13.273283-10.618626v-99.4611305c0-7.07908399 4.424428-10.61862598 13.273283-10.61862598s13.273282 3.53954199 13.273282 10.61862598z"/></g></svg>