<svg xmlns="http://www.w3.org/2000/svg" data-name="Ebene 1" viewBox="0 0 658 725"><path fill="#ffc4bc" d="M235 15c3-3 14-1 17-7 6-3 16-4 21-4 10-3 17 0 20-1 5-3 11 1 16-2 4 2 10-2 17 0 4 1 11 2 20-1 5-1 14 3 19 1 7-1 9 1 17 3 8 5 14-1 18 1 6 1 19 0 19 3 7 3 14 8 18 6 6 0 13 5 15 8-1 4 11 6 13 6 5 2 13 3 15 8 7 4 14 4 17 10 7 2 13 6 18 8 7 6 12 15 14 14 3 4 11 5 13 11l13 9c9 6 7 3 14 12 1 5 16 8 14 12 5 6 6 11 14 14 4 4 4 13 11 15 2 1 4 12 5 16-2 4 3 8 8 16l9 18c8 8 5 13 8 17 1 8 11 9 4 17 4 4 4 11 5 16 3 5 2 14 3 20 1 13 3 14 2 19 4 8 5 16 3 17 3 6-6 6 1 18 2 6 0 15 0 17 2 6 1 15-1 18-3 9-5 14-4 19l-1 18c3 9 0 10-5 18l-6 17c-1 7-5 8-8 15-8-2-12 13-11 18-5 9-5 11-9 15-1 1-7 8-7 14-2 0-1 9-7 15-7 5-10 13-11 16-7 9-8 14-12 15-5 3-5 6-13 12l-11 11c-6 5-14 4-17 13 2 5-11 8-13 11-14 6-9 7-13 11-4 2-9 10-17 8-7 2-9 9-14 10-5 3-11 3-18 9l-19 8c-5 2-12 3-18 3l-20 2c-8 7-15 0-18 5-5-2-15 0-17 4-9 4-12 0-20 3a54 54 0 0 1-20-1c-9 1-14 3-20 1h-18c-6-1-11-5-15-3-9 2-18-5-20-3l-17-4-15-6c-4-2-9-6-17-5-10-4-17-5-25-12l-24-13-7-4c-3-4-3-2-7-4l-5-5c1-2-3-4-5-5-4 0-4-3-6-4a24 24 0 0 1-6-4l-6-4c0-3-5-5-6-4-3-1-4-4-5-4-3-1-4-3-6-5l-5-5-5-5-6-6-4-6-4-6a48 48 0 0 1-3-6 24 24 0 0 0-2-6 39 39 0 0 0-3-5l-4-6-4-5-5-6a45 45 0 0 0-8-5 13 13 0 0 1-6-6 25 25 0 0 1-4-6l-4-7a39 39 0 0 1-2-7 25 25 0 0 0-3-8l-2-7c0-2 0-4-2-7l-1-7a23 23 0 0 0-3-7l-3-6-2-7c1-2-1-3-1-6l-1-7-1-7a53 53 0 0 0-1-8v-7l-1-7c-2-3-2-5-1-8l-2-8-3-8v-8c0-2 2-5 0-7l1-8a23 23 0 0 0 1-7c2-2 0-5 1-7l1-7 1-7v-13a25 25 0 0 0-1-7 46 46 0 0 1 1-8l1-8a17 17 0 0 0 1-7c2-2 2-4 2-6 2-1 2-6 3-7l2-6c2-2 1-5 3-6l3-7 2-6c1-2 0-4 2-7 2-1 2-5 4-6l3-6 3-6c0-3 3-5 3-7 2 0 2-4 4-6 2 0 2-4 3-6l4-6 3-7 4-6a11 11 0 0 0 4-6l2-7 3-7c1-1 2-5 4-6 0-1 4-4 4-6 1-2 1-3 4-5 2-1 3-5 5-5 1-3 3-3 5-5l6-5a35 35 0 0 0 7-4c3 0 4-4 7-4 0-2 3-5 6-6 1 1 3-1 5-5 1-2 5-3 6-4 4-2 6-3 5-5 3 1 3-3 5-4 4 1 4-2 6-4 2 1 4-2 6-4l20-11c5-5 12-4 15-9 4-5 8-6 16-8a125 125 0 0 1 17-7c7-4 16-5 22-6"/><path fill="#dde4f2" d="M287 446c1-2 6-1 7-4a29 29 0 0 1 10-1l8-1c3-1 6 1 8-1h16c2-1 6 2 9 0l7 2c4 2 6-1 8 0 3 1 9 0 9 2 3 1 6 3 8 2a9 9 0 0 1 6 4c0 2 5 2 6 3 2 1 6 1 7 3 3 2 6 2 7 4l8 4c4 3 6 7 7 6 1 2 4 2 5 5l6 4 7 6c0 2 7 3 6 5 2 3 2 5 6 6 2 2 2 6 5 7l2 7c-1 2 1 4 4 7l4 8c3 3 2 6 3 8 1 3 5 4 2 7 2 2 2 5 2 7l2 9 1 9 1 7c1 3-3 3 0 8v16c-1 4-3 6-2 8l-1 8c2 4 0 5-2 8l-2 8-4 7c-4-1-5 6-5 8l-4 6-3 6c-1 1-1 5-3 7-3 2-5 6-5 7-3 4-3 6-5 7-2 2-2 3-6 5l-5 5c-3 3-6 2-8 6 1 2-4 4-6 5-6 3-3 3-5 5-2 1-4 4-8 4-3 0-4 4-6 4-2 1-5 1-8 4l-8 3c-3 2-6 2-9 2a69 69 0 0 0-8 1c-4 3-7 0-8 2-3-1-7 0-8 2l-9 1a24 24 0 0 1-9 0h-17c-2 0-5-2-6-1l-10-2-7-2-7-2c-1-1-4-3-7-2-5-2-8-3-11-6l-11-5a11 11 0 0 1-3-2c-1-2-1-1-3-2a6 6 0 0 1-2-2l-3-2-2-2a11 11 0 0 1-3-2l-3-2-2-2c-2 0-2-1-3-2l-2-2a23 23 0 0 0-3-2l-2-2-2-3-2-3a9 9 0 0 0-2-2 25 25 0 0 1-1-3 11 11 0 0 0-1-2 17 17 0 0 0-2-3l-1-2-2-3a13 13 0 0 0-3-2 19 19 0 0 0-3-3 6 6 0 0 1-2-2 11 11 0 0 1-2-3l-2-3a16 16 0 0 1-1-3 11 11 0 0 0-1-3 13 13 0 0 1-1-4 11 11 0 0 0-1-3l-1-3a10 10 0 0 0-1-3l-1-3-1-3-1-3a11 11 0 0 1 0-3v-3a23 23 0 0 0-1-3v-7a6 6 0 0 1-1-3l-1-4-1-3a9 9 0 0 0 0-4v-6a10 10 0 0 0 1-4v-3l1-3a4 4 0 0 1 0-3 10 10 0 0 0 0-3 4 4 0 0 1 0-3 11 11 0 0 0 0-3 20 20 0 0 1 0-3l1-4a8 8 0 0 0 0-3l1-3 1-3 1-3 2-2 1-3 1-3 1-3 1-3 2-3 1-2c0-2 2-2 2-3l1-3 2-3 1-2 2-3 1-3a5 5 0 0 0 2-3l1-3 2-3 1-3 2-2a7 7 0 0 1 2-3l2-2 2-2a31 31 0 0 0 3-2 16 16 0 0 0 3-2l3-2 3-2 2-2 3-2 2-2 2-2c2 0 2-1 3-2l3-2 9-5c2-2 5-2 6-4s4-2 7-3a56 56 0 0 1 8-4l10-2"/><path fill="#e10079" d="M472 608c-4 1-9 3-14 7l-19 8c-5 2-12 3-18 3l-20 2c-8 7-15 0-18 5-5-2-15 0-17 4-8 4-12 0-20 3a54 54 0 0 1-20-1c-9 1-14 3-20 1h-18c-6-1-11-5-15-3-9 2-18-5-20-3l-17-4-15-6c-4-2-9-6-17-5l-18-7-1-3v-7a6 6 0 0 1-1-3l-1-3-1-4a9 9 0 0 0 0-4v-6a10 10 0 0 0 1-4v-3l1-3a4 4 0 0 1 0-3 10 10 0 0 0 0-3 4 4 0 0 1 0-3 11 11 0 0 0 0-3 20 20 0 0 1 0-3l1-4a8 8 0 0 0 0-3l1-3 1-3 1-3 2-2 1-3 1-3 1-3 1-3 2-2 1-3c0-2 2-2 2-3l1-3 2-3 1-2 2-3 1-3a5 5 0 0 0 2-3l1-3 2-3 1-3 2-2a7 7 0 0 1 2-3l2-2 2-2a31 31 0 0 0 3-2 16 16 0 0 0 3-2l3-2 3-2 2-2 3-2 2-2 2-2c2 0 2-1 3-2l3-2 9-5c2-2 5-2 6-4s4-2 7-3a56 56 0 0 1 8-4l10-2c1-1 6-1 7-3a29 29 0 0 1 10-2l8-1c3-1 6 1 8-1h16c2 0 6 2 9 1s4 0 7 1c4 2 6 0 8 0 3 1 9 0 9 2 3 1 6 3 8 2a9 9 0 0 1 6 4c0 2 5 2 6 3 2 1 6 1 7 3 3 2 6 2 7 5 3 0 6 2 8 3l7 7 5 4 6 4 7 6c0 2 7 3 6 5 2 3 2 5 6 6 2 2 2 6 5 7l2 7c-1 2 1 4 4 7l4 8c3 4 2 6 3 8 1 3 5 4 2 7 2 2 2 5 2 8l2 8 1 9c1 3 2 7 1 8 1 2-3 2 0 7v16c-1 4-3 6-2 8v5z"/></svg>