<svg xmlns="http://www.w3.org/2000/svg" id="Ebene_1" data-name="Ebene 1" viewBox="0 0 1610 2068"><defs><style>.cls-2{fill:#303f62}.cls-3{fill:#ffc4bc}.cls-4{fill:#dde4f2}</style><pattern id="Neues_Muster" width="264" height="212" data-name="Neues Muster" patternTransform="translate(122 -141)" patternUnits="userSpaceOnUse"><path fill="none" d="M0 0h264v212H0z"/><path d="M125 220c-1 4-5 4-7 3a9 9 0 0 1-3-7 8 8 0 0 1 2-5 5 5 0 0 1 4-2c2 0 3 3 3 6a24 24 0 0 1 1 5z" class="cls-2"/><path d="M163 222c-3 1-5-2-5-4a8 8 0 0 1 3-6 7 7 0 0 1 6-1 5 5 0 0 1 3 2c1 1-1 3-3 5a23 23 0 0 1-4 4z" class="cls-2"/><path d="M142 220c-3 1-5-2-5-4a8 8 0 0 1 3-6 8 8 0 0 1 6-1 5 5 0 0 1 3 2c1 1-1 3-3 5a23 23 0 0 1-4 4z" class="cls-2"/><path d="M214 218c-3 0-5-3-4-5a8 8 0 0 1 5-5 7 7 0 0 1 5 0 5 5 0 0 1 2 3c1 2-1 3-3 4a22 22 0 0 1-5 3z" class="cls-2"/><path d="M36 216c1 2-2 4-4 4a8 8 0 0 1-6-3 7 7 0 0 1-1-5 5 5 0 0 1 2-3c2 0 4 1 5 3a21 21 0 0 1 4 4z" class="cls-2"/><path d="M266 210c2 3-1 6-3 6a8 8 0 0 1-7-2 8 8 0 0 1-2-5 5 5 0 0 1 1-4c1-1 4 0 6 2a24 24 0 0 1 5 3z" class="cls-2"/><path d="M1 210c2 3-1 6-3 6a8 8 0 0 1-6-2 8 8 0 0 1-3-5 5 5 0 0 1 2-4c1-1 4 0 6 2a23 23 0 0 1 4 3z" class="cls-2"/><path d="M271 191c3-1 5 2 5 4a8 8 0 0 1-3 6 8 8 0 0 1-6 2 5 5 0 0 1-3-3c-1-1 0-3 2-5a23 23 0 0 1 5-4z" class="cls-2"/><path d="M263 28c-2-2 1-4 3-4a7 7 0 0 1 5 3 6 6 0 0 1 1 4 4 4 0 0 1-2 3l-5-2a18 18 0 0 1-2-4z" class="cls-2"/><path d="M51 117c2-3 6-1 7 0a8 8 0 0 1 1 7 8 8 0 0 1-4 4 5 5 0 0 1-4 0c-2-1-2-3-1-6a23 23 0 0 1 1-5z" class="cls-2"/><path d="M88 184c1-3 5-1 6 0a8 8 0 0 1 1 7 7 7 0 0 1-4 4 5 5 0 0 1-4 0l-1-6a22 22 0 0 1 2-5z" class="cls-2"/><path d="M62 95c1-2 5-1 7 1a9 9 0 0 1 0 7 8 8 0 0 1-4 5 5 5 0 0 1-4 0l-1-7a24 24 0 0 1 2-6z" class="cls-2"/><path d="M67 185c1-3 5-1 6 0a8 8 0 0 1 0 7 7 7 0 0 1-4 4 5 5 0 0 1-3-1c-2 0-2-3-1-5a22 22 0 0 1 2-5z" class="cls-2"/><path d="M49 141c2-2 6-1 7 1a8 8 0 0 1 0 6 7 7 0 0 1-4 4 5 5 0 0 1-3 0c-2 0-2-3-1-5a23 23 0 0 1 1-6z" class="cls-2"/><path d="M79 147c2-3 6-1 7 1a8 8 0 0 1 0 6 7 7 0 0 1-4 4 5 5 0 0 1-4 0v-6a22 22 0 0 1 1-5z" class="cls-2"/><path d="M44 196c2-2 5 1 5 2a8 8 0 0 1-1 7 7 7 0 0 1-5 2 5 5 0 0 1-4-1c-1-1 0-4 1-6a22 22 0 0 1 4-4z" class="cls-2"/><path d="M49 165c2-2 5 1 6 3a8 8 0 0 1-1 6 7 7 0 0 1-5 3 5 5 0 0 1-3-1c-2-1-1-4 0-6a23 23 0 0 1 3-5z" class="cls-2"/><path d="M69 130c2-3 6-2 7 0a8 8 0 0 1 0 7 8 8 0 0 1-4 4 5 5 0 0 1-3 0c-2-1-2-3-1-6a23 23 0 0 1 1-5z" class="cls-2"/><path d="M9 163c3-2 6 0 6 2a8 8 0 0 1-2 7 7 7 0 0 1-5 2 5 5 0 0 1-3-1c-1-1 0-4 1-6a23 23 0 0 1 3-4z" class="cls-2"/><path d="M6 191c3-1 6 2 6 4a8 8 0 0 1-4 6 8 8 0 0 1-5 2 5 5 0 0 1-4-3l3-5a23 23 0 0 1 4-4z" class="cls-2"/><path d="M33 103c2-1 5 1 5 3a8 8 0 0 1-2 6 7 7 0 0 1-5 2 5 5 0 0 1-3-1c-1-1 0-4 1-6a21 21 0 0 1 4-4z" class="cls-2"/><path d="M7 84c3-2 5 1 5 3a7 7 0 0 1-2 5 6 6 0 0 1-5 2 4 4 0 0 1-3-2c-1-1 1-3 2-5a19 19 0 0 1 3-3z" class="cls-2"/><path d="M9 108c3-2 5 1 5 3a7 7 0 0 1-3 5 6 6 0 0 1-5 1 4 4 0 0 1-3-2l3-4a19 19 0 0 1 3-3z" class="cls-2"/><path d="M26 179c3-1 5 2 5 4a8 8 0 0 1-3 6 7 7 0 0 1-6 1 5 5 0 0 1-3-2c-1-1 1-4 3-5a22 22 0 0 1 4-4z" class="cls-2"/><path d="M67 209c3 1 2 5 1 6a8 8 0 0 1-6 2 7 7 0 0 1-5-3 5 5 0 0 1-1-4l6-2a22 22 0 0 1 5 1z" class="cls-2"/><path d="M30 151c1 3-2 5-4 5a8 8 0 0 1-6-3 7 7 0 0 1-1-5 5 5 0 0 1 2-3c2-1 4 1 5 2a22 22 0 0 1 4 4z" class="cls-2"/><path d="M16 136c1 3-2 5-4 5a7 7 0 0 1-5-3 7 7 0 0 1-1-5 5 5 0 0 1 1-3c2-1 4 1 6 2a21 21 0 0 1 3 4z" class="cls-2"/><path d="M36 92c0 3-4 3-6 2a8 8 0 0 1-2-6 7 7 0 0 1 2-5 5 5 0 0 1 4-2l2 6a23 23 0 0 1 0 5z" class="cls-2"/><path d="M128 79c-1 3-5 3-7 2a9 9 0 0 1-3-7 8 8 0 0 1 2-6 6 6 0 0 1 4-1c2 0 3 3 3 6a26 26 0 0 1 1 6z" class="cls-2"/><path d="M146 51c0 4-4 5-6 4a9 9 0 0 1-5-5 8 8 0 0 1 0-7 6 6 0 0 1 4-2l5 5a26 26 0 0 1 2 5z" class="cls-2"/><path d="M125 28c0 4-4 5-6 4a9 9 0 0 1-5-5 8 8 0 0 1 1-6 6 6 0 0 1 3-3c2 0 3 2 5 5a26 26 0 0 1 2 5z" class="cls-2"/><path d="M125 8c-1 4-5 4-7 2a9 9 0 0 1-3-6 8 8 0 0 1 2-6 5 5 0 0 1 4-1c2 0 3 3 3 5a24 24 0 0 1 1 6z" class="cls-2"/><path d="M163 10c-3 1-5-2-5-4a8 8 0 0 1 3-6 7 7 0 0 1 6-1 5 5 0 0 1 3 2c1 1-1 3-3 5a23 23 0 0 1-4 4z" class="cls-2"/><path d="M142 8c-3 1-5-2-5-4a8 8 0 0 1 3-6 8 8 0 0 1 6-2 5 5 0 0 1 3 3c1 1-1 3-3 5a23 23 0 0 1-4 4z" class="cls-2"/><path d="M148 31c-3 1-5-2-5-4a9 9 0 0 1 3-7 8 8 0 0 1 6-1 5 5 0 0 1 3 2c1 2-1 4-3 6a24 24 0 0 1-4 4z" class="cls-2"/><path d="M180 27c-3 0-4-3-4-5a8 8 0 0 1 5-5 7 7 0 0 1 5 0 5 5 0 0 1 3 2c0 2-2 4-4 5a23 23 0 0 1-5 3z" class="cls-2"/><path d="M169 46c-3 1-5-3-5-5a8 8 0 0 1 5-6 8 8 0 0 1 6 0 5 5 0 0 1 2 3c1 1-1 3-3 5a23 23 0 0 1-5 3z" class="cls-2"/><path d="M214 6c-3 0-5-4-4-5a8 8 0 0 1 5-5 7 7 0 0 1 5 0 5 5 0 0 1 2 3c1 1-1 3-3 4a22 22 0 0 1-5 3z" class="cls-2"/><path d="M199 22c-3 0-2-4-1-6a8 8 0 0 1 6-2 7 7 0 0 1 5 2 5 5 0 0 1 1 3c0 2-3 3-5 3a21 21 0 0 1-6 0z" class="cls-2"/><path d="M222 30c-3 0-4-4-3-6a8 8 0 0 1 6-4 7 7 0 0 1 5 2 5 5 0 0 1 2 3c0 1-2 3-5 3a22 22 0 0 1-5 2z" class="cls-2"/><path d="M199 48c-3-2-1-5 0-7a8 8 0 0 1 7 0 7 7 0 0 1 4 4 5 5 0 0 1 0 3c-1 2-3 2-6 1a22 22 0 0 1-5-1z" class="cls-2"/><path d="M182 87c-3-1-2-5 0-6a8 8 0 0 1 7-1 8 8 0 0 1 4 4 5 5 0 0 1 0 3c0 2-3 2-6 2a23 23 0 0 1-5-2z" class="cls-2"/><path d="M221 49c-1-3 2-5 4-5a8 8 0 0 1 5 3 7 7 0 0 1 2 6 5 5 0 0 1-2 2c-2 1-4 0-6-2a23 23 0 0 1-3-4z" class="cls-2"/><path d="M224 68c1-3 5-2 6-1a8 8 0 0 1 2 7 7 7 0 0 1-3 4 5 5 0 0 1-3 1c-2 0-2-3-2-5a22 22 0 0 1 0-6z" class="cls-2"/><path d="M186 58c1-3 4-3 6-3a8 8 0 0 1 4 6 7 7 0 0 1-1 5 5 5 0 0 1-3 2c-2 0-3-2-4-4a22 22 0 0 1-2-6z" class="cls-2"/><path d="M242 22c0-3 4-4 6-3a8 8 0 0 1 3 6 7 7 0 0 1-1 5 5 5 0 0 1-3 2c-2 0-3-2-4-5a22 22 0 0 1-1-5z" class="cls-2"/><path d="M209 80c2-3 6-1 6 1a8 8 0 0 1 0 6 7 7 0 0 1-4 4 5 5 0 0 1-4-1v-6a22 22 0 0 1 2-4z" class="cls-2"/><path d="M211 106c1-2 5 0 6 1a8 8 0 0 1 0 7 7 7 0 0 1-4 4 5 5 0 0 1-4-1v-5a22 22 0 0 1 2-6z" class="cls-2"/><path d="M151 63c3-3 6 0 7 2a8 8 0 0 1-1 6 8 8 0 0 1-5 4 5 5 0 0 1-4-1v-6a24 24 0 0 1 3-5z" class="cls-2"/><path d="M157 97c3-2 6 1 6 3a9 9 0 0 1-2 7 8 8 0 0 1-5 2 5 5 0 0 1-4-1c-1-2 0-4 2-6a24 24 0 0 1 3-5z" class="cls-2"/><path d="M142 85c3-1 5 3 5 5a9 9 0 0 1-3 6 8 8 0 0 1-6 1 5 5 0 0 1-4-2c-1-1 1-4 3-6a25 25 0 0 1 5-4z" class="cls-2"/><path d="M112 43c3-2 6 2 6 4a9 9 0 0 1-3 7 9 9 0 0 1-6 2 6 6 0 0 1-4-2c-1-2 1-5 3-7a26 26 0 0 1 4-4z" class="cls-2"/><path d="M22 40c3 0 4 3 4 5a7 7 0 0 1-4 4 7 7 0 0 1-5 1 5 5 0 0 1-2-2c-1-2 1-4 3-5a21 21 0 0 1 4-3z" class="cls-2"/><path d="M55 51c3-1 5 2 5 4a8 8 0 0 1-4 6 8 8 0 0 1-5 1 5 5 0 0 1-3-3c-1-1 1-3 3-5a23 23 0 0 1 4-3z" class="cls-2"/><path d="M253 42c3-1 4 2 3 4a7 7 0 0 1-3 4 6 6 0 0 1-5 0 4 4 0 0 1-2-2c0-2 1-3 3-4a19 19 0 0 1 4-2z" class="cls-2"/><path d="M106 88c3-1 5 3 4 5a9 9 0 0 1-5 6 8 8 0 0 1-6-1 6 6 0 0 1-3-3l5-5a25 25 0 0 1 5-2z" class="cls-2"/><path d="M87 50c4 0 4 5 3 7a9 9 0 0 1-7 3 8 8 0 0 1-6-2 6 6 0 0 1-1-3c0-2 2-4 5-4a26 26 0 0 1 6-1z" class="cls-2"/><path d="M74 72c3 0 4 5 3 7a9 9 0 0 1-7 3 8 8 0 0 1-6-1 6 6 0 0 1-1-4c0-2 2-3 5-4a25 25 0 0 1 6-1z" class="cls-2"/><path d="M68 31c3 1 3 5 2 7a9 9 0 0 1-7 3 8 8 0 0 1-5-2 5 5 0 0 1-2-4c1-2 4-3 6-3a24 24 0 0 1 6-1z" class="cls-2"/><path d="M59 9c3 0 4 4 2 6a8 8 0 0 1-6 3 8 8 0 0 1-5-1 5 5 0 0 1-2-4c0-1 3-3 5-3a23 23 0 0 1 6-1z" class="cls-2"/><path d="M40 22c3 1 3 5 2 6a8 8 0 0 1-6 3 7 7 0 0 1-5-3 5 5 0 0 1-1-3l5-3a22 22 0 0 1 5 0z" class="cls-2"/><path d="M19 9c2 1 2 5 1 6a7 7 0 0 1-5 2 6 6 0 0 1-5-2 4 4 0 0 1-1-3c0-2 3-2 5-2a20 20 0 0 1 5-1z" class="cls-2"/><path d="M36 3c1 3-2 5-4 5a8 8 0 0 1-6-3 7 7 0 0 1-1-5 5 5 0 0 1 2-3c2-1 4 1 5 2a22 22 0 0 1 4 4z" class="cls-2"/><path d="M81 8c-2-3 0-6 2-7a9 9 0 0 1 7 0 8 8 0 0 1 3 5 5 5 0 0 1 0 4c-1 2-4 1-7 0a24 24 0 0 1-5-2z" class="cls-2"/><path d="M87 28c-2-3 0-7 3-7a9 9 0 0 1 7 1 8 8 0 0 1 3 6 6 6 0 0 1-1 3c-1 2-4 1-7 0a25 25 0 0 1-5-3z" class="cls-2"/><path d="M90 73c-2-2 0-6 2-7a9 9 0 0 1 8 1 8 8 0 0 1 4 5 6 6 0 0 1-1 4c-2 2-4 1-7 0a26 26 0 0 1-6-3z" class="cls-2"/><path d="M12 68c-2-2 1-5 3-5a7 7 0 0 1 5 2 7 7 0 0 1 2 4 4 4 0 0 1-1 3c-2 1-4 0-6-1a20 20 0 0 1-3-3z" class="cls-2"/><path d="M-2 28c-1-2 2-4 4-4a7 7 0 0 1 4 3 6 6 0 0 1 1 4 4 4 0 0 1-1 3l-5-2a18 18 0 0 1-3-4z" class="cls-2"/><path d="M68 172c-2-1-2-5 0-6a8 8 0 0 1 6-2 7 7 0 0 1 5 3 5 5 0 0 1 0 3c0 2-3 2-5 2a23 23 0 0 1-6 0z" class="cls-2"/><path d="M244 216c0 3-4 3-6 2a8 8 0 0 1-3-5 7 7 0 0 1 2-6 5 5 0 0 1 3-1c2 0 3 2 3 5a22 22 0 0 1 1 5z" class="cls-2"/><path d="M232 197c-1 3-5 2-6 0a8 8 0 0 1-1-7 7 7 0 0 1 4-4 5 5 0 0 1 4 0l1 6a23 23 0 0 1-2 5z" class="cls-2"/><path d="M266-2c2 3-1 6-3 6a8 8 0 0 1-7-2 8 8 0 0 1-2-6 5 5 0 0 1 1-3c1-1 4 0 6 1a24 24 0 0 1 5 4z" class="cls-2"/><path d="M249 143c2-2 6 0 7 1a9 9 0 0 1 0 7 8 8 0 0 1-4 5 5 5 0 0 1-4-1c-2-1-1-3-1-6a24 24 0 0 1 2-6z" class="cls-2"/><path d="M246 186c-2-2 0-6 2-7a9 9 0 0 1 7 1 8 8 0 0 1 3 5 5 5 0 0 1 0 4h-7a24 24 0 0 1-5-3z" class="cls-2"/><path d="M229 160c2-3 5-2 6 0a8 8 0 0 1 1 7 7 7 0 0 1-4 4 5 5 0 0 1-3 0c-2-1-2-3-1-6a23 23 0 0 1 1-5z" class="cls-2"/><path d="M206 181c2-3 6-1 7 0a8 8 0 0 1 0 7 7 7 0 0 1-4 4 5 5 0 0 1-3 0c-2-1-2-4-1-6a22 22 0 0 1 1-5z" class="cls-2"/><path d="M191 208c1-2 5-1 6 1a8 8 0 0 1 1 6 7 7 0 0 1-4 4 5 5 0 0 1-4 0l-1-5a22 22 0 0 1 2-6z" class="cls-2"/><path d="M187 163c2-2 5-1 6 1a8 8 0 0 1 0 7 7 7 0 0 1-4 3 5 5 0 0 1-4 0v-6a22 22 0 0 1 2-5z" class="cls-2"/><path d="M188 189c3-1 5 2 5 4a8 8 0 0 1-3 6 7 7 0 0 1-6 1 5 5 0 0 1-3-2l3-5a22 22 0 0 1 4-4z" class="cls-2"/><path d="M179 146c2-2 5 0 6 2a8 8 0 0 1 0 6 7 7 0 0 1-4 4 5 5 0 0 1-4-1v-6a22 22 0 0 1 2-5z" class="cls-2"/><path d="M186 104c3-2 5 2 5 4a8 8 0 0 1-3 5 7 7 0 0 1-6 2 5 5 0 0 1-3-2l3-6a22 22 0 0 1 4-3z" class="cls-2"/><path d="M167 175c2-2 5 1 6 2a8 8 0 0 1-1 7 7 7 0 0 1-5 3 5 5 0 0 1-4-1c-1-1 0-4 1-6a22 22 0 0 1 3-5z" class="cls-2"/><path d="M150 146c3-2 5 1 6 3a8 8 0 0 1-2 6 7 7 0 0 1-5 2 5 5 0 0 1-4-1c-1-1 0-4 2-6a23 23 0 0 1 3-4z" class="cls-2"/><path d="M143 125c2-2 5 1 5 3a8 8 0 0 1-2 6 7 7 0 0 1-5 2 5 5 0 0 1-3-1c-1-2 0-4 1-6a23 23 0 0 1 4-4z" class="cls-2"/><path d="M146 171c2-2 5 1 5 3a8 8 0 0 1-2 6 7 7 0 0 1-5 2 5 5 0 0 1-4-2c-1-1 1-4 2-6a21 21 0 0 1 4-3z" class="cls-2"/><path d="M157 190c3-1 5 2 5 4a8 8 0 0 1-3 6 7 7 0 0 1-5 1 5 5 0 0 1-3-2c-1-2 0-4 2-5a22 22 0 0 1 4-4z" class="cls-2"/><path d="M84 110c3-1 5 2 5 4a8 8 0 0 1-3 6 7 7 0 0 1-6 1 5 5 0 0 1-3-2c-1-1 1-3 3-5a23 23 0 0 1 4-4z" class="cls-2"/><path d="M123 140c-2 2-5-1-6-3a8 8 0 0 1 3-7 8 8 0 0 1 5-2 5 5 0 0 1 4 2c1 1 0 4-2 6a23 23 0 0 1-4 4z" class="cls-2"/><path d="M112 115c2 2-1 5-4 5a9 9 0 0 1-6-2 8 8 0 0 1-2-6 5 5 0 0 1 2-3c1-1 4 0 6 2a24 24 0 0 1 4 4z" class="cls-2"/><path d="M133 118c-2 3-6 0-6-2a8 8 0 0 1 1-7 8 8 0 0 1 5-3 5 5 0 0 1 4 1c1 1 0 4-1 6a24 24 0 0 1-3 5z" class="cls-2"/><path d="M167 137c-3 2-6 0-7-2a8 8 0 0 1 2-7 7 7 0 0 1 5-3 5 5 0 0 1 3 1c1 1 1 4-1 6a23 23 0 0 1-2 5z" class="cls-2"/><path d="M198 136c-2 3-5 1-6-1a8 8 0 0 1 0-7 7 7 0 0 1 5-3 5 5 0 0 1 3 1c2 1 1 3 0 6a22 22 0 0 1-2 4z" class="cls-2"/><path d="M211 156c-2 2-6 0-6-2a8 8 0 0 1 1-7 7 7 0 0 1 5-3 5 5 0 0 1 3 1v6a22 22 0 0 1-3 5z" class="cls-2"/><path d="M231 137c-1 3-5 1-6-1a8 8 0 0 1 0-7 8 8 0 0 1 4-4 5 5 0 0 1 4 1l1 6a23 23 0 0 1-3 5z" class="cls-2"/><path d="M238 112c-2 3-6 2-7 0a8 8 0 0 1 0-7 8 8 0 0 1 4-4 5 5 0 0 1 4 0l1 6a24 24 0 0 1-2 5z" class="cls-2"/><path d="M251 95c-2 3-6 1-7 0a9 9 0 0 1-1-7 8 8 0 0 1 4-5 5 5 0 0 1 4 0c2 1 2 4 2 6a24 24 0 0 1-2 6z" class="cls-2"/><path d="M256 126c-3 2-6-1-7-3a9 9 0 0 1 2-7 8 8 0 0 1 5-3 5 5 0 0 1 4 1c1 1 0 4-1 6a24 24 0 0 1-3 6z" class="cls-2"/><path d="M263 65c2 3-2 5-4 5a8 8 0 0 1-6-3 8 8 0 0 1-1-6 5 5 0 0 1 2-3c2-1 4 1 6 2a24 24 0 0 1 3 5z" class="cls-2"/><path d="M113 206c2 3-1 5-3 5a8 8 0 0 1-6-3 7 7 0 0 1-1-6 5 5 0 0 1 2-3l5 3a22 22 0 0 1 3 4z" class="cls-2"/><path d="M130 198c2 2-1 5-3 5a8 8 0 0 1-6-2 7 7 0 0 1-2-5 5 5 0 0 1 1-3c1-1 4 0 6 1a23 23 0 0 1 4 4z" class="cls-2"/><path d="M115 186c1 3-2 5-4 5a8 8 0 0 1-5-3 7 7 0 0 1-2-5 5 5 0 0 1 2-3c2-1 4 0 6 2a22 22 0 0 1 3 4z" class="cls-2"/><path d="M112 166c2 3-2 5-4 5a8 8 0 0 1-5-3 7 7 0 0 1-1-5 5 5 0 0 1 2-3c1-1 3 0 5 2a22 22 0 0 1 3 4z" class="cls-2"/><path d="M130 160c2 3-2 5-4 5a8 8 0 0 1-5-3 7 7 0 0 1-2-5 5 5 0 0 1 2-3c2-1 4 0 6 2a22 22 0 0 1 3 4z" class="cls-2"/><path d="M103 139c2 3-2 5-4 5a8 8 0 0 1-5-3 7 7 0 0 1-1-5 5 5 0 0 1 2-3c1-1 3 0 5 2a23 23 0 0 1 3 4z" class="cls-2"/><path d="M1-2c2 3-1 6-3 6a8 8 0 0 1-6-2 8 8 0 0 1-3-6 5 5 0 0 1 2-3c1-1 4 0 6 1a24 24 0 0 1 4 4z" class="cls-2"/><path d="M67-3c3 1 2 4 1 6a8 8 0 0 1-6 2 7 7 0 0 1-5-3 5 5 0 0 1-1-4l6-2a23 23 0 0 1 5 1z" class="cls-2"/><path d="M244 4c0 3-4 3-6 2a8 8 0 0 1-3-6 7 7 0 0 1 2-5 5 5 0 0 1 3-2c2 1 3 3 3 5a22 22 0 0 1 1 6z" class="cls-2"/><path d="M191-4c1-2 5-1 6 0a8 8 0 0 1 1 7 7 7 0 0 1-4 4 5 5 0 0 1-4 0l-1-6a22 22 0 0 1 2-5z" class="cls-2"/></pattern></defs><path d="M1248 786c15-2 25-4 36-3a28 28 0 0 0 6-1c10-1 22 3 33 7a32 32 0 0 0 6 1c15 2 21 9 31 16l2 1c12 10 19 14 27 23l2 2 19 25a31 31 0 0 1 3 10 63 63 0 0 0 6 14 31 31 0 0 0 33 17 85 85 0 0 1 10-1 31 31 0 0 1 7 1c12 2 24 2 35 6 11 3 23 9 34 15a29 29 0 0 0 2 2c15 7 19 12 25 19a31 31 0 0 0 6 6c8 5 13 16 18 25a32 32 0 0 1 3 7c2 11 10 22 13 33a25 25 0 0 0 1 3c3 7 4 24 3 37a31 31 0 0 0 0 4c2 16-3 24-6 35l-1 2c-5 12-9 22-15 32a32 32 0 0 1-2 3l-21 25a31 31 0 0 1-7 5c-12 7-18 15-29 21l-2 1c-10 6-24 10-38 13a29 29 0 0 0-4 2c-15 5-32 7-49 10a31 31 0 0 0-5 2c-23 9-37 8-56 12l-56 12a32 32 0 0 0-3 1c-21 7-34 8-49 11h-2l-33 7a31 31 0 0 1-38-25l-5-29a30 30 0 0 0-2-5c-6-15-6-32-10-50l-12-53a31 31 0 0 1-1-7c0-20-8-35-12-51a31 31 0 0 1-1-7c-1-22-8-34-12-48a28 28 0 0 1-1-4c-1-13-4-29-4-42 1-18 2-26 5-38a36 36 0 0 0 1-5c1-10 8-20 13-30a32 32 0 0 0 3-6c4-10 14-18 22-25a30 30 0 0 0 3-3c9-12 18-15 28-21a29 29 0 0 1 5-1c12-4 22-10 35-13" class="cls-3"/><path d="M688 1155a30 30 0 0 1 3 5c10 27 19 53 18 82-1 38-21 72-51 86-30 13-67 8-102-15l-25-18c-12-10-24-18-36-24-14-6-30-5-36 2-5 7-2 22 6 33 9 12 23 21 38 31l13 9c20 14 48 37 58 72 7 28-1 58-21 82s-49 36-78 32c-32-3-55-22-76-38l-14-11c-18-13-38-19-45-12s-5 27 6 40c8 11 19 20 31 30 12 9 23 18 34 30 30 32 44 84 15 120-20 26-57 36-94 26-21-6-40-17-56-26l-13-8c-19-12-34-16-46-14-8 1-16 7-22 16s-6 19-3 27c5 13 19 24 34 35l19 15c32 28 55 76 29 115a73 73 0 0 1-61 33c-19 0-40-4-59-13l-16-9c-19-9-37-18-51-16s-27 21-27 39c0 20 12 41 31 58 20 17 47 30 72 42a30 30 0 0 1-25 54c-28-14-60-28-86-52-32-28-51-65-51-101-1-47 32-90 75-98 34-6 64 9 88 22l15 7c19 9 40 10 45 2 5-7-4-25-18-38l-16-13c-20-15-42-32-53-61-10-24-7-53 7-78s38-41 64-45c34-5 65 10 85 22l14 8c14 8 27 16 41 20s27 2 32-5c7-10-1-31-13-44-7-8-17-16-27-24-14-12-28-23-41-39-27-35-34-92 3-123 30-25 76-21 118 10l16 12c16 13 31 25 46 26 9 1 19-3 26-12s11-19 8-27c-3-13-14-25-34-40l-12-7c-17-12-37-26-52-45-30-39-24-82-6-105 19-24 60-41 107-20 19 8 34 20 48 31l21 15c14 9 33 16 45 11 10-5 17-18 17-34 1-18-6-37-14-58a30 30 0 0 1 53-27z" class="cls-4"/><path fill="#f3ecda" d="M677 180c-1-13-7-21-9-36-6-16-11-22-23-42-33-46-91-85-130-90-17-4-34-18-52-9-18-2-37 8-55 1-45 5-76 20-122 50-35 28-57 54-77 107-12 32-24 75-19 101 0 34 9 72 19 100 6 15 9 40 23 42l18 23c5 5 9 21 15 14 15 12 31 32 47 30 47 20 101 58 148 35 6-1 5 4 19-4 22-4 37-10 59-26 13-11 20-5 33-35 22-35 39-70 69-100 22-34 51-80 41-110 1-17-2-39-4-51"/><path id="Fill-4" d="M345 270c10-3 13-7 19-9 29-11 66 3 100 10 10 6 12 4 19 8 7-5 14 11 19 19l4 6c18 18 10 42 9 64-10-3-2 15-4 23 3 4-2 5-3 8-5-15-4 7-6 11-1-1-8 10-13 15-29 19-50 30-79 31-32 4-74-20-92-54-2-8-7-14-9-21-13-10-4-14-4-22 3-18 2-44 15-64-7-4 7-11 13-16 5 4 7-7 12-9z" class="cls-3"/><path d="M1403 548a35 35 0 0 0-1-9 29 29 0 0 0-3-8 37 37 0 0 0-5-7 25 25 0 0 0-7-6 57 57 0 0 0-9-4l-9-1-9 1-9 4-7 6a34 34 0 0 0-5 7l-3 8a24 24 0 0 0-1 9l2 12a27 27 0 0 0 6 8l7 7 9 3c3 1 5 3 10 2l10-2a37 37 0 0 0 9-3c2-2 7-2 7-7l5-8a36 36 0 0 0 3-12" class="cls-4"/><path fill="url(#Neues_Muster)" d="M1509 780c-9 4-17 7-24 8-14 6-30 12-37 23-11 10-18 12-29 32-9 12-17 26-21 38-5 14-6 28-10 42-2 15 5 30 1 46-15 2-26 12-43 13-14 6-26 16-37 23-12 9-17 17-30 31-9 12-18 19-21 38-5 14-13 31-11 43-1 15 0 26 2 45 2 16 8 28 12 44 6 13 10 25 23 37 10 11 19 26 32 29 12 8 26 19 40 20 14 5 23 7 45 10 16 1 34-2 49-3 19-3 33-11 59-10z"/></svg>