<svg xmlns="http://www.w3.org/2000/svg" id="Ebene_1" data-name="Ebene 1" viewBox="0 0 823 812"><defs><style>.cls-2{fill:#303f62}</style><pattern id="Neues_Muster" width="264" height="212" data-name="Neues Muster" patternUnits="userSpaceOnUse"><path fill="none" d="M0 0h264v212H0z"/><path d="M125 220c-1 4-5 4-7 3a9 9 0 0 1-3-7 8 8 0 0 1 2-5 5 5 0 0 1 4-2c2 0 3 3 3 6a24 24 0 0 1 1 5z" class="cls-2"/><path d="M163 222c-3 1-5-2-5-4a8 8 0 0 1 3-6 7 7 0 0 1 6-1 5 5 0 0 1 3 2c1 1-1 3-3 5a23 23 0 0 1-4 4z" class="cls-2"/><path d="M142 220c-3 1-5-2-5-4a8 8 0 0 1 3-6 8 8 0 0 1 6-1 5 5 0 0 1 3 2c1 1-1 3-3 5a23 23 0 0 1-4 4z" class="cls-2"/><path d="M214 218c-3 0-5-3-4-5a8 8 0 0 1 5-5 7 7 0 0 1 5 0 5 5 0 0 1 2 3c1 2-1 3-3 4a22 22 0 0 1-5 3z" class="cls-2"/><path d="M36 216c1 2-2 4-4 4a8 8 0 0 1-6-3 7 7 0 0 1-1-5 5 5 0 0 1 2-3c2 0 4 1 5 3a21 21 0 0 1 4 4z" class="cls-2"/><path d="M266 210c2 3-1 6-3 6a8 8 0 0 1-7-2 8 8 0 0 1-2-5 5 5 0 0 1 1-4c1-1 4 0 6 2a24 24 0 0 1 5 3z" class="cls-2"/><path d="M1 210c2 3-1 6-3 6a8 8 0 0 1-6-2 8 8 0 0 1-3-5 5 5 0 0 1 2-4c1-1 4 0 6 2a23 23 0 0 1 4 3z" class="cls-2"/><path d="M271 191c3-1 5 2 5 4a8 8 0 0 1-3 6 8 8 0 0 1-6 2 5 5 0 0 1-3-3c-1-1 0-3 2-5a23 23 0 0 1 5-4z" class="cls-2"/><path d="M263 28c-2-2 1-4 3-4a7 7 0 0 1 5 3 6 6 0 0 1 1 4 4 4 0 0 1-2 3l-5-2a18 18 0 0 1-2-4z" class="cls-2"/><path d="M51 117c2-3 6-1 7 0a8 8 0 0 1 1 7 8 8 0 0 1-4 4 5 5 0 0 1-4 0c-2-1-2-3-1-6a23 23 0 0 1 1-5z" class="cls-2"/><path d="M88 184c1-3 5-1 6 0a8 8 0 0 1 1 7 7 7 0 0 1-4 4 5 5 0 0 1-4 0l-1-6a22 22 0 0 1 2-5z" class="cls-2"/><path d="M62 95c1-2 5-1 7 1a9 9 0 0 1 0 7 8 8 0 0 1-4 5 5 5 0 0 1-4 0l-1-7a24 24 0 0 1 2-6z" class="cls-2"/><path d="M67 185c1-3 5-1 6 0a8 8 0 0 1 0 7 7 7 0 0 1-4 4 5 5 0 0 1-3-1c-2 0-2-3-1-5a22 22 0 0 1 2-5z" class="cls-2"/><path d="M49 141c2-2 6-1 7 1a8 8 0 0 1 0 6 7 7 0 0 1-4 4 5 5 0 0 1-3 0c-2 0-2-3-1-5a23 23 0 0 1 1-6z" class="cls-2"/><path d="M79 147c2-3 6-1 7 1a8 8 0 0 1 0 6 7 7 0 0 1-4 4 5 5 0 0 1-4 0v-6a22 22 0 0 1 1-5z" class="cls-2"/><path d="M44 196c2-2 5 1 5 2a8 8 0 0 1-1 7 7 7 0 0 1-5 2 5 5 0 0 1-4-1c-1-1 0-4 1-6a22 22 0 0 1 4-4z" class="cls-2"/><path d="M49 165c2-2 5 1 6 3a8 8 0 0 1-1 6 7 7 0 0 1-5 3 5 5 0 0 1-3-1c-2-1-1-4 0-6a23 23 0 0 1 3-5z" class="cls-2"/><path d="M69 130c2-3 6-2 7 0a8 8 0 0 1 0 7 8 8 0 0 1-4 4 5 5 0 0 1-3 0c-2-1-2-3-1-6a23 23 0 0 1 1-5z" class="cls-2"/><path d="M9 163c3-2 6 0 6 2a8 8 0 0 1-2 7 7 7 0 0 1-5 2 5 5 0 0 1-3-1c-1-1 0-4 1-6a23 23 0 0 1 3-4z" class="cls-2"/><path d="M6 191c3-1 6 2 6 4a8 8 0 0 1-4 6 8 8 0 0 1-5 2 5 5 0 0 1-4-3l3-5a23 23 0 0 1 4-4z" class="cls-2"/><path d="M33 103c2-1 5 1 5 3a8 8 0 0 1-2 6 7 7 0 0 1-5 2 5 5 0 0 1-3-1c-1-1 0-4 1-6a21 21 0 0 1 4-4z" class="cls-2"/><path d="M7 84c3-2 5 1 5 3a7 7 0 0 1-2 5 6 6 0 0 1-5 2 4 4 0 0 1-3-2c-1-1 1-3 2-5a19 19 0 0 1 3-3z" class="cls-2"/><path d="M9 108c3-2 5 1 5 3a7 7 0 0 1-3 5 6 6 0 0 1-5 1 4 4 0 0 1-3-2l3-4a19 19 0 0 1 3-3z" class="cls-2"/><path d="M26 179c3-1 5 2 5 4a8 8 0 0 1-3 6 7 7 0 0 1-6 1 5 5 0 0 1-3-2c-1-1 1-4 3-5a22 22 0 0 1 4-4z" class="cls-2"/><path d="M67 209c3 1 2 5 1 6a8 8 0 0 1-6 2 7 7 0 0 1-5-3 5 5 0 0 1-1-4l6-2a22 22 0 0 1 5 1z" class="cls-2"/><path d="M30 151c1 3-2 5-4 5a8 8 0 0 1-6-3 7 7 0 0 1-1-5 5 5 0 0 1 2-3c2-1 4 1 5 2a22 22 0 0 1 4 4z" class="cls-2"/><path d="M16 136c1 3-2 5-4 5a7 7 0 0 1-5-3 7 7 0 0 1-1-5 5 5 0 0 1 1-3c2-1 4 1 6 2a21 21 0 0 1 3 4z" class="cls-2"/><path d="M36 92c0 3-4 3-6 2a8 8 0 0 1-2-6 7 7 0 0 1 2-5 5 5 0 0 1 4-2l2 6a23 23 0 0 1 0 5z" class="cls-2"/><path d="M128 79c-1 3-5 3-7 2a9 9 0 0 1-3-7 8 8 0 0 1 2-6 6 6 0 0 1 4-1c2 0 3 3 3 6a26 26 0 0 1 1 6z" class="cls-2"/><path d="M146 51c0 4-4 5-6 4a9 9 0 0 1-5-5 8 8 0 0 1 0-7 6 6 0 0 1 4-2l5 5a26 26 0 0 1 2 5z" class="cls-2"/><path d="M125 28c0 4-4 5-6 4a9 9 0 0 1-5-5 8 8 0 0 1 1-6 6 6 0 0 1 3-3c2 0 3 2 5 5a26 26 0 0 1 2 5z" class="cls-2"/><path d="M125 8c-1 4-5 4-7 2a9 9 0 0 1-3-6 8 8 0 0 1 2-6 5 5 0 0 1 4-1c2 0 3 3 3 5a24 24 0 0 1 1 6z" class="cls-2"/><path d="M163 10c-3 1-5-2-5-4a8 8 0 0 1 3-6 7 7 0 0 1 6-1 5 5 0 0 1 3 2c1 1-1 3-3 5a23 23 0 0 1-4 4z" class="cls-2"/><path d="M142 8c-3 1-5-2-5-4a8 8 0 0 1 3-6 8 8 0 0 1 6-2 5 5 0 0 1 3 3c1 1-1 3-3 5a23 23 0 0 1-4 4z" class="cls-2"/><path d="M148 31c-3 1-5-2-5-4a9 9 0 0 1 3-7 8 8 0 0 1 6-1 5 5 0 0 1 3 2c1 2-1 4-3 6a24 24 0 0 1-4 4z" class="cls-2"/><path d="M180 27c-3 0-4-3-4-5a8 8 0 0 1 5-5 7 7 0 0 1 5 0 5 5 0 0 1 3 2c0 2-2 4-4 5a23 23 0 0 1-5 3z" class="cls-2"/><path d="M169 46c-3 1-5-3-5-5a8 8 0 0 1 5-6 8 8 0 0 1 6 0 5 5 0 0 1 2 3c1 1-1 3-3 5a23 23 0 0 1-5 3z" class="cls-2"/><path d="M214 6c-3 0-5-4-4-5a8 8 0 0 1 5-5 7 7 0 0 1 5 0 5 5 0 0 1 2 3c1 1-1 3-3 4a22 22 0 0 1-5 3z" class="cls-2"/><path d="M199 22c-3 0-2-4-1-6a8 8 0 0 1 6-2 7 7 0 0 1 5 2 5 5 0 0 1 1 3c0 2-3 3-5 3a21 21 0 0 1-6 0z" class="cls-2"/><path d="M222 30c-3 0-4-4-3-6a8 8 0 0 1 6-4 7 7 0 0 1 5 2 5 5 0 0 1 2 3c0 1-2 3-5 3a22 22 0 0 1-5 2z" class="cls-2"/><path d="M199 48c-3-2-1-5 0-7a8 8 0 0 1 7 0 7 7 0 0 1 4 4 5 5 0 0 1 0 3c-1 2-3 2-6 1a22 22 0 0 1-5-1z" class="cls-2"/><path d="M182 87c-3-1-2-5 0-6a8 8 0 0 1 7-1 8 8 0 0 1 4 4 5 5 0 0 1 0 3c0 2-3 2-6 2a23 23 0 0 1-5-2z" class="cls-2"/><path d="M221 49c-1-3 2-5 4-5a8 8 0 0 1 5 3 7 7 0 0 1 2 6 5 5 0 0 1-2 2c-2 1-4 0-6-2a23 23 0 0 1-3-4z" class="cls-2"/><path d="M224 68c1-3 5-2 6-1a8 8 0 0 1 2 7 7 7 0 0 1-3 4 5 5 0 0 1-3 1c-2 0-2-3-2-5a22 22 0 0 1 0-6z" class="cls-2"/><path d="M186 58c1-3 4-3 6-3a8 8 0 0 1 4 6 7 7 0 0 1-1 5 5 5 0 0 1-3 2c-2 0-3-2-4-4a22 22 0 0 1-2-6z" class="cls-2"/><path d="M242 22c0-3 4-4 6-3a8 8 0 0 1 3 6 7 7 0 0 1-1 5 5 5 0 0 1-3 2c-2 0-3-2-4-5a22 22 0 0 1-1-5z" class="cls-2"/><path d="M209 80c2-3 6-1 6 1a8 8 0 0 1 0 6 7 7 0 0 1-4 4 5 5 0 0 1-4-1v-6a22 22 0 0 1 2-4z" class="cls-2"/><path d="M211 106c1-2 5 0 6 1a8 8 0 0 1 0 7 7 7 0 0 1-4 4 5 5 0 0 1-4-1v-5a22 22 0 0 1 2-6z" class="cls-2"/><path d="M151 63c3-3 6 0 7 2a8 8 0 0 1-1 6 8 8 0 0 1-5 4 5 5 0 0 1-4-1v-6a24 24 0 0 1 3-5z" class="cls-2"/><path d="M157 97c3-2 6 1 6 3a9 9 0 0 1-2 7 8 8 0 0 1-5 2 5 5 0 0 1-4-1c-1-2 0-4 2-6a24 24 0 0 1 3-5z" class="cls-2"/><path d="M142 85c3-1 5 3 5 5a9 9 0 0 1-3 6 8 8 0 0 1-6 1 5 5 0 0 1-4-2c-1-1 1-4 3-6a25 25 0 0 1 5-4z" class="cls-2"/><path d="M112 43c3-2 6 2 6 4a9 9 0 0 1-3 7 9 9 0 0 1-6 2 6 6 0 0 1-4-2c-1-2 1-5 3-7a26 26 0 0 1 4-4z" class="cls-2"/><path d="M22 40c3 0 4 3 4 5a7 7 0 0 1-4 4 7 7 0 0 1-5 1 5 5 0 0 1-2-2c-1-2 1-4 3-5a21 21 0 0 1 4-3z" class="cls-2"/><path d="M55 51c3-1 5 2 5 4a8 8 0 0 1-4 6 8 8 0 0 1-5 1 5 5 0 0 1-3-3c-1-1 1-3 3-5a23 23 0 0 1 4-3z" class="cls-2"/><path d="M253 42c3-1 4 2 3 4a7 7 0 0 1-3 4 6 6 0 0 1-5 0 4 4 0 0 1-2-2c0-2 1-3 3-4a19 19 0 0 1 4-2z" class="cls-2"/><path d="M106 88c3-1 5 3 4 5a9 9 0 0 1-5 6 8 8 0 0 1-6-1 6 6 0 0 1-3-3l5-5a25 25 0 0 1 5-2z" class="cls-2"/><path d="M87 50c4 0 4 5 3 7a9 9 0 0 1-7 3 8 8 0 0 1-6-2 6 6 0 0 1-1-3c0-2 2-4 5-4a26 26 0 0 1 6-1z" class="cls-2"/><path d="M74 72c3 0 4 5 3 7a9 9 0 0 1-7 3 8 8 0 0 1-6-1 6 6 0 0 1-1-4c0-2 2-3 5-4a25 25 0 0 1 6-1z" class="cls-2"/><path d="M68 31c3 1 3 5 2 7a9 9 0 0 1-7 3 8 8 0 0 1-5-2 5 5 0 0 1-2-4c1-2 4-3 6-3a24 24 0 0 1 6-1z" class="cls-2"/><path d="M59 9c3 0 4 4 2 6a8 8 0 0 1-6 3 8 8 0 0 1-5-1 5 5 0 0 1-2-4c0-1 3-3 5-3a23 23 0 0 1 6-1z" class="cls-2"/><path d="M40 22c3 1 3 5 2 6a8 8 0 0 1-6 3 7 7 0 0 1-5-3 5 5 0 0 1-1-3l5-3a22 22 0 0 1 5 0z" class="cls-2"/><path d="M19 9c2 1 2 5 1 6a7 7 0 0 1-5 2 6 6 0 0 1-5-2 4 4 0 0 1-1-3c0-2 3-2 5-2a20 20 0 0 1 5-1z" class="cls-2"/><path d="M36 3c1 3-2 5-4 5a8 8 0 0 1-6-3 7 7 0 0 1-1-5 5 5 0 0 1 2-3c2-1 4 1 5 2a22 22 0 0 1 4 4z" class="cls-2"/><path d="M81 8c-2-3 0-6 2-7a9 9 0 0 1 7 0 8 8 0 0 1 3 5 5 5 0 0 1 0 4c-1 2-4 1-7 0a24 24 0 0 1-5-2z" class="cls-2"/><path d="M87 28c-2-3 0-7 3-7a9 9 0 0 1 7 1 8 8 0 0 1 3 6 6 6 0 0 1-1 3c-1 2-4 1-7 0a25 25 0 0 1-5-3z" class="cls-2"/><path d="M90 73c-2-2 0-6 2-7a9 9 0 0 1 8 1 8 8 0 0 1 4 5 6 6 0 0 1-1 4c-2 2-4 1-7 0a26 26 0 0 1-6-3z" class="cls-2"/><path d="M12 68c-2-2 1-5 3-5a7 7 0 0 1 5 2 7 7 0 0 1 2 4 4 4 0 0 1-1 3c-2 1-4 0-6-1a20 20 0 0 1-3-3z" class="cls-2"/><path d="M-2 28c-1-2 2-4 4-4a7 7 0 0 1 4 3 6 6 0 0 1 1 4 4 4 0 0 1-1 3l-5-2a18 18 0 0 1-3-4z" class="cls-2"/><path d="M68 172c-2-1-2-5 0-6a8 8 0 0 1 6-2 7 7 0 0 1 5 3 5 5 0 0 1 0 3c0 2-3 2-5 2a23 23 0 0 1-6 0z" class="cls-2"/><path d="M244 216c0 3-4 3-6 2a8 8 0 0 1-3-5 7 7 0 0 1 2-6 5 5 0 0 1 3-1c2 0 3 2 3 5a22 22 0 0 1 1 5z" class="cls-2"/><path d="M232 197c-1 3-5 2-6 0a8 8 0 0 1-1-7 7 7 0 0 1 4-4 5 5 0 0 1 4 0l1 6a23 23 0 0 1-2 5z" class="cls-2"/><path d="M266-2c2 3-1 6-3 6a8 8 0 0 1-7-2 8 8 0 0 1-2-6 5 5 0 0 1 1-3c1-1 4 0 6 1a24 24 0 0 1 5 4z" class="cls-2"/><path d="M249 143c2-2 6 0 7 1a9 9 0 0 1 0 7 8 8 0 0 1-4 5 5 5 0 0 1-4-1c-2-1-1-3-1-6a24 24 0 0 1 2-6z" class="cls-2"/><path d="M246 186c-2-2 0-6 2-7a9 9 0 0 1 7 1 8 8 0 0 1 3 5 5 5 0 0 1 0 4h-7a24 24 0 0 1-5-3z" class="cls-2"/><path d="M229 160c2-3 5-2 6 0a8 8 0 0 1 1 7 7 7 0 0 1-4 4 5 5 0 0 1-3 0c-2-1-2-3-1-6a23 23 0 0 1 1-5z" class="cls-2"/><path d="M206 181c2-3 6-1 7 0a8 8 0 0 1 0 7 7 7 0 0 1-4 4 5 5 0 0 1-3 0c-2-1-2-4-1-6a22 22 0 0 1 1-5z" class="cls-2"/><path d="M191 208c1-2 5-1 6 1a8 8 0 0 1 1 6 7 7 0 0 1-4 4 5 5 0 0 1-4 0l-1-5a22 22 0 0 1 2-6z" class="cls-2"/><path d="M187 163c2-2 5-1 6 1a8 8 0 0 1 0 7 7 7 0 0 1-4 3 5 5 0 0 1-4 0v-6a22 22 0 0 1 2-5z" class="cls-2"/><path d="M188 189c3-1 5 2 5 4a8 8 0 0 1-3 6 7 7 0 0 1-6 1 5 5 0 0 1-3-2l3-5a22 22 0 0 1 4-4z" class="cls-2"/><path d="M179 146c2-2 5 0 6 2a8 8 0 0 1 0 6 7 7 0 0 1-4 4 5 5 0 0 1-4-1v-6a22 22 0 0 1 2-5z" class="cls-2"/><path d="M186 104c3-2 5 2 5 4a8 8 0 0 1-3 5 7 7 0 0 1-6 2 5 5 0 0 1-3-2l3-6a22 22 0 0 1 4-3z" class="cls-2"/><path d="M167 175c2-2 5 1 6 2a8 8 0 0 1-1 7 7 7 0 0 1-5 3 5 5 0 0 1-4-1c-1-1 0-4 1-6a22 22 0 0 1 3-5z" class="cls-2"/><path d="M150 146c3-2 5 1 6 3a8 8 0 0 1-2 6 7 7 0 0 1-5 2 5 5 0 0 1-4-1c-1-1 0-4 2-6a23 23 0 0 1 3-4z" class="cls-2"/><path d="M143 125c2-2 5 1 5 3a8 8 0 0 1-2 6 7 7 0 0 1-5 2 5 5 0 0 1-3-1c-1-2 0-4 1-6a23 23 0 0 1 4-4z" class="cls-2"/><path d="M146 171c2-2 5 1 5 3a8 8 0 0 1-2 6 7 7 0 0 1-5 2 5 5 0 0 1-4-2c-1-1 1-4 2-6a21 21 0 0 1 4-3z" class="cls-2"/><path d="M157 190c3-1 5 2 5 4a8 8 0 0 1-3 6 7 7 0 0 1-5 1 5 5 0 0 1-3-2c-1-2 0-4 2-5a22 22 0 0 1 4-4z" class="cls-2"/><path d="M84 110c3-1 5 2 5 4a8 8 0 0 1-3 6 7 7 0 0 1-6 1 5 5 0 0 1-3-2c-1-1 1-3 3-5a23 23 0 0 1 4-4z" class="cls-2"/><path d="M123 140c-2 2-5-1-6-3a8 8 0 0 1 3-7 8 8 0 0 1 5-2 5 5 0 0 1 4 2c1 1 0 4-2 6a23 23 0 0 1-4 4z" class="cls-2"/><path d="M112 115c2 2-1 5-4 5a9 9 0 0 1-6-2 8 8 0 0 1-2-6 5 5 0 0 1 2-3c1-1 4 0 6 2a24 24 0 0 1 4 4z" class="cls-2"/><path d="M133 118c-2 3-6 0-6-2a8 8 0 0 1 1-7 8 8 0 0 1 5-3 5 5 0 0 1 4 1c1 1 0 4-1 6a24 24 0 0 1-3 5z" class="cls-2"/><path d="M167 137c-3 2-6 0-7-2a8 8 0 0 1 2-7 7 7 0 0 1 5-3 5 5 0 0 1 3 1c1 1 1 4-1 6a23 23 0 0 1-2 5z" class="cls-2"/><path d="M198 136c-2 3-5 1-6-1a8 8 0 0 1 0-7 7 7 0 0 1 5-3 5 5 0 0 1 3 1c2 1 1 3 0 6a22 22 0 0 1-2 4z" class="cls-2"/><path d="M211 156c-2 2-6 0-6-2a8 8 0 0 1 1-7 7 7 0 0 1 5-3 5 5 0 0 1 3 1v6a22 22 0 0 1-3 5z" class="cls-2"/><path d="M231 137c-1 3-5 1-6-1a8 8 0 0 1 0-7 8 8 0 0 1 4-4 5 5 0 0 1 4 1l1 6a23 23 0 0 1-3 5z" class="cls-2"/><path d="M238 112c-2 3-6 2-7 0a8 8 0 0 1 0-7 8 8 0 0 1 4-4 5 5 0 0 1 4 0l1 6a24 24 0 0 1-2 5z" class="cls-2"/><path d="M251 95c-2 3-6 1-7 0a9 9 0 0 1-1-7 8 8 0 0 1 4-5 5 5 0 0 1 4 0c2 1 2 4 2 6a24 24 0 0 1-2 6z" class="cls-2"/><path d="M256 126c-3 2-6-1-7-3a9 9 0 0 1 2-7 8 8 0 0 1 5-3 5 5 0 0 1 4 1c1 1 0 4-1 6a24 24 0 0 1-3 6z" class="cls-2"/><path d="M263 65c2 3-2 5-4 5a8 8 0 0 1-6-3 8 8 0 0 1-1-6 5 5 0 0 1 2-3c2-1 4 1 6 2a24 24 0 0 1 3 5z" class="cls-2"/><path d="M113 206c2 3-1 5-3 5a8 8 0 0 1-6-3 7 7 0 0 1-1-6 5 5 0 0 1 2-3l5 3a22 22 0 0 1 3 4z" class="cls-2"/><path d="M130 198c2 2-1 5-3 5a8 8 0 0 1-6-2 7 7 0 0 1-2-5 5 5 0 0 1 1-3c1-1 4 0 6 1a23 23 0 0 1 4 4z" class="cls-2"/><path d="M115 186c1 3-2 5-4 5a8 8 0 0 1-5-3 7 7 0 0 1-2-5 5 5 0 0 1 2-3c2-1 4 0 6 2a22 22 0 0 1 3 4z" class="cls-2"/><path d="M112 166c2 3-2 5-4 5a8 8 0 0 1-5-3 7 7 0 0 1-1-5 5 5 0 0 1 2-3c1-1 3 0 5 2a22 22 0 0 1 3 4z" class="cls-2"/><path d="M130 160c2 3-2 5-4 5a8 8 0 0 1-5-3 7 7 0 0 1-2-5 5 5 0 0 1 2-3c2-1 4 0 6 2a22 22 0 0 1 3 4z" class="cls-2"/><path d="M103 139c2 3-2 5-4 5a8 8 0 0 1-5-3 7 7 0 0 1-1-5 5 5 0 0 1 2-3c1-1 3 0 5 2a23 23 0 0 1 3 4z" class="cls-2"/><path d="M1-2c2 3-1 6-3 6a8 8 0 0 1-6-2 8 8 0 0 1-3-6 5 5 0 0 1 2-3c1-1 4 0 6 1a24 24 0 0 1 4 4z" class="cls-2"/><path d="M67-3c3 1 2 4 1 6a8 8 0 0 1-6 2 7 7 0 0 1-5-3 5 5 0 0 1-1-4l6-2a23 23 0 0 1 5 1z" class="cls-2"/><path d="M244 4c0 3-4 3-6 2a8 8 0 0 1-3-6 7 7 0 0 1 2-5 5 5 0 0 1 3-2c2 1 3 3 3 5a22 22 0 0 1 1 6z" class="cls-2"/><path d="M191-4c1-2 5-1 6 0a8 8 0 0 1 1 7 7 7 0 0 1-4 4 5 5 0 0 1-4 0l-1-6a22 22 0 0 1 2-5z" class="cls-2"/></pattern></defs><path fill="#dde4f2" d="M821 446a6 6 0 0 1-6 1c-2-1-6 0-14 14-1 3-14 17-18 17a6 6 0 0 0-4 2c-8 7-19 7-22 13a6 6 0 0 1-2 3c-10 7-27 17-27 20l-16 12a7 7 0 0 1-2 1c-7 3-1 11-15 13a7 7 0 0 0-3 2c-4 4-8 3-14 8a6 6 0 0 1-4 1c-4 0-18 8-19 15a7 7 0 0 1-4 4c-7 4-12 6-14 9a7 7 0 0 1-4 3c-8 1-16 20-15 16l-15 13-3 6c2 9-7 9-16 9a7 7 0 0 0-5 4c-2 4-15 7-20 12a6 6 0 0 0-1 2c-7 14-14 11-20 13-1 2-10-4-18 14a7 7 0 0 1-3 2c-10 6-12 7-17 13a5 5 0 0 1-1 1c-8 8-4 3-16 12a6 6 0 0 0-2 3c-3 12-26 9-18 12l-16 12a7 7 0 0 1-3 1c-4 1-7 8-12 11a5 5 0 0 1-4 1c-4-1-9 7-14 12a7 7 0 0 1-4 2c-8 1-12 12-17 14-4 2-17 15-28 21a7 7 0 0 0-2 1c-16 16-22 24-24 19 6-3 9-3-10-13-6-4 5-10-8-14a4 4 0 0 1-3-2c-3-8-10-14-13-17a4 4 0 0 1-1-3c1-14-1-8-5-12-5 0 0-10-10-9a7 7 0 0 0-4 2c-4 4-5-7-8-13a4 4 0 0 0-1-2c-9-5-7-15-10-14-6 0-13-10-12-14a4 4 0 0 0-1-3c-7-6-12-9-11-12a5 5 0 0 0 1-4c-2-4-6-9-11-13-8-7-4-13-12-15a4 4 0 0 1-1 0c-5-2-16-6-11-16 0 1-11-11-12-17a3 3 0 0 0-1-1c-5-6-11-6-12-14a4 4 0 0 0-1-2c-6-6-9-17-12-17a3 3 0 0 1-2 0c-6-4-9-12-10-16a4 4 0 0 0-2-2c-10-3-8-6-12-15a4 4 0 0 0 0-1c-6-7-8-12-12-15-3-4-6-12-11-16a4 4 0 0 1-1-3c0-7-3-8-11-12a4 4 0 0 1-1-1c-5-5-8-6-11-14a3 3 0 0 0-1-2c-5-2-4-12-9-13a4 4 0 0 1-2-3c-2-9-8-8-11-12a4 4 0 0 0-2-2c-7-2-8-8-9-11a3 3 0 0 0-1-2c-4-3-6-11-8-13a4 4 0 0 1-1-2c1-9-14-11-17-22-3-6-11-3-14-16a4 4 0 0 0-3-3c-7-2-8-10-8-14a4 4 0 0 0-1-2c-5-4-12-14-9-11-3 7 1 4 13-10v-1c11-11 7-3 17-12 6-6 16-8 19-13a7 7 0 0 1 3-3c10-7 9-11 21-17a7 7 0 0 0 3-2c11-12 24-18 27-20a5 5 0 0 0 0-1c10-8 17-5 17-9a5 5 0 0 1 1-4 37 37 0 0 1 12-9 6 6 0 0 0 3-3c2-6 11-11 14-11a6 6 0 0 0 3-1l14-11a7 7 0 0 1 2-1c4-1 16-6 17-11a6 6 0 0 1 2-4c5-4 14-8 15-11 4-5 6-10 17-13a7 7 0 0 0 3-1l16-13 19-14a6 6 0 0 1 2-1c6-2 10-9 19-15a135 135 0 0 1 19-15 7 7 0 0 1 1 0c8-3 7-9 17-13a7 7 0 0 0 3-2c9-12 20-12 17-12 9-3 13-2 17-11a7 7 0 0 1 4-4c5-1 14-7 15-12a7 7 0 0 1 1-1c5-8 11-10 15-11 10-4 9-11 14-13 10-5 13-4 16-10a6 6 0 0 1 1-2c7-6 17-14 24-17a7 7 0 0 0 1-1c8-6 19-13 25-19a6 6 0 0 0 1-1c1-3 3-6 9-6l9 12c4 3 2 11 11 15a5 5 0 0 0 2 0c10 2 6 16 12 19a4 4 0 0 1 1 2c6 13 13 13 18 21-2-2 14-2 11 10a4 4 0 0 0 1 4c6 3 10 7 9 11a4 4 0 0 0 3 4c5 2 13 6 9 11a5 5 0 0 0-1 5 21 21 0 0 0 9 10 4 4 0 0 0 3 1c14-1 13 3 10 15-1 7 11 9 12 16a4 4 0 0 0 2 3c9 6-2 8 6 14a4 4 0 0 1 1 4c-1 4 4 10 10 13a3 3 0 0 1 2 2c1 2 14 4 15 14a4 4 0 0 0 2 3c11 5 4 5 10 13a4 4 0 0 1 1 4c-2 5 2 7 0 14a4 4 0 0 0 3 4 11 11 0 0 0 6 0c2-1 5 0 6 2 2 8 11 1 11 8a4 4 0 0 0 1 4c6 4 14 19 11 16 2-5 15 2 14 12a4 4 0 0 0 2 4c4 3 12 12 11 15a4 4 0 0 0 1 2c6 11 1 16 8 15a5 5 0 0 1 3 1c11 8 16 7 11 13a5 5 0 0 0-1 3c-1 21 10 0 9 12 0 11 10 4 10 11a4 4 0 0 0 3 3c5 2 5 5 5 9 1 3 4 4 7 2 3-1-4 1 4 10a4 4 0 0 1 1 4c-3 7-1 10 3 11 3 1 4 3 3 5-2 10 8 10 15 13a4 4 0 0 1 1 5c-1 7 1 7 11 11a4 4 0 0 1 2 1c5 6 18 4 12 9"/><path fill="url(#Neues_Muster)" d="M369 449c65-61 281-9 184 182-43 86-307 159-307 159S85 539 122 430c32-95 208-105 247 19z"/></svg>