<svg xmlns="http://www.w3.org/2000/svg" id="Ebene_1" data-name="Ebene 1" viewBox="0 0 2000 6453"><defs><style>.cls-2{fill:none;stroke:#303f62;stroke-linecap:round;stroke-miterlimit:10;stroke-width:8px}.cls-3{fill:#ffc4bc}.cls-4{fill:#f3ecda}.cls-5{fill:#dde4f2}</style><pattern id="New_Pattern_Swatch_2" width="290" height="290" data-name="New Pattern Swatch 2" patternUnits="userSpaceOnUse"><path fill="none" d="M0 0h290v290H0z"/><path d="M173 277c20 0 4 26 21 29" class="cls-2"/><path d="M254 275q15 11 8 28" class="cls-2"/><path d="M290 158c15 0 5 25 19 27" class="cls-2"/><path d="M287 199c4-2 19 29 32 24" class="cls-2"/><path d="M279 227q18 7 15 26" class="cls-2"/><path d="M24 23C7 32 37 49 36 57" class="cls-2"/><path d="M55 29c-2 10 14 13 20 15" class="cls-2"/><path d="M268 257c1-10-9-18-21-14" class="cls-2"/><path d="M77 11c0-1 28 7 32 33" class="cls-2"/><path d="M116 10c17 2 6 24 21 29" class="cls-2"/><path d="M158 23c10-9 19 17 27 18" class="cls-2"/><path d="M210 29c-10 11 12 22 9 40" class="cls-2"/><path d="M173-13c20 0 4 26 21 29" class="cls-2"/><path d="M225 6c-1 19 20 20 18 35" class="cls-2"/><path d="M264 28c15 1 12 20 24 20" class="cls-2"/><path d="M254-15q15 11 8 28" class="cls-2"/><path d="M245 54c7-2 8 24 20 25" class="cls-2"/><path d="M282 61c13-1 7 29 20 34" class="cls-2"/><path d="M254 95c-1 12 34 20 28 25" class="cls-2"/><path d="M233 88c-1 4 0 36 16 34" class="cls-2"/><path d="M256 141c25 0 20 29 19 28" class="cls-2"/><path d="M219 134c0-1 7 21 23 17" class="cls-2"/><path d="M191 59s7 40 21 37" class="cls-2"/><path d="M154 57c24 8-5 22 11 30" class="cls-2"/><path d="M183 103c13-6 13 28 25 31" class="cls-2"/><path d="M157 122c16 4 11 25 22 29" class="cls-2"/><path d="M127 62c10 4 1 23 14 29" class="cls-2"/><path d="M91 55c2 31 14 12 27 33" class="cls-2"/><path d="M51 64c-1 11 31 10 27 20" class="cls-2"/><path d="M109 104c2 14 34 1 29 21" class="cls-2"/><path d="M80 101c13 0 3 27 21 27" class="cls-2"/><path d="M36 80c11 0 13 35 26 30" class="cls-2"/><path d="M17 107c3 5 24 14 23 17" class="cls-2"/><path d="M53 132c13 2 20 8 17 22" class="cls-2"/><path d="M119 150c21-9 17 22 32 23" class="cls-2"/><path d="M84 161a88 88 0 0 0 28 20" class="cls-2"/><path d="M44 167s9 33 29 33" class="cls-2"/><path d="M5 138c10-2 23 11 26 19" class="cls-2"/><path d="M0 158c15 0 5 25 19 27" class="cls-2"/><path d="M-3 199c4-2 19 29 32 24" class="cls-2"/><path d="M52 213c-1 2 14 33 13 33" class="cls-2"/><path d="M32 240c-14 1 17 21 16 25" class="cls-2"/><path d="M-11 227q18 7 15 26" class="cls-2"/><path d="M10 279c14-3 21 22 33 17" class="cls-2"/><path d="M85 223c26-2 29 26 29 26" class="cls-2"/><path d="M100 196c-1 10 17 10 21 15" class="cls-2"/><path d="M134 234c3 18 25 1 25 17" class="cls-2"/><path d="M123 265c12 3 11 26 21 25" class="cls-2"/><path d="M69 267c15-4 18 20 33 19" class="cls-2"/><path d="M135 195c4 8 16 2 22 6 6 5 0 15 9 21" class="cls-2"/><path d="M175 182c15-3 11 25 24 27" class="cls-2"/><path d="M197 161c-6 14 26 15 23 32" class="cls-2"/><path d="M242 172c1 9 23 10 26 27" class="cls-2"/><path d="M236 209c17-11 14 13 29 16" class="cls-2"/><path d="M203 229c16-9 13 23 28 21" class="cls-2"/><path d="M183 255c22-9 21 26 36 21" class="cls-2"/><path d="M-26 28c15 1 12 20 24 20" class="cls-2"/><path d="M-8 61c13-1 7 29 20 34" class="cls-2"/><path d="M10-11c14-3 21 22 33 17" class="cls-2"/><path d="M123-25c12 3 11 26 21 25" class="cls-2"/><path d="M69-23c15-4 18 20 33 19" class="cls-2"/></pattern></defs><path id="Fill-4-Copy-3" d="M507 1033c-2 8-6 10-8 16-8 23 5 53 12 80 6 9 4 11 7 16-3 6 11 11 18 15l6 3c16 14 38 7 57 6-3-9 13-2 20-5 4 2 5-1 7-3-13-3 6-3 9-5-1-1 10-6 14-11 16-24 25-41 25-65 3-26-20-60-50-73l-19-7c-10-11-13-3-20-3-16 3-39 3-57 14-3-5-9 7-13 11 3 5-6 7-8 11z" class="cls-3"/><path id="Combined-Shape" d="M0 192a138 138 0 0 0 14 18c17 14 25 23 43 44 14 14 31 27 51 34 19 12 39 16 58 21 18 1 45 9 63 7 19 5 44-5 64-7 18 5 41-11 58-21 20-14 27-21 51-34 15-19 34-31 43-44 13-11 27-34 32-52 9-17 16-44 21-60 2-16 12-45 7-65a216 216 0 0 0-1-33h244c8 33-9 80-12 107-9 27-20 72-35 99-9 31-32 68-54 87-14 21-46 42-71 73-39 20-51 33-84 55-28 18-66 43-97 35-32 4-74 21-104 13-30 3-76-10-105-13-32-8-65-15-96-35-34-11-63-33-85-55l-5-6z" class="cls-4"/><path id="Combined-Shape-2" d="M0 4052a176 176 0 0 0 27 9l59 17c13 8 20 5 36 8 4-1 27-15 40 6 19 3 33-6 44 5 7 0 22 13 47 11 14 17 28 14 45 15 13 9 27 15 39 21 15 17 45 18 51 23 13 5 26 16 36 19 8 10 19 6 37 11 17-6 29 11 53-4 15 6 34 1 52 6 9 11 26 9 48 9 15 1 31 6 41 10 10 15 13 2 31 10 15 9 22 19 17 19 16 1 32-1 43 5 6 12 19 12 20 33l-3 50c-9 18-10 34-25 52 7-2-16 10-44 44 5 7-12 0-22 22-19 14-18 13-24 25-4 8-14 15-26 24-6 11-19 15-26 22-1 13-13 20-18 35-13 13-19 22-31 36-7 8-22 31-39 32-7 15-22 20-42 24-16 20-18 36-30 38-7 15-21 28-34 31-8 17-20 14-36 28-9 4-19 17-33 31-15 18-19 24-30 32-2 5-18 19-26 27-23 16-31 23-43 42-28 18-34 37-43 36-10 3-27 8-40 9a83 83 0 0 1-45-7c-6-8-20-10-36-19-2-9-17-21-17-23-4 17-11-9-11-47-8-17-12-35-12-64 9-5-10-18-11-38 4-19-12-23-14-42 5-13 17-29 3-38-4-1-6-6-8-12z" class="cls-4" data-name="Combined-Shape"/><path id="Combined-Shape-3" d="M2000 3071l-14-9c-14-9-28-20-41-30-20-15-39-29-59-38-23-11-51-9-60 3-9 11-4 35 10 54 15 19 38 35 63 52l21 14c26 18 59 45 80 82v147a167 167 0 0 1-19 27c-33 39-81 59-128 53-53-5-92-37-126-64l-24-18c-29-22-62-30-75-20s-8 45 10 67c14 18 33 33 53 49 18 15 38 31 56 50 48 54 73 139 25 200-34 43-96 60-157 43-35-10-66-28-92-44l-21-13c-33-19-58-26-77-23-14 2-27 12-36 27s-11 31-6 44c9 21 32 40 57 59l30 25c53 46 91 126 49 191-21 33-57 52-101 53-31 1-66-6-98-22l-27-13c-31-16-61-31-85-26s-44 34-44 64c1 32 20 67 52 95 33 30 77 50 120 70a49 49 0 0 1-42 89c-47-22-99-46-143-85-53-47-84-108-85-168-1-78 54-149 124-162 57-11 107 15 147 35l25 13c31 14 67 16 75 3 8-12-7-42-31-63l-26-21c-33-26-70-54-88-101-17-41-12-88 12-130s63-68 106-75c56-8 107 17 141 36l23 14c23 14 45 27 67 33s45 3 53-8c13-16 0-52-20-73-13-14-29-27-45-41-24-18-48-38-68-64-46-58-58-153 4-204 50-41 127-34 196 17 10 6 18 13 27 20 26 21 51 41 76 44 14 1 31-6 43-21s18-31 14-46c-6-20-24-41-58-64l-19-13c-29-20-62-42-86-75-50-64-40-135-10-173 31-40 100-68 178-33 28 12 52 30 74 47v120z" class="cls-5" data-name="Combined-Shape"/><path id="Combined-Shape-4" d="M0 2267c47-4 92-7 130-12 41 3 67-42 123 20 41 10 73 31 119 41 191 82 327 273 304 421-4 132-68 228-176 360-26 22-92 53-87 57-20 11-142 7-61 28-15 6-18 27-45 15-44 11-145-27-129 20-58 1-119 10-178 10z" class="cls-3" data-name="Combined-Shape"/><path id="Fill-4-Copy-4" d="M1414 1810l10-1c13 0 27 12 40 20l6 6c4-1 4 7 5 11l1 3c4 11-3 19-6 28-4-3-4 6-6 9 1 2-1 2-2 3 0-7-3 2-5 3l-7 5c-15 3-26 4-38 0-14-4-28-20-30-37v-10c-4-6 0-7 1-10 4-7 8-18 17-24-2-3 5-3 8-5 1 3 4-1 6-1z" class="cls-5"/><path id="Combined-Shape-5" d="M2000 5437v353l-43-19c-14-6-21-19-41-17-8-12-7-17-24-24-12-15-15-10-26-23-24-21-50-36-49-28-19-12-24-12-36-22-17-8-29-23-37-23-12-3-20-13-31-18-5-3-37-13-32-18-18-28-32-15-35-27-21-9-11-18-34-24-3 1-14-20-35-25-7-22-36-17-35-26-7-15-4-10-34-25-10-10-26-13-35-26l-43-38c-9-5-23-27-24-52 2-1 18-6-9-7 14-9 20-33 35-42 1-18 34-28 36-44 17-1 25-6 39-41 16-5 6 6 16-13-2-15 19-20 26-20 25-13 15-12 27-7-2-2 22-4 26 2 3 3 35-2 30 16 10 12 18 13 41 31 2 18 36 27 41 30 14 6 22 5 25 18 19 0 17 9 26 17-4 3 10 17 25 17 10 0 26 23 27 15 17-7 17-2 46 15-1 18 10 10 0 8-2 18 20 19 32 28 7 22 39 26 35 24 13 4 19 6 36 21 23 12 19 11 34 14z" class="cls-5" data-name="Combined-Shape"/><path d="M748 6453H504c-1-13-3-24-6-36-5-24-11-39-21-59-5-25-15-40-33-53l-42-44c-18-11-29-27-52-33-20-3-34-17-58-22-24 1-42-9-63-7-19 3-43-6-63 7-22 19-35 8-58 22-19 6-33 26-52 33-17 18-28 27-42 44-3 5-11 10-14 15v-237c31-12 58-46 89-57 39-22 60-4 96-35 34-21 74-6 105-12 34-3 65 14 105 12 39 8 62 32 96 35 38 11 56 37 85 56 22 23 48 46 71 73 29 22 46 46 54 87 17 34 26 59 34 99a329 329 0 0 1 13 112z" class="cls-4"/><path fill="url(#New_Pattern_Swatch_2)" d="M2000 5139c-68-22-176-55-181-41-6 21 0 51 0 51s-39 0-41 27 64 163 61 185-83 124-62 157 23 112 11 126-35 70 20 61c44-8 150 2 192 7z"/></svg>