<?xml version="1.0" encoding="UTF-8"?>
<svg width="35px" height="25px" viewBox="0 0 35 25" version="1.1" xmlns="http://www.w3.org/2000/svg" xmlns:xlink="http://www.w3.org/1999/xlink">
    <!-- Generator: Sketch 47.1 (45422) - http://www.bohemiancoding.com/sketch -->
    <title>icon-yt</title>
    <desc>Created with Sketch.</desc>
    <defs></defs>
    <g stroke="none" stroke-width="1" fill="none" fill-rule="evenodd">
        <g transform="translate(-1051.000000, -19.000000)" fill="#FFFFFF">
            <g>
                <path d="M1085.26858,22.9038306 C1086,25.6889113 1086,31.5 1086,31.5 C1086,31.5 1086,37.3108871 1085.26858,40.096371 C1084.86608,41.6328629 1083.68026,42.8429435 1082.17426,43.2538306 C1079.44486,44 1068.5,44 1068.5,44 C1068.5,44 1057.55514,44 1054.82574,43.2538306 C1053.31994,42.8429435 1052.13392,41.6328629 1051.73142,40.096371 C1051,37.3108871 1051,31.5 1051,31.5 C1051,31.5 1051,25.6889113 1051.73142,22.9038306 C1052.13392,21.3671371 1053.31994,20.1570565 1054.82574,19.746371 C1057.55514,19 1068.5,19 1068.5,19 C1068.5,19 1079.44486,19 1082.17426,19.746371 C1083.68026,20.1570565 1084.86608,21.3671371 1085.26858,22.9038306 Z M1065,37 L1074,31.5002102 L1065,26 L1065,37 Z"></path>
            </g>
        </g>
    </g>
</svg>