<?xml version="1.0" encoding="UTF-8"?>
<svg width="26px" height="26px" viewBox="0 0 26 26" version="1.1" xmlns="http://www.w3.org/2000/svg" xmlns:xlink="http://www.w3.org/1999/xlink">
    <!-- Generator: Sketch 47.1 (45422) - http://www.bohemiancoding.com/sketch -->
    <title>icon-twitter</title>
    <desc>Created with Sketch.</desc>
    <defs></defs>
    <g stroke="none" stroke-width="1" fill="none" fill-rule="evenodd">
        <g transform="translate(-1108.000000, -19.000000)" fill-rule="nonzero" fill="#303F62">
            <g>
                <path d="M1121,19 C1113.83183,19 1108,24.8318295 1108,32 C1108,39.1676468 1113.83183,45 1121,45 C1128.16765,45 1134,39.1676468 1134,32 C1134,24.8318295 1128.16869,19 1121,19 Z M1128.26148,28.4853078 C1128.2682,28.6374884 1128.27186,28.7909063 1128.27186,28.9443242 C1128.27186,33.6155274 1124.7643,39 1118.3468,39 C1116.37693,39 1114.54318,38.4166409 1113,37.4132385 C1113.27286,37.4460254 1113.55061,37.4627281 1113.83202,37.4627281 C1115.46677,37.4627281 1116.97027,36.897309 1118.16428,35.9495824 C1116.63819,35.9211259 1115.34956,34.8991649 1114.90578,33.4942778 C1115.11821,33.5351067 1115.33736,33.5579957 1115.56138,33.5579957 C1115.87942,33.5579957 1116.1883,33.5159295 1116.4807,33.4348902 C1114.88502,33.1107331 1113.68308,31.6823384 1113.68308,29.9687597 C1113.68308,29.9539128 1113.68308,29.9384473 1113.68369,29.924219 C1114.15372,30.1883699 1114.69151,30.347974 1115.26288,30.365914 C1114.3277,29.7330653 1113.71177,28.6504794 1113.71177,27.4243736 C1113.71177,26.7760594 1113.8833,26.1685741 1114.18363,25.6464584 C1115.90323,27.785648 1118.47438,29.192391 1121.37272,29.3408599 C1121.3129,29.0816579 1121.28299,28.812558 1121.28299,28.5347974 C1121.28299,26.5830498 1122.84448,25 1124.7704,25 C1125.77396,25 1126.67923,25.4293226 1127.31653,26.1159913 C1128.11193,25.9576245 1128.85666,25.6643984 1129.53241,25.2579647 C1129.26992,26.0838231 1128.7187,26.7760594 1127.99655,27.2140427 C1128.70283,27.1286731 1129.37675,26.9393752 1130,26.6579029 C1129.53485,27.3656047 1128.94334,27.9885555 1128.26148,28.4853078 Z"></path>
            </g>
        </g>
    </g>
</svg>
