<?xml version="1.0" encoding="UTF-8"?>
<svg width="30px" height="30px" viewBox="0 0 30 30" version="1.1" xmlns="http://www.w3.org/2000/svg" xmlns:xlink="http://www.w3.org/1999/xlink">
    <!-- Generator: Sketch 48.2 (47327) - http://www.bohemiancoding.com/sketch -->
    <title>Combined Shape</title>
    <desc>Created with Sketch.</desc>
    <defs></defs>
    <g id="speaker-detail-1366-copy" stroke="none" stroke-width="1" fill="none" fill-rule="evenodd" transform="translate(-367.000000, -1487.000000)">
        <path d="M382,1517 C373.715729,1517 367,1510.28427 367,1502 C367,1493.71573 373.715729,1487 382,1487 C390.284271,1487 397,1493.71573 397,1502 C397,1510.28427 390.284271,1517 382,1517 Z M381.896382,1494.00666 C381.770234,1494.0258 381.65122,1494.07738 381.550987,1494.15633 L375.287834,1498.9458 C375.10555,1499.08591 374.999101,1499.30306 375.000006,1499.53297 L375.000006,1508.26941 C375.000046,1508.67634 375.329918,1508.99996 375.736847,1509 L379.421055,1509 C379.827984,1508.99996 380.157856,1508.67634 380.157896,1508.26941 L380.157896,1504.5856 C380.157896,1504.03331 380.605611,1503.5856 381.157896,1503.5856 L382.842104,1503.5856 C383.394389,1503.5856 383.842104,1504.03331 383.842104,1504.5856 L383.842104,1508.26941 C383.842144,1508.67634 384.172016,1508.99996 384.578945,1509 L388.263153,1509 C388.670082,1508.99996 388.999954,1508.67634 388.999994,1508.26941 L388.999994,1499.53297 C389.000899,1499.30306 388.89445,1499.08591 388.712166,1498.9458 L382.449013,1494.15633 C382.292505,1494.03399 382.093236,1493.98002 381.896382,1494.00666 Z" id="Combined-Shape" fill="#303F62"></path>
    </g>
</svg>