<?xml version="1.0" encoding="UTF-8"?>
<svg width="30px" height="30px" viewBox="0 0 30 30" version="1.1" xmlns="http://www.w3.org/2000/svg" xmlns:xlink="http://www.w3.org/1999/xlink">
    <!-- Generator: Sketch 48.2 (47327) - http://www.bohemiancoding.com/sketch -->
    <title>Page 1</title>
    <desc>Created with Sketch.</desc>
    <defs></defs>
    <g id="speaker-detail-1366-copy" stroke="none" stroke-width="1" fill="none" fill-rule="evenodd" transform="translate(-367.000000, -1431.000000)">
        <g id="CONTENT" transform="translate(80.000000, 126.000000)" fill="#303F62">
            <path d="M301.999959,1305 C293.716042,1305 287,1311.85034 287,1320.29991 C287,1327.27391 291.579082,1333.14587 297.834082,1334.98906 C298.303372,1334.96971 298.483995,1334.61975 298.483995,1334.31017 C298.483995,1333.98461 298.472449,1333.12316 298.465851,1331.97905 C294.728851,1332.80769 293.940378,1330.14259 293.940378,1330.14259 C293.329229,1328.55935 292.448382,1328.13788 292.448382,1328.13788 C291.228558,1327.28737 292.540756,1327.30504 292.540756,1327.30504 C293.889243,1327.40178 294.598539,1328.71667 294.598539,1328.71667 C295.796919,1330.81139 297.742534,1330.20653 298.508738,1329.85572 C298.630803,1328.96988 298.977204,1328.36586 299.361543,1328.02347 C296.378376,1327.67772 293.241804,1326.50248 293.241804,1321.25053 C293.241804,1319.75477 293.765528,1318.53159 294.624931,1317.5734 C294.486371,1317.2268 294.025328,1315.83368 294.756068,1313.94675 C294.756068,1313.94675 295.884344,1313.57828 298.451005,1315.35164 C299.522372,1315.04795 300.672091,1314.89568 301.814387,1314.89064 C302.955034,1314.89568 304.104753,1315.04795 305.177769,1315.35164 C307.742781,1313.57828 308.868582,1313.94675 308.868582,1313.94675 C309.601796,1315.83368 309.140754,1317.2268 309.002194,1317.5734 C309.863246,1318.53159 310.383671,1319.75477 310.383671,1321.25053 C310.383671,1326.5151 307.24215,1327.67351 304.249087,1328.01253 C304.731573,1328.43569 305.161274,1329.27273 305.161274,1330.5506 C305.161274,1332.38286 305.144779,1333.86094 305.144779,1334.31017 C305.144779,1334.67612 305.386434,1335.10263 306.068513,1334.96887 C306.089957,1334.97813 306.103978,1334.9899 306.123772,1335 C312.400216,1333.17111 316.999918,1327.28906 316.999918,1320.29991 C316.999918,1311.85034 310.283875,1305 301.999959,1305" id="Page-1"></path>
        </g>
    </g>
</svg>