<svg height="39" viewBox="0 0 258 39" width="258" xmlns="http://www.w3.org/2000/svg"><g fill="none" fill-rule="evenodd"><g fill="#fff"><path d="m60.8750199 24.3745224c.0136211 5.3270817-.0256398 7.9448572-4.1039628 11.9714082-1.6673851 1.6642653-2.5896149 2.0884898-3.5535093 2.0908776-1.8797143-.039-3.4229068-1.4899592-3.5663292-3.3532041-.0032049-1.3880817 1.2691677-2.0081021 2.2306584-3.0141429 2.0648013-2.0606326 2.0583913-4.5423061 2.0503789-7.7777143l-.0416646-16.37044894c-.003205-1.22014286-.0048074-2.05108163.519205-2.75069388.5232112-.70040816 1.4494472-1.00683673 2.9429627-1.01002041 1.4943168-.00397959 2.4125404.29846939 2.9445652.99569388.5312236.69642857.5336274 1.52736735.5368323 2.74830612z"/><path d="m79.8630186 17.0822388c2.3332174 1.5225918 4.3579566 3.655653 4.3667702 7.3208571.0144224 5.5594898-4.6327826 8.6556123-10.214236 8.6699388-2.067205.0262653-4.1135776-.4154694-5.9828758-1.2925714-1.3997702-.6948368-2.5527577-1.609347-2.5559627-3.1383062-.0040062-1.443 1.0424161-3.3189795 2.7594782-3.3229591 1.7178634-.0047756 3.1296522 2.0065102 5.8106087 1.9993469 1.9317951-.0047755 3.2450311-1.0100204 3.2410249-2.5851429-.0040062-1.7008775-1.5864596-2.6591632-3.5262671-3.6564489-3.3523975-1.7032653-7.9026522-3.7432041-7.915472-8.892796-.0128199-5.06363261 4.3739813-8.30063261 9.827236-8.31416322 3.8651925-.0087551 8.0028074 1.63640816 8.0092174 4.20881632.0032049 1.39285715-1.2259006 3.1796939-2.897292 3.1836735-1.5800496.0039796-2.9910372-1.60775513-5.2473354-1.6021837-1.7130559.00477551-2.7666894.9137143-2.7634844 2.0892857.0104161 2.291449 3.9685528 3.2895306 7.08859 5.3326531"/><path d="m101.616265 26.8066102c1.146577-.0015918 2.280335-.2284286 3.337174-.6661837 1.319645-.5253061 2.153739-1.1397551 3.075968-1.1413469 1.799591-.0047755 2.773901 2.1338571 2.777106 3.441551.003205 1.0888163-.693876 2.0065102-1.971056 2.7809388-2.020733 1.2304898-5.020584 1.8003673-7.601385 1.8067347-8.0388633.0198979-14.3830993-5.3326531-14.4063354-14.6289796-.0240372-9.77865307 6.9067081-14.6417143 14.4616214-14.66002042 2.773099-.00716326 5.675199.64389796 7.477192 1.71918368 1.372528.82695918 1.981472 1.72873469 1.984677 2.83108163.003205 1.36102041-.904602 3.49567351-2.759478 3.50044901-.967901.0023877-1.891733-.5619184-3.300317-1.1262245-1.100105-.4552653-2.281136-.68846941-3.473385-.68608166-3.8635899.00955103-7.3746333 2.50555106-7.3610122 8.26720406.020031 5.9622245 3.7169627 8.5720408 7.7592302 8.5616939"/><path d="m128.092513 27.1998735c4.924435-.0127347 8.030851-3.2505306 8.01723-8.8362857-.014423-5.5857551-3.183336-8.86732658-8.094149-8.8553878-4.910013.01193878-8.030851 3.2505306-8.01723 8.8362857.014422 5.5857551 3.174522 8.8537959 8.094149 8.8410612zm-.017627-23.59500003c9.231112-.02228571 15.04813 6.21134694 15.068161 14.62738773.022435 8.5577143-5.942012 14.8120408-15.123447 14.8343266-9.180634.0222857-15.033708-6.211347-15.05454-14.6281837-.021634-8.55293879 5.928391-14.810449 15.109826-14.83353063z"/><path d="m154.530382 28.9044122c.003205 1.2201429.004807 2.0057143-.518404 2.7236327-.524012.7179184-1.36772 1.0418571-2.79313 1.0458367-1.42541.0031837-2.330814-.3844285-2.862037-1.0323061-.531224-.6470816-.52882-1.5273673-.532025-2.720449l-.055286-22.31118364c-.004006-1.66028572 1.175422-2.72522449 3.646453-2.73079592 2.549553-.00636735 3.520659 1.08006122 4.666435 2.5652449l11.346392 14.74199996-.033653-13.54493874c-.003205-1.22014286-.004807-2.00491837.52241-2.72363265.528019-.71791837 1.367721-1.04663265 2.793131-1.04981633 1.42541-.00397959 2.330813.38840816 2.858031 1.03628572.526416.64708163.532826 1.482.536031 2.72124489l.056087 22.34620411c.004006 1.8154898-1.181031 2.7530816-3.190547 2.7578571-2.096851.0047755-3.117633-.9503265-4.313888-2.476102l-12.147634-15.3970408z"/><path d="m187.403989 28.8228306c.003205 1.1755714.005609 2.0065102-.517603 2.7244286-.524012.7179184-1.395764 1.0418571-2.853223 1.0458367-1.456659.0031837-2.375683-.3390612-2.907708-1.0323061-.531224-.6932449-.52882-1.5273674-.532025-2.7212449l-.052882-21.52959184c-.00641-2.26836735.904602-3.1462653 3.243428-3.15183673l10.136516-.02546939c1.182633-.00238776 1.978267-.00477551 2.681758.47436735.705093.47914285 1.054434 1.26312244 1.057639 2.57479591.003205 1.31087756-.391807 2.13783674-1.044018 2.62095919-.652211.48232651-1.492714.45685711-2.680957.46004081l-6.577397.0159184.01282 5.0962653 5.362714-.0135306c1.188242-.0031837 1.982273-.0055715 2.682559.4743673.700286.4791429 1.053633 1.2177551 1.056838 2.5286327.003205 1.3116734-.391807 2.0845102-1.044018 2.5803673-.652211.4966531-1.487907.4799388-2.680155.4831225l-5.361914.0135306z"/><path d="m201.158113 32.6734041c-2.370876.0055714-3.914068-1.5194082-3.919677-3.8745306-.005609-2.3543266 1.533578-3.8785102 3.900447-3.8840817 2.366069-.0063673 3.918075 1.5647755 3.924485 3.8785102.005608 2.3137347-1.524764 3.8737347-3.905255 3.8801021"/><path d="m216.935694 14.5165163 4.791429-.0119387c1.183435-.0031837 2.01913-.0047756 2.682559.4473061.525615.3438367 1.048826 1.0864285 1.052832 2.4840612.003205 1.3976327-.520807 2.1378367-1.040012 2.4888367-.65782.4552653-1.493516.4576531-2.676149.4608368l-4.791429.0119387.015224 6.0394286 7.34018-.019102c1.188242-.0023878 2.023137-.0047755 2.682559.448102.530422.3470204 1.052832 1.0904082 1.056838 2.4832653.003205 1.3928572-.524813 2.1426123-1.044819 2.4896327-.656218.4552653-1.492715.4568571-2.679354.4600408l-10.725429.0262653c-2.375683.0055714-3.254646-.8993878-3.260255-3.2226735l-.054484-21.76995916c-.00641-2.35989796.868546-3.23302041 3.24423-3.23938775l9.843261-.02387755c1.183434-.00318368 2.01913-.00477551 2.682559.44730612.526416.34304082 1.048024 1.08642857 1.052031 2.48406122.003205 1.39763266-.520007 2.14261225-1.040013 2.49281633-.656217.45606122-1.491913.45844898-2.679354.46083673l-6.464422.01591837z"/><path d="m249.494012 25.0903714c1.224299-1.4867755 1.265162-3.4972653 1.261156-5.0668163l-.031249-12.58744898c-.003205-1.22014285-.005608-2.05028571.519205-2.75069388.523211-.70040816 1.39977-1.00524489 2.9021-1.00922448 1.50313-.0039796 2.371677.29767346 2.9029.99569387.532025.69722449.52882 1.52736735.532025 2.74830613l.030447 12.22291834c.008013 2.9679796.016025 6.3530204-2.479844 9.3082653-1.903752 2.1871837-4.951677 3.7646939-10.227056 3.7782245-5.275379.0119388-8.312889-1.5870612-10.167764-3.7233061-2.533528-2.9616122-2.541541-6.2423878-2.549553-9.3369184l-.030447-12.18710201c-.003205-1.22014286-.005609-2.05028572.523211-2.75069388.528018-.70040816 1.445441-1.00683673 2.939758-1.01002041 1.493515-.00397959 2.416546.29767347 2.942962.99489796.528019.69802041.533628 1.52816327.536833 2.74830612l.031248 12.57312242c.004006 1.570347.009615 3.5800408 1.241926 5.0564694.916621 1.0912041 2.420552 1.7327143 4.622366 1.7271429 2.201814-.0055715 3.57995-.6263878 4.499776-1.7311225"/></g><path d="m2.60107267 37.876402 33.15780743-.0819796c1.243528-.0151224 2.245882-1.0155918 2.2546957-2.251653l-.0817267-32.91361226c-.003205-1.24481632-1.0143727-2.25404081-2.2667143-2.26359183l-33.15700623.08197959c-1.25073913.01830612-2.25469565 1.03230612-2.25149068 2.27393877l.08252795 32.91520413c.0152236 1.2328775 1.01998136 2.2277755 2.26190683 2.2397142" fill="#e10079"/><path d="m17.3473752 20.0623163c1.8452608-1.8314081 4.8330931-1.8393673 6.6871677-.0167143 1.7867701-1.8377755 4.7369441-1.8895102 6.5878136-.1138163.0336522.0318367.0665031.0644694.0985528.097898 1.8917329 1.8648367 1.8989441 4.6736326-.0737143 6.7334694l-6.4836521 6.473204-6.5165031-6.4405714c-2.169764-1.959551-2.1769752-4.8590816-.2996646-6.7334694" fill="#fff"/></g></svg>