<?xml version="1.0" encoding="utf-8"?>
<svg version="1.1" xmlns="http://www.w3.org/2000/svg" xmlns:xlink="http://www.w3.org/1999/xlink" x="0px" y="0px"
   viewBox="0 0 40 40" style="enable-background:new 0 0 40 40;" xml:space="preserve">
<style type="text/css">
  .st0{fill:#E10079;}
  .st1{fill:#FFFFFF;}
</style>
<title>Heart Logo</title>
<g>
  <path class="st0" d="M2.4,40h35.2c1.3,0,2.4-1.1,2.4-2.4V2.4C40,1.1,38.9,0,37.6,0H2.4C1.1,0,0,1.1,0,2.4v35.2
  C0,38.9,1.1,40,2.4,40"/>
  <path class="st1" d="M18.1,21c2-2,5.1-1.9,7.1,0c2-2,5.1-2,7.1,0c2,2,2,5-0.1,7.2l-6.9,6.9c-0.7-0.7-4.5-4.5-6.9-6.9
  C16.1,26.1,16.1,23,18.1,21"/>
</g>
</svg>
