<svg data-name="Layer 1" xmlns="http://www.w3.org/2000/svg" viewBox="0 0 564 84"><style type="text/css">.cls-1{fill:#303f62;}.cls-2{fill:#e10079;}.cls-3{fill:#fff;}</style><title>jsconf-logo-full</title><g><path class="cls-1" d="M132.93,53.05c0,11.74-.1,17.51-9.05,26.36-3.66,3.66-5.68,4.59-7.79,4.59a8,8,0,0,1-7.79-7.41c0-3.06,2.79-4.42,4.9-6.63,4.53-4.53,4.53-10,4.53-17.13V16.75c0-2.69,0-4.52,1.15-6.06s3.18-2.21,6.45-2.21,5.28.67,6.44,2.21,1.16,3.37,1.16,6.06Z"/><path class="cls-1" d="M174.54,37.08c5.1,3.37,9.52,8.08,9.52,16.16,0,12.25-10.19,19.05-22.41,19.05a29.76,29.76,0,0,1-13.09-2.88c-3.06-1.54-5.58-3.56-5.58-6.93,0-3.18,2.3-7.31,6.06-7.31s6.84,4.44,12.71,4.44c4.23,0,7.11-2.21,7.11-5.68,0-3.75-3.46-5.87-7.7-8.08-7.33-3.77-17.28-8.29-17.28-19.64,0-11.16,9.62-18.27,21.56-18.27,8.46,0,17.51,3.65,17.51,9.32,0,3.07-2.7,7-6.36,7-3.46,0-6.54-3.56-11.48-3.56-3.75,0-6.06,2-6.06,4.59C159.06,30.34,167.72,32.56,174.54,37.08Z"/><path class="cls-1" d="M222.11,58.63a19.06,19.06,0,0,0,7.31-1.45c2.89-1.15,4.72-2.5,6.74-2.5,3.94,0,6.06,4.72,6.06,7.6,0,2.4-1.53,4.42-4.33,6.12-4.43,2.7-11,3.94-16.65,3.94-17.6,0-31.46-11.83-31.46-32.32,0-21.55,15.2-32.23,31.74-32.23,6.07,0,12.42,1.45,16.36,3.83,3,1.83,4.33,3.82,4.33,6.25,0,3-2,7.7-6.06,7.7-2.12,0-4.14-1.25-7.22-2.5a19.61,19.61,0,0,0-7.6-1.53c-8.46,0-16.16,5.48-16.16,18.18C205.18,52.86,213.26,58.63,222.11,58.63Z"/><path class="cls-1" d="M280.16,7.64c20.21,0,32.91,13.77,32.91,32.32,0,18.86-13.09,32.61-33.19,32.61S247,58.8,247,40.25C247,21.4,260.06,7.64,280.16,7.64Zm-.09,52c10.78,0,17.6-7.12,17.6-19.43S290.75,20.65,280,20.65s-17.6,7.12-17.6,19.43S269.3,59.61,280.07,59.61Z"/><path class="cls-1" d="M337.94,63.54c0,2.69,0,4.42-1.15,6s-3,2.29-6.12,2.29-5.1-.86-6.26-2.29-1.15-3.37-1.15-6V14.37c0-3.66,2.59-6,8-6,5.58,0,7.7,2.4,10.2,5.68L366.22,46.6V16.75c0-2.69,0-4.42,1.16-6s3-2.3,6.12-2.3,5.1.87,6.25,2.3,1.16,3.27,1.16,6V66c0,4-2.6,6.06-7,6.06-4.59,0-6.82-2.11-9.43-5.48l-26.51-34Z"/><path class="cls-1" d="M409.91,63.54c0,2.59,0,4.42-1.15,6s-3.06,2.29-6.25,2.29-5.2-.76-6.36-2.29-1.15-3.37-1.15-6V16.09c0-5,2-6.93,7.12-6.93h22.19c2.59,0,4.33,0,5.87,1.06s2.3,2.79,2.3,5.68-.87,4.71-2.3,5.77-3.27,1-5.87,1h-14.4V33.9h11.74c2.6,0,4.34,0,5.87,1.06s2.3,2.69,2.3,5.58-.87,4.59-2.3,5.68-3.26,1.05-5.87,1.05H409.91Z"/><path class="cls-1" d="M440,72.1c-5.19,0-8.56-3.37-8.56-8.56S434.82,55,440,55s8.57,3.47,8.57,8.57S445.21,72.1,440,72.1Z"/><path class="cls-1" d="M474.64,32.17h10.49c2.59,0,4.42,0,5.87,1,1.15.76,2.29,2.4,2.29,5.48s-1.15,4.71-2.29,5.48c-1.44,1-3.27,1-5.86,1H474.65V58.44h16.07c2.6,0,4.43,0,5.87,1,1.16.77,2.3,2.41,2.3,5.48s-1.16,4.72-2.3,5.48c-1.44,1-3.27,1-5.87,1H467.24c-5.2,0-7.12-2-7.12-7.12V16.3c0-5.2,1.92-7.12,7.12-7.12h21.55c2.59,0,4.42,0,5.87,1,1.15.76,2.29,2.4,2.29,5.48s-1.15,4.72-2.29,5.49c-1.44,1-3.27,1-5.87,1H474.64Z"/><path class="cls-1" d="M545.86,55.65c2.69-3.27,2.79-7.7,2.79-11.16V16.75c0-2.69,0-4.52,1.15-6.06s3.07-2.21,6.36-2.21,5.19.67,6.35,2.21,1.15,3.37,1.15,6.06V43.69c0,6.54,0,14-5.48,20.5C554,69,547.32,72.46,535.77,72.46s-18.19-3.54-22.24-8.26C508,57.66,508,50.43,508,43.61V16.75c0-2.69,0-4.52,1.16-6.06s3.17-2.21,6.44-2.21,5.29.67,6.44,2.21,1.16,3.37,1.16,6.06V44.46c0,3.46,0,7.89,2.69,11.15,2,2.41,5.29,3.83,10.11,3.83S543.84,58.08,545.86,55.65Z"/></g><path class="cls-2" d="M5.28,82.49H77.87a5,5,0,0,0,4.95-4.95V5A5,5,0,0,0,77.87,0H5.28A5,5,0,0,0,.34,5V77.54a5,5,0,0,0,4.94,4.95"/><path data-name="Path" class="cls-3" d="M37.66,43.31a10.38,10.38,0,0,1,14.64,0,10.2,10.2,0,0,1,14.64,0c4.13,4.12,4.13,10.31-.2,14.84L52.51,72.38,38.28,58.15c-4.74-4.33-4.74-10.72-.62-14.84"/></svg>
