<svg height="354" viewBox="0 0 355 354" width="355" xmlns="http://www.w3.org/2000/svg"><g fill="none" fill-rule="evenodd"><path d="m177.498745 0-177.498745 177.001252 177.498745 176.998748 177.501255-176.998748z" fill="#f76272"/><g transform="translate(50 49)"><path d="m108.828028 217.36325c7.156643-7.1425 18.762079-7.1425 25.921227 0 7.159149 7.145 7.159149 18.7275 0 25.8725-7.159148 7.1425-18.764584 7.1425-25.921227 0-7.156644-7.145-7.156644-18.7275 0-25.8725" fill="#fb8a8b"/><path d="m57.1634238 165.80075c7.1566435-7.1425 18.7620792-7.1425 25.9212277 0 7.1566435 7.1425 7.1566435 18.7275 0 25.8725-7.1591485 7.1425-18.7645842 7.1425-25.9212277 0-7.1566436-7.145-7.1566436-18.73 0-25.8725" fill="#2d41a0"/><path d="m5.49631485 114.23825c7.15914855-7.1425 18.76458415-7.1425 25.92373265 0 7.1566436 7.1425 7.1566436 18.725 0 25.87-7.1591485 7.1425-18.7645841 7.1425-25.92373265 0-7.15664356-7.145-7.15664356-18.7275 0-25.87" fill="#6058c5"/><path d="m163.340009 162.96125c7.156643-7.145 18.762079-7.145 25.921228 0 7.156643 7.1425 7.156643 18.725 0 25.87-7.159149 7.1425-18.764585 7.1425-25.921228 0-7.156644-7.145-7.156644-18.7275 0-25.87" fill="#ffd2bb"/><path d="m111.675405 111.3965c7.156644-7.1425 18.762079-7.1425 25.921228 0 7.156643 7.1425 7.156643 18.7275 0 25.8725-7.159149 7.1425-18.764584 7.1425-25.921228 0-7.156644-7.145-7.156644-18.73 0-25.8725" fill="#fff"/><path d="m72.9711644 54.475c-4.6917723 0-9.3835446 1.7875-12.9606139 5.36-7.1566436 7.1425-7.1566436 18.7275 0 25.87 3.5770693 3.57 8.2688416 5.3575 12.9606139 5.3575 4.6892673 0 9.3810396-1.7875 12.9606138-5.3575 7.1566436-7.1425 7.1566436-18.7275 0-25.87-3.5795742-3.5725-8.2713465-5.36-12.9606138-5.36m0 6.935c3.0385049 0 5.8966534 1.1825 8.0484059 3.3275 4.4362673 4.43 4.4362673 11.635 0 16.0625-2.1517525 2.1475-5.009901 3.3275-8.0484059 3.3275-3.0410099 0-5.8991585-1.18-8.048406-3.3275-4.4362673-4.4275-4.4362673-11.6325 0-16.0625 2.1492475-2.145 5.0073961-3.3275 8.048406-3.3275" fill="#ff9fda"/><path d="m230.812353 103.19825c-4.691772 0-9.381039 1.785-12.960613 5.36-7.156644 7.1425-7.156644 18.725 0 25.8675 3.579574 3.5725 8.268841 5.3575 12.960613 5.3575 4.691773 0 9.383545-1.785 12.960614-5.3575 7.156644-7.1425 7.156644-18.725 0-25.8675-3.577069-3.575-8.268841-5.36-12.960614-5.36m0 6.935c3.04101 0 5.896654 1.1825 8.048406 3.325 4.436268 4.43 4.436268 11.6375 0 16.065-2.149247 2.145-5.007396 3.325-8.048406 3.325-3.038504 0-5.896653-1.18-8.048405-3.325-2.146743-2.1475-3.331585-5-3.331585-8.0325s1.184842-5.885 3.331585-8.0325c2.151752-2.1425 5.009901-3.325 8.048405-3.325" fill="#e10079"/><path d="m166.187386 56.992c7.156644-7.1425 18.762079-7.1425 25.921228 0 7.156643 7.1425 7.156643 18.7275 0 25.8725-7.159149 7.1425-18.764584 7.1425-25.921228 0-7.159148-7.145-7.159148-18.73 0-25.8725" fill="#a231ef"/><path d="m114.520528 5.4295c7.156643-7.1425 18.764584-7.1425 25.923732 0 7.156644 7.1425 7.156644 18.725 0 25.87-7.159148 7.145-18.767089 7.145-25.923732 0-7.156644-7.145-7.156644-18.7275 0-25.87" fill="#15216b"/></g></g></svg>