<svg version="1" id="Ebene_1" xmlns="http://www.w3.org/2000/svg" xmlns:xlink="http://www.w3.org/1999/xlink" viewBox="0 0 1366 938"><style>.st0{fill:none}.st1{fill:#303f62}.st4{fill:#ff008f}</style><pattern y="938" width="264" height="212" patternUnits="userSpaceOnUse" id="Neues_Muster" viewBox="11 -219 264 212" overflow="visible"><path class="st0" d="M11-219h264V-7H11z"/><path class="st0" d="M11-7h264v-212H11V-7z"/><path class="st1" d="M136-227c-1-4-5-4-7-3s-3 4-3 7l2 5 4 2c2 0 3-3 3-6l1-5zm38-2c-3-1-5 2-5 4l3 6 6 1 3-2c1-1-1-3-3-5l-4-4zm-21 2c-3-1-5 2-5 4l3 6 6 1 3-2c1-1-1-3-3-5l-4-4zm72 2c-3 0-5 3-4 5l5 5h5l2-3c1-2-1-3-3-4-1-2-3-3-5-3zm-178 2c1-2-2-4-4-4l-6 3-1 5 2 3c2 0 4-1 5-3l4-4zm230 6c2-3-1-6-3-6-2-1-5 0-7 2l-2 5 1 4c1 1 4 0 6-2l5-3zm-265 0c2-3-1-6-3-6-2-1-4 0-6 2-2 1-3 3-3 5l2 4c1 1 4 0 6-2l4-3zm270 19c3 1 5-2 5-4 0-3-1-5-3-6-2-2-4-3-6-2l-3 3c-1 1 0 3 2 5l5 4zm-8 163c-2 2 1 4 3 4l5-3 1-4c0-2-1-3-2-3l-5 2-2 4zM62-124c2 3 6 1 7 0 1-3 2-5 1-7s-2-4-4-4h-4c-2 1-2 3-1 6l1 5zm37-67c1 3 5 1 6 0 1-3 2-5 1-7s-2-4-4-4h-4l-1 6 2 5zm-26 89c1 2 5 1 7-1v-7c-1-3-2-4-4-5h-4l-1 7 2 6zm5-90c1 3 5 1 6 0v-7c-1-2-2-4-4-4l-3 1c-2 0-2 3-1 5l2 5zm-18 44c2 2 6 1 7-1v-6c-1-2-2-4-4-4h-3c-2 0-2 3-1 5l1 6zm30-6c2 3 6 1 7-1v-6c-1-2-2-4-4-4h-4v6l1 5zm-35-49c2 2 5-1 5-2 1-3 0-5-1-7s-3-2-5-2c-1-1-3 0-4 1s0 4 1 6l4 4zm5 31c2 2 5-1 6-3 1-3 0-5-1-6-1-2-3-3-5-3l-3 1c-2 1-1 4 0 6l3 5zm20 35c2 3 6 2 7 0v-7c-1-2-2-4-4-4h-3c-2 1-2 3-1 6l1 5zm-60-33c3 2 6 0 6-2 1-3 0-6-2-7-1-2-3-2-5-2l-3 1c-1 1 0 4 1 6l3 4zm-3-28c3 1 6-2 6-4 0-3-2-5-4-6-1-2-3-2-5-2s-3 1-4 3l3 5 4 4zm27 88c2 1 5-1 5-3 0-3 0-5-2-6-1-2-3-2-5-2l-3 1c-1 1 0 4 1 6l4 4zM18-91c3 2 5-1 5-3l-2-5c-1-2-3-3-5-2-1 0-2 0-3 2-1 1 1 3 2 5l3 3zm2-24c3 2 5-1 5-3s-1-4-3-5c-1-2-3-2-5-1-1 0-2 0-3 2l3 4 3 3zm17-71c3 1 5-2 5-4 0-3-1-5-3-6-2-2-4-2-6-1l-3 2c-1 1 1 4 3 5l4 4zm41-30c3-1 2-5 1-6-2-2-4-3-6-2-2 0-4 1-5 3l-1 4 6 2 5-1zm-37 58c1-3-2-5-4-5l-6 3-1 5 2 3c2 1 4-1 5-2l4-4zm-14 15c1-3-2-5-4-5s-4 1-5 3l-1 5 1 3c2 1 4-1 6-2l3-4zm20 44c0-3-4-3-6-2l-2 6 2 5 4 2 2-6v-5zm92 13c-1-3-5-3-7-2s-3 4-3 7l2 6 4 1c2 0 3-3 3-6l1-6zm18 28c0-4-4-5-6-4s-4 2-5 5v7l4 2 5-5 2-5zm-21 23c0-4-4-5-6-4s-4 2-5 5l1 6 3 3c2 0 3-2 5-5l2-5zm0 20c-1-4-5-4-7-2-2 1-3 3-3 6l2 6 4 1c2 0 3-3 3-5l1-6zm38-2c-3-1-5 2-5 4l3 6 6 1 3-2c1-1-1-3-3-5l-4-4zm-21 2c-3-1-5 2-5 4l3 6 6 2 3-3c1-1-1-3-3-5l-4-4zm6-23c-3-1-5 2-5 4s1 5 3 7l6 1 3-2c1-2-1-4-3-6l-4-4zm32 4c-3 0-4 3-4 5l5 5h5l3-2c0-2-2-4-4-5-1-2-3-3-5-3zm-11-19c-3-1-5 3-5 5 1 2 2 5 5 6h6l2-3c1-1-1-3-3-5-1-2-3-3-5-3zm45 40c-3 0-5 4-4 5l5 5h5l2-3c1-1-1-3-3-4-1-2-3-3-5-3zm-15-16c-3 0-2 4-1 6l6 2 5-2 1-3c0-2-3-3-5-3h-6zm23-8c-3 0-4 4-3 6s4 3 6 4l5-2 2-3c0-1-2-3-5-3l-5-2zm-23-18c-3 2-1 5 0 7h7l4-4v-3c-1-2-3-2-6-1l-5 1zm-17-39c-3 1-2 5 0 6l7 1 4-4v-3c0-2-3-2-6-2l-5 2zm39 38c-1 3 2 5 4 5l5-3c2-2 2-4 2-6l-2-2c-2-1-4 0-6 2l-3 4zm3-19c1 3 5 2 6 1 2-2 3-5 2-7 0-2-1-4-3-4l-3-1c-2 0-2 3-2 5v6zm-38 10c1 3 4 3 6 3 2-2 4-4 4-6l-1-5-3-2c-2 0-3 2-4 4l-2 6zm56 36c0 3 4 4 6 3l3-6-1-5-3-2c-2 0-3 2-4 5l-1 5zm-33-58c2 3 6 1 6-1v-6c-1-2-2-4-4-4-1-1-3 0-4 1v6l2 4zm2-26c1 2 5 0 6-1v-7c-1-2-2-4-4-4-1-1-3 0-4 1v5l2 6zm-60 43c3 3 6 0 7-2 1-3 0-5-1-6-1-2-3-4-5-4-1-1-3 0-4 1v6l3 5zm6-34c3 2 6-1 6-3 0-3 0-6-2-7-1-2-3-2-5-2-1-1-3 0-4 1-1 2 0 4 2 6l3 5zm-15 12c3 1 5-3 5-5 0-3-1-5-3-6-2-2-4-2-6-1-2 0-3 0-4 2-1 1 1 4 3 6l5 4zm-30 42c3 2 6-2 6-4 0-3-1-6-3-7-2-2-4-2-6-2-1 0-3 0-4 2s1 5 3 7l4 4zm-90 3c3 0 4-3 4-5-1-2-2-4-4-4-1-1-3-2-5-1l-2 2c-1 2 1 4 3 5l4 3zm33-11c3 1 5-2 5-4a8 8 0 0 0-9-7l-3 3c-1 1 1 3 3 5l4 3zm198 9c3 1 4-2 3-4 0-2-1-3-3-4h-5l-2 2c0 2 1 3 3 4l4 2zM117-95c3 1 5-3 4-5-1-3-2-5-5-6-2-1-4-1-6 1l-3 3 5 5 5 2zM98-57c4 0 4-5 3-7-2-2-4-4-7-3-2-1-4 0-6 2l-1 3c0 2 2 4 5 4l6 1zM85-79c3 0 4-5 3-7-2-2-4-4-7-3-2-1-4-1-6 1l-1 4c0 2 2 3 5 4l6 1zm-6 41c3-1 3-5 2-7-2-2-4-3-7-3-2 0-4 0-5 2l-2 4c1 2 4 3 6 3l6 1zm-9 22c3 0 4-4 2-6-1-2-4-3-6-3-2-1-3 0-5 1l-2 4c0 1 3 3 5 3l6 1zM51-29c3-1 3-5 2-6-1-2-4-3-6-3s-4 1-5 3l-1 3 5 3h5zM30-16c2-1 2-5 1-6-1-2-3-2-5-2-2-1-4 0-5 2l-1 3c0 2 3 2 5 2l5 1zm17 6c1-3-2-5-4-5l-6 3-1 5 2 3c2 1 4-1 5-2l4-4zm45-5c-2 3 0 6 2 7h7c2-2 3-3 3-5v-4c-1-2-4-1-7 0l-5 2zm6-20c-2 3 0 7 3 7l7-1 3-6-1-3c-1-2-4-1-7 0-2 0-3 1-5 3zm3-45c-2 2 0 6 2 7l8-1 4-5-1-4c-2-2-4-1-7 0l-6 3zm-78 5c-2 2 1 5 3 5l5-2 2-4-1-3c-2-1-4 0-6 1l-3 3zM9-35c-1 2 2 4 4 4l4-3 1-4-1-3-5 2-3 4zm70-144c-2 1-2 5 0 6l6 2 5-3v-3c0-2-3-2-5-2h-6zm176-44c0-3-4-3-6-2s-3 3-3 5 0 4 2 6l3 1c2 0 3-2 3-5l1-5zm-12 19c-1-3-5-2-6 0s-2 4-1 7l4 4h4l1-6-2-5zM277-5c2-3-1-6-3-6-2-1-5 0-7 2l-2 6 1 3c1 1 4 0 6-1l5-4zm-17-145c2 2 6 0 7-1v-7c-1-3-2-4-4-5-1-1-3 0-4 1-2 1-1 3-1 6l2 6zm-3-43c-2 2 0 6 2 7l7-1c2-2 3-3 3-5v-4h-7c-2 0-3 1-5 3zm-17 26c2 3 5 2 6 0 1-3 2-5 1-7s-2-4-4-4h-3c-2 1-2 3-1 6l1 5zm-23-21c2 3 6 1 7 0v-7c-1-2-2-4-4-4h-3c-2 1-2 4-1 6l1 5zm-15-27c1 2 5 1 6-1s2-4 1-6-2-4-4-4h-4l-1 5 2 6zm-4 45c2 2 5 1 6-1v-7c-1-2-2-3-4-3h-4v6l2 5zm1-26c3 1 5-2 5-4 0-3-1-5-3-6-2-2-4-2-6-1l-3 2 3 5 4 4zm-9 43c2 2 5 0 6-2v-6c-1-2-2-4-4-4-1-1-3 0-4 1v6l2 5zm7 42c3 2 5-2 5-4s-1-4-3-5c-2-2-4-3-6-2l-3 2 3 6 4 3zm-19-71c2 2 5-1 6-2 1-3 0-5-1-7s-3-3-5-3c-1-1-3 0-4 1s0 4 1 6l3 5zm-17 29c3 2 5-1 6-3 0-3 0-5-2-6-1-2-3-2-5-2-1-1-3 0-4 1s0 4 2 6l3 4zm-7 21c2 2 5-1 5-3 0-3 0-5-2-6-1-2-3-2-5-2l-3 1c-1 2 0 4 1 6l4 4zm3-46c2 2 5-1 5-3 0-3 0-5-2-6-1-2-3-2-5-2s-3 0-4 2c-1 1 1 4 2 6l4 3zm11-19c3 1 5-2 5-4 0-3-1-5-3-6-1-1-3-2-5-1l-3 2c-1 2 0 4 2 5l4 4zm-73 80c3 1 5-2 5-4 0-3-1-5-3-6-2-2-4-2-6-1l-3 2c-1 1 1 3 3 5l4 4zm39-30c-2-2-5 1-6 3 0 2 1 5 3 7l5 2 4-2c1-1 0-4-2-6l-4-4zm-11 25c2-2-1-5-4-5-2-1-4 0-6 2l-2 6 2 3c1 1 4 0 6-2l4-4zm21-3c-2-3-6 0-6 2-1 2 0 4 1 7l5 3 4-1c1-1 0-4-1-6l-3-5zm34-19c-3-2-6 0-7 2 0 2 0 5 2 7l5 3 3-1c1-1 1-4-1-6l-2-5zm31 1c-2-3-5-1-6 1v7l5 3 3-1c2-1 1-3 0-6l-2-4zm13-20c-2-2-6 0-6 2-1 2 0 4 1 7l5 3 3-1v-6l-3-5zm20 19c-1-3-5-1-6 1v7l4 4 4-1 1-6-3-5zm7 25c-2-3-6-2-7 0v7l4 4h4l1-6-2-5zm13 17c-2-3-6-1-7 0-1 2-2 4-1 7l4 5h4c2-1 2-4 2-6l-2-6zm5-31c-3-2-6 1-7 3 0 2 0 5 2 7l5 3 4-1c1-1 0-4-1-6l-3-6zm7 61c2-3-2-5-4-5l-6 3-1 6 2 3c2 1 4-1 6-2l3-5zM124-213c2-3-1-5-3-5l-6 3c-1 1-2 4-1 6l2 3 5-3 3-4zm17 8c2-2-1-5-3-5-2-1-4 0-6 2l-2 5 1 3c1 1 4 0 6-1l4-4zm-15 12c1-3-2-5-4-5s-4 1-5 3l-2 5 2 3c2 1 4 0 6-2l3-4zm-3 20c2-3-2-5-4-5s-4 1-5 3l-1 5 2 3c1 1 3 0 5-2l3-4zm18 6c2-3-2-5-4-5s-4 1-5 3l-2 5 2 3c2 1 4 0 6-2l3-4zm-27 21c2-3-2-5-4-5s-4 1-5 3l-1 5 2 3c1 1 3 0 5-2l3-4zM12-5c2-3-1-6-3-6-2-1-4 0-6 2-2 1-3 3-3 6l2 3c1 1 4 0 6-1l4-4zm66 1c3-1 2-4 1-6-2-2-4-3-6-2-2 0-4 1-5 3l-1 4 6 2 5-1zm177-7c0-3-4-3-6-2s-3 3-3 6l2 5 3 2c2-1 3-3 3-5l1-6zm-53 8c1 2 5 1 6 0 1-2 2-5 1-7s-2-4-4-4h-4l-1 6 2 5z"/></pattern><pattern y="938" width="290" height="290" patternUnits="userSpaceOnUse" id="New_Pattern_Swatch_2" viewBox="30 -319 290 290" overflow="visible"><path class="st0" d="M30-319h290v290H30z"/><path class="st0" d="M30-29h290v-290H30v290z"/><path d="M203-306c20 0 4-26 21-29m60 31c10-7 13-17 8-28m28 145c15 0 5-25 19-27m-22-14c4 2 19-29 32-24m-40-4c12-5 17-13 15-26M54-52c-17-9 13-26 12-34m19 28c-2-10 14-13 20-15m193-213c1 10-9 18-21 14M107-40c0 1 28-7 32-33m7 34c17-2 6-24 21-29m21 16c10 9 19-17 27-18m25 12c-10-11 12-22 9-40m-46 82c20 0 4-26 21-29m31 10c-1-19 20-20 18-35m21 13c15-1 12-20 24-20m-34 63c10-7 13-17 8-28m-17-41c7 2 8-24 20-25m17 18c13 1 7-29 20-34m-48 0c-1-12 34-20 28-25m-49 32c-1-4 0-36 16-34m7-19c25 0 20-29 19-28m-56 35c0 1 7-21 23-17m-51 92s7-40 21-37m-58 39c24-8-5-22 11-30m18-16c13 6 13-28 25-31m-51 12c16-4 11-25 22-29m-52 89c10-4 1-23 14-29m-50 36c2-31 14-12 27-33M81-93c-1-11 31-10 27-20m31-20c2-14 34-1 29-21m-58 24c13 0 3-27 21-27m-65 48c11 0 13-35 26-30m-45 3c3-5 24-14 23-17m13-8c13-2 20-8 17-22m49 4c21 9 17-22 32-23m-67 12c8-8 17-15 28-20m-68 14s9-33 29-33m-68 62c10 2 23-11 26-19m-31-1c15 0 5-25 19-27m-22-14c4 2 19-29 32-24m23 10c-1-2 14-33 13-33m-33 6c-14-1 17-21 16-25m-59 38c12-5 17-13 15-26m6-26c14 3 21-22 33-17m42 73c26 2 29-26 29-26m-14 53c-1-10 17-10 21-15m13-23c3-18 25-1 25-17m-36-14c12-3 11-26 21-25m-75 23c15 4 18-20 33-19m33 91c4-8 16-2 22-6 6-5 0-15 9-21m9 40c15 3 11-25 24-27m-2 48c-6-14 26-15 23-32m22 21c1-9 23-10 26-27m-32-10c17 11 14-13 29-16m-62-4c16 9 13-23 28-21m-48-5c22 9 21-26 36-21M4-57c15-1 12-20 24-20m-6-13c13 1 7-29 20-34M40-18c14 3 21-22 33-17m80 31c12-3 11-26 21-25M99-6c15 4 18-20 33-19" fill="none" stroke="#303f62" stroke-width="8" stroke-linecap="round" stroke-miterlimit="10"/></pattern><path d="M1366 0h-286L957 183c-8 13-28 23-26 41-16 25-72 114-87 133-6 7-22 22-20 33-11 17-5 52 21 41l53 4c16 1 52 14 67 4l401 30V0z" fill="#6058c5"/><path class="st4" d="M0 485l397 90c21 5 40-19 31-36 0 0-1-24-21-51-7-16-7-48-23-57-9-22-19-39-29-72-5-13-11-33-16-40-5-14-23-33-17-42L210 0H0v485z"/><path d="M595 575c-11-6-55-21-84-20-13-2-90-7-95-19-17-4-416-67-416-67v469h226l1-1c7-8 21-11 22-23 8-8 22-17 23-23 19-19 49-58 76-66 13-10 31-14 41-30 24-15 68-33 84-57 17-11 52-53 73-53 10-8 16-21 30-24 9-9 22-15 25-28 18-32 10-31-6-58z" fill="#dde4f2"/><path d="M147 22c3 13 9 25 10 39 2 15 7 28 11 43 4 13 3 27 6 41l10 41c4 25 10 49 15 73 5 20 13 43 39 39 0 0 24-6 35-7l87-20 41-8c15-2 29-8 43-10 26-6 53-9 78-19 18-8 35-21 50-33 17-20 29-35 38-61 0 0 8-23 8-41 0-12 2-26-3-37-6-10-12-24-15-35-2-10-14-27-14-27H144s0 15 3 22z" fill="#0024dd"/><path class="st4" d="M1366 350c-23 3-23 36-48 37-10 21-12-22-12-26-1-8 2-27-7-33-2-1-29 6-44 5-10 2-7 16-22 13 2-35 18-126-8-152-14-14-36 15-48 27-19 27-81 90-107 109-8 6-30 37-40 35-16 31-45 55-73 73-15 31-46 40-71 61-32 26-67 50-100 75-54 40-91 70-92 139 0 15-5 43 0 57 12 31 32 3 47 20 5 5-1 38-1 44 0 22 10 44 10 64-1 20-8 25-23 40h151c5-6 12-8 21-9 0-11 3-18 14-12 8-12 18-21 28-29-5-7-12-24 0-28 6-3 8 4 15 3 9-15 37-54 54-54 1-8 3-17 12-18 11-17 23-33 43-33 4-6 10-5 15-6 1-21 52-65 68-77 17-14 70-74 91-69 7-8 11-20 23-20l10-12c-5-26 10-16 20-13 8-6 31 7 43 7 6-17 17-29 31-37V350z"/><path d="M861 0l33 44c6 10 13 21 21 30 4 6 19 18 18 25l36 48c19 24 53 6 63-17l10-27c4-6 17-21 14-26 13-25 31-50 40-77H861zM414 490c-5 1-9 0-13-2-5 5-8 5-9-2-5 0-8-3-11-6-14 10-10-6-24-6-4 5-7 3-9-2-14 14-12-8-8-15s19-18 26-24c-16-12-72-15-91-23-19 18-33 36-61 35-24-1-49-10-72-14-17-3-50 0-63-10-13 11-61-4-79-7v98c6 3 3 9 2 14 6-5 10-5 14 1 3-2 5-1 8-1 6-6 11-2 16 2 3-2 6-1 8 2 7 1 15-2 21 4 4-7 16 2 23 3 7-4 26-19 29-5 1 11-17 15 0 25 14-8 32 7 47 9 12 2 23 1 35 2l64 7c15 1 33-3 46 6 6-1 12-1 17 2 8-4 38-4 46-1 1-7 21-24 27-22 1-3 2-7 7-9 6-14-7-12-6-23 1-13 23-15 16-31-5 0-4-4-6-7z" fill="#ffc4bc"/><path class="st1" d="M1366 819c-15-15-40-14-58-6-19 10-30 27-45 39-13 11-39 18-35-8 3-16 18-29 26-43 10-18 16-39 6-59a56 56 0 0 0-55-30c-19 2-35 16-46 30-6 6-23 28-33 18-14-7 17-51 20-59 10-27 1-54-24-68-50-29-96 21-118 61-4 6-7 12-4 19 5 12 19 13 28 5 12-12 17-31 30-44 9-9 21-16 35-16s26 9 24 24c-3 22-23 38-26 60-5 32 20 59 53 50 13-4 24-12 34-22 8-9 16-22 28-25h1c15-6 27 11 25 24-2 12-11 21-17 31-18 26-34 70 1 90 22 13 51 4 68-13 12-11 37-47 56-36l4 2c8 11-10 29-17 36-15 15-30 36-26 59h33v-4l-1-4 1-2c4-18 22-29 32-43v-66z"/><pattern id="SVGID_1_" xlink:href="#Neues_Muster" patternTransform="matrix(1 0 0 -1 -23 -17042)"/><path d="M205 0c4 8 7 16 8 24 6 14 12 30 24 37 30 37 67 48 112 60 14 1 29-5 45-1 2 15 12 26 13 43 14 32 55 82 93 88 13 5 30 13 42 10 33 4 56-7 89-13 13-6 61-33 66-55 8-12 19-26 20-40 20-55-5-98-3-153H205z" fill="url(#SVGID_1_)"/><pattern id="SVGID_2_" xlink:href="#New_Pattern_Swatch_2" patternTransform="matrix(1 0 0 -1 -287 -17241)"/><path d="M249 659L63 938h399L299 660a29 29 0 0 0-50-1z" fill="url(#SVGID_2_)"/></svg>