<?xml version="1.0" encoding="utf-8"?>
<!-- Generator: Adobe Illustrator 18.1.1, SVG Export Plug-In . SVG Version: 6.00 Build 0)  -->
<svg version="1.1" id="Layer_1" xmlns="http://www.w3.org/2000/svg" xmlns:xlink="http://www.w3.org/1999/xlink" x="0px" y="0px"
   width="673px" height="505px" viewBox="0 0 673 505" enable-background="new 0 0 673 505" xml:space="preserve">
<path fill="#4B6AB3" d="M239,372.5l-37.8,13.1c-2.1,0.7-4.4-0.4-5.1-2.5l-13.1-37.8c-0.7-2.1,0.4-4.4,2.5-5.1l37.8-13.1
  c2.1-0.7,4.4,0.4,5.1,2.5l13.1,37.8C242.2,369.5,241.1,371.8,239,372.5z"/>
<path fill="#E4A1C8" d="M556.8,44.5L520,60.1c-2,0.9-4.4-0.1-5.2-2.1l-15.6-36.8c-0.9-2,0.1-4.4,2.1-5.2L538,0.3
  c2-0.9,4.4,0.1,5.2,2.1l15.6,36.8C559.8,41.3,558.8,43.6,556.8,44.5z"/>
<path fill="#051ADD" d="M115.5,109.8c2.1,0.6,4.9,1.4,6.3,3.7c1.3,2.2,0.6,4.6,0.1,6.6l-3.9,14.2c-0.9,3.4,0.7,4.3,3.3,5l-0.7,2.4
  c-2.6-0.7-4.5-0.8-5.5,2.6l-3.9,14.2c-0.5,2-1.2,4.4-3.5,5.6c-2.4,1.3-5.2,0.5-7.3-0.1l0.7-2.4c2.9,0.8,5.9,1.5,7.2-3.2l4.1-14.6
  c0.5-1.8,1.2-4.5,4.8-4.4c-3.1-1.8-2.3-4.4-1.8-6.2l4.1-14.6c1.3-4.6-1.6-5.6-4.5-6.4L115.5,109.8z"/>
<rect x="279.3" y="191.9" transform="matrix(-1.544645e-02 -0.9999 0.9999 -1.544645e-02 67.8419 514.6939)" fill="#051ADD" width="16" height="64"/>
<circle fill="#051ADD" cx="208.6" cy="280.1" r="12"/>
<circle fill="#F5F6F7" cx="269.8" cy="371.4" r="12"/>
<circle fill="#E00079" cx="274.8" cy="278.8" r="12"/>
<circle fill="#E4A1C8" cx="584.7" cy="125.6" r="12"/>
<circle fill="#4B6AB3" cx="331.1" cy="202.9" r="12"/>
<g>
  <path fill="#E00079" d="M96.2,471.2c-0.3,0-0.5-0.1-0.7-0.3l-80-86.2c-0.4-0.4-0.4-1,0.1-1.4c0.4-0.4,1-0.4,1.4,0.1l80,86.2
    c0.4,0.4,0.4,1-0.1,1.4C96.7,471.1,96.5,471.2,96.2,471.2z"/>
  <polygon fill="#E00079" points="104,460.7 86.2,477.2 103.4,477.9  "/>
</g>
<circle fill="#051ADD" cx="348.6" cy="273.1" r="12"/>
<circle fill="#E4A1C8" cx="549.7" cy="153.7" r="12"/>
<circle fill="#E00079" cx="129.9" cy="336.3" r="12"/>
<circle fill="#E4A1C8" cx="112.4" cy="27.3" r="12"/>
<circle fill="#4B6AB3" cx="462.3" cy="385.5" r="12"/>
<path fill="#051ADD" d="M438.3,380.6c3.1,0.2,6.1,0.3,6.4-4.5l1.2-15.1c0.2-1.9,0.4-4.6,3.9-5.2c-3.3-1.2-3.1-3.9-3-5.8L448,335
  c0.4-4.8-2.6-5.2-5.6-5.4l0.2-2.5c2.2,0.2,5,0.4,6.8,2.4c1.7,1.9,1.5,4.4,1.3,6.4l-1.2,14.7c-0.3,3.5,1.5,4.1,4.2,4.3l-0.2,2.5
  c-2.7-0.2-4.6,0.1-4.9,3.6l-1.2,14.7c-0.2,2-0.4,4.5-2.4,6.1c-2.1,1.7-5,1.5-7.1,1.3L438.3,380.6z"/>
<path fill="#E00079" d="M663.3,358.5l-39.7-5.2c-2.2-0.3-3.7-2.3-3.4-4.5l5.2-39.7c0.3-2.2,2.3-3.7,4.5-3.4l39.7,5.2
  c2.2,0.3,3.7,2.3,3.4,4.5l-5.2,39.7C667.5,357.2,665.5,358.8,663.3,358.5z"/>
<rect x="78.1" y="290.3" transform="matrix(0.8197 -0.5727 0.5727 0.8197 -169.0418 107.4201)" fill="#051ADD" width="16" height="64"/>
<polygon fill="#E4A1C8" points="11.1,147.6 50.8,142.4 66.9,179.1 "/>
<polygon fill="#4B6AB3" points="569.4,458.5 609.2,454.5 624.2,491.6 "/>
<polygon fill="#E00079" points="306.8,437.6 307.3,397.6 345.9,386.9 "/>
<polygon fill="#051ADD" points="387.4,412.6 424.5,397.5 449.3,428.9 "/>
<polygon fill="#F5F6F7" points="282.7,299.1 320.3,285.4 344,317.6 "/>
<g>
  <path fill="#4B6AB3" d="M204.3,402.5l2.1,1.3l-11.6,18.5l-2.1-1.3L204.3,402.5z M196.7,397.7l2.1,1.3l-11.6,18.5l-2.1-1.3
    L196.7,397.7z"/>
  <path fill="#4B6AB3" d="M187.1,430l2.1,1.3l-11.6,18.5l-2.1-1.3L187.1,430z M179.5,425.2l2.1,1.3L170,445l-2.1-1.3L179.5,425.2z"/>
  <path fill="#4B6AB3" d="M169.9,457.4l2.1,1.3l-11.6,18.5l-2.1-1.3L169.9,457.4z M162.3,452.7l2.1,1.3l-11.6,18.5l-2.1-1.3
    L162.3,452.7z"/>
</g>
<g>
  <path fill="#051ADD" d="M348,149c-0.5,0-1-0.4-1-1l-1.2-57.7c0-0.6,0.4-1,1-1c0.6,0,1,0.4,1,1L349,148C349,148.6,348.6,149,348,149
    C348,149,348,149,348,149z"/>
  <polygon fill="#051ADD" points="334.6,92.2 358.9,91.7 346.5,79.8  "/>
</g>
<g>
  <path fill="#E4A1C8" d="M103.1,28.6l-0.2,2.5l-21.8-1.5l0.2-2.5L103.1,28.6z M103.7,19.6l-0.2,2.5l-21.8-1.5l0.2-2.5L103.7,19.6z"
    />
  <path fill="#E4A1C8" d="M70.7,26.4l-0.2,2.5l-21.8-1.5l0.2-2.5L70.7,26.4z M71.3,17.4l-0.2,2.5l-21.8-1.5l0.2-2.5L71.3,17.4z"/>
  <path fill="#E4A1C8" d="M38.4,24.2l-0.2,2.5l-21.8-1.5l0.2-2.5L38.4,24.2z M39,15.3l-0.2,2.5l-21.8-1.5l0.2-2.5L39,15.3z"/>
</g>
<rect x="432.8" y="226" transform="matrix(-0.3016 -0.9534 0.9534 -0.3016 351.9842 733.8281)" fill="#E00079" width="24" height="24"/>
<path fill="#E00079" d="M27.3,113.5l33.5-21.9c1.8-1.2,4.3-0.7,5.5,1.2l21.9,33.5c1.2,1.8,0.7,4.3-1.2,5.5l-33.5,21.9
  c-1.8,1.2-4.3,0.7-5.5-1.2l-21.9-33.5C24.9,117.2,25.4,114.7,27.3,113.5z"/>
<path fill="#F5F6F7" d="M222.1,311.1c-0.7,0.5-1.8,1.2-2.6,1.8c-2.2,1.7-2.3,2.7-1.5,4c0.5,0.8,1.2,1.4,0.2,2.2
  c-0.7,0.5-1.2,0.4-2.1-0.8c-2.3-3-1.2-5.1,1.4-7.1c0.8-0.6,2-1.4,2.7-1.9c1.3-1,1.8-1.8,1.1-3.2c-0.3-0.6-1-1.2,0.1-2
  c1.1-0.8,1.5,0,2,0.5c1.1,1.1,2.1,0.8,3.4-0.2c0.7-0.5,1.7-1.4,2.6-2.1c2.6-2,4.9-2.4,7.2,0.6c0.9,1.2,0.9,1.7,0.2,2.2
  c-1,0.8-1.4-0.1-2.1-0.8c-1-1.2-2-1.3-4.2,0.3c-0.8,0.6-1.8,1.5-2.5,2c-1.4,1-2.7,1.6-4.4,0.3C224.4,308.9,223.5,310,222.1,311.1z"
  />
<path fill="#051ADD" d="M152,394.6c1-1.6,2.8-4,3.9-5.8c3.2-5.1,2.7-7.3,0-9.3c-1.7-1.3-3.7-2-2.1-4.4c1-1.6,2.1-1.8,4.9,0
  c7,4.4,6.4,9.5,2.5,15.7c-1.2,1.9-3.1,4.4-4.1,6c-1.9,3-2.4,5.2,0.2,7.4c1.1,1,3,1.8,1.4,4.3c-1.6,2.5-3.1,1.2-4.5,0.6
  c-3.1-1.5-4.9-0.1-6.8,2.9c-1,1.6-2.5,4.3-3.7,6.3c-3.9,6.1-8.3,8.8-15.2,4.4c-2.8-1.8-3.1-2.8-2.1-4.4c1.5-2.4,3-1,4.9,0.1
  c3,1.6,5.2,1.2,8.5-3.9c1.2-1.8,2.5-4.4,3.6-6c2-3.2,4.4-5.5,8.7-4.1C148.9,401,149.9,397.9,152,394.6z"/>
<path fill="#051ADD" d="M346,455.5l-15.1-37c-0.8-2,0.2-4.4,2.2-5.2l37-15.1c2-0.8,4.4,0.2,5.2,2.2l15.1,37c0.8,2-0.2,4.4-2.2,5.2
  l-37,15.1C349.2,458.6,346.8,457.6,346,455.5z"/>
<path fill="#E00079" d="M368.1,248.9l38.1-12.1c2.1-0.7,4.4,0.5,5,2.6l12.1,38.1c0.7,2.1-0.5,4.4-2.6,5l-38.1,12.1
  c-2.1,0.7-4.4-0.5-5-2.6L365.5,254C364.8,251.9,366,249.6,368.1,248.9z"/>
<path fill="#E00079" d="M211.4,211.4c1.3,1.4,3.1,3.7,4.5,5.3c4.1,4.5,6.4,4.5,9,2.4c1.7-1.3,2.9-3,4.8-0.9c1.3,1.4,1.2,2.5-1.3,4.7
  c-6.1,5.6-10.9,3.7-15.8-1.7c-1.6-1.7-3.5-4.1-4.7-5.5c-2.4-2.6-4.4-3.7-7.2-1.7c-1.2,0.8-2.5,2.4-4.5,0.2c-2-2.2-0.3-3.3,0.6-4.5
  c2.2-2.6,1.3-4.7-1-7.3c-1.3-1.4-3.5-3.5-5.1-5.2c-4.9-5.4-6.3-10.3-0.2-15.9c2.4-2.2,3.5-2.2,4.8-0.8c1.9,2.1,0.2,3.2-1.3,4.7
  c-2.4,2.4-2.5,4.7,1.6,9.2c1.5,1.6,3.6,3.6,4.9,5c2.6,2.8,4.1,5.7,1.6,9.5C206.1,206.8,208.9,208.6,211.4,211.4z"/>
<rect x="607.7" y="219" transform="matrix(-0.6317 -0.7752 0.7752 -0.6317 832.1747 857.2777)" fill="#051ADD" width="24" height="24"/>
<rect x="502.8" y="317.3" transform="matrix(-0.9999 1.008294e-02 -1.008294e-02 -0.9999 1032.7996 653.3648)" fill="#4B6AB3" width="24" height="24"/>
<rect x="511.5" y="197.9" transform="matrix(-0.8421 -0.5394 0.5394 -0.8421 851.1021 669.0168)" fill="#4B6AB3" width="24" height="24"/>
<path fill="#051ADD" d="M414.5,142.3l7.4-39.3c0.4-2.2,2.5-3.6,4.7-3.2l39.3,7.4c2.2,0.4,3.6,2.5,3.2,4.7l-7.4,39.3
  c-0.4,2.2-2.5,3.6-4.7,3.2l-39.3-7.4C415.5,146.5,414.1,144.4,414.5,142.3z"/>
<circle fill="#051ADD" cx="637.2" cy="83.5" r="12"/>
<circle fill="#E00079" cx="278.6" cy="174.8" r="12"/>
<circle fill="#4B6AB3" cx="383.5" cy="146.7" r="12"/>
<circle fill="#051ADD" cx="427.3" cy="350.4" r="12"/>
<circle fill="#E00079" cx="243.6" cy="406.5" r="12"/>
<circle fill="#E4A1C8" cx="593.5" cy="357.4" r="12"/>
<circle fill="#4B6AB3" cx="147.4" cy="259.1" r="12"/>
<rect x="187.9" y="43.4" transform="matrix(-0.414 -0.9103 0.9103 -0.414 232.1548 260.2577)" fill="#E00079" width="24" height="24"/>
<rect x="226.8" y="423.7" transform="matrix(0.3942 0.919 -0.919 0.3942 561.053 60.2309)" fill="#051ADD" width="16" height="64"/>
<circle fill="#051ADD" cx="488.5" cy="62.4" r="12"/>
<circle fill="#F5F6F7" cx="506" cy="48.4" r="12"/>
<circle fill="#E00079" cx="497.3" cy="181.8" r="12"/>
<circle fill="#E4A1C8" cx="156.1" cy="343.3" r="12"/>
<circle fill="#051ADD" cx="81.2" cy="108.4" r="12"/>
<circle fill="#E4A1C8" cx="186.6" cy="141.7" r="12"/>
<circle fill="#E00079" cx="628.5" cy="41.4" r="12"/>
<circle fill="#E4A1C8" cx="471" cy="462.7" r="12"/>
<circle fill="#4B6AB3" cx="173.6" cy="34.3" r="12"/>
<rect x="307.8" y="106.6" transform="matrix(-0.5066 0.8622 -0.8622 -0.5066 584.0692 -97.0539)" fill="#E00079" width="24" height="24"/>
<path fill="#051ADD" d="M395.9,36.4c-1.4-1.3-3.4-3.4-5-4.9c-4.4-4.1-6.7-4-9.2-1.7c-1.6,1.5-2.6,3.3-4.7,1.3
  c-1.4-1.3-1.4-2.3,0.9-4.8c5.6-6.1,10.5-4.6,15.9,0.4c1.7,1.6,3.8,3.8,5.2,5.1c2.6,2.4,4.7,3.3,7.3,1.1c1.1-0.9,2.3-2.6,4.5-0.6
  c2.2,2,0.6,3.3-0.2,4.5c-2,2.8-0.9,4.8,1.6,7.2c1.4,1.3,3.8,3.2,5.5,4.8c5.3,5,7.2,9.7,1.5,15.8c-2.3,2.4-3.3,2.5-4.7,1.2
  c-2.1-2-0.4-3.1,0.9-4.8c2.1-2.6,2.1-4.9-2.3-9c-1.6-1.5-3.8-3.3-5.3-4.6c-2.8-2.6-4.6-5.3-2.4-9.3C401.5,40.6,398.7,39,395.9,36.4z
  "/>
<rect x="214.1" y="120.7" transform="matrix(7.114126e-02 0.9975 -0.9975 7.114126e-02 342.3227 -102.3047)" fill="#4B6AB3" width="24" height="24"/>
<circle fill="#051ADD" cx="33.4" cy="477.3" r="12"/>
<circle fill="#4B6AB3" cx="357.3" cy="216.9" r="12"/>
<circle fill="#051ADD" cx="366" cy="69.4" r="12"/>
<circle fill="#E4A1C8" cx="374.8" cy="160.7" r="12"/>
<circle fill="#4B6AB3" cx="576" cy="90.5" r="12"/>
<rect x="546.5" y="415.6" transform="matrix(0.468 0.8837 -0.8837 0.468 675.0218 -266.0646)" fill="#E00079" width="24" height="24"/>
<rect x="401.8" y="269.2" transform="matrix(0.7675 -0.6411 0.6411 0.7675 -97.8041 332.7488)" fill="#E4A1C8" width="16" height="64"/>
<rect x="384.3" y="332.4" transform="matrix(0.2431 0.97 -0.97 0.2431 650.3703 -104.7208)" fill="#E00079" width="16" height="64"/>
<circle cx="345.3" cy="493" r="12"/>
<circle cx="567.2" cy="111.6" r="12"/>
<circle cx="144.9" cy="81.4" r="12"/>
<circle cx="217.3" cy="266.1" r="12"/>
<g>
  <path fill="#E00079" d="M511.4,139.4c-0.4,0-0.9-0.3-1-0.8L481.8,24.5c-0.1-0.5,0.2-1.1,0.7-1.2c0.5-0.1,1.1,0.2,1.2,0.7
    l28.6,114.1c0.1,0.5-0.2,1.1-0.7,1.2C511.5,139.4,511.5,139.4,511.4,139.4z"/>
  <polygon fill="#E00079" points="471.4,28.8 494.9,22.9 480.2,14.1  "/>
</g>
<rect x="471.8" y="220" transform="matrix(0.4927 0.8702 -0.8702 0.4927 462.7281 -289.6325)" fill="#F5F6F7" width="16" height="64"/>
<rect x="91.6" y="303.2" transform="matrix(0.9133 -0.4072 0.4072 0.9133 -119.3885 69.52)" fill="#E4A1C8" width="24" height="24"/>
<circle fill="#051ADD" cx="532.2" cy="195.9" r="12"/>
<circle fill="#E4A1C8" cx="121.1" cy="378.4" r="12"/>
<circle fill="#E4A1C8" cx="313.4" cy="198.1" r="12"/>
<g>
  <path fill="#051ADD" d="M390.7,394.4c-0.5,0-0.9-0.4-1-0.9l-7.7-57.2c-0.1-0.5,0.3-1.1,0.9-1.1c0.5-0.1,1.1,0.3,1.1,0.9l7.7,57.2
    c0.1,0.5-0.3,1.1-0.9,1.1C390.8,394.4,390.8,394.4,390.7,394.4z"/>
  <polygon fill="#051ADD" points="402.6,390.2 378.5,393.4 392.2,403.9   "/>
</g>
<polygon fill="#051ADD" points="323.9,59.5 308.1,96.2 268.4,91.3 "/>
<rect x="48" y="25.4" transform="matrix(0.8733 0.4872 -0.4872 0.8733 35.0851 -20.0023)" fill="#051ADD" width="16" height="64"/>
<circle fill="#051ADD" cx="261.1" cy="392.5" r="12"/>
<circle fill="#E00079" cx="84.9" cy="424.6" r="12"/>
<circle fill="#4B6AB3" cx="541" cy="448.7" r="12"/>
<circle cx="151.6" cy="351.6" r="12"/>
<rect x="599" y="155.8" transform="matrix(-0.423 0.9061 -0.9061 -0.423 1021.4349 -314.8887)" fill="#E4A1C8" width="24" height="24"/>
<rect x="126.6" y="429.6" transform="matrix(-0.1416 0.9899 -0.9899 -0.1416 595.4459 366.9645)" fill="#E4A1C8" width="24" height="24"/>
<circle fill="#E4A1C8" cx="191.1" cy="287.1" r="12"/>
<rect x="389" y="464.8" transform="matrix(-0.9385 -0.3452 0.3452 -0.9385 612.8694 1062.6462)" fill="#E4A1C8" width="24" height="24"/>
<path fill="#4B6AB3" d="M83.8,257.9l-31.3,24.9c-1.7,1.4-4.3,1.1-5.6-0.6L22,250.8c-1.4-1.7-1.1-4.3,0.6-5.6L54,220.3
  c1.7-1.4,4.3-1.1,5.6,0.6l24.9,31.3C85.8,254,85.6,256.6,83.8,257.9z"/>
<g>
  <path fill="#F5F6F7" d="M1.1,306.8L0,304.6l19.4-10.1l1.1,2.2L1.1,306.8z M5.3,314.8l-1.1-2.2l19.4-10.1l1.1,2.2L5.3,314.8z"/>
  <path fill="#F5F6F7" d="M29.9,291.8l-1.1-2.2l19.4-10.1l1.1,2.2L29.9,291.8z M34,299.8l-1.1-2.2l19.4-10.1l1.1,2.2L34,299.8z"/>
  <path fill="#F5F6F7" d="M58.6,276.8l-1.1-2.2l19.4-10.1l1.1,2.2L58.6,276.8z M62.7,284.8l-1.1-2.2L81,272.5l1.1,2.2L62.7,284.8z"/>
</g>
<g>
  <path fill="#E4A1C8" d="M578.3,178.2l2.1,1.3l-11.5,18.6l-2.1-1.3L578.3,178.2z M570.7,173.5l2.1,1.3l-11.5,18.6l-2.1-1.3
    L570.7,173.5z"/>
  <path fill="#E4A1C8" d="M561.3,205.8l2.1,1.3l-11.5,18.6l-2.1-1.3L561.3,205.8z M553.6,201l2.1,1.3l-11.5,18.6l-2.1-1.3L553.6,201z
    "/>
  <path fill="#E4A1C8" d="M544.3,233.3l2.1,1.3l-11.5,18.6l-2.1-1.3L544.3,233.3z M536.6,228.6l2.1,1.3l-11.5,18.6l-2.1-1.3
    L536.6,228.6z"/>
</g>
<path fill="#E4A1C8" d="M453.3,256.1c2.6-1.7,5-3.5,2.3-7.5l-8.3-12.6c-1.1-1.6-2.5-3.9-0.2-6.5c-3.4,1.1-4.8-1.1-5.9-2.7L433,214
  c-2.6-4-5.2-2.5-7.8-0.8l-1.3-2.1c1.8-1.2,4.2-2.8,6.9-2.3c2.5,0.4,3.9,2.5,5,4.3l8.1,12.3c1.9,2.9,3.7,2.3,6,0.8l1.4,2.1
  c-2.3,1.5-3.6,2.9-1.6,5.8l8.1,12.3c1.1,1.7,2.5,3.8,1.9,6.3c-0.6,2.6-3,4.2-4.9,5.4L453.3,256.1z"/>
<circle fill="#E00079" cx="495.8" cy="413.2" r="12"/>
<polygon fill="#E00079" points="236.9,19.8 276.7,15.8 291.7,52.9 "/>
<circle fill="#F5F6F7" cx="103.7" cy="34.3" r="12"/>
<rect x="13.8" y="184.5" transform="matrix(0.9739 0.2268 -0.2268 0.9739 45.228 -0.7351)" fill="#051ADD" width="24" height="24"/>
<rect x="89.4" y="219.1" transform="matrix(-0.2197 -0.9756 0.9756 -0.2197 -101.8039 380.8121)" fill="#E4A1C8" width="24" height="24"/>
<circle fill="#E00079" cx="516.1" cy="349.7" r="12"/>
<circle fill="#4B6AB3" cx="603.5" cy="279.5" r="12"/>
<circle cx="537.8" cy="365" r="12"/>
<rect x="334.5" y="315" transform="matrix(-0.6317 -0.7752 0.7752 -0.6317 311.9567 802.142)" fill="#051ADD" width="24" height="24"/>
<circle fill="#051ADD" cx="290.6" cy="329.3" r="12"/>
<rect x="550.5" y="239.1" transform="matrix(0.8733 0.4872 -0.4872 0.8733 202.8425 -237.7605)" fill="#051ADD" width="16" height="64"/>
<rect x="292.8" y="325.7" transform="matrix(-0.423 0.9061 -0.9061 -0.423 739.7606 204.3526)" fill="#E4A1C8" width="24" height="24"/>
<rect x="301.4" y="453" transform="matrix(-0.9997 -2.617457e-02 2.617457e-02 -0.9997 614.4691 937.9852)" fill="#4B6AB3" width="24" height="24"/>
<circle cx="245.6" cy="105.5" r="12"/>
<circle fill="#051ADD" cx="72.6" cy="377.8" r="12"/>
<rect x="133.9" y="154.8" transform="matrix(-0.962 0.273 -0.273 -0.962 329.3488 327.7571)" fill="#051ADD" width="16" height="64"/>
<circle fill="#F5F6F7" cx="628.5" cy="412.6" r="12"/>
</svg>
