<svg data-name="Ebene 1" xmlns="http://www.w3.org/2000/svg" viewBox="0 0 600 400"><path d="M152.725 52.725h294.55v294.55h-294.55z" fill="#1c1c1c"/><path d="M227.835 132.195h-16.377l-3.652 12.135h-10.368l17.437-51.546h9.602l17.438 51.546h-10.31zm-13.608-8.837h10.898l-5.537-17.908-5.42 17.909zm23.505 60.324c-2.003-5.302-5.655-9.013-12.783-9.013-7.953 0-14.61 5.596-14.61 17.555s6.656 17.496 14.61 17.496c7.187 0 10.78-3.77 12.783-9.013l8.601 2.238c-2.474 9.897-10.191 15.612-21.384 15.612-12.902 0-24.39-9.131-24.39-26.392s11.488-26.333 24.39-26.333c11.193 0 18.91 5.773 21.384 15.611l-8.66 2.239zm33.932-3.417c11.9 0 18.851 8.424 18.851 19.146s-6.95 19.146-18.85 19.146-18.852-8.424-18.852-19.146 6.893-19.146 18.851-19.146zm0 30.516c5.891 0 9.25-5.302 9.25-11.37s-3.359-11.37-9.25-11.37-9.308 5.301-9.308 11.37 3.417 11.37 9.308 11.37zm36.583-44.949v52.136h-9.13v-52.136zm27.335 14.433c11.9 0 18.85 8.424 18.85 19.146s-6.95 19.146-18.85 19.146-18.852-8.424-18.852-19.146 6.893-19.146 18.852-19.146zm0 30.516c5.89 0 9.248-5.302 9.248-11.37s-3.357-11.37-9.248-11.37-9.308 5.301-9.308 11.37 3.417 11.37 9.308 11.37zm26.863 7.186v-37.113h9.13v6.068a12.96 12.96 0 0 1 10.958-6.657 14.001 14.001 0 0 1 4.477.766l-1.65 8.424a7.07 7.07 0 0 0-3.829-1.001c-5.302 0-10.015 4.359-10.015 16.318v13.196zM222.533 240.06c8.778 0 14.728 4.595 14.728 13.903 0 4.182-1.826 7.835-5.066 9.484 4.83 2.003 7.717 6.068 7.717 12.607 0 10.014-6.48 15.552-17.025 15.552h-19.205V240.06zm-9.307 8.836v11.193h8.836c3.77 0 6.009-1.414 6.009-5.596s-2.239-5.597-6.245-5.597h-8.6zm0 20.03v13.843h8.836c5.891 0 8.247-2.533 8.247-6.95s-2.356-6.893-8.247-6.893zm35.699 22.68v-37.113h9.072v6.068a12.96 12.96 0 0 1 11.016-6.657 14.583 14.583 0 0 1 4.477.766l-1.708 8.424a7.07 7.07 0 0 0-3.829-1.001c-5.302 0-9.956 4.359-9.956 16.318v13.195zm35.994-53.667a5.891 5.891 0 1 1-5.891 5.89 5.798 5.798 0 0 1 5.891-5.89zm4.536 16.553v37.114h-9.13v-37.113zm24.271-.589a14.998 14.998 0 0 1 6.834 1.65l7.01-3.712 3.534 6.068-5.302 2.592a11.708 11.708 0 0 1 1.532 5.891c0 7.835-6.127 12.371-13.608 12.371a17.729 17.729 0 0 1-5.42-.765 3.088 3.088 0 0 0-1.768 2.768c0 1.768 1.237 2.71 3.535 2.71h7.54c7.777 0 13.02 3.77 13.02 10.899 0 9.13-8.601 12.842-16.849 12.842-9.484 0-16.789-4.124-16.789-12.253A10.024 10.024 0 0 1 300 287.6a9.242 9.242 0 0 1 2.65-13.55 11.841 11.841 0 0 1-2.591-7.657c0-7.659 6.126-12.49 13.667-12.49zm-3.181 37.29a24.923 24.923 0 0 1-4.3-.353 5.892 5.892 0 0 0-.825 3.417c0 3.534 3.535 5.302 8.365 5.302 4.36 0 7.659-1.238 7.659-4.595 0-3.064-2.475-3.77-5.891-3.77zm3.181-19.794a4.762 4.762 0 0 0 5.066-4.948 5.096 5.096 0 1 0-10.191 0 4.795 4.795 0 0 0 5.066 4.949zm33.46-31.928v20.972a13.6 13.6 0 0 1 11.783-6.54c7.01 0 11.546 3.595 11.546 11.194v26.51h-9.13v-23.27c0-4.478-1.768-6.657-5.48-6.657-4.24 0-8.718 4.241-8.718 14.256v15.67h-9.131V239.47zm55.376 51.428a14.079 14.079 0 0 1-6.009 1.296c-8.424 0-13.608-4.477-13.608-13.726v-16.141h-5.773v-7.835h5.773v-9.308l9.072-5.714v15.022h9.838v7.835h-9.779v16.023c0 4.595 1.768 6.068 4.83 6.068a7.07 7.07 0 0 0 3.535-.943z" fill="#fff"/></svg>