<svg data-name="Ebene 1" xmlns="http://www.w3.org/2000/svg" viewBox="0 0 600 400"><path d="M34.54 179.75h12.228l13.446 41.437H50.42l-2.84-9.214H32.569l-2.839 9.214h-8.808zm.06 25.558h10.95L40.105 187.4zm26.306 1.101v-.463c0-9.795 7.012-15.764 15.648-15.764 7.01 0 13.503 3.07 14.256 11.764h-7.94c-.58-3.535-2.724-5.158-6.143-5.158-4.346 0-7.244 3.246-7.244 9.042v.463c0 6.086 2.724 9.215 7.418 9.215a6.143 6.143 0 0 0 6.49-5.853h7.592c-.463 7.187-5.678 12.17-14.488 12.17-8.865 0-15.59-5.505-15.59-15.416zm32.002 0v-.463c0-9.795 7.012-15.764 15.648-15.764 7.01 0 13.503 3.07 14.256 11.764h-7.94c-.579-3.535-2.724-5.158-6.143-5.158-4.345 0-7.244 3.246-7.244 9.042v.463c0 6.086 2.724 9.215 7.419 9.215a6.143 6.143 0 0 0 6.49-5.853h7.591c-.463 7.187-5.678 12.17-14.488 12.17-8.865 0-15.59-5.505-15.59-15.416zm32.003 0v-.463c0-9.564 6.781-15.764 15.59-15.764 7.823 0 14.778 4.579 14.778 15.415v2.318H133.43c.232 5.043 2.957 7.94 7.534 7.94 3.883 0 5.796-1.682 6.316-4.231h7.94c-.985 6.549-6.2 10.2-14.488 10.2-9.157.001-15.82-5.737-15.82-15.415zm22.196-3.65c-.29-4.58-2.608-6.781-6.607-6.781-3.767 0-6.317 2.492-6.953 6.78zm12.234-11.881h8.404v4.81c1.506-3.014 4.81-5.505 9.852-5.505 5.97 0 10.2 3.592 10.2 11.706v19.298h-8.402v-18.081c0-4.114-1.624-6.086-5.332-6.086-3.592 0-6.316 2.202-6.316 6.665v17.501h-8.404v-30.308zm35.259 21.326v-15.357h-3.882v-5.969h3.883v-6.549h8.345v6.55h6.376v5.968h-6.376v14.604c0 2.435 1.217 3.592 3.362 3.592a7.82 7.82 0 0 0 3.187-.58v6.49a15.293 15.293 0 0 1-5.1.813c-6.374.002-9.794-3.244-9.794-9.561zm18.054-1.797v-19.53h8.345v18.372c0 4.114 1.681 6.084 5.273 6.084 3.535 0 6.318-2.202 6.318-6.665v-17.791h8.345v30.31h-8.345v-4.753c-1.564 3.071-4.636 5.39-9.62 5.39-5.912.001-10.316-3.477-10.316-11.417zm33.869-19.529h8.404v5.796c1.913-4.057 4.867-6.202 9.795-6.259v7.823c-6.202-.058-9.795 1.97-9.795 7.766v15.183h-8.404zm19.582 15.531v-.463c0-9.564 6.78-15.764 15.59-15.764 7.824 0 14.779 4.579 14.779 15.415v2.318h-21.85c.232 5.043 2.956 7.94 7.535 7.94 3.882 0 5.795-1.682 6.317-4.231h7.94c-.985 6.549-6.2 10.2-14.489 10.2-9.157.001-15.822-5.737-15.822-15.415zm22.197-3.65c-.29-4.58-2.607-6.781-6.607-6.781-3.767 0-6.317 2.492-6.953 6.78z"/><path d="M313.522 179.74h5.041v41.436h-5.041zm14.096 11.126h4.81v4.81c1.391-2.84 4.753-5.333 9.736-5.333 6.26 0 10.663 3.42 10.663 12.228v18.603h-4.81v-18.95c0-5.333-2.259-7.71-7.128-7.71-4.463 0-8.462 2.84-8.462 8.287v18.372h-4.81v-30.307zm33.818 22.718v-18.662h-4.347v-4.056h4.347v-6.899h4.81v6.899h7.07v4.056h-7.07v18.2c0 2.955 1.332 4.403 3.766 4.403a9.887 9.887 0 0 0 3.71-.637v4.056a11.428 11.428 0 0 1-4.114.638c-5.507-.001-8.172-3.246-8.172-7.998zm15.096-7.245v-.463c0-9.156 5.852-15.532 14.198-15.532 7.012 0 13.62 4.23 13.62 15.068v1.565h-22.835c.232 6.898 3.536 10.721 9.736 10.721 4.695 0 7.419-1.739 8.057-5.273h4.81c-1.044 6.085-6.086 9.273-12.925 9.273-8.575 0-14.661-6.027-14.661-15.36zm22.892-3.245c-.464-6.258-3.71-8.75-8.694-8.75-4.925 0-8.23 3.36-9.04 8.75zm11.277-12.228h4.81v5.446c1.914-3.419 4.52-5.795 9.97-5.968v4.521c-6.086.289-9.97 2.202-9.97 9.678v16.633h-4.81v-30.31zm17.599 21.906c0-7.012 7.418-9.387 15.183-9.387h4.347v-2.204c0-4.81-1.854-6.838-6.49-6.838-4.172 0-6.49 1.738-6.954 5.447h-4.811c.637-6.897 6.144-9.446 11.995-9.446 5.797 0 11.07 2.376 11.07 10.837v19.995h-4.81v-3.825c-2.26 2.84-4.986 4.347-9.448 4.347-5.62 0-10.082-2.724-10.082-8.926zm19.53-2.202v-3.768h-4.172c-6.086 0-10.548 1.507-10.548 5.969 0 3.13 1.506 5.1 5.736 5.1 5.1.002 8.984-2.606 8.984-7.301zm10.786-4.231v-.463c0-9.274 6.607-15.532 14.722-15.532 6.316 0 12.228 2.897 13.154 10.605h-4.753c-.752-4.81-4.228-6.606-8.4-6.606-5.509 0-9.737 4.404-9.737 11.533v.463c0 7.418 4.057 11.36 9.908 11.36 4.29 0 8.174-2.493 8.695-7.42h4.462c-.638 6.55-5.911 11.417-13.214 11.417-8.461.002-14.837-5.967-14.837-15.357zm35.231 7.245v-18.662H489.5v-4.056h4.346v-6.899h4.811v6.899h7.071v4.056h-7.07v18.2c0 2.955 1.332 4.403 3.767 4.403a9.893 9.893 0 0 0 3.71-.637v4.056a11.447 11.447 0 0 1-4.115.638c-5.508-.001-8.174-3.246-8.174-7.998zm16.833-32.222a3.187 3.187 0 1 1 3.187 3.188 3.215 3.215 0 0 1-3.187-3.188zm.868 9.504h4.812v30.31h-4.812zm9.75 0h5.217l8.981 25.441 8.867-25.441h4.984l-10.895 30.31h-6.144zm29.962 15.473v-.463c0-9.156 5.854-15.532 14.2-15.532 7.013 0 13.618 4.23 13.618 15.068v1.565h-22.832c.23 6.898 3.535 10.721 9.737 10.721 4.694 0 7.418-1.739 8.055-5.273h4.811c-1.044 6.085-6.086 9.273-12.924 9.273-8.58 0-14.665-6.027-14.665-15.36zm22.893-3.245c-.463-6.258-3.709-8.75-8.692-8.75-4.928 0-8.231 3.36-9.042 8.75z" fill="#ffb600"/></svg>