<svg viewBox="0 0 600 400" xmlns="http://www.w3.org/2000/svg"><path d="m58.58 210.827c-2.794 1.581-7.26 3.85-11.627 4.014-6.407.235-6.262-5.984-6.262-10.111 0-4.488 2.11-5.895 6.964-5.895h10.925zm14.806-25.365c0-14.807-5.463-21.36-24.031-21.36a77.0465 77.0465 0 0 0 -20.268 2.791l1.818 11.286a82.6 82.6 0 0 1 16.385-1.819c9.469 0 11.29 1.653 11.29 8.209v3.037h-14.9092c-12.016 0-16.525 8.417-16.525 20.43 0 10.2 4.608 17.6 15.412 17.6a32.3159 32.3159 0 0 0 17.6-5.221l1.194 4.452h12.034z" fill="#006ec7"/><path d="m120.7518 207.569a21.1592 21.1592 0 0 1 -13.369 5.4c-5.517 0-7.357-2.7-7.357-7.606v-21.097c0-5.395 2.084-7.313 7.482-7.313a66.2921 66.2921 0 0 1 13.244 1.595zm-35.688-2.569c0 13.611 6.376 20.723 18.392 20.723a31.4375 31.4375 0 0 0 18.896-6.261l1.6 5.5h11.76v-85.369l-14.96 2.085v24.24a82.1942 82.1942 0 0 0 -15.945-1.717c-13.853 0-19.742 7.19-19.742 20.433z" fill="#006ec7"/><path d="m343.4838 186.911v15.9c0 6.68-3.04 10.2-10.932 10.2s-10.919-3.524-10.919-10.2v-15.9c0-6.676 3.036-10.2 10.919-10.2s10.932 3.521 10.932 10.2m14.807 15.417v-14.928c0-12.139-5.463-23.306-25.739-23.306s-25.73 11.167-25.73 23.306v14.93c0 12.142 5.46 23.309 25.73 23.309s25.739-11.167 25.739-23.309" fill="#006ec7"/><path d="m246.2378 206.236c-.573-12.1-2.249-14.2-18.9-17.779-8.0769-1.683-8.455-2.027-8.68-6.744-.17-3.629.845-5.132 7.255-5.432a104.1 104.1 0 0 1 16.293.927l.893-11.8a77.6578 77.6578 0 0 0 -17.755-1.223c-16.807.794-21.769 6.239-21.21 18.1.5379 11.369 2.4 14.92 16.9609 17.745 9.661 1.847 10.4721 3.626 10.6491 7.259.212 4.478-.6881 5.974-7.224 6.284a65.9579 65.9579 0 0 1 -17.653-1.715l-1.53 11.345a69.35 69.35 0 0 0 20.478 2.43c17.785-.842 20.964-8.019 20.4259-19.391" fill="#006ec7"/><path d="m297.9518 206.24c-.5759-12.1-2.246-14.2-18.9-17.783-8.077-1.679-8.459-2.023-8.6831-6.74-.171-3.629.851-5.136 7.258-5.436a104.0138 104.0138 0 0 1 16.29.927l.9-11.8a77.4833 77.4833 0 0 0 -17.755-1.227c-16.814.794-21.769 6.243-21.21 18.1.539 11.369 2.4 14.92 16.958 17.748 9.6611 1.847 10.4751 3.626 10.646 7.256.211 4.478-.689 5.977-7.2179 6.284a66.0151 66.0151 0 0 1 -17.659-1.715l-1.527 11.346a69.4782 69.4782 0 0 0 20.4809 2.433c17.778-.845 20.958-8.022 20.423-19.39" fill="#006ec7"/><path d="m162.2058 185.724c0-5.588 2.547-9.473 9.835-9.473s8.9831 3.885 8.9831 9.473v2.914h-18.8181zm0 17.851v-3.036h32.9v-12.63c0-12.752-4.25-23.8-23.189-23.8s-24.525 10.564-24.525 23.071v15.666c0 14.207 6.436 22.825 25.01 22.825 7.042 0 12.929-.654 19.607-3.2l1.571-11.082c-7.851 2.181-13.817 3.343-19.634 2.76-8.939-.893-11.74-3.408-11.74-10.571" fill="#006ec7"/><g fill="#887d75"><path d="m391.446 130.974v102.542l-36.484 35.51h8.131l33.877-33.186v-104.866z"/><path d="m437.99 223.5-.654-.883a3.5884 3.5884 0 0 1 -2.4809.883c-.859 0-2.3341-.256-2.2521-2.535l.115-7.327h4.758v-1.452h-4.7339l.0339-2.937h-1.084a11.8334 11.8334 0 0 1 -3.015 3.312v1.077h1.646l-.14 8.294c0 2.447 1.765 3.252 3.677 3.252a5.48 5.48 0 0 0 4.13-1.684"/><path d="m447.6988 216.715h-6.3788c.085-1.908 1.2-3.932 3.247-3.932 2.277 0 3.132 2.222 3.132 3.932m2.512 1.2v-.515c0-3.394-1.936-6.014-5.33-6.014-3.561 0-6.039 2.821-6.039 6.924 0 3.875 1.966 6.925 5.811 6.925a6.3929 6.3929 0 0 0 5.357-2.566l-.654-.883a4.6189 4.6189 0 0 1 -3.65 1.455c-1.8 0-4.4169-.882-4.4169-5.36z"/><path d="m463.2828 222.754-.657-.883a4.6 4.6 0 0 1 -3.419 1.456c-2.446 0-4.443-1.994-4.443-5.7 0-3.05 1.369-4.532 3.019-4.532a6.3912 6.3912 0 0 1 3.8511 1.714l1.622-1.595a5.4221 5.4221 0 0 0 -4.273-1.826 6.726 6.726 0 0 0 -6.6141 6.8361l.0021.0879c0 4.478 2.6789 6.925 5.7869 6.925a6.5389 6.5389 0 0 0 5.125-2.481"/><path d="m480.0058 224.98v-1.08c-1.054 0-2.137-.113-2.137-1.823v-6.387a4.0528 4.0528 0 0 0 -4.273-4.3 5.6062 5.6062 0 0 0 -4.5 2.024v-10.265h-1a17.25 17.25 0 0 1 -3.82.773v1.078c1.056.314 1.285.375 2.423.627v16.447c0 1.71-1 1.823-2.14 1.823v1.084c.859 0 1.915-.058 3.333-.058s2.48.058 3.339.058v-1.081c-1.056 0-2.136-.113-2.136-1.823v-7.467a4.26 4.26 0 0 1 3.162-1.312c1.905 0 3.22 1.111 3.22 2.907v5.872c0 1.683-.971 1.823-2.136 1.823v1.084c.681 0 1.9-.058 3.333-.058s2.474.058 3.333.058"/><path d="m497.1568 224.98v-1.08c-1.056 0-2.14-.113-2.14-1.823v-6.387a4.0528 4.0528 0 0 0 -4.273-4.3 5.7723 5.7723 0 0 0 -4.563 2.051v-2.051h-.938a17.18 17.18 0 0 1 -3.816.8v1.084c1.049.313 1.281.341 2.419.6v8.206c0 1.683-.968 1.823-2.136 1.823v1.084c.681 0 1.9111-.058 3.336-.058s2.48.058 3.329.058v-1.087c-1.053 0-2.1369-.113-2.1369-1.823v-7.467a4.2728 4.2728 0 0 1 3.1659-1.312c1.909 0 3.221 1.111 3.221 2.907v5.872c0 1.683-.9679 1.823-2.14 1.823v1.084c.685 0 1.912-.058 3.336-.058s2.477.058 3.336.058"/><path d="m509.8888 218.252c0 2.567-.77 5.616-3.963 5.616-3.108 0-4.073-2.906-4.073-5.585 0-2.423.855-5.528 4.042-5.528 3.142 0 3.994 3.132 3.994 5.5m2.678-.027c0-4.048-2.365-6.839-6.614-6.839a6.894 6.894 0 0 0 -6.81 6.977l.001.06c0 4.365 2.709 6.812 6.615 6.812a6.6829 6.6829 0 0 0 6.8147-6.5486q.0047-.2307-.0067-.4614"/><path d="m521.5708 224.98v-1.08c-1.056 0-2.14-.113-2.14-1.823v-18.928h-1a17.2232 17.2232 0 0 1 -3.821.773v1.078c1.06.314 1.285.375 2.427.627v16.447c0 1.71-1 1.823-2.137 1.823v1.084c.852 0 1.908-.058 3.333-.058s2.474.058 3.333.058"/><path d="m534.3639 218.252c0 2.567-.77 5.616-3.96 5.616-3.1049 0-4.0759-2.906-4.0759-5.585 0-2.423.859-5.528 4.049-5.528 3.135 0 3.987 3.132 3.987 5.5m2.679-.027c0-4.048-2.365-6.839-6.608-6.839a6.894 6.894 0 0 0 -6.814 6.973l.001.064c0 4.365 2.706 6.812 6.612 6.812a6.682 6.682 0 0 0 6.8158-6.5455q.0047-.2323-.0068-.4645"/><path d="m550.1219 227.344c0 1.565-1.677 2.877-4.3591 2.877-2.5349 0-4.645-.972-4.645-2.764a2.9351 2.9351 0 0 1 1.765-2.222c1.285.143 2 .228 3.136.313 2.31.2 4.1.287 4.1 1.8m-1.506-11.174a3.1 3.1 0 0 1 -3.251 3.422c-1.7689 0-3.109-1.282-3.109-3.476a3.1311 3.1311 0 0 1 2.8569-3.383c.0928-.0078.186-.0115.2791-.011a3.1645 3.1645 0 0 1 3.224 3.448m3.96-2.675v-1.312h-3.991a6.043 6.043 0 0 0 -3.1-.8c-3.05 0-5.67 1.966-5.67 4.815a4.7219 4.7219 0 0 0 2.6779 4.219c-.6.31-2.508 1.451-2.508 2.566 0 1.053.941 1.595 1.7931 1.908-.876.484-2.652 1.626-2.652 3.5 0 1.908 2.311 3.475 5.845 3.475 4.331 0 7.068-2.992 7.068-5.527 0-2.59-2.706-2.648-5.3-2.876-2.365-.205-4.475-.29-4.475-1.254 0-.743.859-1.285 1.285-1.455a4.77 4.77 0 0 0 1.909.2c2.624 0 5.53-1.629 5.53-4.792a4.5 4.5 0 0 0 -.858-2.675z"/><path d="m568.6059 213.188v-1.088c-.855 0-1.37.062-2.8.062s-1.935-.062-2.794-.062v1.087c1.169 0 1.711.515 1.711 1.285a2.5833 2.5833 0 0 1 -.2.852l-2.794 7.18-3.217-7.752c-.4261-1 .054-1.565 1.881-1.565v-1.087c-.8591 0-1.909.089-3.34.062-1.421 0-2.477 0-3.329-.062v1.087c.91 0 1.537.082 1.9081.968l4.556 11h.6l-.7671 1.739c-1.08 2.477-1.85 3.019-3.1 2.961a3.7307 3.7307 0 0 1 -1.881-.627l-1.227 1.738a3.9424 3.9424 0 0 0 2.709.944 3.613 3.613 0 0 0 2.9-1.513 16.6092 16.6092 0 0 0 2.028-3.65l4.529-11.392c.682-1.769 1.592-2.2 2.621-2.168"/><path d="m572.8518 223.64a1.5469 1.5469 0 0 0 -1.711-1.622 1.624 1.624 0 0 0 -.2057 3.2415q.0757.0048.1517.0025a1.6239 1.6239 0 0 0 1.7589-1.4768q.0063-.0725.0061-.1452"/><path d="m439.7658 186.577c0 3.789-1.8 5.3-4.134 5.3a4.4591 4.4591 0 0 1 -3.05-1.026v-8.434a3.8792 3.8792 0 0 1 3.05-1.169c2.365 0 4.134 1.911 4.134 5.33m2.62-.685c0-3.245-1.8-6.438-5.646-6.438a5.1569 5.1569 0 0 0 -4.216 1.765v-1.765h-.94a17.556 17.556 0 0 1 -3.817.8v1.083c1.0531.314 1.2811.341 2.4191.6v14.875c0 1.683-.9671 1.823-2.136 1.823v1.087c.855 0 2.027-.061 3.448-.061s2.563.061 3.419.061v-1.093c-1.139 0-2.335-.112-2.335-1.823v-4.073a5.9316 5.9316 0 0 0 2.989.539c3.367 0 6.815-2.593 6.815-7.381"/><path d="m453.7518 184.784h-6.386c.0881-1.912 1.2-3.936 3.254-3.936 2.28 0 3.132 2.222 3.132 3.936m2.508 1.193v-.512c0-3.39-1.939-6.011-5.33-6.011-3.564 0-6.042 2.822-6.042 6.922 0 3.878 1.97 6.928 5.81 6.928a6.3862 6.3862 0 0 0 5.361-2.566l-.651-.883a4.6417 4.6417 0 0 1 -3.653 1.451c-1.792 0-4.417-.882-4.417-5.357z"/><path d="m469.3358 186.321c0 2.563-.767 5.613-3.96 5.613-3.1051 0-4.076-2.907-4.076-5.586 0-2.419.852-5.524 4.042-5.524 3.135 0 3.9939 3.128 3.9939 5.5m2.6781-.027c0-4.049-2.365-6.84-6.611-6.84a6.9 6.9 0 0 0 -6.8129 6.9861l.0009.0509c0 4.359 2.709 6.813 6.614 6.813a6.683 6.683 0 0 0 6.8157-6.5476q.0047-.2311-.0067-.4624"/><path d="m486.0609 186.577c0 3.789-1.792 5.3-4.13 5.3a4.4458 4.4458 0 0 1 -3.0469-1.026v-8.434a3.8717 3.8717 0 0 1 3.0469-1.169c2.365 0 4.13 1.911 4.13 5.33m2.6239-.685c0-3.245-1.7919-6.438-5.643-6.438a5.1523 5.1523 0 0 0 -4.216 1.765v-1.765h-.943a17.3786 17.3786 0 0 1 -3.8169.8v1.083c1.056.314 1.284.341 2.426.6v14.875c0 1.683-.9751 1.823-2.14 1.823v1.087c.859 0 2.0281-.061 3.449-.061s2.5621.061 3.418.061v-1.093c-1.138 0-2.3349-.112-2.3349-1.823v-4.073a5.9254 5.9254 0 0 0 2.992.539c3.367 0 6.8089-2.593 6.8089-7.381"/><path d="m497.6648 193.048v-1.087c-1.053 0-2.137-.113-2.137-1.823v-18.921h-1a17.1708 17.1708 0 0 1 -3.82.77v1.081c1.056.313 1.281.371 2.426.63v16.44c0 1.71-1 1.823-2.14 1.823v1.087c.855 0 1.908-.061 3.333-.061s2.481.061 3.336.061"/><path d="m508.4368 184.784h-6.3849c.088-1.912 1.2-3.936 3.251-3.936 2.276 0 3.135 2.222 3.135 3.936m2.5 1.193v-.512c0-3.39-1.939-6.011-5.327-6.011-3.564 0-6.045 2.822-6.045 6.922 0 3.878 1.97 6.928 5.814 6.928a6.3828 6.3828 0 0 0 5.36-2.566l-.657-.883a4.6309 4.6309 0 0 1 -3.647 1.451c-1.8 0-4.417-.882-4.417-5.357z"/><path d="m516.8918 191.709a1.5469 1.5469 0 0 0 -1.707-1.626 1.626 1.626 0 0 0 -.2083 3.2453q.075.0048.15.0027a1.6259 1.6259 0 0 0 1.759-1.481q.006-.07.006-.141"/><path d="m439.6228 157.709c0 3-1.6 5.159-4.107 5.159a4.0891 4.0891 0 0 1 -2.965-.94v-8.861a4.2238 4.2238 0 0 1 2.965-.882c2.8 0 4.107 2.422 4.107 5.524m2.562-1.026c0-3.384-2-6.238-5.476-6.238a5.9808 5.9808 0 0 0 -4.1569 1.455v-9.69h-1a17.2833 17.2833 0 0 1 -3.823.77v1.082c1.0629.313 1.2879.37 2.4259.629v18.209a7.3659 7.3659 0 0 0 4.444 1.424c5.159 0 7.582-3.936 7.582-7.64"/><path d="m459.6228 163.468v-1.084c-1.056-.313-1.281-.255-2.423-.514v-11.425h-1a17.2713 17.2713 0 0 1 -3.817.8v1.081c1.0531.313 1.2811.347 2.42.6v8.206a4.256 4.256 0 0 1 -3.218 1.312c-2 0-3.08-1.084-3.08-3.22v-8.777h-.995a13.5359 13.5359 0 0 1 -3.677.8v1.081a22.9266 22.9266 0 0 0 2.28.6v6.608c0 3.108 1.8 4.761 4.246 4.761a6.16 6.16 0 0 0 4.7-1.936v1.966h1a14.8459 14.8459 0 0 1 3.564-.855"/><path d="m470.8208 159.907c0-4.274-7.32-3.279-7.32-6.128 0-1.311.8-2.054 2.563-2.054a2.468 2.468 0 0 1 2.791 2.767h1.08s-.054-.941-.054-1.8.054-1.787.054-1.787c-1.475 0-1.993-.46-3.844-.46-1.908 0-4.7 1.027-4.7 4.047 0 4.617 7.13 2.961 7.13 6.352 0 1.2-.743 2.167-2.686 2.167-3.275 0-3.326-2.137-3.326-3.1h-1.087s.058 1.022.058 1.881-.058 1.85-.058 1.85c1.367 0 2.11.655 4.216.655 2.566 0 5.186-1.565 5.186-4.386"/><path d="m479.5318 164.037v-1.084c-1.05 0-2.133-.112-2.133-1.823v-10.685h-1a17.2234 17.2234 0 0 1 -3.817.8v1.081c1.0531.313 1.2781.347 2.4231.6v8.206c0 1.684-.974 1.823-2.14 1.823v1.084c.685 0 1.908-.058 3.336-.058s2.478.058 3.33.058m-1.82-18.378a1.5481 1.5481 0 0 0 -1.7109-1.624 1.6284 1.6284 0 1 0 1.7053 1.7638q.0059-.07.0057-.14"/><path d="m496.66 164.037v-1.084c-1.0531 0-2.1341-.112-2.1341-1.823v-6.379a4.0554 4.0554 0 0 0 -4.277-4.306 5.7669 5.7669 0 0 0 -4.5589 2.05v-2.05h-.9381a17.2234 17.2234 0 0 1 -3.817.8v1.081c1.054.313 1.2781.347 2.4231.6v8.206c0 1.684-.9671 1.823-2.14 1.823v1.084c.682 0 1.909-.058 3.337-.058s2.477.058 3.3291.058v-1.084c-1.05 0-2.133-.112-2.133-1.823v-7.463a4.2658 4.2658 0 0 1 3.1619-1.315c1.909 0 3.224 1.11 3.224 2.91v5.868c0 1.684-.971 1.823-2.14 1.823v1.084c.681 0 1.908-.058 3.333-.058s2.481.058 3.333.058"/><path d="m507.3669 155.773h-6.379c.088-1.908 1.2-3.933 3.251-3.933 2.276 0 3.128 2.222 3.128 3.933m2.5079 1.2v-.511c0-3.391-1.932-6.013-5.3229-6.013-3.564 0-6.042 2.82-6.042 6.923 0 3.875 1.966 6.925 5.8169 6.925a6.4 6.4 0 0 0 5.3511-2.563l-.651-.886a4.636 4.636 0 0 1 -3.65 1.455c-1.8 0-4.417-.886-4.417-5.357z"/><path d="m521.6418 159.907c0-4.274-7.326-3.279-7.326-6.128 0-1.311.8-2.054 2.566-2.054a2.47 2.47 0 0 1 2.794 2.767h1.084s-.062-.941-.062-1.8.062-1.787.062-1.787c-1.486 0-2-.46-3.851-.46-1.9 0-4.7 1.027-4.7 4.047 0 4.617 7.125 2.961 7.125 6.352 0 1.2-.742 2.167-2.678 2.167-3.279 0-3.333-2.137-3.333-3.1h-1.084s.055 1.022.055 1.881-.055 1.85-.055 1.85c1.363 0 2.106.655 4.219.655 2.56 0 5.183-1.565 5.183-4.386"/><path d="m533.4579 159.907c0-4.274-7.324-3.279-7.324-6.128 0-1.311.8-2.054 2.566-2.054a2.4708 2.4708 0 0 1 2.8 2.767h1.0831s-.061-.941-.061-1.8.061-1.787.061-1.787c-1.479 0-2-.46-3.8511-.46-1.9 0-4.7 1.027-4.7 4.047 0 4.617 7.126 2.961 7.126 6.352 0 1.2-.743 2.167-2.682 2.167-3.272 0-3.33-2.137-3.33-3.1h-1.083s.054 1.022.054 1.881-.054 1.85-.054 1.85c1.363 0 2.109.655 4.219.655 2.562 0 5.18-1.565 5.18-4.386"/><path d="m539.4688 162.7a1.552 1.552 0 0 0 -1.711-1.626 1.63 1.63 0 1 0 1.7048 1.7713q.0063-.0725.0062-.1453"/></g></svg>