<svg id="Ebene_1" data-name="Ebene 1" xmlns="http://www.w3.org/2000/svg" viewBox="0 0 600 400"><defs><style>.cls-1{fill:#e11f22;}</style></defs><title>ag-grid</title><g id="Desktop"><g id="Logo"><path id="d" d="M529.694,135.467h17v96h-59a15,15,0,0,1-15-15v-40a15,15,0,0,1,15-15h42Zm-37,43a3,3,0,0,0-3,3v30a3,3,0,0,0,3,3h37v-36Z"/><g id="i"><polygon id="Path-6" points="448.694 161.467 465.694 161.467 465.694 231.467 448.694 231.467 448.694 161.467"/><polygon id="Path-7" class="cls-1" points="448.694 135.467 465.694 135.467 465.694 152.467 448.694 152.467 448.694 135.467"/></g><path id="r" d="M383.694,231.467h17v-50a3,3,0,0,1,3-3h38v-17h-43a15,15,0,0,0-15,15Z"/><path id="G" d="M376.694,166.467v-10a15,15,0,0,0-15-15h-60a15,15,0,0,0-15,15v60a15,15,0,0,0,15,15h60a15,15,0,0,0,15-15v-36h-37v17h20v14a3,3,0,0,1-3,3h-50a3,3,0,0,1-3-3v-50a3,3,0,0,1,3-3h50a3,3,0,0,1,3,3v5Z"/><g id="ag"><g id="Combined-Shape"><path id="path-1" class="cls-1" d="M53.306,188.467v-40.54a15,15,0,0,1,7.5-12.991L151,82.863a15,15,0,0,1,15,0l90.194,52.073a15,15,0,0,1,7.5,12.991v70.54h-30l0-44a15,15,0,0,0-15-15h-44a15,15,0,0,0-15,15v42.016a15,15,0,0,0,15,15h46v11.984a3,3,0,0,1-3,3h-45v13l46,0a15,15,0,0,0,15-15l0-13.039h30v20.645a15,15,0,0,1-7.5,12.991L166,317.137a15,15,0,0,1-15,0L60.806,265.064a15,15,0,0,1-7.5-12.991V201.467H79.694v15a15,15,0,0,0,15,15h58v-57a15,15,0,0,0-15-15h-58v13h57a3,3,0,0,1,3,3v13Z"/></g><rect id="g-2" data-name="g" class="cls-1" x="172.694" y="172.467" width="48" height="46" rx="3" ry="3"/><path id="Combined-Shape-2" data-name="Combined-Shape" class="cls-1" d="M92.694,201.467h47v17h-44a3,3,0,0,1-3-3Z"/></g></g></g></svg>