<svg id="Ebene_1" data-name="Ebene 1" xmlns="http://www.w3.org/2000/svg" viewBox="0 0 600 400"><defs><style>.cls-1{fill:#5468ff}</style></defs><path class="cls-1" d="M123.83 153.411h68.642a12.277 12.277 0 0 1 12.269 12.269v68.646a12.274 12.274 0 0 1-12.269 12.264H123.83a12.274 12.274 0 0 1-12.268-12.265V165.65a12.25 12.25 0 0 1 12.268-12.238"/><path d="M167.861 174.213v-3.195a4.045 4.045 0 0 0-4.045-4.042h-9.43a4.045 4.045 0 0 0-4.046 4.042v3.28a.56.56 0 0 0 .707.536 29.482 29.482 0 0 1 8.207-1.157 29.937 29.937 0 0 1 7.929 1.071.546.546 0 0 0 .679-.535m-25.846 4.181l-1.61-1.611a4.042 4.042 0 0 0-5.718-.002l-.002.002-1.925 1.922a4.026 4.026 0 0 0-.018 5.693l.018.018 1.583 1.584a.574.574 0 0 0 .85-.058 30.954 30.954 0 0 1 3.087-3.619 29.255 29.255 0 0 1 3.65-3.106.54.54 0 0 0 .085-.823m17.21 10.145v13.822a.541.541 0 0 0 .792.481l12.288-6.36a.558.558 0 0 0 .225-.76 15.287 15.287 0 0 0-12.739-7.72.561.561 0 0 0-.566.537m0 33.295a18.54 18.54 0 1 1 18.57-18.542 18.57 18.57 0 0 1-18.57 18.542m0-44.88a26.327 26.327 0 1 0 26.354 26.311 26.345 26.345 0 0 0-26.354-26.311" fill="#fff"/><path class="cls-1" d="M297.31 227.316c-18.143.086-18.143-14.64-18.143-16.986l-.03-55.165 11.067-1.755v54.828c0 1.332 0 9.753 7.105 9.78v9.298zm-44.866-9.015a42.684 42.684 0 0 0 7.672-.536v-11.247a22.672 22.672 0 0 0-2.663-.54 26.198 26.198 0 0 0-3.849-.284 23.593 23.593 0 0 0-3.707.284 11.164 11.164 0 0 0-3.37.99 6.069 6.069 0 0 0-2.407 2.034 3.853 3.853 0 0 0-.905 2.714c0 2.598.905 4.1 2.547 5.086a12.916 12.916 0 0 0 6.682 1.499zm-.962-40.133a27.29 27.29 0 0 1 9.227 1.359 13.267 13.267 0 0 1 9.113 9.92 28.178 28.178 0 0 1 .963 7.656v28.435c-1.697.365-4.275.788-7.726 1.297a80.325 80.325 0 0 1-11.636.765 35.393 35.393 0 0 1-7.84-.82 16.552 16.552 0 0 1-6.087-2.628 12.76 12.76 0 0 1-3.933-4.69 17.805 17.805 0 0 1-1.417-7.462 11.668 11.668 0 0 1 1.588-6.305 13.38 13.38 0 0 1 4.328-4.578 18.622 18.622 0 0 1 6.34-2.543 36.402 36.402 0 0 1 7.529-.764 37.75 37.75 0 0 1 3.85.225 34.765 34.765 0 0 1 4.307.765v-1.81a13.641 13.641 0 0 0-.455-3.615 7.774 7.774 0 0 0-1.588-3.024 7.38 7.38 0 0 0-2.997-2.034 13.09 13.09 0 0 0-4.729-.85 40.33 40.33 0 0 0-6.992.679 31.996 31.996 0 0 0-5.21 1.27l-1.328-9.07a43.44 43.44 0 0 1 6.115-1.44 45.426 45.426 0 0 1 8.576-.737zm218.59 39.823a42.206 42.206 0 0 0 7.667-.54v-11.244a22.38 22.38 0 0 0-2.66-.54 26.253 26.253 0 0 0-3.85-.283 23.666 23.666 0 0 0-3.708.283 11.172 11.172 0 0 0-3.366.99 6.043 6.043 0 0 0-2.407 2.035 3.835 3.835 0 0 0-.905 2.714c0 2.597.904 4.1 2.547 5.086a12.718 12.718 0 0 0 6.681 1.498zm-.936-40.102a27.297 27.297 0 0 1 9.228 1.355 13.264 13.264 0 0 1 9.112 9.92 28.187 28.187 0 0 1 .963 7.66v28.43c-1.697.366-4.275.789-7.727 1.301a80.348 80.348 0 0 1-11.635.761 35.381 35.381 0 0 1-7.838-.819 16.552 16.552 0 0 1-6.088-2.628 12.763 12.763 0 0 1-3.933-4.69 17.794 17.794 0 0 1-1.417-7.462 11.702 11.702 0 0 1 1.588-6.305 13.379 13.379 0 0 1 4.33-4.578 18.7 18.7 0 0 1 6.34-2.543 36.413 36.413 0 0 1 7.531-.76 37.74 37.74 0 0 1 3.848.224 32.406 32.406 0 0 1 4.301.765v-1.809a13.652 13.652 0 0 0-.45-3.619 7.745 7.745 0 0 0-1.588-3.024 7.379 7.379 0 0 0-2.997-2.034 13.098 13.098 0 0 0-4.729-.847 40.723 40.723 0 0 0-6.992.676 31.951 31.951 0 0 0-5.21 1.273l-1.328-9.073a44 44 0 0 1 6.115-1.44 48.122 48.122 0 0 1 8.576-.734zm-33.234-5.257a6.7 6.7 0 1 0-6.736-6.701 6.729 6.729 0 0 0 6.735 6.7zm5.575 54.684h-11.124V179.61l11.124-1.751v49.458zm-19.502 0c-18.143.086-18.143-14.64-18.143-16.986l-.03-55.165 11.068-1.755v54.828c0 1.331 0 9.752 7.105 9.78zM385.996 202.9c0-4.779-1.048-8.762-3.086-11.53a10.827 10.827 0 0 0-17.095 0c-2.038 2.795-3.031 6.751-3.031 11.53 0 4.834 1.02 8.08 3.06 10.88a10.781 10.781 0 0 0 17.098 0c2.036-2.827 3.054-6.046 3.054-10.88zm11.321-.027a26.76 26.76 0 0 1-1.641 9.636 22.837 22.837 0 0 1-4.667 7.886 20.62 20.62 0 0 1-7.25 5.059 29.465 29.465 0 0 1-9.367 1.863 28.904 28.904 0 0 1-9.314-1.863 21.08 21.08 0 0 1-7.218-5.06 23.334 23.334 0 0 1-4.7-7.885 26.232 26.232 0 0 1-1.698-9.636 30.187 30.187 0 0 1 1.642-10.374 22.977 22.977 0 0 1 4.756-7.827 21.232 21.232 0 0 1 7.245-5.031 23.436 23.436 0 0 1 9.228-1.751 24.154 24.154 0 0 1 9.256 1.75 20.154 20.154 0 0 1 7.25 5.032 23.36 23.36 0 0 1 4.697 7.827 28.93 28.93 0 0 1 1.782 10.374zm-83.305 0c0 4.632 1.018 9.776 3.056 11.923a10.39 10.39 0 0 0 7.9 3.223 16.81 16.81 0 0 0 4.98-.734 14.122 14.122 0 0 0 3.795-1.724V188.12a43.359 43.359 0 0 0-7.307-.932 11.039 11.039 0 0 0-9.225 4.15c-2.124 2.632-3.199 7.237-3.199 11.535zm30.768 21.816q0 11.32-5.805 16.562-5.812 5.253-17.774 5.257a76.264 76.264 0 0 1-13.814-1.638l1.782-8.763a67.87 67.87 0 0 0 12.203 1.076q6.662 0 9.508-2.714c1.899-1.81 2.83-4.492 2.83-8.056v-1.81a33.378 33.378 0 0 1-4.329 1.643 21.494 21.494 0 0 1-6.173.819 23.155 23.155 0 0 1-8.347-1.444 17.4 17.4 0 0 1-6.484-4.24 19.35 19.35 0 0 1-4.19-7.008 40.863 40.863 0 0 1-1.502-11.473 34.718 34.718 0 0 1 1.59-10.657 20.333 20.333 0 0 1 4.67-7.431 21.471 21.471 0 0 1 7.446-4.807 27.322 27.322 0 0 1 10.043-1.89 60.394 60.394 0 0 1 10.138.99 81.239 81.239 0 0 1 8.207 1.72v43.863z"/></svg>