<svg id="Ebene_1" data-name="Ebene 1" xmlns="http://www.w3.org/2000/svg" viewBox="0 0 600 400"><defs><style>.cls-1{fill:#0079c1}</style></defs><path class="cls-1" d="M339.002 260.787l-6.967-8.816v8.816H311.33v-12.442a29.628 29.628 0 0 1-9.067 1.339h-3.305v11.103h-30.451l-5.163-7.307-5.02 7.307h-49.89v-49.308h43.217l6.87.009 5.064 7.209 5.119-7.21h175.643V55.292h-289.42v114.274l9.65-22.51h19.687l5.753 12.714v-12.713h24.065l3.653 10.915 3.654-10.915h106.307v4.896c4.085-3.328 9.394-4.896 15.16-4.896H375.2l5.753 12.713v-12.713h19.053l6.333 9.986v-9.986h21.725v49.308h-20.465l-6.137-9.603v9.603h-29.478l-2.822-7.307h-6.771l-2.778 7.307h-17.294c-4.745 0-10.255-1.044-14.623-4.508v4.508h-29.084l-6.968-8.817v8.817H181.05l-2.823-7.307h-6.78l-2.77 7.307h-13.75V344.71h289.42V257.8a20.798 20.798 0 0 1-10.97 2.987z"/><path class="cls-1" d="M444.345 219.294l.094-.212h-17.642c-7.352 0-11.738 4.484-11.738 10.62 0 6.387 4.136 10.041 10.621 10.041h7.843a3.106 3.106 0 1 1 0 6.19h-17.49v7.253h17.294c5.687 0 9.534-2.707 11.018-6.87a11.747 11.747 0 0 0 .728-3.992 11.321 11.321 0 0 0-.728-4.17c-1.426-3.623-4.896-5.62-9.902-5.62h-7.887a3.038 3.038 0 0 1-3.27-3.118 3 3 0 0 1 3.27-3.073h14.667l3.122-7.05zm-52.484 10.123a3 3 0 0 1 3.27-3.073h14.667l3.216-7.262h-17.642c-7.361 0-11.738 4.484-11.738 10.62 0 6.387 4.136 10.041 10.621 10.041h7.843a3.106 3.106 0 1 1 0 6.19h-17.49v7.253h17.294c7.36 0 11.737-4.475 11.737-10.862 0-6.235-3.94-9.79-10.621-9.79h-7.887a3.038 3.038 0 0 1-3.27-3.118zm-38.973 23.77h27.334v-7.253h-19.098v-6.333h18.66v-7.12h-18.66v-6.136h19.098v-7.262h-27.334v34.104zm-2 0l-11.3-12.514c5.752-1.126 9.21-5.315 9.21-10.773 0-6.378-4.53-10.817-11.792-10.817h-18.562v34.104h8.236v-12.229h3.84l10.139 12.229zm-14.66-19.294h-9.548v-7.548h9.549c2.823 0 4.288 1.75 4.288 3.796 0 2.1-1.465 3.752-4.288 3.752zm-22.125-3.404c0-6.78-4.53-11.406-11.792-11.406H283.51v34.104h8.236v-11.255h10.28c7.45 0 12.077-4.869 12.077-11.443zm-8.281.045a3.952 3.952 0 0 1-4.288 4.145h-9.79v-8.334h9.79a3.959 3.959 0 0 1 4.288 4.19zm-23.77 22.653l-13.694-17.195 13.596-16.91h-9.996l-8.325 10.818-8.334-10.817h-10.281l13.64 17.052-13.587 17.052h9.987l8.379-10.96 8.334 10.96zm-65.682 0h27.334v-7.253h-19.097v-6.333h18.66v-7.12h-18.66v-6.136h19.097v-7.262H216.37v34.104zm203.66-64.424v-34.105h-8.04v18.125l.099 4.09h-.098l-2.34-3.796-12.033-18.42h-10.085v34.106h8.04v-18.955l-.099-4.038h.099l2.287 3.752 12.568 19.241zm-43.368 0h9.308l-14.57-34.105h-10.817l-14.613 34.105h8.816l2.877-7.164h16.078l2.922 7.164zm-5.547-13.739h-10.817l3.215-7.994 2.144-5.36h.099l2.09 5.36 3.27 7.994zm-28.602-12.96h8.914v-7.406h-9.549c-10.576 0-16.32 7.066-16.32 16.758v.59c0 10.183 5.896 16.712 15.74 16.757h.482l3.359-7.307h-2.528c-5.556 0-8.87-3.457-8.87-9.504v-.482c0-5.414 2.974-9.406 8.772-9.406zm-30.014 26.7h8.236v-34.106h-8.236v34.105zm-2.001 0l-11.3-12.525c5.753-1.117 9.21-5.306 9.21-10.763 0-6.387-4.529-10.818-11.791-10.818h-18.562v34.105h8.236v-12.229h3.85l10.129 12.23zm-14.658-19.295h-9.549v-7.548h9.549c2.822 0 4.287 1.75 4.287 3.796 0 2.099-1.465 3.752-4.287 3.752zm-50.621 19.294h27.333v-7.262h-19.106v-6.334h18.66v-7.11h-18.66v-6.136h19.107v-7.263h-27.334v34.105zm-14.373 0h7.985v-34.105h-13.345l-6.628 19.733-1.072 3.751h-.098l-1.116-3.751-6.682-19.733h-13.3v34.105h7.994v-22.367l-.152-5.208h.098l1.662 5.208 7.79 22.367h7.458l7.799-22.367 1.652-5.208h.098l-.143 5.208v22.367zm-45.119 0h9.307l-14.568-34.105h-10.818l-14.613 34.105h8.816l2.876-7.164h16.08l2.92 7.164zm-5.556-13.739h-10.817l3.215-7.994 2.144-5.36h.098l2.1 5.36 3.26 7.994z"/></svg>