<svg id="Ebene_1" data-name="Ebene 1" xmlns="http://www.w3.org/2000/svg" viewBox="0 0 600 400"><defs><style>.cls-1{fill:#0379c4;}</style></defs><title>amp-project</title><g id="amp-logo-internal-site"><g id="AMP-Brand-Blue"><g id="Updated"><path id="Fill-1" class="cls-1" d="M316.924,212.723h21.094l-7.1-20.925q-.685-1.992-1.614-4.7t-1.832-5.847q-.843,3.2-1.747,5.929t-1.7,4.718Zm49.612,29.213H352.647a6.467,6.467,0,0,1-3.842-1.076,5.541,5.541,0,0,1-2.093-2.752l-4.558-13.321H312.791l-4.561,13.321a5.9,5.9,0,0,1-2.065,2.648,5.988,5.988,0,0,1-3.765,1.18H288.409L318.3,165.522H336.64Z"/><path id="Fill-3" class="cls-1" d="M429.156,211.145q.982,2.151,1.882,4.41.9-2.311,1.907-4.487t2.068-4.226L454.835,168.2a6.416,6.416,0,0,1,1.087-1.548,3.608,3.608,0,0,1,1.245-.816,4.345,4.345,0,0,1,1.563-.263h15.716v76.364H458.652V197.985q0-3.2.317-6.923l-20.457,39.284a6.688,6.688,0,0,1-2.573,2.779,7.157,7.157,0,0,1-3.684.944h-2.437a7.157,7.157,0,0,1-3.684-.944,6.7,6.7,0,0,1-2.573-2.779L403,191.01q.211,1.839.317,3.644t.107,3.331v43.952h-15.8V165.573h15.716a4.355,4.355,0,0,1,1.564.263,3.571,3.571,0,0,1,1.245.816,6.445,6.445,0,0,1,1.089,1.548L427.115,207q1.062,2,2.041,4.149"/><path id="Fill-5" class="cls-1" d="M519.922,203.02h9.329q6.995,0,10.069-3.3t3.074-9.229a13.672,13.672,0,0,0-.793-4.773,9.76,9.76,0,0,0-2.412-3.7,10.918,10.918,0,0,0-4.083-2.387,18.238,18.238,0,0,0-5.855-.837h-9.329Zm0,13.374v25.541H502.005V165.521h27.246a45.378,45.378,0,0,1,14.019,1.915,26.927,26.927,0,0,1,9.645,5.272,20.538,20.538,0,0,1,5.591,7.917,26.577,26.577,0,0,1,1.8,9.862,28.775,28.775,0,0,1-1.852,10.49,21.091,21.091,0,0,1-5.672,8.18,26.808,26.808,0,0,1-9.675,5.323,44.728,44.728,0,0,1-13.858,1.914Z"/><path id="Fill-7" class="cls-1" d="M161.021,191.8l-37.9,62.474h-6.867l6.789-40.708-21.024.03s-.2,0-.294,0a3.413,3.413,0,0,1-3.428-3.4,6.259,6.259,0,0,1,.758-2.167l37.776-62.4,6.982.028-6.959,40.772,21.132-.025s.228,0,.336,0a3.41,3.41,0,0,1,3.426,3.4,3.3,3.3,0,0,1-.728,2Zm-30.98-81.293c-49.9,0-90.349,40.066-90.349,89.489s40.451,89.489,90.349,89.489,90.35-40.066,90.35-89.489-40.449-89.489-90.35-89.489Z"/></g></g></g></svg>