<svg viewBox="0 0 600 400" xmlns="http://www.w3.org/2000/svg"><path d="m232.075 219.105c-12.59 0-20.75-9.07-20.75-18.51v-1.17c0-9.6 8.16-18.51 20.75-18.51 12.64 0 20.8 8.91 20.8 18.51v1.17c0 9.45-8.16 18.51-20.8 18.51zm14.08-19.57c0-6.88-5.01-13.01-14.08-13.01s-14.03 6.13-14.03 13.01v.85c0 6.88 4.96 13.12 14.03 13.12s14.08-6.24 14.08-13.12z" fill="#3499cd"/><g fill="#010101"><path d="m89.945 217.725-4.69-8.8h-20.86l-4.53 8.8h-7.04l19.2-35.52h5.55l19.52 35.52zm-15.31-28.59-7.73 14.93h15.73z"/><path d="m127.375 219.105c-12.75 0-18.67-6.93-18.67-16.16v-20.74h6.61v20.85c0 6.56 4.32 10.45 12.53 10.45 8.43 0 11.89-3.89 11.89-10.45v-20.85h6.67v20.75c.01 8.79-5.64 16.15-19.03 16.15z"/><path d="m183.545 187.745v29.97h-6.67v-29.97h-15.52v-5.55h37.71v5.55z"/><path d="m312.285 217.725v-28.11l-1.76 3.09-14.88 25.01h-3.25l-14.72-25.01-1.76-3.09v28.11h-6.51v-35.52h9.23l14.03 24.37 1.65 2.99 1.65-2.99 13.87-24.37h9.12v35.52z"/><path d="m369.355 217.725-4.69-8.8h-20.85l-4.53 8.8h-7.04l19.2-35.52h5.55l19.52 35.52zm-15.31-28.59-7.73 14.93h15.73z"/><path d="m403.385 187.745v29.97h-6.67v-29.97h-15.52v-5.55h37.71v5.55z"/><path d="m452.285 187.745v29.97h-6.67v-29.97h-15.52v-5.55h37.71v5.55z"/><path d="m484.235 217.725v-32.16c2.67 0 3.73-1.44 3.73-3.36h2.83v35.52z"/><path d="m543.015 192.225a20.7393 20.7393 0 0 0 -14.24-5.71c-9.49 0-14.83 6.51-14.83 13.28v.69c0 6.72 5.39 13.01 15.31 13.01a20.7756 20.7756 0 0 0 13.92-5.71l4 4.21a26.5251 26.5251 0 0 1 -18.35 7.09c-13.44 0-21.6-8.75-21.6-18.35v-1.17c0-9.6 8.91-18.67 21.92-18.67 7.52 0 14.35 3.15 18.03 7.09z"/><path d="m236.465 193.275a2.5971 2.5971 0 0 1 .76 3.59l-6.08 9.42a2.6048 2.6048 0 0 1 -3.59.79 2.5952 2.5952 0 0 1 -.76-3.59l6.08-9.42a2.6048 2.6048 0 0 1 3.59-.79z"/></g></svg>