<svg id="Ebene_1" data-name="Ebene 1" xmlns="http://www.w3.org/2000/svg" viewBox="0 0 600 400"><defs><style>.cls-1{fill:#231f20;}</style></defs><title>bloomberg</title><path class="cls-1" d="M85.139,187v-.2c7.266-2.187,12.244-7.46,12.244-15.426,0-12.84-10.95-17.716-21.6-17.716H48.311v70.471H73.694c13.337,0,26.675-4.776,26.675-20.108A16.76,16.76,0,0,0,85.139,187ZM60.854,164.4H71.2c9.458,0,13.638,2.985,13.638,9.057,0,5.276-4.18,8.86-12.542,8.86H60.854ZM72.4,213.376H60.854v-20.3H72.9c10.151,0,14.93,2.583,14.93,9.951C87.828,212.281,78.869,213.376,72.4,213.376Z"/><rect class="cls-1" x="108.557" y="151.987" width="11.944" height="72.139"/><path class="cls-1" d="M154.469,175.153c-14.435,0-25.981,10.054-25.981,25.083s11.546,25.085,25.981,25.085,25.977-10.052,25.977-25.085S168.9,175.153,154.469,175.153Zm0,39.418c-8.762,0-14.037-6.868-14.037-14.335s5.275-14.332,14.037-14.332,14.033,6.867,14.033,14.332S163.227,214.571,154.469,214.571Z"/><path class="cls-1" d="M211.825,175.153c-14.433,0-25.98,10.054-25.98,25.083s11.547,25.085,25.98,25.085S237.8,215.269,237.8,200.236,226.255,175.153,211.825,175.153Zm0,39.418c-8.759,0-14.036-6.868-14.036-14.335s5.277-14.332,14.036-14.332,14.033,6.867,14.033,14.332S220.583,214.571,211.825,214.571Z"/><path class="cls-1" d="M301.927,175.153c-7.168,0-12.242,2.786-15.726,8.861-2.487-5.974-7.563-8.861-14.931-8.861-7.961,0-12.541,4.184-14.633,8.659h-.2v-7.465H245.094v47.779h11.945V198.049c0-6.371,3.084-12.145,10.946-12.145,5.773,0,8.164,3.882,8.164,9.751v28.471h11.942V198.243c0-6.168,2.789-12.339,10.255-12.339,7.066,0,8.856,5.176,8.856,11.149v27.073h11.943V195.655C319.145,184.211,314.669,175.153,301.927,175.153Z"/><path class="cls-1" d="M357.3,175.153c-8.958,0-13.738,4.184-16.224,7.266h-.3V151.987H328.828v72.139h11.347v-7.167h.2c3.484,5.771,9.754,8.362,16.425,8.362,14.728,0,23.587-10.949,23.587-25.085S370.93,175.153,357.3,175.153Zm-2.887,39.418c-8.758,0-14.034-6.868-14.034-14.335s5.276-14.332,14.034-14.332,14.034,6.867,14.034,14.332S363.168,214.571,354.409,214.571Z"/><path class="cls-1" d="M411.764,175.153c-14.431,0-25.978,10.054-25.978,25.083s11.547,25.085,25.978,25.085a24.894,24.894,0,0,0,20.207-9.557l-8.559-6.467c-2.983,3.682-6.868,6.467-12.84,6.467-6.669,0-12.045-4.276-12.842-11.349h36.432v-3.28C434.162,184.515,425.1,175.153,411.764,175.153ZM397.73,195.462c.9-6.871,5.277-11.349,12.344-11.349,7.465,0,12.043,4.378,12.142,11.349Z"/><path class="cls-1" d="M454.1,183.913h-.2v-7.566H441.95v47.779h11.941V198.547c0-2.588,1.595-12.045,12.843-12.045a23.849,23.849,0,0,1,5.772.9V175.851a15.418,15.418,0,0,0-4.279-.7A15.211,15.211,0,0,0,454.1,183.913Z"/><path class="cls-1" d="M513.359,183.517h-.2c-3.482-5.775-9.754-8.364-16.424-8.364-14.732,0-23.589,10.954-23.589,25.083,0,13.536,9.456,24.489,23.787,24.489,5.972,0,12.145-2.289,15.629-6.967h.2v3.485c0,9.456-3.584,16.021-15.126,16.021-6.672,0-11.648-2.487-16.427-6.869l-7.167,9.757c6.769,5.974,14.832,7.861,23.692,7.861,18.613,0,26.974-10.947,26.974-28.165v-43.5H513.359Zm-14.233,30.458a13.788,13.788,0,0,1-14.034-13.836c0-8.461,5.772-14.235,14.132-14.235,8.662,0,14.135,5.774,14.135,14.032C513.359,207.905,507.985,213.975,499.126,213.975Z"/><path class="cls-1" d="M545.064,165.853a3.2,3.2,0,0,0,.725-2.15,3.98,3.98,0,0,0-.425-1.925,3.335,3.335,0,0,0-1.125-1.225,4.956,4.956,0,0,0-1.55-.65,7.636,7.636,0,0,0-1.75-.2h-5.5v12.8h3.05v-4.95h1.8l2.75,4.95h3.6l-3.4-5.4A4.28,4.28,0,0,0,545.064,165.853Zm-2.95-.95a2.022,2.022,0,0,1-1.275.45h-2.35V162.2h2.35a2.568,2.568,0,0,1,1.2.35,1.209,1.209,0,0,1,.65,1.15A1.448,1.448,0,0,1,542.114,164.9Z"/><path class="cls-1" d="M550.789,161.828a11.314,11.314,0,0,0-2.45-3.6,11.84,11.84,0,0,0-3.625-2.425,11.328,11.328,0,0,0-8.85,0,11.792,11.792,0,0,0-3.625,2.425,11.282,11.282,0,0,0-2.45,3.6,11,11,0,0,0-.9,4.425,10.821,10.821,0,0,0,.9,4.4,11.508,11.508,0,0,0,14.925,5.975,11.339,11.339,0,0,0,6.075-5.975,10.837,10.837,0,0,0,.9-4.4A11.018,11.018,0,0,0,550.789,161.828Zm-1.651,8.125a9.936,9.936,0,0,1-2.049,3.075,9.558,9.558,0,0,1-13.6,0,9.922,9.922,0,0,1-2.05-3.075,9.292,9.292,0,0,1-.75-3.7,9.421,9.421,0,0,1,.75-3.75,9.549,9.549,0,0,1,5.1-5.1,9.75,9.75,0,0,1,7.5,0,9.543,9.543,0,0,1,5.1,5.1,9.421,9.421,0,0,1,.75,3.75A9.292,9.292,0,0,1,549.138,169.953Z"/></svg>