<svg viewBox="0 0 600 400" xmlns="http://www.w3.org/2000/svg" xmlns:xlink="http://www.w3.org/1999/xlink"><clipPath id="a"><path d="m1.2292 25.5567h597.5416v348.8867h-597.5416z"/></clipPath><g clip-path="url(#a)"><path d="m-316.817-146.959v693.919h1233.634v-693.919z" fill="#ebebeb"/></g><path d="m598.771 374.443v-348.886h-597.542v348.886" fill="#fff"/><path d="m106.6651 155.4255h10.3925c8.76 0 12.8837 2.2294 12.8837 8.587 0 7.989-7.7308 8.9336-13.3144 8.9336h-9.9618zm-10.8237 26.7968h21.9029c11.5085 0 23.0187-4.1211 23.0187-17.3511a14.4619 14.4619 0 0 0 -13.142-14.685v-.1748c6.27-1.8872 10.5647-6.4377 10.5647-13.3115 0-11.08-9.4487-15.2874-18.6385-15.2874h-23.7058v60.81zm10.8237-51.534h8.9312c8.161 0 11.7676 2.5756 11.7676 7.815 0 4.553-3.6066 7.6452-10.8221 7.6452h-9.8767v-15.46z"/><path d="m147.828 119.973h10.307v62.249h-10.307z"/><path d="m165.0266 161.6078c0 12.9719 9.9626 21.646 22.42 21.646 12.4517 0 22.4148-8.6741 22.4148-21.646 0-12.9692-9.9631-21.6445-22.4148-21.6445-12.4569 0-22.4195 8.6753-22.4195 21.6445zm10.3065 0c0-6.4418 4.5517-12.3675 12.113-12.3675 7.5564 0 12.1083 5.9257 12.1083 12.3675s-4.5519 12.3693-12.1083 12.3693c-7.5613 0-12.113-5.9261-12.113-12.3693z"/><path d="m214.5206 161.6078c0 12.9719 9.9631 21.646 22.4182 21.646 12.4518 0 22.4157-8.6741 22.4157-21.646 0-12.9692-9.9639-21.6445-22.4157-21.6445-12.4551 0-22.4182 8.6753-22.4182 21.6445zm10.3056 0c0-6.4418 4.5544-12.3675 12.1126-12.3675s12.1092 5.9257 12.1092 12.3675-4.5519 12.3693-12.1092 12.3693-12.1126-5.9261-12.1126-12.3693z"/><path d="m265.6468 140.9934h9.79v6.4418h.1709c1.8052-3.8615 5.7564-7.4719 12.6269-7.4719 6.357 0 10.7371 2.4914 12.884 7.6464 3.0063-5.2423 7.3839-7.6464 13.5692-7.6464 10.9951 0 14.8583 7.8162 14.8583 17.6916v24.5674h-10.3069v-23.3612c0-5.1546-1.5446-9.6208-7.6419-9.6208-6.4425 0-8.8491 5.3253-8.8491 10.6477v22.3343h-10.3039v-24.5674c0-5.0649-2.0641-8.4146-7.0448-8.4146-6.7841 0-9.4453 4.9827-9.4453 10.48v22.5017h-10.3074z"/><path d="m337.9 182.2223h9.7914v-6.184h.1726c3.0072 4.98 8.4168 7.2155 14.1732 7.2155 12.71 0 20.3533-9.4486 20.3533-21.646 0-12.1926-8.16-21.6445-19.9253-21.6445-7.73 0-11.8537 3.61-13.9989 6.27h-.2589v-26.26h-10.3074v62.2491zm34.1849-20.6145c0 6.4432-4.5528 12.3693-12.11 12.3693s-12.1108-5.9261-12.1108-12.3693 4.5535-12.3675 12.1108-12.3675 12.11 5.9257 12.11 12.3675z"/><path d="m428.7935 165.2137v-2.8305c0-14.3412-7.8154-22.42-19.3265-22.42-12.4535 0-22.4174 8.6753-22.4174 21.6445 0 12.9719 9.9639 21.646 22.4174 21.646a21.4788 21.4788 0 0 0 17.4358-8.2473l-7.3856-5.58c-2.574 3.1773-5.9264 5.58-11.0788 5.58a10.68 10.68 0 0 1 -11.0814-9.7928zm-31.4365-7.7257c.7749-5.9287 4.5527-9.7932 10.6517-9.7932 6.4407 0 10.3919 3.7777 10.4765 9.7932z"/><path d="m435.5146 140.9934h10.304v6.5286h.1752a13.1266 13.1266 0 0 1 12.1954-7.5587 13.3108 13.3108 0 0 1 3.6915.602v9.9647a20.594 20.594 0 0 0 -4.98-.7731c-9.7059 0-11.0822 8.1609-11.0822 10.3935v22.0723h-10.304v-41.2293z"/><path d="m497.1337 140.9934v6.1866h-.1717c-3.0055-4.9831-8.4167-7.217-14.1723-7.217-12.7132 0-20.355 9.4519-20.355 21.6445 0 11.68 8.16 21.1311 20.5259 21.1311 5.1532 0 10.4791-1.9752 13.4863-6.0117h.17v3.0072c0 8.16-3.0926 13.8246-13.0522 13.8246-5.7573 0-10.05-2.1455-14.175-5.9271l-6.1844 8.4193c5.8419 5.155 12.7986 6.7835 20.4448 6.7835 16.06 0 23.2751-9.446 23.2751-24.3041v-37.5369zm-12.1971 8.2466c7.4736 0 12.1971 4.9827 12.1971 12.1088 0 6.8763-4.6372 12.1136-12.2825 12.1136a11.8976 11.8976 0 0 1 -12.11-11.9391c0-7.3006 4.9815-12.2833 12.1954-12.2833z"/><path d="m95.765 241.444v44.235h216.676v-44.235z"/><path d="m119.8134 275.8517v-2.743h-11.1718v-9.7675h10.62v-2.7255h-10.62v-7.7438h11.1718v-2.7091h-14.4334v25.6889zm18.0832 0v-13.045a7.5191 7.5191 0 0 0 -1.48-5.0429 5.465 5.465 0 0 0 -4.3733-1.715 8.5329 8.5329 0 0 0 -2.7846.4611 8.0362 8.0362 0 0 0 -2.7011 1.6633l-.4515-1.6048h-2.81v19.2833h3.1939v-15.236a11.5142 11.5142 0 0 1 2.3415-1.3464 5.9736 5.9736 0 0 1 2.2744-.4433 3.59 3.59 0 0 1 2.7931.9357 5.2526 5.2526 0 0 1 .8363 3.4285v12.6615zm19.1147-19.2833h-2.81l-.3836 1.4049a9.0947 9.0947 0 0 0 -2.3419-1.4389 6.967 6.967 0 0 0 -2.6587-.4856 6.4947 6.4947 0 0 0 -5.2442 2.5514 10.62 10.62 0 0 0 -2.0822 6.9156q0 4.5817 1.9245 6.9822a6.383 6.383 0 0 0 5.2672 2.4 6.672 6.672 0 0 0 3.0192-.6868 7.9061 7.9061 0 0 0 2.1488-1.4715v.9207q0 3.4946-1.564 4.7913a6.8663 6.8663 0 0 1 -4.4893 1.2961 8.71 8.71 0 0 1 -2.735-.3849 8.1576 8.1576 0 0 1 -1.8986-.8691h-.7521v3.01q1.3546.3672 2.5759.5767a14.266 14.266 0 0 0 2.4249.2094q4.5818 0 7.0992-2.3242 2.5173-2.3258 2.5-7.476v-15.9213zm-3.1606 13.8978a8.3373 8.3373 0 0 1 -1.889 1.2457 5.74 5.74 0 0 1 -2.56.544 4.0674 4.0674 0 0 1 -3.4952-1.64 8.6629 8.6629 0 0 1 -1.2049-5.1 8.3033 8.3033 0 0 1 1.2716-5.0511 4.216 4.216 0 0 1 3.5618-1.6727 5.7331 5.7331 0 0 1 2.1583.4107 10.3684 10.3684 0 0 1 2.157 1.228v10.0355zm19.37 5.3855v-2.5092h-3.9807v-16.7741h-7.058v2.4916h3.9141v14.2826h-4.7v2.5092zm-4.1153-23.5986v-4.2487h-3.83v4.2487zm23.0547 23.5986v-13.045a7.5159 7.5159 0 0 0 -1.4811-5.0429 5.4623 5.4623 0 0 0 -4.3724-1.715 8.5336 8.5336 0 0 0 -2.7853.4611 8.0346 8.0346 0 0 0 -2.7009 1.6633l-.4516-1.6048h-2.81v19.2833h3.1947v-15.236a11.521 11.521 0 0 1 2.3418-1.3464 5.9683 5.9683 0 0 1 2.274-.4433 3.5909 3.5909 0 0 1 2.7934.9357 5.2592 5.2592 0 0 1 .8373 3.4283v12.6615zm19.8055-9.1826v-2.0564a9.4786 9.4786 0 0 0 -1.9243-6.2383 6.9109 6.9109 0 0 0 -5.6522-2.3256 7.8284 7.8284 0 0 0 -6.1458 2.6929q-2.3847 2.6927-2.3841 7.6608 0 5.0837 2.6425 7.5085a9.6743 9.6743 0 0 0 6.8068 2.4249 14.9115 14.9115 0 0 0 3.2286-.3591 19.2326 19.2326 0 0 0 3.2613-1.0458v-2.91h-.8038a7.6572 7.6572 0 0 1 -2.282 1.1383 9.4458 9.4458 0 0 1 -3.0519.5019 6.6594 6.6594 0 0 1 -4.7831-1.7313 6.9331 6.9331 0 0 1 -1.8237-5.26zm-12.8777-2.3583a6.8708 6.8708 0 0 1 1.4633-4.0473 4.5907 4.5907 0 0 1 3.7713-1.6048 3.9354 3.9354 0 0 1 3.5455 1.5885 7.2211 7.2211 0 0 1 1.054 4.0636zm32.0442 2.3583v-2.0564a9.4848 9.4848 0 0 0 -1.9231-6.2383 6.9152 6.9152 0 0 0 -5.6535-2.3256 7.83 7.83 0 0 0 -6.1458 2.6929q-2.3828 2.6927-2.3827 7.6608 0 5.0837 2.6425 7.5085a9.67 9.67 0 0 0 6.8068 2.4249 14.8908 14.8908 0 0 0 3.2273-.3591 19.2316 19.2316 0 0 0 3.2612-1.0458v-2.91h-.8024a7.6659 7.6659 0 0 1 -2.2834 1.1383 9.44 9.44 0 0 1 -3.0519.5019 6.6617 6.6617 0 0 1 -4.7831-1.7313 6.9331 6.9331 0 0 1 -1.8237-5.26zm-12.8778-2.3583a6.88 6.88 0 0 1 1.4633-4.0473 4.5926 4.5926 0 0 1 3.7713-1.6048 3.9322 3.9322 0 0 1 3.5455 1.5885 7.21 7.21 0 0 1 1.054 4.0636zm31.91-4.5315v-3.2109a10.0606 10.0606 0 0 0 -1.5966-.3767 12.999 12.999 0 0 0 -2.0319-.1429 3.5937 3.5937 0 0 0 -1.4552.3346 8.55 8.55 0 0 0 -1.5055.8786 14.8212 14.8212 0 0 0 -1.4878 1.2376q-.7365.6935-1.3886 1.4293l-.4352-3.3605h-5.6521v2.4916h2.977v14.2826h-2.977v2.5092h9.9674v-2.5092h-3.8474v-10.8542c.3576-.3563.7384-.7411 1.1464-1.1546a12.1508 12.1508 0 0 1 1.3042-1.1451 7.682 7.682 0 0 1 1.4716-.8786 3.9984 3.9984 0 0 1 1.6646-.3509 6.0547 6.0547 0 0 1 1.0867.0844 5.762 5.762 0 0 1 .7942.2 3.8633 3.8633 0 0 1 .6025.26c.1727.0951.3372.1862.4936.276zm15.1435 16.0724v-2.5092h-3.9807v-16.7741h-7.0583v2.4916h3.914v14.2826h-4.6988v2.5092zm-4.114-23.5986v-4.2487h-3.83v4.2487zm23.0534 23.5986v-13.045a7.5228 7.5228 0 0 0 -1.48-5.0429 5.4673 5.4673 0 0 0 -4.3738-1.715 8.54 8.54 0 0 0 -2.7853.4611 8.0346 8.0346 0 0 0 -2.7009 1.6633l-.4515-1.6048h-2.81v19.2833h3.1947v-15.236a11.5215 11.5215 0 0 1 2.3419-1.3464 5.9726 5.9726 0 0 1 2.2739-.4433 3.5909 3.5909 0 0 1 2.7934.9357 5.2508 5.2508 0 0 1 .8364 3.4285v12.6615zm19.1147-19.2833h-2.81l-.3836 1.4049a9.0947 9.0947 0 0 0 -2.3419-1.4389 6.9672 6.9672 0 0 0 -2.6588-.4856 6.4945 6.4945 0 0 0 -5.2441 2.5514 10.62 10.62 0 0 0 -2.0822 6.9156q0 4.5817 1.9244 6.9822a6.385 6.385 0 0 0 5.2673 2.4 6.672 6.672 0 0 0 3.0192-.6868 7.9061 7.9061 0 0 0 2.1488-1.4715v.9207q0 3.4946-1.564 4.7913a6.8666 6.8666 0 0 1 -4.4894 1.2961 8.71 8.71 0 0 1 -2.7349-.3849 8.1576 8.1576 0 0 1 -1.8986-.8691h-.7521v3.01q1.3546.3672 2.5759.5767a14.2649 14.2649 0 0 0 2.4248.2094q4.5819 0 7.0992-2.3242 2.5173-2.3258 2.5-7.476zm-3.1606 13.8978a8.3358 8.3358 0 0 1 -1.8891 1.2457 5.7388 5.7388 0 0 1 -2.56.544 4.0673 4.0673 0 0 1 -3.4952-1.64 8.6622 8.6622 0 0 1 -1.2049-5.1 8.3033 8.3033 0 0 1 1.2716-5.0511 4.2158 4.2158 0 0 1 3.5618-1.6727 5.7334 5.7334 0 0 1 2.1583.4107 10.371 10.371 0 0 1 2.157 1.228v10.0355z" fill="#fff"/></svg>