<svg viewBox="0 0 600 400" xmlns="http://www.w3.org/2000/svg"><g fill="#404041"><path d="m540.3059 250.85a4.1229 4.1229 0 0 1 -4.15-4.15 4.15 4.15 0 0 1 8.2993 0 4.2112 4.2112 0 0 1 -4.15 4.15m0-7.483a3.3334 3.3334 0 1 0 3.3334 3.3333 3.3387 3.3387 0 0 0 -3.3334-3.3333m2.1089 5.51h-.9524l-.8163-1.5646h-1.0884v1.5646h-.8844v-4.557h2.1774a1.4471 1.4471 0 0 1 1.5646 1.4966 1.4121 1.4121 0 0 1 -.9524 1.36zm-1.6327-2.3809a.6407.6407 0 0 0 .68-.68c0-.5442-.2721-.68-.68-.68h-1.3605v1.3606z"/><path d="m107.993 242.143h10.613v28.911h18.435v9.252h-29.048z"/><path d="m147.9933 261.3265v-.1365c0-10.9524 8.8436-19.8639 20.6123-19.8639s20.4761 8.7755 20.4761 19.7278v.1361c0 10.9524-8.8435 19.8639-20.6122 19.8639s-20.4762-8.7755-20.4762-19.7278m30.34 0v-.1361c0-5.51-3.9455-10.2721-9.7959-10.2721-5.7823 0-9.66 4.6939-9.66 10.2041v.136c0 5.51 3.9456 10.2721 9.7279 10.2721 5.85 0 9.7278-4.6938 9.7278-10.204"/><path d="m202.0749 263.5714v-21.4286h10.7483v21.2245c0 5.51 2.7891 8.0952 7.0068 8.0952s7.0068-2.517 7.0068-7.8231v-21.4966h10.7483v21.1565c0 12.3129-7.0068 17.687-17.8912 17.687-10.8163 0-17.619-5.4421-17.619-17.4149"/><path d="m253.7756 242.1428h14.6938c13.6055 0 21.5646 7.8231 21.5646 18.8436v.136c0 11.02-8.0272 19.1837-21.7686 19.1837h-14.49v-38.1633zm14.8979 28.7755c6.3265 0 10.5442-3.4694 10.5442-9.66v-.136c0-6.1225-4.2177-9.66-10.5442-9.66h-4.2857v19.3877h4.2857z"/><path d="m305.408 242.143h30.544v9.252h-20v6.53h18.096v8.776h-18.096v13.605h-10.544z"/><path d="m350.646 242.143h10.544v28.911h18.504v9.252h-29.048z"/><path d="m407.3128 241.8707h10.2041l16.2585 38.4354h-11.3605l-2.7891-6.8028h-14.6939l-2.721 6.8028h-11.0885zm9.32 23.4014-4.2177-10.8164-4.2857 10.8164z"/><path d="m447.3809 242.1428h18.0272c5.85 0 9.8639 1.4966 12.4489 4.15a11.7874 11.7874 0 0 1 3.4014 8.9115v.1361a12.0283 12.0283 0 0 1 -7.8231 11.7007l9.1156 13.3333h-12.2449l-7.687-11.5644h-4.6259v11.5646h-10.6122zm17.551 18.2993c3.6054 0 5.6462-1.7687 5.6462-4.49v-.136c0-2.9932-2.1769-4.49-5.7143-4.49h-6.9388v9.1156z"/><path d="m496.496 242.143h30.681v8.979h-20.204v5.783h18.299v8.367h-18.299v6.054h20.476v8.98h-30.953z"/><path d="m84.8641 265.8163a9.3828 9.3828 0 0 1 -8.7075 5.7142c-5.7823 0-9.7278-4.83-9.7278-10.2721v-.136c0-5.51 3.8775-10.2041 9.66-10.2041a9.4794 9.4794 0 0 1 9.0476 6.3265h11.1563c-1.7687-9.1156-9.7959-15.85-20.1361-15.85-11.7687 0-20.6122 8.9116-20.6122 19.864v.136c0 10.9524 8.7075 19.7279 20.4762 19.7279 10.068 0 17.9592-6.5306 20-15.2381l-11.1565-.068z"/></g><path d="m514.66 181.259-29.184-16.735-5.034-2.177-119.388.816v60.612h153.606z" fill="#fff"/><path d="m461.5305 218.1973c1.4286-4.898.8843-9.3878-1.4966-12.7211-2.1769-3.0612-5.85-4.83-10.2721-5.034l-83.7418-1.0885a1.5481 1.5481 0 0 1 -1.2925-.68 1.8749 1.8749 0 0 1 -.2041-1.4966 2.2962 2.2962 0 0 1 1.9728-1.4966l84.49-1.0885c10-.4762 20.8844-8.5714 24.6939-18.5034l4.83-12.585a2.7028 2.7028 0 0 0 .1361-1.6326 55.0124 55.0124 0 0 0 -105.7823-5.6463 24.73 24.73 0 0 0 -39.4557 17.2789 25.9723 25.9723 0 0 0 .6122 8.6395 35.1454 35.1454 0 0 0 -34.15 35.17 42.8328 42.8328 0 0 0 .34 5.102 1.6759 1.6759 0 0 0 1.6327 1.4286h154.5582a2.1033 2.1033 0 0 0 1.9728-1.4966z" fill="#f38020"/><path d="m488.1972 164.3878c-.7483 0-1.5647 0-2.313.068a1.3752 1.3752 0 0 0 -1.2245.9524l-3.2653 11.3605c-1.4285 4.898-.8843 9.3878 1.4966 12.7211 2.1769 3.0612 5.85 4.83 10.2721 5.034l17.8232 1.0884a1.548 1.548 0 0 1 1.2925.68 1.9164 1.9164 0 0 1 .2041 1.4966 2.2966 2.2966 0 0 1 -1.9728 1.4966l-18.5714 1.0884c-10.0681.4762-20.8844 8.5715-24.6939 18.5034l-1.3605 3.4694a.98.98 0 0 0 .9524 1.3606h63.8094a1.6741 1.6741 0 0 0 1.6327-1.2245 46.4992 46.4992 0 0 0 1.7007-12.381 45.8281 45.8281 0 0 0 -45.7823-45.7142" fill="#faae40"/></svg>