<svg viewBox="0 0 600 400" xmlns="http://www.w3.org/2000/svg"><g fill="#191d2f"><path d="m147.5743 238.6072c-14.5956 0-23.9119-11.2918-23.9119-24.4161 0-13.274 9.1715-24.1086 23.3115-24.1086 12.0287 0 20 8.3916 20 8.3916l8.4191-13.2762s-9.4717-11.5953-29.4744-11.5953c-25.42 0-41.6616 18.6174-41.6616 40.7454 0 22.5824 16.2413 40.7388 41.6616 40.7388 20.6065 0 31.5895-12.6649 31.5895-12.6649l-7.3772-13.7334s-9.6273 9.9187-22.5566 9.9187z"/><path d="m223.3825 173.6026c-23.3083 0-42.11 16.9371-42.11 40.7454 0 23.9553 18.802 40.7388 42.2588 40.7388 23.3151 0 42.1135-16.7835 42.1135-40.7388-.0003-23.808-18.7987-40.7454-42.2623-40.7454zm.1485 65.0046c-12.477 0-22.8668-9.7633-22.8668-24.2592 0-14.3471 10.39-24.2674 22.8668-24.2674a22.3892 22.3892 0 0 1 6.5823.9856c-.0263 0-.0514-.0039-.0777-.0039a15.1909 15.1909 0 1 0 14.963 15.189c0-.0357-.0051-.07-.0053-.1059a27.0245 27.0245 0 0 1 1.256 8.2026c0 14.4959-10.3827 24.2592-22.7183 24.2592z"/><path d="m317.5477 173.6026c-16.2348 0-23.0046 11.29-23.0046 11.29h-.3s.3-2.7482.3-6.5575v-33.4219h-19.1059v108.3451h18.05v-4.4274a45.6516 45.6516 0 0 0 -.3-5.34h.3s6.9183 11.5954 22.8668 11.5954c20.3029 0 35.1921-16.0224 35.1921-40.7388-.0003-24.1135-13.2361-40.7449-33.9984-40.7449zm-4.5065 65.16c-12.7844 0-19.0987-11.9042-19.0987-23.96 0-17.2424 9.3268-24.568 19.24-24.568 11.29 0 19.1055 9.6117 19.1055 24.416.0004 15.4112-8.7227 24.1118-19.2468 24.1118z"/><path d="m402.2514 173.6026c-23.312 0-42.1068 16.9371-42.1068 40.7454 0 23.9553 18.7948 40.7388 42.2585 40.7388 23.3119 0 42.1139-16.7835 42.1139-40.7388 0-23.808-18.802-40.7454-42.2656-40.7454zm.1517 65.0046c-12.484 0-22.86-9.7633-22.86-24.2592 0-14.3471 10.3757-24.2674 22.86-24.2674a22.37 22.37 0 0 1 5.9736.8295 15.3659 15.3659 0 1 0 15.7016 15.8962 27.3175 27.3175 0 0 1 1.0328 7.5417c0 14.4959-10.3756 24.2592-22.708 24.2592z"/><path d="m492.2861 236.93c-5.2724 0-15.1962-1.8325-15.1962-14.6511v-30.2125h17.4494v-15.4135h-17.4493v-22.43h-18.643v22.43h-10.3793v15.4135h9.9166v32.6559c0 26.0944 21.2139 29.3 31.8863 29.3a32.5345 32.5345 0 0 0 5.8728-.4589v-16.9404a17.2178 17.2178 0 0 1 -3.4573.307z"/></g></svg>