<svg id="Ebene_1" data-name="Ebene 1" xmlns="http://www.w3.org/2000/svg" viewBox="0 0 600 400"><defs><style>.cls-1{fill:#191d2f;}</style></defs><title>cobot</title><path class="cls-1" d="M131.065,232.79a26.018,26.018,0,0,1-26.612-25.409q-.02-.835.015-1.67a25.148,25.148,0,0,1,23.648-26.564q1.088-.063,2.176-.032a33.791,33.791,0,0,1,22.253,9.219l9.653-14.819a43.106,43.106,0,0,0-33.161-12.791,44.166,44.166,0,0,0-46.206,42.027q-.076,1.6-.036,3.2a44.167,44.167,0,0,0,43.041,45.264q1.6.04,3.2-.035a48.272,48.272,0,0,0,35-14.047l-8.158-15.349A39.142,39.142,0,0,1,131.065,232.79Z"/><path class="cls-1" d="M214.908,160.724c-25.824,0-46.772,18.632-46.772,45.228s20.948,44.987,47.014,45.229,46.773-18.632,46.773-45.229S240.974,160.724,214.908,160.724Zm.242,72.066a25.583,25.583,0,0,1-25.323-25.84c0-.333.013-.665.03-1a25.583,25.583,0,0,1,24.295-26.808c.333-.016.665-.026,1-.029a25.038,25.038,0,0,1,6.226.869,16.846,16.846,0,1,0,17.571,16.749h0a29.411,29.411,0,0,1,1.544,9.219,25.438,25.438,0,0,1-24,26.8Q215.822,232.788,215.15,232.79Z"/><path class="cls-1" d="M319.315,160.483a29.686,29.686,0,0,0-25.535,12.5h-.241s.241-2.8.241-7.143V128.77H272.928V248.864h19.935v-4.827c0-3.331-.241-5.889-.241-5.889h.241a29.928,29.928,0,0,0,25.293,12.791c22.494,0,39.1-17.908,39.1-45.228S342.436,160.483,319.315,160.483Zm-4.827,72.4c-14.481,0-21.19-13.274-21.19-26.6,0-19.307,10.474-27.32,21.48-27.32,12.5,0,21.19,10.716,21.19,27.079.1,17.28-9.654,26.982-21.48,26.982Z"/><path class="cls-1" d="M413.488,160.724c-25.824,0-46.773,18.632-46.773,45.228s20.949,45.229,47.015,45.229S460.5,232.549,460.5,205.952,439.554,160.724,413.488,160.724Zm.242,72.066a25.294,25.294,0,0,1-25.341-25.246q0-.8.047-1.592a25.584,25.584,0,0,1,24.3-26.808q.5-.024,1-.029a25.209,25.209,0,0,1,5.647.675,17.04,17.04,0,1,0,18.294,17.57,29.522,29.522,0,0,1,1.352,8.544,25.439,25.439,0,0,1-23.949,26.845Q414.4,232.788,413.73,232.79Z"/><path class="cls-1" d="M513.406,230.715a15.2,15.2,0,0,1-16.846-16.364V180.9h19.307V163.765H496.56V139H475.8v25.052H464.123V181.19h11v36.3c0,28.961,23.507,32.437,35.285,32.437a37.311,37.311,0,0,0,6.806-.531V230.473A25.738,25.738,0,0,1,513.406,230.715Z"/></svg>