<svg id="Ebene_1" data-name="Ebene 1" xmlns="http://www.w3.org/2000/svg" viewBox="0 0 600 400"><defs><style>.cls-1{fill-rule:evenodd;}</style></defs><title>code-university</title><g id="University_Berlin" data-name="University Berlin"><path class="cls-1" d="M369.712,145.293h-37.7V254.707h37.869c34.65,0,59.684-20.833,59.684-54.789S404.528,145.293,369.712,145.293Zm0,84.808h-9.187V169.9h9.353c20.226,0,30.5,13.123,30.5,30.019C400.383,216.158,389.109,230.1,369.712,230.1ZM216.718,143.812l-55.369,54.339-1.762,1.787,57.131,56.127,19.761-19.388L197.7,200.057l38.779-36.934ZM134.3,230.827c-15.56,0-28.174-13.8-28.174-30.827s12.614-30.827,28.174-30.827a26.86,26.86,0,0,1,19.547,8.639l19.889-19.519a56.113,56.113,0,0,0-40.178-17.012c-31.529,0-57.088,26.289-57.088,58.719s25.559,58.719,57.088,58.719A56.117,56.117,0,0,0,173.8,241.645l-19.891-19.52A26.874,26.874,0,0,1,134.3,230.827ZM523.528,169.9V145.293h-81.07V254.707h81.07V230.1H470.974V211.565h51.394V186.959H470.974V169.9ZM262.9,143.693,243.2,163l38.724,36.935L243.2,236.558,262.9,255.946l57.118-56.127-1.748-1.787Z"/></g></svg>