<svg id="Ebene_1" data-name="Ebene 1" xmlns="http://www.w3.org/2000/svg" viewBox="0 0 600 400"><defs><style>.cls-1{fill:#769e48}.cls-2{fill:#4e5e32}</style></defs><path class="cls-1" d="M124.262 193.837a26.74 26.74 0 0 1 19.172 7.693l-4.442 5.743c-4.33-3.794-8.883-6.063-14.402-6.063-12.134 0-20.474 8.236-20.474 20.362 0 12.022 8.124 20.146 20.258 20.146 6.502 0 11.918-2.924 16.36-6.606l3.898 5.743a31.148 31.148 0 0 1-20.905 8.236c-16.463 0-28.813-10.073-28.813-27.511 0-17.67 13.428-27.743 29.349-27.743zm53.321 47.873c10.073 0 16.79-8.124 16.79-20.146 0-12.134-6.717-20.362-16.79-20.362s-16.791 8.236-16.791 20.362c0 12.03 6.718 20.146 16.79 20.146zm0-47.873c13.867 0 25.993 10.073 25.993 27.727 0 17.438-12.134 27.511-25.993 27.511-13.868 0-25.994-10.073-25.994-27.511-.008-17.654 12.126-27.727 25.994-27.727zm60.334 47.769c5.2 0 10.184-2.708 14.841-7.908V207.48c-4.768-4.442-9.314-6.175-13.867-6.175-9.098 0-16.463 8.124-16.463 20.146 0 12.573 5.735 20.154 15.489 20.154zm-.76-47.769c6.391 0 11.048 2.604 15.92 6.822l-.327-9.745v-20.258h8.883v77.125h-7.365l-.759-6.934h-.328c-4.329 4.441-10.616 8.236-17.118 8.236-13.755 0-22.854-9.961-22.854-27.511.008-17.119 11.487-27.735 23.948-27.735zm78.356 23.397c0-10.504-5.847-16.36-15.6-16.36-8.556 0-16.36 6.063-17.766 16.36zm-15.705-23.397c15.058 0 23.94 9.858 23.94 24.7a34.498 34.498 0 0 1-.327 5.088h-41.162c.43 11.16 8.667 18.308 20.145 18.308a29.116 29.116 0 0 0 16.033-4.872l3.139 5.847a36.546 36.546 0 0 1-20.258 6.175c-15.6 0-28.27-10.289-28.27-27.511.008-17.23 13.109-27.735 26.76-27.735z"/><path class="cls-2" d="M381.878 247.78h-7.261l-.76-9.21h-.43c-5.305 6.175-11.48 10.505-19.603 10.505-12.566 0-18.309-7.365-18.309-21.232V195.13h8.995v31.521c0 9.97 3.355 14.73 12.134 14.73 6.063 0 10.504-2.923 16.36-9.745V195.13h8.883v52.65zm37.176-6.174c9.426 0 16.248-7.908 16.248-20.905 0-11.59-4.337-19.387-14.842-19.387-4.657 0-10.073 2.492-15.488 7.908v26.21c4.984 4.44 10.504 6.174 14.082 6.174zm-14.083 10.616v17.766h-8.882v-74.849h7.365l.759 6.718h.327c4.873-4.657 11.703-8.02 18.197-8.02 14.187 0 21.767 10.504 21.767 26.864 0 17.87-11.263 28.382-23.94 28.382-4.872 0-11.047-2.493-15.816-6.822l.224 9.961z"/><path class="cls-1" d="M466.248 155.646h-41.634l4.162-12.813h46.786l9.314-12.821h-65.414l-12.494 38.455h49.974l9.306-12.821z"/><path class="cls-2" d="M484.876 130.012l-9.314 12.821 14.459 44.494-10.904 7.924-12.869-39.605-9.306 12.821 15.441 47.521 32.703-23.764-20.21-62.212z"/></svg>