<svg id="Ebene_1" data-name="Ebene 1" xmlns="http://www.w3.org/2000/svg" viewBox="0 0 600 400"><defs><style>.cls-1{fill:#fff;}.cls-1,.cls-2{fill-rule:evenodd;}.cls-2{fill:#774b9e;}</style></defs><title>datadog</title><path class="cls-1" d="M212.752,277.5l16.9-2.879c8.248,9.1,5.017,12.686,12.094,17.857,11.774,8.612,26.518,4.76,31.536-2.25,5.936-8.3,5.529-16.2,3.68-23.677l19.171-3.267,2.343,19.621,109.106-19.731-6.491-78.871-3.724.678L385.738,58.428l-197,20.625L212.752,277.5Z"/><path class="cls-2" d="M299.759,128.021c1.69-1.608-8.414-3.723-16.255,1.64-5.782,3.957-5.966,12.44-.431,17.248a13.73,13.73,0,0,0,1.436,1.09,47.016,47.016,0,0,1,5.579-2.225,49.828,49.828,0,0,1,9.006-2.089c1.171-1.313,2.533-3.625,2.194-7.81-.462-5.678-4.753-4.777-1.529-7.854M352.8,158.849c-.956-.531-5.431-.321-8.575.055-5.992.709-12.458,2.792-13.875,3.9-2.577,2-1.407,5.48.5,6.91,5.338,4,10.017,6.682,14.955,6.029,3.033-.4,5.708-5.215,7.6-9.586,1.3-3.008,1.3-6.256-.6-7.31m-20.46-35.543c-.344.789-.887,1.307-.074,3.877l.05.148.129.333.339.771c1.467,3.008,3.076,5.843,5.77,7.292a18.608,18.608,0,0,1,2.164-.235,9.845,9.845,0,0,1,5.134.839,10.952,10.952,0,0,0,.056-2.337c-.2-3.809.752-10.288-6.546-13.7-2.756-1.283-6.621-.888-7.909.715a3.311,3.311,0,0,1,.61.136c1.948.677.628,1.349.277,2.157m75.173,52.21-6.288,1.2L389.146,51.548l-205.8,23.936L208.7,281.862l24.089-3.509A54.4,54.4,0,0,0,222.756,268c-7.095-5.913-4.586-15.954-.4-22.3,5.535-10.714,34.063-24.331,32.448-41.455-.58-6.226-1.566-14.332-7.329-19.886a19.344,19.344,0,0,0,.172,4.525,23.231,23.231,0,0,1-3.544-7.157c-1.171-1.584-2.09-2.089-3.335-4.2a15.909,15.909,0,0,0-.77,5.283,33.1,33.1,0,0,1-2.25-8.457,13.492,13.492,0,0,0-1.437,5.024s-2.515-7.231-1.942-11.127c-1.146-3.39-4.548-10.115-3.587-25.4,6.282,4.413,20.108,3.365,25.495-4.6,1.788-2.638,3.015-9.838-.894-24.028-2.508-9.1-8.722-22.648-11.144-27.789l-.29.21c1.276,4.142,3.908,12.822,4.919,17.032,3.057,12.766,3.877,17.21,2.441,23.1-1.221,5.116-4.149,8.463-11.571,12.2s-17.272-5.381-17.894-5.886c-7.212-5.764-12.791-15.165-13.414-19.732-.647-5,2.873-8,4.649-12.088a45.2,45.2,0,0,0-5.37,2.021,64.772,64.772,0,0,1,7.545-6.54,44.406,44.406,0,0,0,4.555-3.39c-2.632-.043-4.77.031-4.77.031a85.025,85.025,0,0,1,8.938-4.112c-3.329-.148-6.516-.024-6.516-.024s9.795-4.395,17.531-7.619c5.32-2.189,10.516-1.541,13.438,2.693,3.834,5.548,7.859,8.563,16.391,10.43,5.239-2.33,6.83-3.526,13.413-5.326,5.794-6.392,10.344-7.218,10.344-7.218a10.541,10.541,0,0,0-2.861,5.338,76.179,76.179,0,0,1,6.886-4.765,24.478,24.478,0,0,0-2.694,4.469l.3.45a68.6,68.6,0,0,1,8.34-4.124s-1.288,1.634-2.8,3.748c2.891-.024,8.753.124,11.028.383,13.431.3,16.218-14.388,21.371-16.231,6.454-2.311,9.338-3.711,20.336,7.126,9.437,9.3,16.81,25.951,13.148,29.681-3.07,3.094-9.123-1.208-15.836-9.6a36.4,36.4,0,0,1-7.483-16.372,16.068,16.068,0,0,0-5.185-8.9s2.392,5.35,2.392,10.066c0,2.577.321,12.2,4.438,17.611-.406.789-.6,3.908-1.047,4.506-4.79-5.807-15.078-9.961-16.755-11.188,5.677,4.667,18.727,15.386,23.739,25.662,4.741,9.715,1.947,18.622,4.345,20.927.684.66,10.2,12.551,12.027,18.523,3.192,10.412.191,21.354-3.988,28.14l-11.67,1.825a16.3,16.3,0,0,1-4.388-1.6,29.341,29.341,0,0,0,2.539-6l-.659-1.158a49.336,49.336,0,0,1-14.769,13.049c-6.615,3.76-14.24,3.181-19.2,1.64-14.085-4.359-27.406-13.907-30.618-16.415,0,0-.1,2,.506,2.453a109.083,109.083,0,0,0,19.553,16.353l-16.767,1.85,7.927,61.907c-3.514.5-4.062.752-7.908,1.3-3.391-12.014-9.875-19.862-16.964-24.429-6.251-4.031-14.875-4.938-23.129-3.3l-.53.616a29.711,29.711,0,0,1,19.473,4.655c6.83,4.333,12.335,15.521,14.363,22.258,2.595,8.612,4.388,17.821-2.6,27.585-4.969,6.941-19.473,10.776-31.191,2.478,3.131,5.049,7.359,9.179,13.055,9.955,8.458,1.153,16.484-.32,22.007-6.01,4.715-4.864,7.218-15.035,6.558-25.747l7.465-1.086,2.694,19.227,123.555-14.925L407.51,175.516ZM289.2,203.94l15.546-2.145a39.064,39.064,0,0,0,7.28,2.336c4.7,1.227,10.134,2.4,18.185-1.664,1.874-.931,5.776-4.513,7.353-6.553l63.69-11.588,6.5,78.876L298.638,282.927,289.2,203.94Zm90.355,26.178-20.859-13.8-17.4,29.156-20.237-5.935-17.821,27.282.913,8.587L401.038,257.5l-5.629-60.723-15.854,33.341Z"/><path class="cls-2" d="M446.147,339.429v10.813a21.262,21.262,0,0,1-5.307.77q-15.736,0-15.731-16.631,0-15.358,16.668-15.356a32.245,32.245,0,0,1,12.945,2.59V313.86a38.327,38.327,0,0,0-13.593-2.262q-24.918,0-24.927,22.783,0,24.059,24.5,24.071a34.89,34.89,0,0,0,14.018-2.46V331.828H440.87l-2.9,7.6Zm-58.671,11.576q13.98,0,13.981-16.112,0-15.868-13.981-15.874-14.34,0-14.337,15.874,0,16.115,14.337,16.112M364.23,335.09q0-23.494,23.246-23.492,22.885,0,22.881,23.492,0,23.357-22.881,23.362-22.209,0-23.246-23.362m-38.988,15.6h10.2q14.4,0,14.406-16.927,0-14.415-14.406-14.412h-10.2v31.339Zm11.49,7.434H316.667V311.931h20.065q21.693,0,21.692,21.833,0,24.346-21.692,24.355m-65.9,0h-8.809l19.652-46.188H290.9l20.07,46.188h-9.227l-5.826-12.6H281.094l2.941-7.423h9.616l-7.576-17.352-15.238,37.374Zm-39.531-46.188H266.43v7.427H253.158v38.761h-8.574V319.358H231.306v-7.427Zm-35.284,46.188h-8.809l19.646-46.188h9.221l20.077,46.188h-9.228l-5.825-12.6H206.279l2.947-7.423h9.616l-7.576-17.352-15.244,37.374Zm-42.163-7.434h10.189q14.406,0,14.4-16.927,0-14.415-14.4-14.412H153.859v31.339Zm11.484,7.434H145.278V311.931h20.065q21.683,0,21.692,21.833,0,24.346-21.692,24.355"/></svg>