<svg id="Ebene_1" data-name="Ebene 1" xmlns="http://www.w3.org/2000/svg" viewBox="0 0 600 400"><defs><style>.cls-1{fill:#d71d24;}.cls-2{fill:#fff;}</style></defs><title>sponsor-logo-delivery-hero</title><rect class="cls-1" x="80.2961" y="67.6646" width="439.4079" height="264.6708"/><path class="cls-2" d="M336.7753,124.0035a38.3137,38.3137,0,0,0-42.4832,10.039L253.7932,177.42a.793.793,0,0,0,.3769,1.4147l10.7824.6651c.8661.0512.9708.7954.5359,1.3049l-26.3725,28.4478a.6748.6748,0,0,0,.7276,1.07l37.6523-11.8968c.7938-.2777,1.41.4334,1.0708,1.0564v.0031l-5.0357,8.9049h0a.8559.8559,0,0,0,.8632,1.1535l54.2829-12.0983a38.2805,38.2805,0,0,0,8.0983-73.4422Zm6.026,39.173a.5875.5875,0,0,0-.0723.0391l-12.1272,4.95-.3709.1641-2.9551,13.5071a.7167.7167,0,0,1-1.1835.1845L317.255,171.57l-.0451-.0272-49.82,21.3835a.3454.3454,0,0,1-.1408.031.3352.3352,0,0,1-.3355-.3349.33.33,0,0,1,.1376-.2694l43.0755-32.2382-5.451-12.4438a.7314.7314,0,0,1,.8961-1.0061h.0023l13.2009,3.2514,10.246-9.1239.0021.0039a.7137.7137,0,0,1,1.1551.4508l.9994,13.7041,11.8229,6.9132A.7283.7283,0,0,1,342.8013,163.1765Z"/><path class="cls-2" d="M219.2441,270.7537h-9.1383l7.1479-33.4781,9.9623-3.6632Z"/><path class="cls-2" d="M193.0071,261.3537a5.68,5.68,0,0,0-.0933.8841c0,1.4907,1.0241,2,3.7255,2a28.158,28.158,0,0,0,7.868-1.3012v6.844a32.1953,32.1953,0,0,1-9.7785,1.444c-7.5415,0-11.1737-2.049-11.1737-8.8944,0-6.7055,3.119-17.1809,15.1332-17.1809,7.6355,0,9.9171,3.4457,9.9171,7.0787C208.6054,256.93,204.5556,260.9353,193.0071,261.3537Zm4.9814-9.7786c-2.1882,0-3.444,1.8165-3.9566,3.9115,4.33,0,5.6332-1.35,5.6332-2.4683A1.5452,1.5452,0,0,0,197.9885,251.5751Z"/><path class="cls-2" d="M235.0494,243.95c-3.1184,0-5.1215-2.0024-5.1215-4.75a5.3134,5.3134,0,0,1,5.6339-5.588c3.1665,0,5.1229,2.0039,5.1229,4.7023A5.3018,5.3018,0,0,1,235.0494,243.95Z"/><path class="cls-2" d="M229.4245,245.9886h9.397l-4.75,24.3963h-9.4964l3.3516-17.1332"/><path class="cls-2" d="M265.9194,245.9886a205.1,205.1,0,0,1-11.4063,24.3963h-11.641a115.4446,115.4446,0,0,1-1.9564-24.3963h9.5a112.663,112.663,0,0,0,.0917,11.92c.0475,1.0225.1407,2.0016.2333,2.98h.0467c.4184-.9781.8841-1.9572,1.3041-2.98,1.6291-4.0056,3.12-8.38,4.238-11.9195Z"/><path class="cls-2" d="M273.6475,261.3537a5.868,5.868,0,0,0-.0934.8841c0,1.4907,1.0242,2,3.7264,2a28.1783,28.1783,0,0,0,7.868-1.3012v6.844a32.1951,32.1951,0,0,1-9.7779,1.444c-7.5444,0-11.1759-2.049-11.1759-8.8944,0-6.7055,3.1206-17.1809,15.134-17.1809,7.6348,0,9.9164,3.4457,9.9164,7.0787C289.2451,256.93,285.1959,260.9353,273.6475,261.3537Zm4.983-9.7786c-2.19,0-3.4479,1.8165-3.9589,3.9115,4.3306,0,5.6347-1.35,5.6347-2.4683A1.5459,1.5459,0,0,0,278.6305,251.5751Z"/><path class="cls-2" d="M307.4974,254.6015a10.5345,10.5345,0,0,0-2.2816-.28c-2.0956,0-3.7729,2.0965-4.5179,5.96l-1.955,10.1035h-9.4978l4.75-24.3963h7.1223l.234,3.2582c2.1882-2.7,3.91-4.0973,6.564-4.0973a8.7374,8.7374,0,0,1,2.1882.1874Z"/><path class="cls-2" d="M337.1973,245.9886c-4.1914,10.8945-7.9169,18.8558-11.64,24.3512-5.4013,8.0547-10.1518,9.9163-15.04,9.9163a9.57,9.57,0,0,1-3.7263-.7434l1.4922-7.032h3.259c1.629,0,2.3275-.651,3.399-2.0958-1.8165-6.563-2.7014-15.7367-2.6074-24.3963h9.5445a109.7349,109.7349,0,0,0,.0934,11.7794c.0459,1.07.1391,2.0957.2318,3.12h.0473c.4191-.9781.8842-1.9572,1.304-3.0256a120.8829,120.8829,0,0,0,4.144-11.8736Z"/><path class="cls-2" d="M373.7042,270.3849H363.6931l2.375-12.2925H357.592l-2.3726,12.2925H345.2083l6.3314-32.499h10.01L359.27,249.48h8.4746l2.2815-11.5942h10.01Z"/><path class="cls-2" d="M388.462,261.3537a5.7784,5.7784,0,0,0-.0932.8841c0,1.4907,1.0248,2,3.7241,2a28.18,28.18,0,0,0,7.87-1.3012v6.844a32.185,32.185,0,0,1-9.7786,1.444c-7.5429,0-11.1737-2.049-11.1737-8.8944,0-6.7055,3.1183-17.1809,15.1317-17.1809,7.6355,0,9.9171,3.4457,9.9171,7.0787C404.06,256.93,400.009,260.9353,388.462,261.3537Zm4.9815-9.7786c-2.189,0-3.4456,1.8165-3.9573,3.9115,4.3305,0,5.6338-1.35,5.6338-2.4683A1.5451,1.5451,0,0,0,393.4435,251.5751Z"/><path class="cls-2" d="M422.3105,254.6015a10.499,10.499,0,0,0-2.2816-.28c-2.0942,0-3.7708,2.0965-4.5171,5.96l-1.9558,10.1035h-9.4979l4.749-24.3963h7.1237l.2341,3.2582c2.1882-2.7,3.91-4.0973,6.564-4.0973a8.7363,8.7363,0,0,1,2.189.1874Z"/><path class="cls-2" d="M434.37,271.2248c-7.403,0-11.0361-3.1688-11.0361-9.5,0-7.03,3.493-16.5751,15.785-16.5751,7.3564,0,11.0345,3.2614,11.0345,9.4987C450.1533,261.8188,446.6616,271.2248,434.37,271.2248Zm3.5389-18.5789c-3.8189,0-4.8438,5.8211-4.8438,8.4293,0,2.0942.8849,2.6992,2.6082,2.6992,3.7713,0,4.75-5.8212,4.75-8.4737C440.4228,253.2517,439.5846,252.6459,437.9088,252.6459Z"/><path class="cls-2" d="M172.0389,246.1293l6.3241-6.0733c-2.463-1.4914-5.8559-2.17-10.0782-2.17H156.1781l-6.3314,32.499H162.465c14.666,0,20.5333-10.2435,20.5333-20.9048a11.8113,11.8113,0,0,0-1.7518-6.7031Zm-8.8762,16.5277H161.301l3.3524-17.135H167.26c3.9588,0,5.4014,2.329,5.4014,5.5407C172.6614,257.5348,169.0765,262.657,163.1627,262.657Z"/></svg>