<svg id="Ebene_1" data-name="Ebene 1" xmlns="http://www.w3.org/2000/svg" viewBox="0 0 600 400"><defs><style>.cls-1{fill:#d61f26;}</style></defs><title>delivery-hero</title><path class="cls-1" d="M113.922,156.781a39.582,39.582,0,0,0-43.879,10.366l-41.823,44.8c-.564.6-.3,1.36.384,1.461l11.14.684c.894.056,1,.822.555,1.349l-27.237,29.38a.7.7,0,0,0,.748,1.107L52.7,233.645c.822-.283,1.455.449,1.108,1.091h0l-5.2,9.2h0a.885.885,0,0,0,.889,1.194l56.065-12.488a39.543,39.543,0,0,0,8.364-75.858Zm6.222,40.455c-.031.014-.048.028-.073.039l-12.525,5.112-.384.174-3.051,13.949a.739.739,0,0,1-1.225.191l-9.124-10.789-.045-.031L42.262,227.962a.335.335,0,0,1-.146.033.344.344,0,0,1-.2-.622l44.487-33.3-5.63-12.85a.755.755,0,0,1,.925-1.038h0l13.633,3.359,10.582-9.421v0a.739.739,0,0,1,1.195.463l1.034,14.154,12.206,7.142A.749.749,0,0,1,120.144,197.236Z"/><polygon class="cls-1" points="264.221 224.951 251.446 224.951 261.442 178.136 275.373 173.017 264.221 224.951"/><path class="cls-1" d="M229.819,211.805a7.287,7.287,0,0,0-.133,1.234c0,2.086,1.426,2.8,5.209,2.8a39.482,39.482,0,0,0,11-1.819v9.569a45.047,45.047,0,0,1-13.676,2.015c-10.544,0-15.621-2.866-15.621-12.43,0-9.388,4.359-24.029,21.164-24.029,10.67,0,13.856,4.825,13.856,9.9,0,6.574-5.656,12.172-21.8,12.76m6.962-13.669c-3.058,0-4.818,2.532-5.531,5.468,6.048,0,7.879-1.889,7.879-3.457a2.163,2.163,0,0,0-2.348-2.011"/><path class="cls-1" d="M287.424,187.467c-4.355,0-7.158-2.8-7.158-6.64,0-5.014,3.516-7.812,7.871-7.812,4.429,0,7.169,2.8,7.169,6.573,0,5.08-3.453,7.879-7.882,7.879"/><polyline class="cls-1" points="278.461 190.323 291.608 190.323 284.96 224.434 271.679 224.434 276.364 200.479"/><path class="cls-1" d="M329.492,190.323a286.93,286.93,0,0,1-15.95,34.111H297.263a161.417,161.417,0,0,1-2.732-34.111h13.284a157.977,157.977,0,0,0,.122,16.659c.071,1.435.2,2.8.329,4.175h.075c.58-1.376,1.227-2.74,1.815-4.175,2.277-5.6,4.358-11.708,5.93-16.659Z"/><path class="cls-1" d="M340.3,211.805a8.218,8.218,0,0,0-.137,1.234c0,2.086,1.438,2.8,5.209,2.8a39.461,39.461,0,0,0,11-1.819v9.569a45.032,45.032,0,0,1-13.668,2.015c-10.552,0-15.629-2.866-15.629-12.43,0-9.388,4.359-24.029,21.16-24.029,10.678,0,13.861,4.825,13.861,9.9,0,6.574-5.653,12.172-21.8,12.76m6.962-13.669c-3.054,0-4.822,2.532-5.543,5.468,6.064,0,7.887-1.889,7.887-3.457a2.155,2.155,0,0,0-2.344-2.011"/><path class="cls-1" d="M387.636,202.362a14.764,14.764,0,0,0-3.2-.4c-2.932,0-5.276,2.936-6.323,8.338l-2.72,14.131H362.1l6.652-34.111h9.964l.322,4.547c3.057-3.771,5.472-5.727,9.18-5.727a11.951,11.951,0,0,1,3.054.263Z"/><path class="cls-1" d="M429.166,190.323c-5.864,15.233-11.07,26.365-16.279,34.052-7.55,11.266-14.194,13.868-21.035,13.868a13.416,13.416,0,0,1-5.209-1.046l2.089-9.831h4.559c2.277,0,3.249-.918,4.751-2.932-2.54-9.177-3.779-22-3.65-34.111h13.352a150.11,150.11,0,0,0,.129,16.467c.067,1.494.188,2.928.318,4.367h.07c.584-1.376,1.231-2.74,1.823-4.237a167.163,167.163,0,0,0,5.789-16.6Z"/><polygon class="cls-1" points="480.22 224.434 466.21 224.434 469.534 207.242 457.681 207.242 454.357 224.434 440.366 224.434 449.217 178.987 463.219 178.987 460.033 195.204 471.882 195.204 475.073 178.987 489.063 178.987 480.22 224.434"/><path class="cls-1" d="M500.847,211.805a7.707,7.707,0,0,0-.126,1.234c0,2.086,1.435,2.8,5.2,2.8a39.472,39.472,0,0,0,11.007-1.819v9.569a45.032,45.032,0,0,1-13.676,2.015c-10.549,0-15.625-2.866-15.625-12.43,0-9.388,4.363-24.029,21.159-24.029,10.682,0,13.877,4.825,13.877,9.9,0,6.574-5.676,12.172-21.818,12.76m6.966-13.669c-3.062,0-4.814,2.532-5.531,5.468,6.056,0,7.886-1.889,7.886-3.457a2.167,2.167,0,0,0-2.355-2.011"/><path class="cls-1" d="M548.175,202.362a14.517,14.517,0,0,0-3.183-.4c-2.928,0-5.276,2.936-6.319,8.338l-2.736,14.131H522.664l6.633-34.111h9.96l.329,4.547c3.062-3.771,5.465-5.727,9.173-5.727a12.1,12.1,0,0,1,3.069.263Z"/><path class="cls-1" d="M565.036,225.6c-10.349,0-15.421-4.43-15.421-13.281,0-9.831,4.881-23.178,22.073-23.178,10.286,0,15.425,4.559,15.425,13.288,0,10.027-4.884,23.171-22.077,23.171m4.955-25.973c-5.339,0-6.774,8.137-6.774,11.787,0,2.928,1.239,3.771,3.654,3.771,5.264,0,6.632-8.142,6.632-11.842,0-2.866-1.168-3.716-3.512-3.716"/><path class="cls-1" d="M200.491,190.513l8.851-8.5c-3.453-2.077-8.193-3.03-14.1-3.03H178.312l-8.847,45.447h17.647c20.5,0,28.7-14.323,28.7-29.23a16.5,16.5,0,0,0-2.442-9.377Zm-12.406,23.111h-2.607l4.684-23.962h3.653c5.531,0,7.55,3.269,7.55,7.75,0,9.055-5.021,16.212-13.28,16.212"/></svg>