<svg id="Ebene_1" data-name="Ebene 1" xmlns="http://www.w3.org/2000/svg" viewBox="0 0 600 400"><defs><style>.cls-1{fill:#0075c9;}</style></defs><title>deque</title><path class="cls-1" d="M382.15,202.3a62.157,62.157,0,0,1-.516,9.88,13.517,13.517,0,0,1-1.5,4.317,12.5,12.5,0,0,1-4.892,4.724,15.117,15.117,0,0,1-7.255,1.655c-4.856,0-8.177-1.2-10.144-3.765s-3.165-7.614-3.165-14.629V172.1H342.354v31.871c0,10.791,1.942,18.489,5.935,23.369s10.612,7.506,19.473,7.506a26.605,26.605,0,0,0,10.791-2,19.722,19.722,0,0,0,3.6-2.1v2.542h12.326V172.14H382.15Z"/><path class="cls-1" d="M255.7,212.98a18.664,18.664,0,0,1-6.235,6.87,17.71,17.71,0,0,1-9.94,2.842,18.081,18.081,0,0,1-18.561-15.12h50.216v-3.13c0-9.892-2.914-18.093-8.657-24.34s-13.393-9.5-22.53-9.5-17.014,3.069-23.022,9.112-9.028,13.765-9.028,22.95a31.557,31.557,0,0,0,9.2,22.782,30.421,30.421,0,0,0,22.578,9.484,29.972,29.972,0,0,0,17.746-5.576,34.937,34.937,0,0,0,11.787-15.419l.407-.983Zm-28.777-26.032a17.257,17.257,0,0,1,11.991-4.4c5.24,0,9.328,1.331,12.494,4.077a20.5,20.5,0,0,1,5.8,9.484H221.4a18.352,18.352,0,0,1,5.468-9.161"/><path class="cls-1" d="M446.275,212.98a18.656,18.656,0,0,1-6.223,6.87,17.764,17.764,0,0,1-9.952,2.842,18.082,18.082,0,0,1-18.562-15.12h50.216v-3.13c0-9.9-2.913-18.093-8.657-24.34a29.531,29.531,0,0,0-22.518-9.592c-9.137,0-17.026,3.069-23.021,9.112s-9.029,13.825-9.029,23.01a31.549,31.549,0,0,0,9.208,22.782A30.375,30.375,0,0,0,430.3,234.9a29.977,29.977,0,0,0,17.734-5.54,34.852,34.852,0,0,0,11.787-15.419l.407-.983ZM417.5,186.948a17.226,17.226,0,0,1,12-4.352c5.228,0,9.317,1.331,12.482,4.077a20.552,20.552,0,0,1,5.8,9.484h-35.8A18.281,18.281,0,0,1,417.45,187"/><path class="cls-1" d="M337.977,255.521v-9.2c-.072-13.717-.191-38.477-.131-43.621.179-15.875-5.444-21.931-10.684-26.067-5.707-4.509-15.012-5.72-19.616-5.72a30.842,30.842,0,0,0-22.782,9.233,33.106,33.106,0,0,0-.24,45.443,30.038,30.038,0,0,0,22.362,9.221,28.928,28.928,0,0,0,12.506-2.482,13.848,13.848,0,0,0,5.372-4.4v29.124h13.189v-1.535Zm-17.925-38.465a16.994,16.994,0,0,1-12.938,6,17.732,17.732,0,0,1-13.273-5.684,19.188,19.188,0,0,1-5.564-14.053,20.384,20.384,0,0,1,5.612-14.724,17.674,17.674,0,0,1,13.429-5.863,16.988,16.988,0,0,1,12.734,5.863,19.245,19.245,0,0,1,5.635,13.813,20.574,20.574,0,0,1-5.635,14.664"/><path class="cls-1" d="M158.278,203.183a11.463,11.463,0,1,1,0,.024.1.1,0,0,1,0-.024"/><path class="cls-1" d="M202.642,202.668V142.944H186.935V175.4A32.146,32.146,0,1,0,170.5,235.114a31.755,31.755,0,0,0,8.6-1.2,2.056,2.056,0,0,0,.288-.072V221.157a7.759,7.759,0,0,1-1.655,1.019,18.785,18.785,0,0,1-8.07,1.619,19.343,19.343,0,0,1-14.388-5.995,21.4,21.4,0,0,1,.12-29.329,19.89,19.89,0,0,1,14.688-6c2.974,0,8.969.791,12.65,3.693,3.381,2.674,7.014,6.571,6.894,16.787,0,3.033,0,16.642.072,25.719a13.356,13.356,0,0,0,1.535-1.2,32.048,32.048,0,0,0,11.4-23.657h0v-1.151"/></svg>