<svg viewBox="0 0 600 400" xmlns="http://www.w3.org/2000/svg"><path d="m213.974 202.8259c-10.56.3461-17.12 2.251-17.12 9.2068 0 4.5027 3.59 9.3839 12.7033 9.3839 12.2183 0 18.7408-6.6595 18.7408-17.5832l.0006-1.2018c-4.2843 0-9.5676.0384-14.3247.1943zm25.97 14.4317c0 3.3882.0978 6.734.3934 9.7466h-10.8326a63.48 63.48 0 0 1 -.394-7.3364c-5.8568 7.2-12.8231 9.269-22.4867 9.269-14.3328 0-22.0072-7.5754-22.0072-16.3385 0-12.691 10.4374-17.1656 28.558-17.5809 4.9557-.1134 10.5217-.13 15.1233-.13l-.0006-1.24c0-8.4963-5.4481-11.9893-14.8891-11.9893-7.0082 0-12.174 2.9-12.7063 7.912h-12.2355c1.2951-12.496 14.4238-15.6562 25.9671-15.6562 13.8293 0 25.51 4.92 25.51 19.5475z" fill="#f8ac0a"/><path d="m113.2473 196.6279c-.4524-10.8935-8.3149-14.97-16.7184-14.97-9.0621 0-16.2967 4.5859-17.5639 14.97zm-34.5334 7.7445c.6285 10.57 7.9172 16.8217 17.94 16.8217 6.9433 0 13.12-2.8294 15.1881-8.9843h12.0111c-2.3358 12.4881-15.6058 16.727-27.0274 16.727-20.7677 0-29.9718-11.437-29.9718-26.8608 0-16.98 9.52-28.1622 30.1611-28.1622 16.43 0 28.4677 8.598 28.4677 27.3655v3.0931z" fill="#e73139"/><path d="m155.355 220.9729c10.8223 0 18.2288-7.7894 18.2288-19.5461 0-11.7547-7.4065-19.5456-18.2288-19.5456-10.762 0-18.2293 7.7909-18.2293 19.5456 0 11.7567 7.4673 19.5461 18.2293 19.5461zm-29.8728-67.5379h11.6435l-.0013 29.2526c5.7068-6.8 13.5688-8.7738 21.3078-8.7738 12.9749 0 27.387 8.7557 27.387 27.6606 0 15.8314-11.4615 27.3624-27.6034 27.3624-8.4489 0-16.4025-3.031-21.3071-9.036a63.0724 63.0724 0 0 1 -.3953 7.1034h-11.4271c.198-3.6973.3959-8.3008.3959-12.0258z" fill="#076fb7"/><path d="m299.2421 175.851-36.0066 70.714h-13.0383l10.3508-19.6357-27.0962-51.0783h13.624l19.94 39.9081 19.8834-39.9081z" fill="#83bb26"/><path d="m299.2421 175.851-36.0066 70.714h-13.0383l10.3508-19.6357-27.0962-51.0783h13.624l19.94 39.9081 19.8834-39.9081z" fill="#83bb26"/><g fill="#686867"><path d="m344.968 229.5811v-42.2029h-15.298v-10.5508h41.147v10.5508h-15.2982v42.2029z"/><path d="m418.1385 187.3782h-21.1011v10.55h21.1011v10.5509h-21.1011v10.5509h21.1011v10.5509h-31.652v-52.7535h31.652z"/><path d="m444.1037 219.03h-10.5509v-31.652h10.5509zm21.1011-31.652h-21.1011v-10.5506h21.1011zm0 42.2029h-21.1011v-10.5509h21.1011zm10.5509-10.5509h-10.5509v-10.5506h10.5509z"/><path d="m490.938 229.5811v-52.7537h10.5508v21.1011h21.1012v-21.1011h10.5508v52.7537h-10.5508v-21.1017h-21.1012v21.1017z"/></g><path d="m407.5877 176.8274h10.5509v10.5503h-10.5509z" fill="#83bb26"/><path d="m344.9677 219.0308h10.5509v10.5503h-10.5509z" fill="#076fb7"/><path d="m465.2048 187.3659h10.5509v10.5503h-10.5509z" fill="#e73139"/><path d="m522.5951 219.0456h10.5509v10.5503h-10.5509z" fill="#f8ac0a"/></svg>