<svg id="Ebene_1" data-name="Ebene 1" xmlns="http://www.w3.org/2000/svg" viewBox="0 0 600 400"><defs><style>.cls-1{fill:#f8ac0a}.cls-2{fill:#e73037}.cls-3{fill:#076fb7}.cls-4{fill:#83bb26}</style></defs><path class="cls-1" d="M344.774 159.597c-15.288.501-24.787 3.26-24.787 13.33 0 6.519 5.198 13.586 18.392 13.586 17.69 0 27.132-9.642 27.132-25.457l.001-1.74c-6.202 0-13.85.055-20.738.281zm37.599 20.894c0 4.906.142 9.75.57 14.111h-15.684a91.898 91.898 0 0 1-.57-10.621c-8.48 10.424-18.565 13.419-32.556 13.419-20.75 0-31.862-10.967-31.862-23.655 0-18.373 15.111-24.852 41.346-25.453 7.175-.164 15.233-.188 21.895-.188v-1.795c0-12.301-7.888-17.358-21.557-17.358-10.146 0-17.625 4.199-18.396 11.455h-17.714c1.875-18.092 20.883-22.667 37.595-22.667 20.022 0 36.933 7.123 36.933 28.3z"/><path class="cls-2" d="M198.944 150.624c-.655-15.771-12.038-21.673-24.205-21.673-13.12 0-23.594 6.64-25.428 21.673zm-49.997 11.212c.91 15.304 11.463 24.354 25.973 24.354 10.053 0 18.996-4.096 21.99-13.007h17.389c-3.382 18.08-22.594 24.217-39.13 24.217-30.067 0-43.393-16.558-43.393-38.888 0-24.583 13.783-40.773 43.667-40.773 23.787 0 41.215 12.448 41.215 39.62v4.477z"/><path class="cls-3" d="M259.907 185.87c15.668 0 26.39-11.277 26.39-28.298 0-17.019-10.722-28.298-26.39-28.298-15.581 0-26.392 11.28-26.392 28.298 0 17.02 10.81 28.298 26.392 28.298zm-43.25-97.78h16.858l-.002 42.351c8.262-9.844 19.644-12.702 30.849-12.702 18.784 0 39.65 12.676 39.65 40.046 0 22.92-16.594 39.615-39.964 39.615-12.232 0-23.747-4.388-30.848-13.082a91.334 91.334 0 0 1-.572 10.284h-16.544c.286-5.353.573-12.018.573-17.41z"/><path class="cls-4" d="M468.223 120.544l-52.13 102.378h-18.876l14.986-28.428-39.23-73.95h19.725l28.868 57.778 28.787-57.778z"/><path d="M166.642 311.888v-61.1h-22.149v-15.275h59.572v15.275h-22.148v61.1zm105.934-61.1h-30.55v15.274h30.55v15.276h-30.55v15.275h30.55v15.275h-45.825v-76.375h45.825zm37.592 45.825h-15.275v-45.825h15.275zm30.55-45.825h-30.55v-15.275h30.55zm0 61.1h-30.55v-15.275h30.55zm15.276-15.275h-15.276v-15.275h15.275zm21.98 15.275v-76.375h15.275v30.55h30.55v-30.55h15.276v76.375h-15.276v-30.55h-30.55v30.55z" fill="#666"/><path class="cls-4" d="M257.301 235.513h15.275v15.274h-15.275z"/><path class="cls-3" d="M166.641 296.614h15.275v15.274h-15.275z"/><path class="cls-2" d="M340.718 250.77h15.275v15.274h-15.275z"/><path class="cls-1" d="M423.807 296.635h15.275v15.274h-15.275z"/></svg>