<svg id="Ebene_1" data-name="Ebene 1" xmlns="http://www.w3.org/2000/svg" viewBox="0 0 600 400"><defs><style>.cls-1{fill:#e7b122;}.cls-2{fill:#1e3e76;}</style></defs><title>evision</title><path class="cls-1" d="M132.387,145.336A56.088,56.088,0,0,0,83.664,229.23a52.155,52.155,0,0,1-5.388-23.181c0-27.537,21.033-49.86,47-49.86s47,22.323,47,49.86-21.038,49.853-47,49.853a44.307,44.307,0,0,1-11.142-1.425,56.1,56.1,0,1,0,18.255-109.141"/><path class="cls-2" d="M138.74,226.408c7.588,0,13-2.832,18.4-8.1l9.131,8.1c-6.434,7.718-15.315,12.74-27.8,12.74-19.682,0-34.868-14.285-34.868-35.386,0-19.562,13.772-35.518,33.194-35.518,21.624,0,32.564,16.993,32.564,36.672,0,1.418-.137,2.7-.265,4.246H119.178c1.8,11.073,9.52,17.246,19.562,17.246m15.178-27.535c-1.017-10.042-6.944-17.892-17.238-17.892-9.52,0-16.212,7.342-17.635,17.892Z"/><polygon class="cls-2" points="229.552 169.794 214.953 219.034 200.064 169.794 184.733 169.794 206.471 236.859 222.886 236.859 245.012 169.794 229.552 169.794"/><rect class="cls-2" x="251.719" y="169.794" width="14.744" height="67.065"/><rect class="cls-2" x="251.719" y="142.466" width="14.744" height="15.013"/><path class="cls-2" d="M316.841,197.8l-11.134-2.057c-9.962-1.8-14.665-3.227-14.665-8.486,0-7.718,10.959-7.941,12.208-7.941,8.528,0,15.195,3.529,18.893,9.95l10.339-9.61c-8.843-9.834-20.29-11.919-28.4-11.919-16.651,0-28.727,9.077-28.727,21.583,0,10.377,7.81,17.043,23.233,19.816l8.511,1.5c5.237.91,10.824,2.313,10.824,7.385,0,3.441-3.868,8.9-14.264,8.9-11.092,0-17.1-5.023-19.9-8.454l-11.039,8.948c4.662,4.572,14.571,11.5,31.77,11.5,17.434,0,30.092-9.541,30.092-22.686,0-9.64-6.464-16.365-17.737-18.435"/><rect class="cls-2" x="342.78" y="142.466" width="14.739" height="15.013"/><rect class="cls-2" x="342.78" y="169.794" width="14.739" height="67.065"/><path class="cls-2" d="M398.968,167.736c-22.553,0-34.359,17.765-34.359,35.318,0,17.272,10.925,35.866,34.913,35.866,23.417,0,34.074-18.594,34.074-35.866-.128-25.914-20.782-35.318-34.628-35.318m.554,57.676c-11.386,0-19.339-9.362-19.339-22.77,0-13.169,7.259-21.676,18.513-21.676,13.287,0,19.346,11.873,19.346,22.907,0,10.73-5.728,21.539-18.52,21.539"/><path class="cls-2" d="M461.083,185.543a13.9,13.9,0,0,1,9.159-3.346c8.558,0,12.888,5.68,12.888,16.879v37.783h14.607V189.87c0-13.86-8.015-22.134-21.448-22.134-1.431,0-14.177.276-20.484,9.8l-1.468,2.221v-9.964H439.328v67.065h15.009v-29c0-12.48,1.7-18.114,6.746-22.316"/><path class="cls-2" d="M514.061,188.5a9.868,9.868,0,1,1,9.653-9.863,9.493,9.493,0,0,1-9.653,9.863m0-18.012c-4.272,0-7.6,3.348-7.6,8.149,0,4.482,2.9,8.147,7.6,8.147,4.218,0,7.547-3.326,7.547-8.147,0-4.8-3.329-8.149-7.547-8.149m-1.952,13.786h-1.791V173.36h4.14c2.639,0,3.982.923,3.982,3.134,0,1.982-1.217,2.8-2.854,2.983l3.069,4.8h-2.034l-2.821-4.661h-1.691Zm2-6.2c1.348,0,2.531-.123,2.531-1.7,0-1.319-1.29-1.485-2.373-1.485h-2.163v3.188Z"/></svg>