<svg id="Ebene_1" data-name="Ebene 1" xmlns="http://www.w3.org/2000/svg" viewBox="0 0 600 400"><defs><style>.cls-1{fill:#4666a9;}.cls-2{fill:none;}</style></defs><title>facebook</title><path class="cls-1" d="M135.8,174.635c-4.584,0-5.909,2.037-5.909,6.52v7.436h12.225l-1.223,12.02h-11V237.08H115.224V200.611h-9.881v-12.02h9.881v-7.233c0-12.122,4.89-18.54,18.54-18.54a68.922,68.922,0,0,1,8.557.51v11.307Z"/><path class="cls-1" d="M143.134,211.307c0-13.548,6.417-23.735,19.864-23.735,7.334,0,11.816,3.769,13.955,8.455v-7.436h14.059V237.08H176.953v-7.334c-2.037,4.685-6.621,8.352-13.955,8.352-13.447,0-19.864-10.186-19.864-23.734Zm14.669,3.26c0,7.233,2.648,12.021,9.473,12.021,6.01,0,9.067-4.381,9.067-11.308v-4.89c0-6.926-3.057-11.307-9.067-11.307-6.825,0-9.473,4.788-9.473,12.021Z"/><path class="cls-1" d="M221.567,187.572c5.7,0,11.1,1.223,14.058,3.26l-3.26,10.39a23.094,23.094,0,0,0-9.779-2.241c-7.946,0-11.409,4.584-11.409,12.428v2.852c0,7.844,3.463,12.428,11.409,12.428a23.079,23.079,0,0,0,9.779-2.241l3.26,10.391c-2.954,2.037-8.353,3.259-14.058,3.259-17.216,0-25.059-9.269-25.059-24.142v-2.241C196.508,196.842,204.351,187.572,221.567,187.572Z"/><path class="cls-1" d="M237.558,214.669V210.39c0-13.752,7.844-22.818,23.837-22.818,15.077,0,21.7,9.168,21.7,22.615v7.741H252.227c.306,6.623,3.26,9.577,11.409,9.577a41.666,41.666,0,0,0,15.586-2.954l2.648,10.084c-3.871,2.038-11.816,3.565-18.845,3.565C244.485,238.2,237.558,228.93,237.558,214.669Zm14.669-6.316h17.725v-1.222c0-5.3-2.139-9.474-8.557-9.474C254.774,197.657,252.227,201.834,252.227,208.353Z"/><path class="cls-1" d="M337.487,214.364c0,13.548-6.52,23.734-19.966,23.734-7.335,0-12.428-3.667-14.465-8.352v7.334H289.2V164.244l14.668-1.324v32.394c2.139-4.278,6.826-7.742,13.651-7.742,13.446,0,19.966,10.187,19.966,23.735ZM322.818,211c0-6.825-2.649-11.919-9.678-11.919-6.01,0-9.27,4.279-9.27,11.206v5.093c0,6.927,3.26,11.206,9.27,11.206,7.029,0,9.678-5.094,9.678-11.919Z"/><path class="cls-1" d="M342.373,214.058v-2.445c0-13.956,7.946-24.041,24.143-24.041s24.143,10.085,24.143,24.041v2.445c0,13.955-7.947,24.04-24.143,24.04S342.373,228.013,342.373,214.058Zm33.617-3.464c0-6.417-2.65-11.511-9.474-11.511s-9.475,5.094-9.475,11.511v4.482c0,6.418,2.65,11.512,9.475,11.512s9.474-5.094,9.474-11.512Z"/><path class="cls-1" d="M395.543,214.058v-2.445c0-13.956,7.947-24.041,24.144-24.041s24.142,10.085,24.142,24.041v2.445c0,13.955-7.946,24.04-24.142,24.04S395.543,228.013,395.543,214.058Zm33.617-3.464c0-6.417-2.648-11.511-9.473-11.511s-9.474,5.094-9.474,11.511v4.482c0,6.418,2.649,11.512,9.474,11.512s9.473-5.094,9.473-11.512Z"/><path class="cls-1" d="M463.994,211.715l14.466-23.124h15.586L478.868,212.53l15.789,24.55H479.072l-15.078-23.736V237.08H449.326V164.244l14.668-1.324Z"/><rect class="cls-2" x="56.854" y="114.431" width="486.292" height="171.138"/></svg>