<svg viewBox="0 0 600 400" xmlns="http://www.w3.org/2000/svg"><g fill="#000105" fill-rule="evenodd"><path d="m464.9369 191.1468v16.21c0 17.3158-6.91 24.379-23.8523 24.379h-22.1381v-64.968h22.1381c16.7192 0 23.8523 7.2906 23.8523 24.379zm-23.4557-40.3315h-40.464v96.8731h40.464c28.5577 0 42.4393-15.8231 42.4393-48.37 0-32.6378-13.8816-48.5028-42.4393-48.5028z"/><path d="m116.08 247.6884h17.93v-35.7167h43.2279v-15.2933h-43.2279v-29.9106h48.499v-15.9525h-66.429z"/><path d="m182.9169 249.1848h17.9051l28.217-98.3695h-17.905z"/><path d="m242.1129 247.6884h66.9558v-15.9526h-49.0273v-26.6158h42.4378v-15.0311h-42.4378v-23.3211h49.0273v-15.9525h-66.9558z"/><path d="m344.7831 150.8153h-17.9293v96.8731h59.84v-16.2167h-41.91z"/></g></svg>