<svg viewBox="0 0 600 400" xmlns="http://www.w3.org/2000/svg"><path d="m177.0535 77.0415h245.893v245.917h-245.893z" fill="#fcd0b1"/><path d="m205.1055 111.1406v4.9913c10.87 0 14.7579.552 14.7579 9.4067v83.0762c0 8.8547-3.8634 9.4066-14.7579 9.4066v4.9913h52.6245v-4.9913c-14.9738 0-17.1815-1.8237-17.1815-9.9585v-39.6664h13.4861c14.59 0 15.3338 2.2077 16.4376 13.6541h4.2478v-33.4273h-4.2474c-1.1038 11.4464-1.8477 13.846-16.4376 13.846h-13.4865v-45.7615h16.99c21.429 0 26.2283 4.0555 28.628 28.0521h4.6073v-34.5311c-2.9516.5519-6.2871.9118-15.6937.9118zm181.2222 0h-67.5024c-9.4066 0-12.7421-.36-15.6937-.9118v34.5071h4.6073c2.3757-23.9966 7.199-28.052 28.6039-28.052h5.9032v91.3789c0 8.6628-3.5035 9.9586-17.3495 9.9586v4.9913h55.1921v-4.9913c-13.846 0-17.1815-1.2718-17.1815-9.9586v-91.355h5.9029c21.405 0 26.2043 4.0555 28.6039 28.0521h4.6074v-34.5311c-2.9513.5519-6.2869.9118-15.6936.9118z" fill="#333"/></svg>