<svg viewBox="0 0 600 400" xmlns="http://www.w3.org/2000/svg" xmlns:xlink="http://www.w3.org/1999/xlink"><linearGradient id="a" gradientTransform="matrix(65.8012 0 0 -51.9202 -29225.1798 -40137.2072)" gradientUnits="userSpaceOnUse" x1="446.7159" x2="446.7159" y1="-775.6688" y2="-778.2647"><stop offset="0" stop-color="#e659ff"/><stop offset="1" stop-color="#0037ff"/></linearGradient><mask id="b" height="135.977" maskUnits="userSpaceOnUse" width="173.282" x="83.0954" y="135.6484"><path d="m161.8585 262.77a16.3312 16.3312 0 0 1 1.3566 7.73 21.1008 21.1008 0 0 1 -5.2887.6025c-1.2814.3024-6.4 1.248-14.7059-.5255-9.6737-2.0655-14.1451-12.4606-14.1451-12.4606s.093-.0942.279-.2526a2.19 2.19 0 0 0 -.9213-.0814 61.4162 61.4162 0 0 1 -14.2631 1.0876c-4.7587 0-23.5864-7.199-29.651-14.9163 0 0 9.416-2.3168 9.416-4.2748s-10.76-5.5751-10.76-5.5751-1.6313-9.03 9.902-18.0468c7.5649-5.9129 13.8788-9.7887 20.0618-11.8983-5.9928-.8059-22.9272-7.5921-28.62-14.8361 0 0 9.416-2.3169 9.416-4.274s-10.751-5.5721-10.751-5.5721-1.6313-9.03 9.9011-18.0468c11.5312-9.02 20.1611-13.3017 29.859-13.8027s12.949-.5011 12.949-.5011 8.4431-11.4773 12.8773-11.4773c2.2174 0 34.7021 6.9523 37.5159 11.4782s4.1831 4.1969 5.6209 5.2817.5325.2171 7.0493 1.683c16.2991 3.6676 14.0753 5.107 26.1855 7.3344 4.9015.9036 27.3621-10.214 29.4811-9.1305.9864.5054 1.7606 10.0641-2.0954 16.3338s3.0953 11.4473-.0266 19.2973 3.5754 13.6657 2.1216 16.3209c-1.4538 2.66-25.3031-8.6936-29.4807-7.8714-3.7385.7366-14.3585 5.7644-35.0986 9.61a20.2812 20.2812 0 0 1 1.8638 1.0707c1.4381 1.0877.5325.2184 7.0493 1.683 16.2991 3.67 14.0753 5.1091 26.1855 7.3361 4.9015.8993 27.3621-10.214 29.4811-9.1348.9864.5011 1.7606 10.0641-2.0954 16.3295-3.8564 6.27 3.0953 11.4473-.0266 19.2973s3.5754 13.6657 2.1216 16.3209c-1.4538 2.6595-25.3031-8.6936-29.4807-7.8756-4.1772.8222-16.9441 7.002-42.8173 10.9034a104.0678 104.0678 0 0 1 -20.4662.8736z" fill="#fff" fill-rule="evenodd"/></mask><linearGradient id="c" gradientTransform="matrix(66.1614 0 0 -10.0768 -29387.6162 -8779.6961)" gradientUnits="userSpaceOnUse" x1="446.7463" x2="446.7477" y1="-890.4062" y2="-890.4475"><stop offset="0" stop-color="#f1a5ff"/><stop offset="1" stop-color="#ff686c"/></linearGradient><mask id="d" height="135.977" maskUnits="userSpaceOnUse" width="172.3309" x="83.0954" y="135.6484"><path d="m163.2151 270.5a21.1008 21.1008 0 0 1 -5.2887.6025c-1.2814.3024-6.4 1.248-14.7059-.5255-9.6737-2.0655-14.1451-12.4606-14.1451-12.4606-.27-.3533-.5832-.3871-.6423-.334a61.4162 61.4162 0 0 1 -14.2631 1.0876c-4.7587 0-23.5864-7.199-29.651-14.9163 0 0 9.416-2.3168 9.416-4.2748s-10.76-5.5751-10.76-5.5751-1.6313-9.03 9.902-18.0468c7.5649-5.9129 13.8788-9.7887 20.0618-11.8983-5.9928-.8059-22.9272-7.5921-28.62-14.8361 0 0 9.416-2.3169 9.416-4.274s-10.751-5.5721-10.751-5.5721-1.6313-9.03 9.9011-18.0468c11.5312-9.02 20.1611-13.3017 29.859-13.8027s12.949-.5011 12.949-.5011 8.4431-11.4773 12.8773-11.4773c2.2174 0 34.7021 6.9523 37.5159 11.4782s4.1831 4.1969 5.6209 5.2817.5325.2171 7.0493 1.683c16.2991 3.6676 14.0753 5.107 26.1855 7.3344 4.9015.9036 27.3621-10.214 29.4811-9.1305.9864.5054 1.7606 10.0641-2.0954 16.3338s3.0953 11.4473-.0266 19.2973 3.5754 13.6657 2.1216 16.3209c-1.4538 2.66-25.3031-8.6936-29.4807-7.8714-3.7385.7366-14.3585 5.7644-35.0986 9.61a20.2812 20.2812 0 0 1 1.8638 1.0707c1.4381 1.0877.5325.2184 7.0493 1.683 16.2991 3.67 14.0753 5.1091 26.1855 7.3361 4.9015.8993 27.3621-10.214 29.4811-9.1348.9864.5011 1.7606 10.0641-2.0954 16.3295-3.8564 6.27 3.0953 11.4473-.0266 19.2973s3.5754 13.6657 2.1216 16.3209c-1.4538 2.6595-25.3031-8.6936-29.4807-7.8756-4.1772.8222-16.9441 7.002-42.8173 10.9034a104.0678 104.0678 0 0 1 -20.4662.8736 16.2348 16.2348 0 0 1 1.3568 7.7099z" fill="#fff" fill-rule="evenodd"/></mask><mask id="e" height="137.8537" maskUnits="userSpaceOnUse" width="173.282" x="83.0954" y="135.6484"><path d="m161.8585 262.77a16.3312 16.3312 0 0 1 1.3566 7.73 21.1008 21.1008 0 0 1 -5.2887.6025c-1.2814.3024-6.4 1.248-14.7059-.5255-9.6737-2.0655-14.1451-12.4606-14.1451-12.4606s.093-.0942.279-.2526a2.19 2.19 0 0 0 -.9213-.0814 61.4162 61.4162 0 0 1 -14.2631 1.0876c-4.7587 0-23.5864-7.199-29.651-14.9163 0 0 9.416-2.3168 9.416-4.2748s-10.76-5.5751-10.76-5.5751-1.6313-9.03 9.902-18.0468c7.5649-5.9129 13.8788-9.7887 20.0618-11.8983-5.9928-.8059-22.9272-7.5921-28.62-14.8361 0 0 9.416-2.3169 9.416-4.274s-10.751-5.5721-10.751-5.5721-1.6313-9.03 9.9011-18.0468c11.5312-9.02 20.1611-13.3017 29.859-13.8027s12.949-.5011 12.949-.5011 8.4431-11.4773 12.8773-11.4773c2.2174 0 34.7021 6.9523 37.5159 11.4782s4.1831 4.1969 5.6209 5.2817.5325.2171 7.0493 1.683c16.2991 3.6676 14.0753 5.107 26.1855 7.3344 4.9015.9036 27.3621-10.214 29.4811-9.1305.9864.5054 1.7606 10.0641-2.0954 16.3338s3.0953 11.4473-.0266 19.2973 3.5754 13.6657 2.1216 16.3209c-1.4538 2.66-25.3031-8.6936-29.4807-7.8714-3.7385.7366-14.3585 5.7644-35.0986 9.61a20.2812 20.2812 0 0 1 1.8638 1.0707c1.4381 1.0877.5325.2184 7.0493 1.683 16.2991 3.67 14.0753 5.1091 26.1855 7.3361 4.9015.8993 27.3621-10.214 29.4811-9.1348.9864.5011 1.7606 10.0641-2.0954 16.3295-3.8564 6.27 3.0953 11.4473-.0266 19.2973s3.5754 13.6657 2.1216 16.3209c-1.4538 2.6595-25.3031-8.6936-29.4807-7.8756-4.1772.8222-16.9441 7.002-42.8173 10.9034a104.0678 104.0678 0 0 1 -20.4662.8736z" fill="#fff" fill-rule="evenodd"/></mask><linearGradient id="f" gradientTransform="matrix(66.1614 0 0 -14.7742 -29387.6162 -12277.0236)" x1="446.7438" x2="446.7478" xlink:href="#c" y1="-848.1242" y2="-848.2077"/><mask id="g" height="135.977" maskUnits="userSpaceOnUse" width="172.3309" x="83.0954" y="135.6484"><path d="m161.8585 262.77a16.3312 16.3312 0 0 1 1.3566 7.73 21.1008 21.1008 0 0 1 -5.2887.6025c-1.2814.3024-6.4 1.248-14.7059-.5255-9.6737-2.0655-14.1451-12.4606-14.1451-12.4606s.093-.0942.279-.2526a2.19 2.19 0 0 0 -.9213-.0814 61.4162 61.4162 0 0 1 -14.2631 1.0876c-4.7587 0-23.5864-7.199-29.651-14.9163 0 0 9.416-2.3168 9.416-4.2748s-10.76-5.5751-10.76-5.5751-1.6313-9.03 9.902-18.0468c7.5649-5.9129 13.8788-9.7887 20.0618-11.8983-5.9928-.8059-22.9272-7.5921-28.62-14.8361 0 0 9.416-2.3169 9.416-4.274s-10.751-5.5721-10.751-5.5721-1.6313-9.03 9.9011-18.0468c11.5312-9.02 20.1611-13.3017 29.859-13.8027s12.949-.5011 12.949-.5011 8.4431-11.4773 12.8773-11.4773c2.2174 0 34.7021 6.9523 37.5159 11.4782s4.1831 4.1969 5.6209 5.2817.5325.2171 7.0493 1.683c16.2991 3.6676 14.0753 5.107 26.1855 7.3344 4.9015.9036 27.3621-10.214 29.4811-9.1305.9864.5054 1.7606 10.0641-2.0954 16.3338s3.0953 11.4473-.0266 19.2973 3.5754 13.6657 2.1216 16.3209c-1.4538 2.66-25.3031-8.6936-29.4807-7.8714-3.7385.7366-14.3585 5.7644-35.0986 9.61a20.2812 20.2812 0 0 1 1.8638 1.0707c1.4381 1.0877.5325.2184 7.0493 1.683 16.2991 3.67 14.0753 5.1091 26.1855 7.3361 4.9015.8993 27.3621-10.214 29.4811-9.1348.9864.5011 1.7606 10.0641-2.0954 16.3295-3.8564 6.27 3.0953 11.4473-.0266 19.2973s3.5754 13.6657 2.1216 16.3209c-1.4538 2.6595-25.3031-8.6936-29.4807-7.8756-4.1772.8222-16.9441 7.002-42.8173 10.9034a104.0678 104.0678 0 0 1 -20.4662.8736z" fill="#fff" fill-rule="evenodd"/></mask><linearGradient id="h" gradientTransform="matrix(3.0662 0 0 -9.8678 -911.9865 -8631.1027)" x1="342.4913" x2="342.6096" xlink:href="#c" y1="-892.0929" y2="-892.24"/><linearGradient id="i" gradientTransform="matrix(3.0662 0 0 -9.8666 -911.9865 -8609.141)" x1="342.4914" x2="342.6097" xlink:href="#c" y1="-895.572" y2="-895.7192"/><path d="m161.8585 262.77a16.3312 16.3312 0 0 1 1.3566 7.73 21.1008 21.1008 0 0 1 -5.2887.6025c-1.2814.3024-6.4 1.248-14.7059-.5255-9.6737-2.0655-14.1451-12.4606-14.1451-12.4606s.093-.0942.279-.2526a2.19 2.19 0 0 0 -.9213-.0814 61.4162 61.4162 0 0 1 -14.2631 1.0876c-4.7587 0-23.5864-7.199-29.651-14.9163 0 0 9.416-2.3168 9.416-4.2748s-10.76-5.5751-10.76-5.5751-1.6313-9.03 9.902-18.0468c7.5649-5.9129 13.8788-9.7887 20.0618-11.8983-5.9928-.8059-22.9272-7.5921-28.62-14.8361 0 0 9.416-2.3169 9.416-4.274s-10.751-5.5721-10.751-5.5721-1.6313-9.03 9.9011-18.0468c11.5312-9.02 20.1611-13.3017 29.859-13.8027s12.949-.5011 12.949-.5011 8.4431-11.4773 12.8773-11.4773c2.2174 0 34.7021 6.9523 37.5159 11.4782s4.1831 4.1969 5.6209 5.2817.5325.2171 7.0493 1.683c16.2991 3.6676 14.0753 5.107 26.1855 7.3344 4.9015.9036 27.3621-10.214 29.4811-9.1305.9864.5054 1.7606 10.0641-2.0954 16.3338s3.0953 11.4473-.0266 19.2973 3.5754 13.6657 2.1216 16.3209c-1.4538 2.66-25.3031-8.6936-29.4807-7.8714-3.7385.7366-14.3585 5.7644-35.0986 9.61a20.2812 20.2812 0 0 1 1.8638 1.0707c1.4381 1.0877.5325.2184 7.0493 1.683 16.2991 3.67 14.0753 5.1091 26.1855 7.3361 4.9015.8993 27.3621-10.214 29.4811-9.1348.9864.5011 1.7606 10.0641-2.0954 16.3295-3.8564 6.27 3.0953 11.4473-.0266 19.2973s3.5754 13.6657 2.1216 16.3209c-1.4538 2.6595-25.3031-8.6936-29.4807-7.8756-4.1772.8222-16.9441 7.002-42.8173 10.9034a104.0678 104.0678 0 0 1 -20.4662.8736z" fill="url(#a)"/><g mask="url(#b)"><path d="m188.3356 179.6232h68.0418v26.2681s-44.2555.2758-66.14 0c-8.0847-.1015-34.87-1.8587-34.87-1.8587h-46.6956l-25.5685 1.8587v-20.9907h105.2323z" fill="url(#c)"/></g><g mask="url(#d)"><path d="m151.145 199.32h61.28v8.17l-61.28-3.159" fill="#6f47ff"/></g><g mask="url(#e)"><path d="m165.092 234.809h91.285v38.693h-173.274v-33.564h81.989z" fill="#f78ec6"/><path d="m165.092 234.809h91.285v38.693h-173.274v-33.564h81.989z" fill="url(#f)"/></g><g mask="url(#g)"><path d="m149.9406 161.0912c2.9457.1529 5.8913.3105 8.6405.4647.9593.0539 1.88.1062 2.7555.1576 2.485.1447 4.5693.2749 6.17.3867a203.0988 203.0988 0 0 1 22.3925 3.2513c10.8677 2.185 19.7393 5.4175 33.8265 11.706 1.0735.48 4.7629 2.1349 4.8487 2.173a1.7774 1.7774 0 0 0 2.3878-1.1614 2.1684 2.1684 0 0 0 -1.03-2.6925c-.0829-.0373-3.7749-1.6942-4.853-2.1755-14.2972-6.3819-23.37-9.6872-34.5343-11.9322a205.94 205.94 0 0 0 -22.8105-3.3078c-1.6153-.1114-3.7115-.2441-6.2075-.3855q-1.3185-.0771-2.7626-.1584c-2.7542-.1542-5.7041-.3126-8.654-.4625-1.0312-.0514-1.9906-.1028-2.8485-.1456-.3-.0129-.5663-.03-.7987-.0386l-.2832-.0128a2.0668 2.0668 0 0 0 -1.7116 3.032l.1521.3426q.1966.4433.4311 1.015c.448 1.0921.9 2.2869 1.3186 3.5331a41.837 41.837 0 0 1 1.5087 5.6787c.1226.6681.2156 1.3062.2747 1.9143a31.8552 31.8552 0 0 1 -1.0734 8.6551c-.3043 1.3619-.6593 2.7923-1.0523 4.2741-.4818 1.8115-1.0016 3.6016-1.5215 5.2889-.1817.591-.3507 1.1221-.4987 1.5932-.0507.1627-.0972.3083-.1394.4282l-.0465.1413a2.1648 2.1648 0 0 0 1.0734 2.6724 1.7867 1.7867 0 0 0 2.3709-1.212l.055-.1627c.0422-.1285.093-.2784.1479-.45.1564-.4839.3339-1.0364.52-1.6445.5368-1.7357 1.0693-3.58 1.5679-5.4517.41-1.5353.7819-3.0278 1.0989-4.4539.9593-4.304 1.4073-7.7322 1.1664-10.1326q-.11-1.1049-.3254-2.2805a45.9483 45.9483 0 0 0 -1.6694-6.3142c-.2472-.7388-.505-1.46-.767-2.1542l.9044.0472z" fill="#974dff"/></g><g mask="url(#g)"><path d="m149.9647 184.7285c.2417-.9572.4649-1.8929.6677-2.8008.96-4.3053 1.4052-7.7331 1.1644-10.1335q-.11-1.1035-.3255-2.28a45.6174 45.6174 0 0 0 -1.6693-6.3168c-.2477-.7409-.5055-1.46-.7675-2.1584l.9065.0471c2.9457.15 5.8913.3083 8.6426.4625.9594.0514 1.8807.1071 2.7555.1585 2.485.1413 4.5685.2741 6.17.3854a202.4713 202.4713 0 0 1 22.3947 3.2505c10.87 2.1841 19.74 5.4174 33.8264 11.7043 1.0735.48 4.763 2.1327 4.8517 2.1712a1.776 1.776 0 0 0 2.3878-1.16 2.166 2.166 0 0 0 -1.0312-2.6938c-.08-.0385-3.774-1.6959-4.8516-2.1755-14.2973-6.3811-23.3667-9.6872-34.5323-11.9313a205.6089 205.6089 0 0 0 -22.8088-3.31c-1.6144-.1114-3.7106-.2441-6.2041-.39-.879-.0513-1.8-.107-2.7639-.1584-2.7512-.1542-5.7011-.3126-8.651-.4668-1.0312-.0557-1.9906-.1028-2.8485-.1456l-.7987-.0428-.2832-.0163a2.0647 2.0647 0 0 0 -1.7116 3.0278c.0254.0556.08.1713.1522.3439.131.292.2747.6338.431 1.0149.448 1.0921.9 2.2826 1.3186 3.5289a40.9559 40.9559 0 0 1 1.5045 5.6787c.1226.6681.2156 1.3062.2747 1.9143a31.7721 31.7721 0 0 1 -1.0777 8.6551c-.27 1.22-.5832 2.4967-.93 3.8136h3.8331z" fill="#f1a5ff"/></g><g mask="url(#g)"><path d="m134.9435 161.7734c.0288.0471.0888.1508.1767.3049.15.2634.3182.5683.5.91.5215.985 1.0439 2.0557 1.53 3.1863a29.4856 29.4856 0 0 1 1.8409 5.5973 13.92 13.92 0 0 1 .3212 2.8351 24.5 24.5 0 0 1 -1.4538 7.76c-.3212.9464-.6677 1.8287-1.0143 2.6124-.1183.274-.2282.5139-.3254.7194-.0549.12-.093.197-.11.227a1.9692 1.9692 0 0 0 .6424 2.5353 1.61 1.61 0 0 0 2.3033-.7066c.1141-.2227.3043-.6167.541-1.152.3888-.8823.7733-1.863 1.1368-2.9208a28.707 28.707 0 0 0 1.6605-9.0752 18.1723 18.1723 0 0 0 -.4045-3.6573 33.1768 33.1768 0 0 0 -2.0826-6.3682c-.5308-1.2334-1.0989-2.4025-1.6664-3.4689-.3436-.6467-.6141-1.122-.776-1.3918a1.6006 1.6006 0 0 0 -2.3425-.5268 1.9775 1.9775 0 0 0 -.4776 2.5781z" fill="#974dff"/></g><g mask="url(#g)"><path d="m140.643 184.7285q.1933-.5139.3786-1.0578a28.4059 28.4059 0 0 0 1.6711-9.0662 18.1611 18.1611 0 0 0 -.4045-3.6548 33.2828 33.2828 0 0 0 -2.0826-6.3682c-.5308-1.2321-1.0989-2.4-1.6664-3.4689-.3436-.6467-.6141-1.122-.776-1.391a1.5991 1.5991 0 0 0 -2.3425-.5246 1.9757 1.9757 0 0 0 -.4776 2.5764c.03.0471.09.1508.1775.3049.15.2634.3178.5683.5.91.5215.985 1.0439 2.0557 1.53 3.1863a29.4935 29.4935 0 0 1 1.841 5.5973 13.9261 13.9261 0 0 1 .3211 2.8351 24.5 24.5 0 0 1 -1.4538 7.76c-.2874.8479-.5959 1.6445-.9044 2.364h3.6937z" fill="url(#h)"/><path d="m140.643 184.7285q.1933-.5139.3786-1.0578a28.4059 28.4059 0 0 0 1.6711-9.0662 18.1611 18.1611 0 0 0 -.4045-3.6548 33.2828 33.2828 0 0 0 -2.0826-6.3682c-.5308-1.2321-1.0989-2.4-1.6664-3.4689-.3436-.6467-.6141-1.122-.776-1.391a1.5991 1.5991 0 0 0 -2.3425-.5246 1.9757 1.9757 0 0 0 -.4776 2.5764c.03.0471.09.1508.1775.3049.15.2634.3178.5683.5.91.5215.985 1.0439 2.0557 1.53 3.1863a29.4935 29.4935 0 0 1 1.841 5.5973 13.9261 13.9261 0 0 1 .3211 2.8351 24.5 24.5 0 0 1 -1.4538 7.76c-.2874.8479-.5959 1.6445-.9044 2.364h3.6937z" fill="#f1a5ff"/></g><g mask="url(#g)"><path d="m149.9406 216.3622c2.9457.1524 5.8913.31 8.6405.4642.9593.0535 1.88.1062 2.7555.1572 2.485.1456 4.5693.2783 6.17.39a204.5312 204.5312 0 0 1 22.3925 3.25c10.8677 2.1841 19.7393 5.4174 33.8265 11.7085 1.0735.48 4.7629 2.1371 4.8487 2.1756a1.7749 1.7749 0 0 0 2.3878-1.1606 2.1642 2.1642 0 0 0 -1.03-2.6894c-.0829-.0386-3.7749-1.6917-4.853-2.1756-14.2972-6.381-23.37-9.6872-34.5343-11.9313a205.7018 205.7018 0 0 0 -22.8105-3.3061c-1.6153-.1114-3.7115-.2441-6.2075-.39q-1.3185-.0771-2.7626-.1542c-2.7542-.1542-5.7041-.3126-8.654-.4668-1.0312-.0514-1.9906-.1028-2.8485-.1456l-.7987-.0386-.2832-.0128a2.0668 2.0668 0 0 0 -1.7116 3.0321l.1521.3426c.1311.2955.2747.6355.4311 1.0149.448 1.0921.9 2.2827 1.3186 3.5323a41.5876 41.5876 0 0 1 1.5087 5.6787c.1226.6668.2156 1.3062.2747 1.9143a31.8691 31.8691 0 0 1 -1.0734 8.6551c-.3043 1.36-.6593 2.7923-1.0523 4.27-.4818 1.8115-1.0016 3.6016-1.5215 5.2881-.1817.591-.3507 1.125-.4987 1.5931-.0507.1627-.0972.3062-.1394.4283l-.0465.1413a2.163 2.163 0 0 0 1.0734 2.6715 1.7867 1.7867 0 0 0 2.3709-1.212l.055-.1627c.0422-.1285.093-.2784.1479-.45.1564-.4882.3339-1.0407.52-1.6488.5368-1.7345 1.0693-3.58 1.5679-5.4517.41-1.5375.7819-3.0278 1.0989-4.4539.9593-4.304 1.4073-7.7314 1.1664-10.1326q-.11-1.1049-.3254-2.2783a45.9984 45.9984 0 0 0 -1.6694-6.3143c-.2472-.7409-.505-1.4638-.767-2.1584l.9044.0471z" fill="#373fff"/></g><g mask="url(#g)"><path d="m149.9647 239.9986c.2417-.9567.4649-1.8929.6677-2.8008.96-4.3053 1.4052-7.7331 1.1644-10.1326q-.11-1.1049-.3255-2.28a45.6982 45.6982 0 0 0 -1.6693-6.3143c-.2477-.7409-.5055-1.4612-.7675-2.1558l.9065.0471c2.9457.1524 5.8913.31 8.6426.4642.9594.0535 1.8807.1062 2.7555.1572 2.485.1456 4.5685.2783 6.17.39a204.5353 204.5353 0 0 1 22.3947 3.25c10.87 2.1841 19.74 5.4174 33.8264 11.7085 1.0735.48 4.763 2.1371 4.8517 2.1756a1.7731 1.7731 0 0 0 2.3878-1.1606 2.1606 2.1606 0 0 0 -1.0312-2.6894c-.08-.0386-3.774-1.6917-4.8516-2.1756-14.2973-6.381-23.3667-9.6872-34.5323-11.9313a205.5466 205.5466 0 0 0 -22.8088-3.3061c-1.6144-.1114-3.7106-.2441-6.2041-.39q-1.3185-.0771-2.7639-.1542c-2.7512-.1542-5.7011-.3126-8.651-.4668-1.0312-.0514-1.9906-.1028-2.8485-.1456l-.7987-.0386-.2832-.0128a2.0684 2.0684 0 0 0 -1.7116 3.0321c.0254.0556.08.1713.1522.3426.131.2955.2747.6355.431 1.0149.448 1.0921.9 2.2827 1.3186 3.5323a40.9448 40.9448 0 0 1 1.5045 5.6787c.1226.6668.2156 1.3062.2747 1.9143a31.7784 31.7784 0 0 1 -1.0777 8.6551c-.27 1.2193-.5832 2.4959-.93 3.8115h3.8331z" fill="#f1a5ff"/></g><g mask="url(#g)"><path d="m134.9435 217.044c.0288.0471.0888.1507.1767.304.15.2638.3182.57.5.9109.5215.9807 1.0439 2.0557 1.53 3.182a29.3892 29.3892 0 0 1 1.8409 5.5973 13.8492 13.8492 0 0 1 .3212 2.8308 24.5 24.5 0 0 1 -1.4538 7.76c-.3212.9465-.6677 1.8244-1.0143 2.6124-.1183.27-.2282.5139-.3254.7152-.0549.1156-.093.1927-.11.227a1.9637 1.9637 0 0 0 .6424 2.531 1.61 1.61 0 0 0 2.3033-.7066c.1141-.2227.3043-.6167.541-1.1563.3888-.8822.7733-1.8672 1.1368-2.925a28.39 28.39 0 0 0 1.6736-9.0663 18.02 18.02 0 0 0 -.4057-3.6573 32.9057 32.9057 0 0 0 -2.0836-6.3682c-.5282-1.2334-1.0988-2.3982-1.6651-3.4689-.3423-.6466-.6128-1.122-.7734-1.3918a1.6 1.6 0 0 0 -2.3413-.5268 1.9781 1.9781 0 0 0 -.4775 2.5781z" fill="#373fff"/></g><g mask="url(#g)"><path d="m140.643 239.9986q.1933-.5139.3786-1.0578a28.4059 28.4059 0 0 0 1.6711-9.0662 18.1679 18.1679 0 0 0 -.4045-3.6552 33.3122 33.3122 0 0 0 -2.0826-6.3682c-.5308-1.2317-1.0989-2.3991-1.6664-3.4689-.3436-.6458-.6141-1.122-.776-1.39a1.599 1.599 0 0 0 -2.3425-.5247 1.9762 1.9762 0 0 0 -.4776 2.5769c.03.0471.09.1507.1775.304.15.2638.3178.57.5.9109.5215.9807 1.0439 2.0557 1.53 3.182a29.397 29.397 0 0 1 1.841 5.5973 13.8556 13.8556 0 0 1 .3211 2.8308 24.5 24.5 0 0 1 -1.4538 7.76c-.2874.848-.5959 1.64-.9044 2.364h3.6937z" fill="url(#i)"/><path d="m140.643 239.9986q.1933-.5139.3786-1.0578a28.4059 28.4059 0 0 0 1.6711-9.0662 18.1679 18.1679 0 0 0 -.4045-3.6552 33.3122 33.3122 0 0 0 -2.0826-6.3682c-.5308-1.2317-1.0989-2.3991-1.6664-3.4689-.3436-.6458-.6141-1.122-.776-1.39a1.599 1.599 0 0 0 -2.3425-.5247 1.9762 1.9762 0 0 0 -.4776 2.5769c.03.0471.09.1507.1775.304.15.2638.3178.57.5.9109.5215.9807 1.0439 2.0557 1.53 3.182a29.397 29.397 0 0 1 1.841 5.5973 13.8556 13.8556 0 0 1 .3211 2.8308 24.5 24.5 0 0 1 -1.4538 7.76c-.2874.848-.5959 1.64-.9044 2.364h3.6937z" fill="#f1a5ff"/></g><ellipse cx="112.3312" cy="225.6316" rx="8.0539" ry="8.4044"/><path d="m104.2778 225.7248v-.093a8.3679 8.3679 0 1 1 .1137 1.418 6.505 6.505 0 1 0 -.1141-1.3191z" fill="#fff"/><circle cx="108.2654" cy="228.0642" fill="#fff" r="2.619"/><ellipse cx="112.3312" cy="170.2566" rx="8.0539" ry="8.4044"/><path d="m104.2778 170.35v-.0929a8.3679 8.3679 0 1 1 .1137 1.4179 6.505 6.505 0 1 0 -.1141-1.319z" fill="#fff"/><circle cx="108.2654" cy="172.6891" fill="#fff" r="2.619"/><path d="m278.3171 200.0749c0-19.38 10.7378-31.9514 28.2848-31.9514 11.7854 0 21.2136 4.7142 25.1421 19.9041l-12.571 3.4047c-2.619-8.6426-6.5475-12.0472-12.5711-12.0472s-14.4043 2.8808-14.4043 20.4279 8.3807 21.7374 14.9281 21.7374a12.5711 12.5711 0 0 0 12.8329-11.2616h-11v-10.2139h23.8325v31.1656h-11v-8.6426h-.2611a17.0233 17.0233 0 0 1 -16.2376 9.9521c-18.5946 0-26.9753-13.88-26.9753-32.4751z"/><path d="m344.315 169.171h13.357v62.07h-13.357z"/><path d="m368.6713 169.6949h13.6187v10.7378h-13.6187zm0 17.0233h13.3567v44.5223h-13.3567z"/><path d="m396.6942 218.67v-22.2617h-7.595v-9.69h7.3331v-15.452h13.6186v15.4519h11.5234v9.69h-11.5234v19.38c0 4.7142 1.31 6.2856 6.2855 6.2856l4.4523-.5238v9.69l-8.9045.7857c-13.3567-.2614-15.19-4.9757-15.19-13.3557z"/><path d="m426.2885 208.9793c0-17.8089 12.571-23.3087 22.5231-23.3087a20.5169 20.5169 0 0 1 19.38 13.6186l-11.2616 3.6665c-1.8332-5.7617-4.4522-7.595-8.3806-7.595s-8.9045 4.7142-8.9045 13.6186 2.619 13.6186 8.6426 13.6186 6.8093-1.8332 8.9045-7.8568l11.2615 3.9284a20.1659 20.1659 0 0 1 -20.166 13.6186c-10.4756 0-21.999-6.0236-21.999-23.3088z"/><path d="m475.2631 169.1711h13.6186v24.3564a19.1184 19.1184 0 0 1 15.4519-7.8569c7.5949 0 13.0948 3.6665 13.0948 13.0948v32.4751h-13.6184v-28.2848c0-3.9284-1.5714-6.0236-5.2379-6.0236a15.19 15.19 0 0 0 -9.69 4.4523v29.8561h-13.619z"/></svg>