<svg id="Ebene_1" data-name="Ebene 1" xmlns="http://www.w3.org/2000/svg" viewBox="0 0 600 400"><defs><style>.cls-1{fill:#ea4335;}.cls-2{fill:#4285f4;}.cls-3{fill:#34a853;}.cls-4{fill:#fbbc05;}.cls-5{fill:#5f6368;}</style></defs><title>google-cloud</title><path class="cls-1" d="M75.33,178.113h3.322l9.467-9.468.465-4.019a42.553,42.553,0,0,0-69.228,20.762,5.145,5.145,0,0,1,3.322-.2l18.935-3.122s.963-1.595,1.461-1.5A23.619,23.619,0,0,1,75.4,178.113Z"/><path class="cls-2" d="M101.606,185.388a42.656,42.656,0,0,0-12.855-20.729L75.463,177.947a23.616,23.616,0,0,1,8.67,18.735v2.359a11.826,11.826,0,0,1,0,23.652H60.481l-2.359,2.392v14.184l2.359,2.359H84.133a30.761,30.761,0,0,0,17.473-56.24Z"/><path class="cls-3" d="M36.8,241.5H60.448V222.56H36.8a11.752,11.752,0,0,1-4.883-1.063l-3.322,1.03-9.534,9.467-.831,3.322A30.6,30.6,0,0,0,36.8,241.5Z"/><path class="cls-4" d="M36.8,180.073a30.761,30.761,0,0,0-18.57,55.144l13.72-13.72a11.826,11.826,0,1,1,15.646-15.646l13.719-13.72A30.725,30.725,0,0,0,36.8,180.073Z"/><path class="cls-5" d="M178.11,228.274a30.264,30.264,0,0,1-21.925-9,30.092,30.092,0,0,1,0-43.317,30.265,30.265,0,0,1,21.925-9.169,29.366,29.366,0,0,1,21.028,8.471l-5.913,6.013a21.292,21.292,0,0,0-15.115-5.98,21.063,21.063,0,0,0-15.613,6.644,22.379,22.379,0,0,0,0,31.359,22.289,22.289,0,0,0,31.093.365,17.663,17.663,0,0,0,4.551-10.331H178.21v-8.5h28.2a27,27,0,0,1,.332,5.182,26.577,26.577,0,0,1-7.275,19.6A28.272,28.272,0,0,1,178.11,228.274Zm65.575-5.648a20.329,20.329,0,0,1-28.137,0,20.215,20.215,0,0,1,0-28.236,20.364,20.364,0,0,1,28.137,0,20.172,20.172,0,0,1-.034,28.236Zm-21.925-5.547a10.763,10.763,0,0,0,15.213.5q.258-.242.5-.5a12.759,12.759,0,0,0,0-17.174,10.929,10.929,0,0,0-15.453-.327c-.111.107-.22.215-.326.327a12.713,12.713,0,0,0,.033,17.174Zm65.176,5.547a20.329,20.329,0,0,1-28.137,0,20.215,20.215,0,0,1,0-28.236,20.331,20.331,0,0,1,28.137,0,20.215,20.215,0,0,1,0,28.236Zm-21.925-5.547a10.763,10.763,0,0,0,15.213.5q.258-.242.5-.5a12.759,12.759,0,0,0,0-17.174,10.929,10.929,0,0,0-15.453-.327c-.111.107-.219.215-.326.327a12.713,12.713,0,0,0,.033,17.174Zm50.361,28.934a17.414,17.414,0,0,1-11.062-3.521,20.365,20.365,0,0,1-6.445-8.172l7.574-3.156a12.75,12.75,0,0,0,3.754,4.949,9.458,9.458,0,0,0,6.212,2.093,9.966,9.966,0,0,0,7.74-2.989,12.125,12.125,0,0,0,2.757-8.637v-2.857h-.3a12.654,12.654,0,0,1-10.4,4.484,18.037,18.037,0,0,1-13.288-5.78,19.1,19.1,0,0,1-5.681-13.919,19.3,19.3,0,0,1,5.681-14.018,18.007,18.007,0,0,1,13.288-5.814,14.3,14.3,0,0,1,6.112,1.362,12.3,12.3,0,0,1,4.318,3.156h.3v-3.156h8.239v35.379a20.63,20.63,0,0,1-5.282,15.447A18.605,18.605,0,0,1,315.372,246.013Zm.6-25.513a9.666,9.666,0,0,0,7.507-3.321,12.292,12.292,0,0,0,3.023-8.5,12.557,12.557,0,0,0-3.023-8.67,9.638,9.638,0,0,0-7.507-3.322A10.27,10.27,0,0,0,308.2,200a12.129,12.129,0,0,0-3.322,8.6,11.9,11.9,0,0,0,3.322,8.5A10.3,10.3,0,0,0,315.97,220.5Zm32.853-51.489v58.067h-8.67V169.011Zm23.785,59.263a18.868,18.868,0,0,1-13.985-5.681,19.234,19.234,0,0,1-5.614-14.085,19.462,19.462,0,0,1,5.415-14.217,17.8,17.8,0,0,1,13.287-5.548,16.788,16.788,0,0,1,6.644,1.3,15.659,15.659,0,0,1,5.083,3.322,23.28,23.28,0,0,1,3.322,4.02,23.749,23.749,0,0,1,1.96,3.887l.9,2.258-26.575,10.93a9.965,9.965,0,0,0,9.567,5.979,11.325,11.325,0,0,0,9.733-5.481l6.644,4.484a21.874,21.874,0,0,1-6.378,6.046A18.07,18.07,0,0,1,372.608,228.274Zm-11.1-20.364,17.673-7.341a6.11,6.11,0,0,0-2.758-3.023,9,9,0,0,0-4.551-1.163,10.264,10.264,0,0,0-7.142,3.156A10.533,10.533,0,0,0,361.513,207.91Z"/><path class="cls-5" d="M435.027,228.274a27.373,27.373,0,0,1-27.841-26.9q-.009-.555,0-1.108a27.373,27.373,0,0,1,26.73-28q.555-.014,1.108,0a24.785,24.785,0,0,1,19.7,8.77l-4.784,4.651a18.07,18.07,0,0,0-14.882-6.81,20.293,20.293,0,0,0-14.782,5.913,22.933,22.933,0,0,0,0,30.96,20.293,20.293,0,0,0,14.782,5.913,21.129,21.129,0,0,0,16.61-7.773l4.783,4.783a26.11,26.11,0,0,1-9.2,7.01A28.177,28.177,0,0,1,435.027,228.274Z"/><path class="cls-5" d="M469.309,227.078h-6.876V173.429h6.876Z"/><path class="cls-5" d="M480.537,194.789a19.234,19.234,0,0,1,27.107,0,20.97,20.97,0,0,1,0,27.9,19.234,19.234,0,0,1-27.107,0,20.97,20.97,0,0,1,0-27.9Zm5.116,23.585a11.594,11.594,0,0,0,16.39.453q.232-.22.452-.453a14.83,14.83,0,0,0,0-19.267,11.593,11.593,0,0,0-16.389-.452q-.232.219-.453.452a14.737,14.737,0,0,0,.033,19.234Z"/><path class="cls-5" d="M551.062,227.078h-6.644V222h-.2a12.783,12.783,0,0,1-4.85,4.585,13.557,13.557,0,0,1-6.809,1.827,12.923,12.923,0,0,1-10.431-4.186,16.61,16.61,0,0,1-3.555-11.228V190.4h6.877v21.327q0,10.265,9.068,10.264a8.434,8.434,0,0,0,6.976-3.322,12.516,12.516,0,0,0,2.691-7.939V190.4h6.877Z"/><path class="cls-5" d="M574.415,228.274a16.147,16.147,0,0,1-12.291-5.614,21.388,21.388,0,0,1,0-27.838,16.144,16.144,0,0,1,12.291-5.614A15.583,15.583,0,0,1,581.922,191a12.72,12.72,0,0,1,4.983,4.484h.3l-.3-5.082V173.429h6.876v53.649h-6.643V222h-.3a12.729,12.729,0,0,1-4.983,4.485A15.587,15.587,0,0,1,574.415,228.274ZM575.544,222a10.961,10.961,0,0,0,8.272-3.587,15.726,15.726,0,0,0,0-19.334,11.228,11.228,0,0,0-15.862-.748q-.391.355-.748.748a15.629,15.629,0,0,0,0,19.267A10.963,10.963,0,0,0,575.544,222Z"/></svg>