<svg id="Ebene_1" data-name="Ebene 1" xmlns="http://www.w3.org/2000/svg" viewBox="0 0 600 400"><defs><style>.cls-1{fill:#478aff}</style></defs><path class="cls-1" d="M300 125.954a28.46 28.46 0 1 0 28.46 28.46 28.51 28.51 0 0 0-28.46-28.46z"/><circle class="cls-1" cx="340.858" cy="115.516" r="12.952"/><path class="cls-1" d="M356.834 128.553l-.554-1.193-.852.98a19.161 19.161 0 0 1-7.839 5.368l-.81.298.341.81a51.188 51.188 0 1 1-25.264-26.457l.81.383.34-.81a19.217 19.217 0 0 1 5.752-7.54l1.023-.81-1.15-.596a60.939 60.939 0 0 0-28.63-7.03 62.458 62.458 0 1 0 62.458 62.458 61.59 61.59 0 0 0-5.625-25.861zM193.489 252.361h13.165v54.406h-13.165zm142.171 0h13.165v54.406H335.66zm-30.42-1.278c-9.245 0-16.403 5.58-18.064 7.115l-.81-5.837h-10.991v54.405h13.164v-32.933c0-6.433 8.777-11.759 15.21-11.759 6.306 0 11.205 6.135 11.205 13.463v31.23h13.165v-29.951c-.043-14.23-6.22-25.733-22.879-25.733zm78.137 45.799c-9.884 0-16.446-7.754-16.446-17.297s6.562-17.297 16.446-17.297c8.435 0 13.59 8.18 13.59 8.18l9.544-6.391c-2.77-4.26-5.922-6.817-10.31-9.416a24.436 24.436 0 0 0-12.398-3.536c-16.488 0-29.056 12.355-29.141 28.46.085 16.105 12.653 28.46 29.14 28.46a24.436 24.436 0 0 0 12.399-3.536c4.345-2.642 7.54-5.198 10.31-9.416l-9.544-6.39s-5.112 8.18-13.59 8.18z"/><path id="path3000" class="cls-1" d="M241.036 251.083a28.068 28.068 0 0 0-28.503 28.246c0 15.423 11.546 28.716 28.673 28.716a27.884 27.884 0 0 0 28.247-28.375c0-18.874-14.784-28.587-28.417-28.587zm.127 11.205c8.18 0 15.892 6.646 15.892 17.297 0 10.438-7.712 17.255-15.934 17.255-9.032 0-16.19-7.286-16.19-17.34.042-9.842 7.072-17.213 16.232-17.213z"/></svg>