<svg id="Ebene_1" data-name="Ebene 1" xmlns="http://www.w3.org/2000/svg" xmlns:xlink="http://www.w3.org/1999/xlink" viewBox="0 0 600 400"><defs><style>.cls-1{fill:url(#linear-gradient);}.cls-2{fill:url(#linear-gradient-2);}.cls-3{fill:url(#linear-gradient-3);}.cls-4{fill:url(#linear-gradient-4);}.cls-5{fill:#fff;}</style><linearGradient id="linear-gradient" x1="236.158" y1="-1043.168" x2="413.132" y2="-936.355" gradientTransform="matrix(1, 0, 0, -1, 0, -718)" gradientUnits="userSpaceOnUse"><stop offset="0" stop-color="#fcee39"/><stop offset="1" stop-color="#f37b3d"/></linearGradient><linearGradient id="linear-gradient-2" x1="273.572" y1="-786.696" x2="435.102" y2="-928.111" gradientTransform="matrix(1, 0, 0, -1, 0, -718)" gradientUnits="userSpaceOnUse"><stop offset="0" stop-color="#ef5a6b"/><stop offset="0.57" stop-color="#f26f4e"/><stop offset="1" stop-color="#f37b3d"/></linearGradient><linearGradient id="linear-gradient-3" x1="283.834" y1="-914.884" x2="188.103" y2="-855.099" gradientTransform="matrix(1, 0, 0, -1, 0, -718)" gradientUnits="userSpaceOnUse"><stop offset="0" stop-color="#7c59a4"/><stop offset="0.385" stop-color="#af4c92"/><stop offset="0.765" stop-color="#dc4183"/><stop offset="0.957" stop-color="#ed3d7d"/></linearGradient><linearGradient id="linear-gradient-4" x1="282.101" y1="-779.473" x2="188.64" y2="-856.664" gradientTransform="matrix(1, 0, 0, -1, 0, -718)" gradientUnits="userSpaceOnUse"><stop offset="0" stop-color="#ef5a6b"/><stop offset="0.364" stop-color="#ee4e72"/><stop offset="1" stop-color="#ed3d7d"/></linearGradient></defs><title>jetbrains</title><path id="_Path_" data-name="&lt;Path&gt;" class="cls-1" d="M432.081,215.233a10.425,10.425,0,0,0,3.386-7.224,10.563,10.563,0,0,0-9.932-11.061,11.031,11.031,0,0,0-7.45,2.483h0L228.919,303.044a22.174,22.174,0,0,0-10.61,9.255,22.724,22.724,0,0,0,8.127,31.378,23.221,23.221,0,0,0,24.153-.452h0c.452-.451,1.129-.677,1.581-1.128l176.074-123.7a28.7,28.7,0,0,0,3.837-3.16Z"/><path id="_Path_2" data-name="&lt;Path&gt;" class="cls-2" d="M432.533,200.109h0L288.513,58.8a17.415,17.415,0,0,0-30.249,11.738h0A17.286,17.286,0,0,0,263.005,82.5h0a24,24,0,0,0,2.709,2.258L417.86,215.007h0a11.63,11.63,0,0,0,6.772,2.935,10.563,10.563,0,0,0,11.061-9.933A11.281,11.281,0,0,0,432.533,200.109Z"/><path id="_Path_3" data-name="&lt;Path&gt;" class="cls-3" d="M293.253,187.467c-.225,0-88.939-69.978-90.745-71.106h0l-4.064-2.032a25.262,25.262,0,0,0-22.122,45.147h0a19.93,19.93,0,0,0,4.515,2.032c.9.451,102.484,42.438,102.484,42.438h0a9.686,9.686,0,0,0,9.932-16.479Z"/><path id="_Path_4" data-name="&lt;Path&gt;" class="cls-4" d="M275.646,53.155a18.391,18.391,0,0,0-10.384,3.386l-89.843,60.5c-.225.226-.451.226-.451.451h-.226a25.158,25.158,0,0,0,6.095,44.019,24.767,24.767,0,0,0,23.477-3.16h0a21.133,21.133,0,0,0,4.063-3.612l78.1-70.43h0a17.431,17.431,0,0,0,6.772-13.77h0A17.583,17.583,0,0,0,275.646,53.155Z"/><g id="_Group_" data-name="&lt;Group&gt;"><rect id="_Path_5" data-name="&lt;Path&gt;" x="242.463" y="137.58" width="115.125" height="115.125"/><rect id="_Path_6" data-name="&lt;Path&gt;" class="cls-5" x="252.395" y="231.034" width="43.116" height="7.224"/><g id="_Group_2" data-name="&lt;Group&gt;"><path id="_Path_7" data-name="&lt;Path&gt;" class="cls-5" d="M251.944,167.828l3.386-3.16a3.843,3.843,0,0,0,2.934,1.806q2.033,0,2.032-2.709V151.8h5.192v11.964a6.311,6.311,0,0,1-7,7A6.829,6.829,0,0,1,251.944,167.828Z"/><path id="_Path_8" data-name="&lt;Path&gt;" class="cls-5" d="M266.617,152.027h15.124v4.289h-9.932v2.934h9.029v4.064h-9.029v2.934h10.158v4.515H266.842Z"/><path id="_Path_9" data-name="&lt;Path&gt;" class="cls-5" d="M288.513,156.542H282.87v-4.515h16.478v4.515h-5.643v14.221h-5.192Z"/><path id="_Compound_Path_" data-name="&lt;Compound Path&gt;" class="cls-5" d="M252.4,175.052H262.1a8.359,8.359,0,0,1,5.192,1.58,4.466,4.466,0,0,1,1.129,3.16h0c0,2.258-1.129,3.386-2.935,4.289,2.257.678,3.612,2.032,3.612,4.515h0c0,3.16-2.709,5.192-7,5.192H252.4Zm10.836,5.869c0-1.129-.9-1.58-2.258-1.58h-3.386v3.386h3.161c1.58-.226,2.483-.677,2.483-1.806Zm-1.806,5.418h-4.064v3.386h4.064c1.58,0,2.483-.677,2.483-1.806h0C263.908,186.79,263.005,186.339,261.425,186.339Z"/><path id="_Compound_Path_2" data-name="&lt;Compound Path&gt;" class="cls-5" d="M270,175.052h8.8c2.935,0,4.741.677,6.1,2.032a5.617,5.617,0,0,1,1.58,4.289h0a6.232,6.232,0,0,1-3.837,5.869l4.515,6.546h-5.87l-3.837-5.643H275.2v5.643H270Zm8.578,9.029c1.806,0,2.708-.9,2.708-2.257h0c0-1.58-1.128-2.257-2.708-2.257H275.2v4.514Z"/><path id="_Compound_Path_3" data-name="&lt;Compound Path&gt;" class="cls-5" d="M292.576,175.052h4.966l7.9,18.962H299.8l-1.355-3.386h-7.223l-1.355,3.386H284.45Zm4.515,11.287-2.032-5.192-2.031,5.192Z"/><path id="_Path_10" data-name="&lt;Path&gt;" class="cls-5" d="M306.12,175.052h5.192v18.736H306.12Z"/><path id="_Path_11" data-name="&lt;Path&gt;" class="cls-5" d="M312.667,175.052h4.74l7.675,9.932v-9.932h5.192v18.736h-4.515l-7.9-10.158v10.384h-5.192Z"/><path id="_Path_12" data-name="&lt;Path&gt;" class="cls-5" d="M330.726,191.079l2.934-3.386a8.9,8.9,0,0,0,6.095,2.258c1.354,0,2.257-.452,2.257-1.355h0c0-.9-.677-1.129-3.16-1.806-4.063-.9-7-2.031-7-5.869h0c0-3.386,2.709-6.095,7.224-6.095a12.035,12.035,0,0,1,7.675,2.483l-2.709,3.612a10.277,10.277,0,0,0-5.192-1.806c-1.354,0-1.806.452-1.806,1.129h0c0,.9.677,1.129,3.161,1.806,4.289.9,7,2.257,7,5.869h0c0,3.837-2.934,6.095-7.675,6.095A11.945,11.945,0,0,1,330.726,191.079Z"/></g></g></svg>