<svg id="Ebene_1" data-name="Ebene 1" xmlns="http://www.w3.org/2000/svg" viewBox="0 0 600 400"><defs><style>.cls-1{fill:#737373;}.cls-2{fill:#f25022;}.cls-3{fill:#7fba00;}.cls-4{fill:#00a4ef;}.cls-5{fill:#ffb900;}</style></defs><title>microsoft</title><path class="cls-1" d="M223.191,208.481l-3.115,8.828h-.26a62.594,62.594,0,0,0-3.029-8.655l-16.7-41.974H183.727v66.9h10.818V192.3c0-2.6,0-5.539-.086-9.174-.087-1.818-.26-3.2-.347-4.241h.26a40.376,40.376,0,0,0,1.558,5.712l20.078,48.811h7.616l19.906-49.244a52.7,52.7,0,0,0,1.3-5.279h.259c-.259,4.933-.432,9.347-.519,12.03V233.32h11.511V166.507H240.327Zm43.792-23.107h11.251V233.32H266.983Zm5.712-20.252a6.744,6.744,0,0,0-4.76,1.9,6.382,6.382,0,0,0,0,9.261,6.672,6.672,0,0,0,4.76,1.817,6.9,6.9,0,0,0,4.76-1.817,6.09,6.09,0,0,0,1.991-4.587,6.418,6.418,0,0,0-1.991-4.674,6.315,6.315,0,0,0-4.76-1.9m45.436,19.819a31.363,31.363,0,0,0-6.318-.692,27.155,27.155,0,0,0-13.674,3.375,22.6,22.6,0,0,0-9,9.26,29.436,29.436,0,0,0-3.116,13.848,25.689,25.689,0,0,0,3.029,12.375,20.745,20.745,0,0,0,8.481,8.568,24.966,24.966,0,0,0,12.376,3.029,27.2,27.2,0,0,0,13.588-3.2l.086-.086V221.03l-.432.347a19.373,19.373,0,0,1-5.453,2.856,16.684,16.684,0,0,1-5.365,1.038c-4.5,0-8.049-1.3-10.559-4.154-2.6-2.769-3.894-6.577-3.894-11.337,0-4.933,1.3-8.828,3.981-11.684a13.89,13.89,0,0,1,10.558-4.327,18.414,18.414,0,0,1,10.732,3.635l.432.346V186.759l-.086-.087a26.1,26.1,0,0,0-5.366-1.731m37.128-.346a11.867,11.867,0,0,0-7.616,2.683,16.147,16.147,0,0,0-4.327,6.491h-.087v-8.4H331.978V233.32h11.251V208.828c0-4.155.866-7.616,2.77-10.126a8.672,8.672,0,0,1,7.269-3.9,27.8,27.8,0,0,1,3.376.433,8.858,8.858,0,0,1,2.682,1.125l.433.346V185.46l-.259-.086a8.557,8.557,0,0,0-4.241-.779m30.637-.26c-7.876,0-14.194,2.337-18.607,6.924-4.5,4.587-6.664,10.905-6.664,18.867,0,7.443,2.25,13.5,6.577,17.915,4.327,4.327,10.212,6.577,17.569,6.577,7.7,0,13.847-2.337,18.261-7.01,4.5-4.674,6.664-10.9,6.664-18.607,0-7.616-2.078-13.674-6.318-18.088-4.068-4.414-10.039-6.578-17.482-6.578m9,36.868c-2.077,2.683-5.365,3.982-9.433,3.982s-7.356-1.3-9.693-4.155c-2.337-2.683-3.462-6.577-3.462-11.51,0-5.106,1.212-9,3.462-11.77a11.9,11.9,0,0,1,9.606-4.154c3.982,0,7.1,1.3,9.347,3.981s3.462,6.577,3.462,11.683c-.173,5.193-1.125,9.261-3.289,11.943m39.9-15.924c-3.549-1.471-5.8-2.6-6.838-3.548a4.917,4.917,0,0,1-1.3-3.635,4.023,4.023,0,0,1,1.818-3.462,8.34,8.34,0,0,1,4.933-1.3,22.41,22.41,0,0,1,5.8.865,14.954,14.954,0,0,1,5.02,2.337l.433.346V186.326l-.26-.087a31.279,31.279,0,0,0-5.106-1.471,34.71,34.71,0,0,0-5.539-.519c-5.366,0-9.78,1.3-13.241,4.154a12.793,12.793,0,0,0-5.106,10.558,13.742,13.742,0,0,0,1.125,5.886,13.126,13.126,0,0,0,3.461,4.5,30.178,30.178,0,0,0,6.924,3.894c2.6,1.125,4.587,1.991,5.8,2.683a11.8,11.8,0,0,1,2.6,2.077,4.92,4.92,0,0,1,.692,2.683c0,3.2-2.423,4.76-7.356,4.76a19.416,19.416,0,0,1-6.231-1.125,24.075,24.075,0,0,1-6.318-3.2l-.433-.346v10.991l.26.086a33.492,33.492,0,0,0,6.058,1.9,38.612,38.612,0,0,0,6.491.779c5.8,0,10.558-1.3,13.934-4.154a13.254,13.254,0,0,0,5.279-10.9,12.134,12.134,0,0,0-2.77-8.222,35.084,35.084,0,0,0-10.125-5.972m42.58-20.944c-7.876,0-14.194,2.337-18.608,6.924s-6.664,10.905-6.664,18.867c0,7.443,2.251,13.5,6.578,17.915,4.327,4.327,10.212,6.577,17.568,6.577,7.7,0,13.848-2.337,18.261-7.01,4.5-4.674,6.664-10.9,6.664-18.607,0-7.616-2.077-13.674-6.317-18.088-4.068-4.414-10.04-6.578-17.482-6.578m8.914,36.868c-2.077,2.683-5.366,3.982-9.434,3.982-4.154,0-7.356-1.3-9.693-4.155-2.337-2.683-3.462-6.577-3.462-11.51,0-5.106,1.212-9,3.462-11.77a11.9,11.9,0,0,1,9.607-4.154,11.627,11.627,0,0,1,9.347,3.981c2.25,2.683,3.461,6.577,3.461,11.683,0,5.193-1.125,9.261-3.288,11.943"/><path class="cls-1" d="M561.322,194.634v-9.26H549.985V171.181l-.347.086-10.731,3.2-.26.087v10.818H521.685v-6.058a9.488,9.488,0,0,1,1.9-6.318,6.718,6.718,0,0,1,5.279-2.077,12.621,12.621,0,0,1,5.019,1.125l.433.26v-9.78l-.26-.086a21.636,21.636,0,0,0-15.318,1.211A15.014,15.014,0,0,0,512.6,169.8a17.71,17.71,0,0,0-2.25,8.914v6.664h-7.875v9.174h7.875V233.32h11.338V194.634h16.962V219.3c0,10.126,4.76,15.232,14.28,15.232a29.616,29.616,0,0,0,4.76-.519,15.57,15.57,0,0,0,3.548-1.125l.087-.087v-9.26l-.433.346a7.313,7.313,0,0,1-2.336,1.039,7.915,7.915,0,0,1-2.251.346c-2.25,0-3.808-.519-4.933-1.817-1.038-1.212-1.557-3.2-1.557-6.145V194.634Z"/><path class="cls-2" d="M38.678,144.179H91.73v53.052H38.678Z"/><path class="cls-3" d="M97.269,144.179h53.052v53.052H97.269Z"/><path class="cls-4" d="M38.678,202.769H91.73v53.052H38.678Z"/><path class="cls-5" d="M97.269,202.769h53.052v53.052H97.269Z"/></svg>