<svg id="Ebene_1" data-name="Ebene 1" xmlns="http://www.w3.org/2000/svg" viewBox="0 0 600 400"><defs><style>.cls-1{fill:#0078d7}</style></defs><path class="cls-1" d="M175.356 174.347h-8.698v-49.862q0-5.902.725-14.393h-.208a46.177 46.177 0 0 1-2.226 7.196l-25.319 57.059h-4.246l-25.37-56.645a42.907 42.907 0 0 1-2.227-7.61h-.207q.414 4.454.414 14.497v49.757h-8.388V100.1h11.495l22.782 51.777a65.675 65.675 0 0 1 3.365 8.905h.363q2.589-7.145 3.572-9.112l23.248-51.57h10.925zm25.407-72.022a5.243 5.243 0 0 1-1.657 3.96 5.761 5.761 0 0 1-7.87.053 5.283 5.283 0 0 1-1.605-4.013 5.362 5.362 0 0 1 1.58-3.857 5.285 5.285 0 0 1 3.96-1.631 5.419 5.419 0 0 1 3.987 1.605 5.29 5.29 0 0 1 1.605 3.883zm-1.45 72.022h-8.491v-53.02h8.49zm50.054-2.434a27.563 27.563 0 0 1-14.55 3.728 25.527 25.527 0 0 1-13.021-3.34 23.036 23.036 0 0 1-8.983-9.45 29.04 29.04 0 0 1-3.21-13.72q0-13.151 7.533-21.125 7.534-7.971 20.064-7.974a26.888 26.888 0 0 1 12.271 2.693v8.698a21.746 21.746 0 0 0-12.633-4.142 16.969 16.969 0 0 0-13.385 5.877q-5.152 5.877-5.152 15.196 0 9.27 4.893 14.653 4.893 5.387 13.126 5.385a21.435 21.435 0 0 0 13.048-4.556zm37.626-41.991a10.62 10.62 0 0 0-6.472-1.708q-5.644 0-9.165 5.307-3.52 5.31-3.52 13.798v27.028h-8.492v-53.02h8.492v10.925h.207a18.727 18.727 0 0 1 5.436-8.672 12.518 12.518 0 0 1 8.44-3.185 13.868 13.868 0 0 1 5.075.725zm53.159 17.708q0 12.634-7.17 20.322t-19.236 7.69q-11.753 0-18.77-7.483t-7.015-19.7q0-13.152 7.197-20.789t19.83-7.637q11.806 0 18.485 7.378t6.68 20.219zm-8.698.31q0-9.99-4.427-15.325-4.427-5.331-12.66-5.333-8.18 0-12.944 5.462-4.764 5.465-4.764 15.404 0 9.527 4.79 14.886t12.918 5.359q8.284 0 12.685-5.282t4.402-15.17zm47.931 12.22a13.715 13.715 0 0 1-5.307 11.184q-5.307 4.3-14.11 4.297a26.141 26.141 0 0 1-13.15-3.21v-9.113a21.384 21.384 0 0 0 13.772 5.074q10.097 0 10.097-7.404a6.486 6.486 0 0 0-1.968-4.893q-1.967-1.89-8.957-5.1-7.042-3-9.942-6.446a14.769 14.769 0 0 1 2.382-20.115q5.281-4.4 13.41-4.401a25.433 25.433 0 0 1 11.34 2.485v8.543a19.843 19.843 0 0 0-12.013-3.78 10.431 10.431 0 0 0-6.757 2.071 6.548 6.548 0 0 0-2.563 5.333 7.15 7.15 0 0 0 1.968 5.411q1.967 1.892 8.129 4.479 7.559 3.212 10.614 6.73a13.03 13.03 0 0 1 3.055 8.855zm57.715-12.53q0 12.634-7.17 20.322t-19.236 7.69q-11.753 0-18.769-7.483t-7.016-19.7q0-13.152 7.197-20.789t19.83-7.637q11.806 0 18.485 7.378t6.68 20.219zm-8.698.31q0-9.99-4.427-15.325-4.427-5.331-12.66-5.333-8.18 0-12.944 5.462-4.764 5.465-4.764 15.404 0 9.527 4.79 14.886t12.918 5.359q8.284 0 12.685-5.282t4.402-15.17zm43.27-44.631a11.313 11.313 0 0 0-5.644-1.398q-8.906 0-8.906 11.235v8.181h12.427v7.197h-12.427v45.823h-8.491v-45.823h-9.01v-7.197h9.01v-8.595q0-8.077 4.763-13.048a16.057 16.057 0 0 1 12.116-4.97 16.642 16.642 0 0 1 6.162.932z"/><path class="cls-1" d="M500.394 173.829a16.261 16.261 0 0 1-7.974 1.709q-13.876 0-13.876-15.637v-31.377h-9.113v-7.197h9.113v-12.944l8.491-2.744v15.688h13.359v7.197h-13.359v29.927q0 5.333 1.812 7.586t6.058 2.252a9.029 9.029 0 0 0 5.489-1.709zM138.957 280.386h-39.35v-74.248h37.641v7.87h-28.943v24.697h26.82v7.87h-26.82v25.94h30.652zm55.127 0h-8.492v-9.01h-.207q-5.902 10.305-18.225 10.305-10.045 0-16-7.223t-5.954-19.287q0-13.152 6.602-21.125 6.601-7.972 17.682-7.974 10.873 0 15.895 8.595h.207v-32.775h8.492zm-8.492-23.973v-7.818a14.772 14.772 0 0 0-4.375-10.925 14.527 14.527 0 0 0-10.64-4.35 14.724 14.724 0 0 0-12.168 5.67q-4.504 5.67-4.504 15.715 0 9.115 4.246 14.42a13.885 13.885 0 0 0 11.442 5.307 14.681 14.681 0 0 0 11.495-5.074q4.504-5.075 4.504-12.945zm67.658 19.727q0 29.15-27.96 29.15a38.394 38.394 0 0 1-17.19-3.676v-8.492q8.906 4.971 17.035 4.971 19.623 0 19.623-20.762v-5.851h-.207q-6.058 10.202-18.225 10.2a20.405 20.405 0 0 1-19.21-12.375 32.45 32.45 0 0 1-2.744-13.72q0-13.564 6.602-21.54 6.601-7.971 17.682-7.973 10.717 0 15.895 8.594h.207v-7.3h8.492zm-8.491-19.727v-7.818a14.797 14.797 0 0 0-4.401-10.848 14.304 14.304 0 0 0-10.51-4.426q-7.923 0-12.35 5.747t-4.427 15.999q0 8.699 4.246 14.031a13.756 13.756 0 0 0 11.34 5.333 14.835 14.835 0 0 0 11.597-5.048q4.505-5.048 4.505-12.97zm65.016-.413H272.34q.207 8.96 4.738 13.694 4.53 4.738 12.555 4.738a25.988 25.988 0 0 0 16.414-5.8v7.923q-6.938 5.126-18.433 5.126-11.339 0-17.707-7.327t-6.37-20.27a32.207 32.207 0 0 1 3.185-14.369 24.338 24.338 0 0 1 8.777-10.07 22.603 22.603 0 0 1 12.426-3.573q10.304 0 16.077 6.705 5.773 6.708 5.773 18.77zm-8.698-7.198q-.104-7.35-3.547-11.417-3.443-4.064-9.708-4.064a13.686 13.686 0 0 0-10.097 4.245 19.826 19.826 0 0 0-5.281 11.236z"/></svg>