<svg id="Ebene_1" data-name="Ebene 1" xmlns="http://www.w3.org/2000/svg" viewBox="0 0 600 400"><defs><style>.cls-1{fill:#fff;}</style></defs><title>mozilla</title><rect x="11.634" y="117.542" width="576.732" height="164.917"/><path class="cls-1" d="M562.471,235.916a11.015,11.015,0,0,1-3.028.49c-3.374,0-4.96-1.442-4.96-5.594V199.467c0-16.466-13.12-24.483-28.635-24.483-11.851,0-18.224,1.442-30.884,6.546l-2.826,16.61L508.6,199.9l2.336-8.132c3.374-1.759,6.719-2.076,11.044-2.076,11.679,0,11.852,8.795,11.852,16.148v2.394a92.808,92.808,0,0,0-11.852-.635c-16.465,0-33.594,4.153-33.594,21.916,0,15.024,11.823,20.647,22.233,20.647,11.679,0,19.032-7.036,23.184-14.389.952,8.8,6.229,14.389,15.832,14.389a27.573,27.573,0,0,0,12.947-3.374Zm-44.293-.461c-6.229,0-8.478-3.691-8.478-8.334,0-7.844,6.4-9.92,13.755-9.92a79.711,79.711,0,0,1,10.41.952C533.375,230.178,525.531,235.455,518.178,235.455Zm-27.712-96.949-31.2,110.069h-20.33l31.2-110.069Zm-41.9,0-31.2,110.069h-20.3l31.2-110.069Zm-86.625,37.92h21.6v25.9h-21.6Zm0,46.225h21.6v25.924h-21.6Zm-31.432-.951,16.322,1.586-4.47,25.289H279.324L277.248,237.7l39.679-45.591h-22.55l-3.2,11.189-14.88-1.615,2.567-25.29h63.354l1.615,10.872-40.026,45.619h23.358ZM227.13,174.984c-25.924,0-38.728,17.446-38.728,38.555,0,23.04,15.37,36.622,37.6,36.622,23.041,0,39.679-14.562,39.679-37.6C265.684,192.4,253.025,174.984,227.13,174.984Zm-.49,59.346c-11.189,0-16.956-9.6-16.956-22.089,0-13.611,6.546-21.425,17.129-21.425,9.746,0,17.59,6.545,17.59,21.108C244.4,225.679,237.367,234.33,226.64,234.33Zm-56.809-1.442h9.6v15.687h-30.25V207.944c0-12.486-4.152-17.273-12.313-17.273-9.92,0-13.928,7.036-13.928,17.129v25.088h9.6v15.687H102.325V207.944c0-12.486-4.153-17.273-12.313-17.273-9.92,0-13.928,7.036-13.928,17.129v25.088H89.839v15.687H45.863V232.888h9.6v-40.8h-9.6V176.4H76.084v10.872C80.409,179.6,87.935,174.955,98,174.955c10.41,0,19.984,4.96,23.531,15.514,4.008-9.6,12.169-15.514,23.531-15.514,12.947,0,24.8,7.844,24.8,24.944v32.989Z"/></svg>