<svg id="Ebene_1" data-name="Ebene 1" xmlns="http://www.w3.org/2000/svg" viewBox="0 0 600 400"><defs><style>.cls-1{fill:#00c775;}.cls-2{fill:#2a2d2d;}.cls-3{fill:#80847f;}</style></defs><title>neighbourhoodie</title><g id="bottom_bold_Kopie" data-name="bottom bold Kopie"><path class="cls-1" d="M300.289,189.852a17.3,17.3,0,0,1-17.323-17.323,16.452,16.452,0,0,1,1.5-7.045l-21.249-14.2a17.591,17.591,0,1,1,3.233-4.966l21.25,14.2c.693-.693,1.386-1.27,2.078-1.847L255.711,90.534a17.162,17.162,0,1,1,5.313-2.656l34.068,68.136a10.741,10.741,0,0,1,1.848-.461V123.1a17.349,17.349,0,0,1,0-34.068V58.314a17.349,17.349,0,1,1,20.325-13.743,17.447,17.447,0,0,1-14.436,13.858V88.8a17.3,17.3,0,0,1,0,34.184v32.22a12.141,12.141,0,0,1,1.964.462l33.952-67.9a17.176,17.176,0,1,1,5.313,2.771l-33.953,67.79a16.957,16.957,0,0,1,2.194,1.848L332.856,146.2a17.328,17.328,0,1,1,3.464,4.851l-20.556,13.973a17.371,17.371,0,0,1-8.084,23.213,17.724,17.724,0,0,1-7.391,1.617Z"/><path class="cls-1" d="M299.942,201.285a94.352,94.352,0,1,1,66.751-27.6A94.383,94.383,0,0,1,299.942,201.285Zm0-182.814a88.749,88.749,0,1,0,62.94,26.446l-.462-.462A87.147,87.147,0,0,0,299.942,18.471Z"/><path class="cls-2" d="M106.273,270.23v1.732c0,19.632-10.047,37.186-31.643,37.186-20.325,0-33.144-17.207-33.144-36.378,0-19.863,13.165-36.955,33.952-36.955,11.78,0,22.174,6,27.486,16.63l-12.01,6.467c-2.772-6.236-8.662-11.087-15.938-11.087-13.165,0-19.632,13.4-19.632,24.945s6.583,24.368,19.632,24.368c8.546,0,15.591-7.391,15.938-15.822H76.131V270.23Z"/><path class="cls-2" d="M125.559,266.65h.231a13.076,13.076,0,0,1,11.318-6.237,13.7,13.7,0,0,1,5.312,1.155L140.8,273.579a8.985,8.985,0,0,0-5.312-1.617c-9.008,0-9.932,7.968-9.932,15.013v20.441H112.625V262.03h12.934Z"/><path class="cls-2" d="M156.971,286.629c0,5.774,2.194,12.241,9.008,12.241,4.273,0,6.929-2.541,8.662-6.236l11.9,1.963c-3.119,9.008-11.087,14.089-20.557,14.089-14.089,0-22.635-9.931-22.635-23.79,0-13.742,7.276-24.6,21.942-24.6,14.9,0,21.48,10.971,21.48,24.714v1.617Zm17.67-7.969c-.693-4.619-3.581-9.123-8.546-9.123-5.2,0-8.084,4.388-8.662,9.123Z"/><path class="cls-2" d="M203.281,286.629c0,5.774,2.194,12.241,9.008,12.241,4.273,0,6.929-2.541,8.661-6.236l11.9,1.963c-3.118,9.008-11.086,14.089-20.556,14.089-14.089,0-22.635-9.931-22.635-23.79,0-13.742,7.275-24.6,21.942-24.6,14.9,0,21.48,10.971,21.48,24.714v1.617Zm17.669-7.969c-.693-4.619-3.58-9.123-8.546-9.123-5.2,0-8.084,4.388-8.661,9.123Z"/><path class="cls-2" d="M252.131,266.072h.231c2.656-4.042,7.16-5.659,11.78-5.659,12.241,0,15.706,8.546,15.706,19.171V307.3H266.913V283.28c0-5.428.231-12.473-7.044-12.473-7.622,0-7.738,8.546-7.738,14.089v22.4H239.2V261.915h12.934Z"/><path class="cls-2" d="M302.021,278.545h.231l13.627-16.63H332.74l-19.17,19.979L334.126,307.3H317.15l-15.014-19.286h-.23V307.3H288.971V229h12.935v49.544Z"/><path class="cls-2" d="M348.1,286.629c0,5.774,2.194,12.241,9.008,12.241,4.273,0,6.929-2.541,8.661-6.236l11.895,1.963c-3.118,9.008-11.087,14.089-20.556,14.089-14.09,0-22.636-9.931-22.636-23.79,0-13.742,7.276-24.6,21.943-24.6,14.9,0,21.48,10.971,21.48,24.714v1.617Zm17.669-7.969c-.693-4.619-3.58-9.123-8.546-9.123-5.2,0-8.084,4.388-8.661,9.123Z"/><path class="cls-2" d="M394.409,286.629c0,5.774,2.195,12.241,9.008,12.241,4.273,0,6.929-2.541,8.662-6.236l11.895,1.963c-3.118,9.008-11.087,14.089-20.557,14.089-14.089,0-22.635-9.931-22.635-23.79,0-13.742,7.276-24.6,21.942-24.6,14.9,0,21.481,10.971,21.481,24.714v1.617Zm17.554-7.969c-.693-4.619-3.58-9.123-8.546-9.123-5.2,0-8.084,4.388-8.661,9.123Z"/><path class="cls-2" d="M443.144,266.072a16.942,16.942,0,0,1,12.588-5.659c12.819,0,20.672,12.011,20.672,23.906,0,12.357-7.622,24.367-21.018,24.367-4.62,0-9.47-2.078-12.126-5.774h-.116v28.41H430.21V261.8h12.934Zm20.095,18.478c0-6.121-4.042-12.7-10.74-12.7s-10.74,6.583-10.74,12.7,4.041,12.7,10.74,12.7S463.239,290.671,463.239,284.55Z"/><path class="cls-2" d="M492.8,286.629c0,5.774,2.194,12.241,9.008,12.241,4.273,0,6.929-2.541,8.661-6.236l11.895,1.963c-3.118,9.008-11.086,14.089-20.556,14.089-14.089,0-22.635-9.931-22.635-23.79,0-13.742,7.275-24.6,21.942-24.6,14.9,0,21.48,10.971,21.48,24.714v1.617Zm17.669-7.969c-.693-4.619-3.58-9.123-8.546-9.123-5.2,0-8.084,4.388-8.661,9.123Z"/><path class="cls-2" d="M541.653,266.65h.231a13.077,13.077,0,0,1,11.318-6.237,13.694,13.694,0,0,1,5.312,1.155L556.9,273.579a8.983,8.983,0,0,0-5.312-1.617c-9.008,0-9.932,7.968-9.932,15.013v20.441H528.719V262.03h12.934v4.62Z"/><path class="cls-3" d="M56.268,386.062V353.033H60.31a25.519,25.519,0,0,1,4.5.346,11.665,11.665,0,0,1,3.811,1.386,7.093,7.093,0,0,1,2.771,2.772,9.264,9.264,0,0,1,1.04,4.5,8.338,8.338,0,0,1-.924,3.695,5.413,5.413,0,0,1-2.541,2.541v.115a7.837,7.837,0,0,1,4.735,3,8.582,8.582,0,0,1,1.848,5.428,7.856,7.856,0,0,1-3.349,6.929,14.3,14.3,0,0,1-8.2,2.31Zm4.042-29.334V367.7h1.039a9.817,9.817,0,0,0,5.313-1.154c1.27-.809,1.847-2.195,1.847-4.389,0-2.079-.577-3.58-1.847-4.273a10.823,10.823,0,0,0-5.2-1.155Zm0,14.2v11.433h3.118c5.2,0,7.853-1.963,7.853-5.774a4.175,4.175,0,0,0-.808-2.772,3.872,3.872,0,0,0-2.079-1.732,11.666,11.666,0,0,0-2.656-.809,22.59,22.59,0,0,0-2.887-.231H60.31Z"/><path class="cls-3" d="M88.719,371.741l-10.74-18.708h4.735L90.8,367.122l8.084-14.089h4.735l-10.74,18.708v14.436H88.719Z"/><path class="cls-3" d="M121.4,386.062V351.416L146.231,377.4V353.033h4.158v34.414l-24.83-25.984v24.6Z"/><path class="cls-3" d="M157.549,386.062V353.033h17.784v3.811H161.706v9.239h13.281v3.811H161.706v12.472h13.627v3.811H157.549Z"/><path class="cls-3" d="M185.727,353.033v33.029H181.57V353.033Z"/><path class="cls-3" d="M210.21,369.432h13.165v1.27a15.869,15.869,0,0,1-4.388,11.433,15.134,15.134,0,0,1-11.318,4.62,15.816,15.816,0,0,1-11.779-5.082,17.287,17.287,0,0,1,0-24.252,16.577,16.577,0,0,1,12.126-5.081,17.021,17.021,0,0,1,7.506,1.732,16.126,16.126,0,0,1,6.006,4.735l-2.888,2.772a13.942,13.942,0,0,0-4.619-3.927,11.658,11.658,0,0,0-5.774-1.5,12.39,12.39,0,0,0-9.355,3.926,13.529,13.529,0,0,0,0,18.825,11.841,11.841,0,0,0,9.008,4.157,10.6,10.6,0,0,0,7.276-2.887,9.219,9.219,0,0,0,3.464-6.929H210.1v-3.811Z"/><path class="cls-3" d="M232.5,366.314h15.706V353.033h4.157v33.029h-4.157V370.24H232.5v15.822h-4.158V353.033H232.5Z"/><path class="cls-3" d="M259.291,386.062V353.033h4.042a25.5,25.5,0,0,1,4.5.346,11.657,11.657,0,0,1,3.811,1.386,7.1,7.1,0,0,1,2.772,2.772,9.264,9.264,0,0,1,1.039,4.5,8.325,8.325,0,0,1-.924,3.695,5.4,5.4,0,0,1-2.54,2.541v.115a7.84,7.84,0,0,1,4.735,3,8.587,8.587,0,0,1,1.847,5.428,7.854,7.854,0,0,1-3.349,6.929,14.3,14.3,0,0,1-8.2,2.31Zm4.042-29.334V367.7h1.04a9.813,9.813,0,0,0,5.312-1.154c1.27-.809,1.848-2.195,1.848-4.389,0-2.079-.578-3.58-1.848-4.273a10.82,10.82,0,0,0-5.2-1.155Zm0,14.2v11.433h3.118c5.2,0,7.853-1.963,7.853-5.774a4.175,4.175,0,0,0-.808-2.772,3.872,3.872,0,0,0-2.079-1.732,11.666,11.666,0,0,0-2.656-.809,22.59,22.59,0,0,0-2.887-.231h-2.541Z"/><path class="cls-3" d="M287.123,357.421a16.837,16.837,0,0,1,12.242-5.081,17.025,17.025,0,0,1,12.241,5.081,17.146,17.146,0,0,1,0,24.368,17.2,17.2,0,0,1-12.241,4.966,17.15,17.15,0,0,1-12.242-29.334Zm3,21.6a12.946,12.946,0,0,0,9.239,3.926,12.317,12.317,0,0,0,9.239-3.926,12.64,12.64,0,0,0,3.926-9.47,13.559,13.559,0,0,0-3.695-9.47,12.3,12.3,0,0,0-9.47-3.926,12.466,12.466,0,0,0-9.47,3.926,13.064,13.064,0,0,0-3.7,9.47A12.645,12.645,0,0,0,290.126,379.017Z"/><path class="cls-3" d="M321.423,353.033h4.157V372.55q0,10.393,7.969,10.393t7.968-10.393V353.033h4.158v20.9a13.274,13.274,0,0,1-3.234,9.238c-2.194,2.426-5.081,3.581-8.892,3.581a11.41,11.41,0,0,1-8.893-3.581,13.273,13.273,0,0,1-3.233-9.238Z"/><path class="cls-3" d="M362.766,371.741l10.394,14.436h-4.966l-9.7-13.974h-1.732v13.974H352.6V353.148h4.966a21.353,21.353,0,0,1,3,.116,13.83,13.83,0,0,1,2.772.462,10.66,10.66,0,0,1,2.887,1.039,8.226,8.226,0,0,1,3.234,3.349,9.033,9.033,0,0,1,1.154,4.5,8.73,8.73,0,0,1-7.853,9.123Zm-6-15.013v12.011h1.271a26.666,26.666,0,0,0,3.233-.231,12.572,12.572,0,0,0,2.772-.809,4.068,4.068,0,0,0,2.078-1.847,6.236,6.236,0,0,0,.693-3.119q0-5.889-9.007-5.889h-1.04Z"/><path class="cls-3" d="M381.591,366.314H397.3V353.033h4.157v33.029H397.3V370.24H381.591v15.822h-4.158V353.033h4.158Z"/><path class="cls-3" d="M411.5,357.421a16.837,16.837,0,0,1,12.242-5.081,17.025,17.025,0,0,1,12.241,5.081,17.146,17.146,0,0,1,0,24.368,17.2,17.2,0,0,1-12.241,4.966,17.152,17.152,0,0,1-17.323-17.208A15.734,15.734,0,0,1,411.5,357.421Zm2.887,21.6a12.948,12.948,0,0,0,9.239,3.926,12.317,12.317,0,0,0,9.239-3.926,12.641,12.641,0,0,0,3.927-9.47,13.56,13.56,0,0,0-3.7-9.47,13.384,13.384,0,0,0-18.94,0,13.067,13.067,0,0,0-3.695,9.47A12.64,12.64,0,0,0,414.388,379.017Z"/><path class="cls-3" d="M449.034,357.421a16.837,16.837,0,0,1,12.242-5.081,17.028,17.028,0,0,1,12.241,5.081,17.323,17.323,0,1,1-24.483,0Zm3,21.6a12.944,12.944,0,0,0,9.239,3.926,12.313,12.313,0,0,0,9.238-3.926,12.637,12.637,0,0,0,3.927-9.47,13.555,13.555,0,0,0-3.7-9.47,13.383,13.383,0,0,0-18.939,0,13.064,13.064,0,0,0-3.7,9.47A12.641,12.641,0,0,0,452.037,379.017Z"/><path class="cls-3" d="M483.564,386.062V353.033h6.814c5.312,0,9.816,1.386,13.281,4.273,3.464,2.771,5.312,6.813,5.312,12.126,0,5.428-1.732,9.585-5.2,12.357-3.464,2.887-7.968,4.273-13.512,4.273Zm4.158-29.334v25.523h1.5a23.829,23.829,0,0,0,6-.693,17.345,17.345,0,0,0,4.966-2.079,9.18,9.18,0,0,0,3.465-4.042,13.94,13.94,0,0,0,1.27-6,13.575,13.575,0,0,0-1.27-6.006,8.87,8.87,0,0,0-3.465-3.926,17.345,17.345,0,0,0-4.966-2.079,24.484,24.484,0,0,0-6-.693Z"/><path class="cls-3" d="M518.441,353.033v33.029h-4.158V353.033Z"/><path class="cls-3" d="M525.832,386.062V353.033h17.785v3.811H529.989v9.239H543.27v3.811H529.989v12.472h13.628v3.811H525.832Z"/></g></svg>