<svg viewBox="0 0 600 400" xmlns="http://www.w3.org/2000/svg"><path d="m48.9725 159.1078-21.472-22.642v22.005h-5.847v-34.7608l.957-.212 21.153 22.323v-21.579h5.847v34.76z"/><path d="m64.28 158.4708v-34.228h20.941v5.315h-15.0945v8.929h13.606v5.103h-13.606v9.461h15.095v5.314h-20.9415z"/><path d="m98.9335 158.4708v-34.228h5.847v34.335h-5.847z"/><path d="m146.9815 140.3988v14.988a22.5668 22.5668 0 0 1 -12.756 3.721c-9.78 0-18.178-7.122-18.178-17.646 0-10.629 8.61-17.752 18.178-17.752a21.7576 21.7576 0 0 1 12.118 3.508l-2.658 4.678a17.2235 17.2235 0 0 0 -9.248-2.87c-7.76 0-12.225 5.528-12.225 12.331 0 7.334 5.422 12.543 12.118 12.543a13.563 13.563 0 0 0 6.91-1.594v-6.697h-7.973v-5.103h13.713v-.107z"/><path d="m182.4855 158.4708v-14.669h-15.732v14.775h-5.847v-34.335h5.847v14.35h15.732v-14.35h5.847v34.335h-5.847z"/><path d="m212.25 158.79a91.8783 91.8783 0 0 1 -9.248-.639v-33.59a58.2926 58.2926 0 0 1 8.823-.639c9.035 0 13.5 4.358 13.5 8.93 0 3.613-1.701 6.272-5.953 7.76 4.996 1.382 6.91 4.465 6.91 8.185-.1065 5.2088-4.8905 9.993-14.032 9.993zm.532-29.765a23.0365 23.0365 0 0 0 -4.04.319v9.461a32.5247 32.5247 0 0 0 3.508.105c4.996 0 7.017-2.232 7.017-5.102-.107-2.7632-2.127-4.7832-6.4855-4.7832zm-.532 14.032a34.6312 34.6312 0 0 0 -3.508.105v10.311c1.17.106 2.552.212 4.145.212 4.678 0 7.017-2.232 7.017-5.421-.0005-2.8692-2.5525-5.2072-7.654-5.2072z"/><path d="m253.3885 159.1078c-9.886 0-17.221-7.547-17.221-17.646 0-10.204 7.547-17.752 17.539-17.752 9.886 0 17.221 7.548 17.221 17.752a17.2512 17.2512 0 0 1 -17.539 17.646zm.211-30.189c-6.59 0-11.055 5.315-11.055 12.438s4.571 12.5432 11.0555 12.5432 11.056-5.421 11.056-12.543-4.5715-12.4382-11.056-12.4382z"/><path d="m296.0135 159.1078c-8.61 0-13.606-4.783-13.606-13.713v-21.153h5.847v20.7282c0 5.847 2.87 8.823 7.866 8.823 4.89 0 7.866-2.977 7.866-8.823v-20.728h5.847v21.153c0 8.7168-5.422 13.7128-13.82 13.7128z"/><path d="m342.7855 158.4708-7.44-12.331h-1.808c-1.169 0-2.338 0-3.401-.106v12.438h-5.953v-33.909a75.2174 75.2174 0 0 1 9.036-.532c9.779 0 14.031 4.677 14.031 10.843a10.4231 10.4231 0 0 1 -6.696 9.886l8.929 13.819h-6.697v-.108zm-8.822-29.233a15.54 15.54 0 0 0 -3.934.319v11.692c1.063.106 2.232.212 3.402.212 5.102 0 7.653-2.338 7.653-6.272.001-3.612-2.656-5.951-7.121-5.951z"/><path d="m382.4355 158.4708v-14.669h-15.732v14.775h-5.847v-34.335h5.847v14.35h15.732v-14.35h5.847v34.335h-5.847z"/><path d="m417.8335 159.1078c-9.886 0-17.221-7.547-17.221-17.646 0-10.204 7.548-17.752 17.54-17.752 9.886 0 17.221 7.548 17.221 17.752a17.2509 17.2509 0 0 1 -17.54 17.646zm.213-30.189c-6.591 0-11.055 5.315-11.055 12.438s4.57 12.543 11.055 12.543 11.056-5.421 11.056-12.543-4.572-12.438-11.056-12.438z"/><path d="m463.2235 159.1078c-9.886 0-17.221-7.547-17.221-17.646 0-10.204 7.547-17.752 17.539-17.752 9.887 0 17.221 7.548 17.221 17.752a17.1865 17.1865 0 0 1 -17.539 17.646zm.213-30.189c-6.591 0-11.056 5.315-11.056 12.438s4.571 12.543 11.056 12.543 11.055-5.421 11.055-12.543-4.57-12.438-11.055-12.438z"/><path d="m503.7235 158.79c-3.721 0-6.378-.213-9.886-.532v-33.696a71.037 71.037 0 0 1 9.567-.532c13.607 0 20.303 7.76 20.303 17.114.001 9.566-6.377 17.646-19.984 17.646zm.426-29.658a25.3834 25.3834 0 0 0 -4.358.318v23.918a30.3479 30.3479 0 0 0 4.89.318c8.822 0 12.756-5.314 12.756-12.543s-4.572-12.0112-13.2875-12.0112z"/><path d="m536.89 158.4708v-34.228h5.847v34.335h-5.847z"/><path d="m557.4055 158.4708v-34.228h20.941v5.315h-15.095v8.929h13.607v5.103h-13.607v9.461h15.095v5.314h-20.941z"/><path d="m294.8455 227.14a19.5 19.5 0 0 1 -10.736-3.401l2.02-5.209a16.3281 16.3281 0 0 0 8.929 3.188c3.614 0 5.209-2.1261 5.209-4.464s-1.064-3.934-6.484-6.166c-5.953-2.551-8.185-5.634-8.185-9.779 0-4.996 4.146-9.567 11.268-9.567a17.1633 17.1633 0 0 1 8.61 2.445l-1.914 5.103a13.2372 13.2372 0 0 0 -6.909-2.445c-3.614 0-5.315 1.914-5.315 4.252s1.701 3.614 5.953 5.527c6.804 2.977 8.717 5.74 8.717 10.205.2115 5.5268-4.041 10.311-11.163 10.311z"/><path d="m333.8565 227.14c-9.886 0-17.221-7.548-17.221-17.646 0-10.204 7.547-17.752 17.539-17.752 9.887 0 17.221 7.548 17.221 17.752-.105 10.0988-7.653 17.646-17.539 17.646zm.107-30.189c-6.591 0-11.056 5.315-11.056 12.438s4.571 12.543 11.056 12.543 11.055-5.421 11.055-12.543-4.571-12.4382-11.055-12.4382z"/><path d="m369.7865 197.5888v9.992h13.287v5.209h-13.287v13.713h-5.8465v-34.228h20.941v5.314z"/><path d="m410.1805 197.5888v28.914h-5.847v-28.914h-10.948v-5.314h27.638v5.314z"/><path d="m463.4365 227.14-.957.106-10.63-23.812-10.523 23.812-.85-.106-11.056-34.866h6.484l6.165 21.578 9.567-21.897h.638l9.567 21.792 6.059-21.473h6.3779z"/><path d="m504.5745 226.5028-3.295-7.866h-13.6059l-3.296 7.866h-6.059l15.839-34.761h.85l15.732 34.761zm-10.099-23.918-4.89 11.48h9.779z"/><path d="m539.7605 226.5028-7.441-12.331h-1.807c-1.17 0-2.339 0-3.402-.107v12.438h-5.846v-33.91a75.41 75.41 0 0 1 9.035-.531c9.779 0 14.031 4.677 14.031 10.843a10.4241 10.4241 0 0 1 -6.696 9.886l8.929 13.8179h-6.8029v-.1059zm-8.824-29.233a15.5757 15.5757 0 0 0 -3.933.318v11.693c1.0621.106 2.2311.212 3.401.212 5.1031 0 7.6531-2.338 7.6531-6.272.0009-3.613-2.5491-5.9508-7.1211-5.9508z"/><path d="m557.4055 226.5028v-34.228h20.941v5.314h-15.095v8.93h13.607v5.102h-13.607v9.461h15.095v5.315h-20.941z"/><g fill="#231f20"><path d="m31.1932 267.6081h6.2113v.6233a7.5476 7.5476 0 0 1 -2.0773 5.4323 7.0627 7.0627 0 0 1 -5.339 2.1707 7.4757 7.4757 0 0 1 -5.588-2.42 8.2012 8.2012 0 0 1 .0517-11.4986 7.7766 7.7766 0 0 1 5.7442-2.4095 8.1974 8.1974 0 0 1 3.5416.8 7.8761 7.8761 0 0 1 2.8356 2.233l-1.3709 1.3085a6.2579 6.2579 0 0 0 -2.1814-1.8587 5.8429 5.8429 0 0 0 -2.7422-.6964 5.97 5.97 0 0 0 -4.4352 1.8593 6.1992 6.1992 0 0 0 -1.8177 4.4976 6.3725 6.3725 0 0 0 1.7969 4.456 5.6462 5.6462 0 0 0 4.29 1.9425 5.186 5.186 0 0 0 3.4691-1.3922 4.4161 4.4161 0 0 0 1.662-3.2611h-4.0507z"/><path d="m45.3818 268.6884 4.9439 6.8138h-2.368l-4.6117-6.6267h-.81v6.6267h-1.953v-15.6634h2.3684q.8925 0 1.4435.0314a8.9424 8.9424 0 0 1 1.33.1973 4.7193 4.7193 0 0 1 1.3607.4985 3.9911 3.9911 0 0 1 1.5058 1.5789 4.4788 4.4788 0 0 1 .5508 2.1605 4.4217 4.4217 0 0 1 -1.0387 2.9391 4.0722 4.0722 0 0 1 -2.7217 1.4439zm-2.8462-7.1045v5.6712h.6233a9.6676 9.6676 0 0 0 1.5063-.104 5.32 5.32 0 0 0 1.2983-.3844 2.0979 2.0979 0 0 0 .9971-.8825 2.9167 2.9167 0 0 0 .353-1.4961q0-2.8043-4.2587-2.8042z"/><path d="m53.1091 275.5022v-15.6634h8.4134v1.7867h-6.4608v4.383h6.2737v1.7868h-6.2737v5.92h6.4608v1.7867z"/><path d="m65.1787 275.5022v-15.6634h8.4135v1.7867h-6.4609v4.383h6.2737v1.7868h-6.2737v5.92h6.4609v1.7867z"/><path d="m77.0607 275.5022v-16.411l11.7582 12.3188v-11.5712h1.9526v16.3075l-11.7577-12.3192v11.6751z"/><path d="m96.7541 266.6318 6.648-6.793h2.5551l-7.0425 7.0425 7.1668 8.6209h-2.6383l-5.8994-7.2916-.79.7481v6.5435h-1.9523v-15.6634h1.9526z"/><path d="m108.5124 275.5022v-15.6634h8.4134v1.7867h-6.4608v4.383h6.2737v1.7868h-6.2737v5.92h6.4608v1.7867z"/><path d="m120.5815 275.5022v-15.6634h8.4135v1.7867h-6.4609v4.383h6.2737v1.7868h-6.2737v5.92h6.4609v1.7867z"/><path d="m134.6038 268.9379v6.5643h-1.9526v-15.6634h2.2437q3.4691 0 4.8921 1.132a4.0791 4.0791 0 0 1 1.4232 3.3965 3.9971 3.9971 0 0 1 -1.5271 3.4487 6.5205 6.5205 0 0 1 -3.9575 1.1219zm0-7.354v5.6088h.6233a9.6809 9.6809 0 0 0 1.5063-.1039 5.3251 5.3251 0 0 0 1.2983-.3845 2.0982 2.0982 0 0 0 .9971-.8824 2.9167 2.9167 0 0 0 .353-1.4957 2.6418 2.6418 0 0 0 -.3738-1.4546 2.1128 2.1128 0 0 0 -1.0594-.8414 6.3325 6.3325 0 0 0 -1.33-.3529 10.5189 10.5189 0 0 0 -1.4957-.0934z"/><path d="m144.18 275.5022v-15.6634h8.4134v1.7867h-6.4608v4.383h6.2737v1.7868h-6.2737v5.92h6.4608v1.7867z"/><path d="m161.0487 268.6884 4.9439 6.8138h-2.368l-4.6117-6.6267h-.81v6.6267h-1.9529v-15.6634h2.3685q.8923 0 1.4434.0314a8.9386 8.9386 0 0 1 1.33.1973 4.7182 4.7182 0 0 1 1.3607.4985 3.9911 3.9911 0 0 1 1.5058 1.5789 4.4788 4.4788 0 0 1 .5508 2.1605 4.4217 4.4217 0 0 1 -1.0387 2.9391 4.0722 4.0722 0 0 1 -2.7218 1.4439zm-2.8463-7.1045v5.6712h.6233a9.6658 9.6658 0 0 0 1.5063-.104 5.3211 5.3211 0 0 0 1.2984-.3844 2.0988 2.0988 0 0 0 .9971-.8825 2.9177 2.9177 0 0 0 .353-1.4961q0-2.8043-4.2587-2.8042z"/><path d="m181.3441 258.4708v18.0314h-1.7868v-18.0314z"/><path d="m207.7677 260.566v2.264a6.0022 6.0022 0 0 0 -4.134-1.5373 5.8449 5.8449 0 0 0 -4.3936 1.88 6.5548 6.5548 0 0 0 -.0208 8.9952 5.7776 5.7776 0 0 0 4.3729 1.88 6.0677 6.0677 0 0 0 4.1755-1.62v2.3056a8.2446 8.2446 0 0 1 -9.8777-1.2461 7.715 7.715 0 0 1 -2.3994-5.7335 7.8975 7.8975 0 0 1 2.43-5.8584 8.1042 8.1042 0 0 1 5.9-2.3887 7.3857 7.3857 0 0 1 3.9471 1.0592z"/><path d="m212.66 261.906a8.1749 8.1749 0 0 1 11.5711 0 8.1741 8.1741 0 0 1 .0309 11.5812 8.38 8.38 0 0 1 -11.633 0 8.1739 8.1739 0 0 1 .031-11.5812zm1.3815 10.2621a6.194 6.194 0 0 0 8.808 0 6.1 6.1 0 0 0 1.8487-4.4976 6.238 6.238 0 0 0 -1.7762-4.487 6.3431 6.3431 0 0 0 -8.953 0 6.2384 6.2384 0 0 0 -1.7767 4.487 6.0987 6.0987 0 0 0 1.8491 4.4976z"/><path d="m229.5177 259.8388h1.9523v9.2442q0 4.9236 3.781 4.9236t3.78-4.9236v-9.2442h1.9531v9.9091a6.2766 6.2766 0 0 1 -1.5479 4.3728 5.9691 5.9691 0 0 1 -8.3718 0 6.2762 6.2762 0 0 1 -1.5474-4.3728z"/><path d="m256.3359 260.566v2.264a6.0022 6.0022 0 0 0 -4.134-1.5373 5.8446 5.8446 0 0 0 -4.3936 1.88 6.5548 6.5548 0 0 0 -.0208 8.9952 5.7773 5.7773 0 0 0 4.3728 1.88 6.068 6.068 0 0 0 4.1756-1.62v2.3056a8.2446 8.2446 0 0 1 -9.8777-1.2461 7.715 7.715 0 0 1 -2.3994-5.7335 7.8974 7.8974 0 0 1 2.43-5.8584 8.1046 8.1046 0 0 1 5.9-2.3887 7.3857 7.3857 0 0 1 3.9471 1.0592z"/><path d="m261.6956 266.154h7.4575v-6.3152h1.9531v15.6634h-1.9531v-7.52h-7.4575v7.52h-1.9531v-15.6634h1.9531z"/><path d="m275.0109 275.5022v-15.6634h3.2408a9.7252 9.7252 0 0 1 6.2945 2.0048 6.9423 6.9423 0 0 1 2.4928 5.7437 7.18 7.18 0 0 1 -2.472 5.8791 9.7042 9.7042 0 0 1 -6.3777 2.0358zm1.9531-13.8767v12.09h.6852a12.2016 12.2016 0 0 0 2.867-.3114 7.4373 7.4373 0 0 0 2.3371-.9971 4.66 4.66 0 0 0 1.6412-1.89 7.189 7.189 0 0 0 0-5.7127 4.5539 4.5539 0 0 0 -1.6519-1.88 7.7227 7.7227 0 0 0 -2.337-.987 12.09 12.09 0 0 0 -2.8564-.3114z"/><path d="m290.0718 275.5022v-15.6634h1.9116a11.3046 11.3046 0 0 1 2.16.1871 6.4559 6.4559 0 0 1 1.7964.6335 3.1181 3.1181 0 0 1 1.31 1.33 4.5481 4.5481 0 0 1 .4666 2.15 3.7123 3.7123 0 0 1 -.4564 1.7553 2.6389 2.6389 0 0 1 -1.2264 1.2152v.0415a3.5939 3.5939 0 0 1 2.2437 1.4024 4.0877 4.0877 0 0 1 .8937 2.5652 3.734 3.734 0 0 1 -1.5793 3.2931 6.6325 6.6325 0 0 1 -3.8637 1.09zm1.9531-13.9183v5.1935h.4986a4.76 4.76 0 0 0 2.4927-.54 2.2507 2.2507 0 0 0 .8724-2.0773 2.2105 2.2105 0 0 0 -.8622-2.0465 4.7274 4.7274 0 0 0 -2.4613-.5295zm0 6.7515v5.4216h1.4957q3.6964 0 3.6978-2.7625a2.377 2.377 0 0 0 -.3642-1.34 2.2093 2.2093 0 0 0 -.9859-.8206 5.6867 5.6867 0 0 0 -1.2683-.3839 7.85 7.85 0 0 0 -1.3709-.1141z"/><path d="m318.3649 261.8745-1.5581.9348a2.7634 2.7634 0 0 0 -2.5135-1.4749 2.8876 2.8876 0 0 0 -1.806.6233 1.9309 1.9309 0 0 0 -.81 1.6q0 1.4127 2.18 2.2438l1.1219.4361a7.6816 7.6816 0 0 1 2.8777 1.8071 4.0959 4.0959 0 0 1 1.0072 2.9086 4.6406 4.6406 0 0 1 -1.4434 3.5 4.9577 4.9577 0 0 1 -3.5634 1.381 4.6331 4.6331 0 0 1 -3.24-1.236 5.002 5.002 0 0 1 -1.6-3.147l1.9739-.4153a2.7538 2.7538 0 0 0 .8622 2.1189 3.0029 3.0029 0 0 0 2.17.8516 2.6746 2.6746 0 0 0 2.0672-.9038 3.0919 3.0919 0 0 0 .8206-2.15 2.3119 2.3119 0 0 0 -.7171-1.7969 6.7023 6.7023 0 0 0 -1.9841-1.1741l-1.08-.457a8.0058 8.0058 0 0 1 -2.5018-1.5788 3.2061 3.2061 0 0 1 -.9038-2.3888 3.596 3.596 0 0 1 1.37-2.94 4.989 4.989 0 0 1 3.24-1.1112 4.3344 4.3344 0 0 1 4.0305 2.3686z"/><path d="m322.25 275.5022v-15.6634h8.4129v1.7867h-6.46v4.383h6.2737v1.7868h-6.2737v5.92h6.46v1.7867z"/><path d="m339.1173 268.6884 4.9449 6.8138h-2.3685l-4.6122-6.6267h-.81v6.6267h-1.9526v-15.6634h2.3675q.8931 0 1.4444.0314a8.9371 8.9371 0 0 1 1.3288.1973 4.7288 4.7288 0 0 1 1.3613.4985 3.988 3.988 0 0 1 1.5062 1.5789 4.4834 4.4834 0 0 1 .55 2.1605 4.4191 4.4191 0 0 1 -1.0387 2.9391 4.0722 4.0722 0 0 1 -2.7211 1.4439zm-2.8453-7.1045v5.6712h.6228a9.6658 9.6658 0 0 0 1.5063-.104 5.3146 5.3146 0 0 0 1.2984-.3844 2.0956 2.0956 0 0 0 .9971-.8825 2.9177 2.9177 0 0 0 .353-1.4961q0-2.8043-4.2582-2.8042z"/><path d="m347.3446 259.8388 4.6741 11.5918 4.6538-11.5918h2.1392l-6.793 16.4942-6.8134-16.4942z"/><path d="m363.2779 259.8388v15.6634h-1.9527v-15.6634z"/><path d="m378.8581 260.566v2.264a6.0005 6.0005 0 0 0 -4.1334-1.5373 5.8456 5.8456 0 0 0 -4.3941 1.88 6.5554 6.5554 0 0 0 -.02 8.9952 5.7765 5.7765 0 0 0 4.3728 1.88 6.0672 6.0672 0 0 0 4.175-1.62v2.3056a8.2444 8.2444 0 0 1 -9.8776-1.2461 7.7156 7.7156 0 0 1 -2.4-5.7335 7.8965 7.8965 0 0 1 2.4314-5.8584 8.1031 8.1031 0 0 1 5.8994-2.3887 7.3827 7.3827 0 0 1 3.9465 1.0592z"/><path d="m382.4306 275.5022v-15.6634h8.413v1.7867h-6.46v4.383h6.2737v1.7868h-6.2737v5.92h6.46v1.7867z"/><path d="m403.0167 261.8745-1.558.9348a2.7636 2.7636 0 0 0 -2.5136-1.4749 2.89 2.89 0 0 0 -1.8065.6233 1.9309 1.9309 0 0 0 -.81 1.6q0 1.4127 2.1809 2.2438l1.1218.4361a7.6808 7.6808 0 0 1 2.8777 1.8071 4.096 4.096 0 0 1 1.0073 2.9086 4.6406 4.6406 0 0 1 -1.4435 3.5 4.9576 4.9576 0 0 1 -3.5633 1.381 4.6338 4.6338 0 0 1 -3.2409-1.236 5.0024 5.0024 0 0 1 -1.6-3.147l1.9739-.4153a2.7538 2.7538 0 0 0 .8622 2.1189 3.0042 3.0042 0 0 0 2.1707.8516 2.6744 2.6744 0 0 0 2.0672-.9038 3.0915 3.0915 0 0 0 .8206-2.15 2.3116 2.3116 0 0 0 -.7171-1.7969 6.7016 6.7016 0 0 0 -1.984-1.1741l-1.08-.457a8.0022 8.0022 0 0 1 -2.5024-1.5788 3.2065 3.2065 0 0 1 -.9038-2.3888 3.5962 3.5962 0 0 1 1.37-2.94 4.99 4.99 0 0 1 3.2408-1.1112 4.3342 4.3342 0 0 1 4.03 2.3686z"/><path d="m419.4693 258.4708v18.0314h-1.7862v-18.0314z"/><path d="m435.8063 261.906a8.1743 8.1743 0 0 1 11.5706 0 8.1747 8.1747 0 0 1 .0314 11.5812 8.381 8.381 0 0 1 -11.6335 0 8.1748 8.1748 0 0 1 .0315-11.5812zm1.3815 10.2621a6.1934 6.1934 0 0 0 8.8075 0 6.0964 6.0964 0 0 0 1.8492-4.4976 6.2363 6.2363 0 0 0 -1.7761-4.487 6.3439 6.3439 0 0 0 -8.9536 0 6.24 6.24 0 0 0 -1.7761 4.487 6.1006 6.1006 0 0 0 1.8491 4.4976z"/><path d="m460.4954 261.6255h-5.63v4.4038h5.4429v1.7867h-5.4429v7.6862h-1.9526v-15.6634h7.5822z"/><path d="m471.5892 261.6255h-5.63v4.4038h5.443v1.7867h-5.4422v7.6862h-1.953v-15.6634h7.5822z"/><path d="m477.0748 259.8388v13.8767h4.7572v1.7867h-6.71v-15.6634z"/><path d="m486.2566 259.8388v15.6634h-1.9526v-15.6634z"/><path d="m490.244 275.5022v-16.411l11.7582 12.3188v-11.5712h1.9526v16.3075l-11.7582-12.3192v11.6751z"/><path d="m507.9858 275.5022v-15.6634h8.4129v1.7867h-6.46v4.383h6.2737v1.7868h-6.2737v5.92h6.46v1.7867z"/><path d="m534.8658 261.6255h-5.63v4.4038h5.443v1.7867h-5.443v7.6862h-1.9526v-15.6634h7.5822z"/><path d="m540.2875 259.8388v15.6634h-1.9526v-15.6634z"/><path d="m549.26 268.6884 4.945 6.8138h-2.3685l-4.6122-6.6267h-.8095v6.6267h-1.9526v-15.6634h2.3678q.8931 0 1.4444.0314a8.9371 8.9371 0 0 1 1.3288.1973 4.7282 4.7282 0 0 1 1.3612.4985 3.9889 3.9889 0 0 1 1.5063 1.5789 4.4834 4.4834 0 0 1 .55 2.1605 4.4191 4.4191 0 0 1 -1.0387 2.9391 4.0722 4.0722 0 0 1 -2.722 1.4439zm-2.8452-7.1045v5.6712h.6228a9.6658 9.6658 0 0 0 1.5063-.104 5.3146 5.3146 0 0 0 1.2984-.3844 2.0961 2.0961 0 0 0 .9971-.8825 2.9177 2.9177 0 0 0 .353-1.4961q0-2.8043-4.2582-2.8042z"/><path d="m565.506 261.8745-1.558.9348a2.7635 2.7635 0 0 0 -2.5135-1.4749 2.89 2.89 0 0 0 -1.8066.6233 1.931 1.931 0 0 0 -.81 1.6q0 1.4127 2.1808 2.2438l1.1219.4361a7.6824 7.6824 0 0 1 2.8777 1.8071 4.0964 4.0964 0 0 1 1.0072 2.9086 4.6406 4.6406 0 0 1 -1.4434 3.5 4.9577 4.9577 0 0 1 -3.5634 1.381 4.6334 4.6334 0 0 1 -3.2408-1.236 5.002 5.002 0 0 1 -1.6-3.147l1.9739-.4153a2.7534 2.7534 0 0 0 .8622 2.1189 3.0041 3.0041 0 0 0 2.1707.8516 2.6747 2.6747 0 0 0 2.0672-.9038 3.0919 3.0919 0 0 0 .8206-2.15 2.3116 2.3116 0 0 0 -.7172-1.7969 6.7016 6.7016 0 0 0 -1.984-1.1741l-1.08-.457a8.0022 8.0022 0 0 1 -2.5024-1.5788 3.2064 3.2064 0 0 1 -.9037-2.3888 3.5962 3.5962 0 0 1 1.37-2.94 4.9906 4.9906 0 0 1 3.2409-1.1112 4.3341 4.3341 0 0 1 4.0299 2.3686z"/><path d="m573.6086 261.6255v13.8767h-1.9526v-13.8767h-3.7186v-1.7867h9.39v1.7867z"/></g></svg>