<svg id="Ebene_1" data-name="Ebene 1" xmlns="http://www.w3.org/2000/svg" viewBox="0 0 600 400"><defs><style>.cls-1{fill:#235e5f;}.cls-2{fill:#f8a20e;}.cls-3{fill:#91d122;}.cls-4{fill:#359a89;}.cls-5{fill:#823ca2;}.cls-6{fill:#f14a98;}.cls-7{fill:#cf3a22;}.cls-8{fill:#f57c20;}.cls-9{fill:#fad519;}.cls-10{fill:#ceb914;}.cls-11{fill:#97d121;}.cls-12{fill:#68aa31;}.cls-13{fill:#91c523;}.cls-14{fill:#69b135;}.cls-15{fill:#f9d714;}.cls-16{fill:#f9a614;}.cls-17{fill:#d2691c;}.cls-18{fill:#f9a60f;}.cls-19{fill:#f1489b;}.cls-20{fill:#ee2568;}.cls-21{fill:#d71b43;}.cls-22{fill:#ba1939;}.cls-23{fill:#ee2569;}.cls-24{fill:#f24ea1;}.cls-25{fill:#d81c44;}.cls-26{fill:#81329c;}.cls-27{fill:#933ca3;}.cls-28{fill:#3ea9b4;}.cls-29{fill:#3f4ba7;}.cls-30{fill:#243064;}.cls-31{fill:#d42725;}.cls-32{fill:#f57f16;}.cls-33{fill:#f5f016;}.cls-34{fill:#83cd2a;}.cls-35{fill:#7992d2;}.cls-36{fill:#3943a1;}.cls-37{fill:#b73ea6;}</style></defs><title>neonious</title><g id="g3981"><path id="path12" class="cls-1" d="M343.176,262H277.71V217.535h65.466Z"/><path id="path14" class="cls-2" d="M307.926,40.862h8.115V81.1h-8.115Z"/><g id="g16"><path id="path18" class="cls-3" d="M412.836,83.92l5.028,6.369-31.582,24.932-5.028-6.369Z"/></g><g id="g20"><path id="path22" class="cls-4" d="M436.121,197.856l-.092,8.115-40.234-.456.092-8.115Z"/></g><g id="g24"><path id="path26" class="cls-5" d="M228.422,197.415l.085,8.115-40.234.426-.087-8.115Z"/></g><g id="g28"><path id="path30" class="cls-6" d="M243.967,110.376l-5.205,6.227-30.87-25.809,5.205-6.226Z"/></g><g id="g32"><path id="path34" class="cls-7" d="M302.136,139.427l6.085,48.564,27.643-25.613Z"/></g><g id="g36"><path id="path38" class="cls-8" d="M332.952,113.388l2.911,48.99-33.728-22.951Z"/></g><g id="g40"><path id="path42" class="cls-9" d="M347.529,190.02l-39.307-2.029,27.642-25.613Z"/></g><g id="g44"><path id="path46" class="cls-10" d="M373.841,160.679l-37.978,1.7,11.666,27.642Z"/></g><g id="g48"><path id="path50" class="cls-11" d="M346.373,230.2l1.156-40.18-39.307-2.029Z"/></g><g id="g52"><path id="path54" class="cls-12" d="M357.586,217.693,347.529,190.02l-1.156,40.18Z"/></g><g id="g56"><path id="path58" class="cls-13" d="M370.044,196.665l-12.458,21.027L347.529,190.02Z"/></g><g id="g60"><path id="path62" class="cls-14" d="M373.841,160.679l-3.8,35.986-22.515-6.645Z"/></g><g id="g64"><path id="path66" class="cls-15" d="M335.864,162.378l29.072-24.495,8.905,22.8Z"/></g><g id="g68"><path id="path70" class="cls-16" d="M351.988,123.9l-16.125,38.481,29.072-24.494Z"/></g><g id="g72"><path id="path74" class="cls-17" d="M332.952,113.388,351.989,123.9l-16.126,38.481Z"/></g><g id="g76"><path id="path78" class="cls-18" d="M304.925,108.963l28.027,4.424-30.817,26.04Z"/></g><g id="g80"><path id="path82" class="cls-19" d="M276.334,120.2l28.591-11.234-2.789,30.464Z"/></g><g id="g84"><path id="path86" class="cls-20" d="M255.821,144.673,276.334,120.2l25.8,19.23Z"/></g><g id="g88"><path id="path90" class="cls-21" d="M264.223,168.845l-11.17-17.883,2.769-6.289,46.313-5.246Z"/></g><g id="g92"><path id="path94" class="cls-22" d="M308.222,187.991l-44-19.146,37.913-29.417Z"/></g><g id="g96"><path id="path98" class="cls-23" d="M264.223,168.845,248.654,176.2l4.4-25.237Z"/></g><g id="g100"><path id="path102" class="cls-24" d="M257.917,206.5l-9.262-30.3,15.568-7.354Z"/></g><g id="g104"><path id="path106" class="cls-25" d="M294.908,208.152l13.313-20.161-44-19.147Z"/></g><g id="g108"><path id="path110" class="cls-23" d="M260.753,211.35l-2.837-4.851,6.307-37.655,30.685,39.308Z"/></g><g id="g112"><path id="path114" class="cls-26" d="M304.037,236.555l-9.129-28.4,13.314-20.16,21.947,24.281Z"/></g><g id="g116"><path id="path118" class="cls-27" d="M277.259,233.516l27.412,3.039-9.763-28.4Z"/></g><g id="g120"><path id="path122" class="cls-26" d="M260.753,211.35l34.155-3.2-17.65,25.364Z"/></g><g id="g124"><path id="path126" class="cls-28" d="M346.373,230.2l-16.2-17.927-25.8,24.094-.2.188.632-.028,36.544-1.607Z"/></g><path id="path128" class="cls-1" d="M340.018,274.4h-58.1v-7.1h58.1Z"/><path id="path130" class="cls-1" d="M337.036,287.19H284.9v-7.777h52.134Z"/><g id="g132"><path id="path134" class="cls-29" d="M310.443,236.279l-6.279.276-26.906-3.04,33.185,26.456Z"/></g><g id="g136"><path id="path138" class="cls-30" d="M341.341,234.919l-30.9,25.052V236.279Z"/></g><g id="g140"><path id="path142" class="cls-31" d="M166.668,314.429h8.207v43.589h-5.1v.062l-22.882-29.411v29.349h-8.207V314.492h6.652l21.329,26.986Z"/></g><g id="g144"><path id="path146" class="cls-32" d="M214.853,358.018H182.27V314.491h32.583v7.96H190.415v10.011h23.566v7.648H190.415v9.825h24.438Z"/></g><g id="g148"><g id="g150"><g id="g156"><path id="path158" class="cls-33" d="M227.346,336.69c.188,7.151,4.043,14.8,14.3,14.8s14.115-7.709,14.239-14.861c.124-7.337-3.979-15.546-14.239-15.546s-14.486,8.271-14.3,15.608m36.623-.186c-.124,11.254-7.026,22.508-22.321,22.508s-22.385-11-22.385-22.446,7.339-22.945,22.385-22.945c14.986,0,22.447,11.5,22.321,22.883"/></g><g id="g160"><path id="path162" class="cls-34" d="M298.6,314.429h8.207v43.589h-5.1v.062l-22.881-29.411v29.349H270.62V314.492h6.654L298.6,341.478Z"/></g><path id="path164" class="cls-1" d="M314.392,314.492h8.144v43.527h-8.144Z"/><g id="g166"><path id="path168" class="cls-35" d="M337.707,336.69c.187,7.151,4.042,14.8,14.3,14.8s14.115-7.709,14.239-14.861c.124-7.337-3.979-15.546-14.239-15.546s-14.486,8.271-14.3,15.608m36.623-.186c-.124,11.254-7.027,22.508-22.322,22.508s-22.384-11-22.384-22.446,7.338-22.945,22.384-22.945c14.987,0,22.447,11.5,22.322,22.883"/></g><g id="g170"><path id="path172" class="cls-36" d="M418.536,314.553v24.935c0,12.871-7.9,19.462-18.839,19.462-10.447,0-19.338-6.342-19.338-19.462V314.553H388.5v24.935c0,7.835,4.479,12,11.255,12s10.633-4.539,10.633-12V314.553Z"/></g><g id="g174"><path id="path176" class="cls-37" d="M453.414,325c-1.492-2.488-5.6-4.85-10.32-4.85-6.095,0-9.017,2.55-9.017,5.783,0,3.792,4.478,4.85,9.7,5.472,9.076,1.12,17.535,3.482,17.535,13.866,0,9.7-8.583,13.867-18.282,13.867-8.891,0-15.731-2.736-18.965-10.695l6.839-3.545c1.928,4.788,6.966,6.9,12.25,6.9,5.16,0,10.011-1.8,10.011-6.529,0-4.1-4.291-5.783-10.072-6.4-8.893-1.058-17.1-3.42-17.1-13.183,0-8.954,8.83-12.623,16.849-12.684,6.779,0,13.806,1.927,17.1,8.643Z"/></g><path id="path178" class="cls-34" d="M306.807,289.187H298.6v27.836h8.207Z"/><path id="path180" class="cls-1" d="M322.568,289.311h-8.207v27.836h8.207Z"/></g></g></g></svg>