<svg viewBox="0 0 600 400" xmlns="http://www.w3.org/2000/svg"><path d="m124.1136 150.6528h11.0406v8.9548h.2451c2.8215-6.1337 10.1817-10.4273 19.1365-10.4273 11.2857 0 21.0994 6.747 21.0994 22.2037v37.4143h-11.04v-34.3477c0-10.9175-6.2564-14.9655-13.2489-14.9655-9.2 0-16.192 5.8882-16.192 19.3812v29.932h-11.0407z" fill="#4d4d4f"/><path d="m192.6366 183.774c0 10.1813 9.4456 16.9283 19.6273 16.9283 6.747 0 11.6538-3.4353 15.9474-8.71l8.3411 6.3784c-6.1333 7.9735-14.5974 11.8989-25.7605 11.8989-18.4008 0-29.9316-13.2479-29.9316-30.5448 0-17.4189 12.6352-30.5448 30.0541-30.5448 20.4861 0 28.337 15.7019 28.337 30.6683v3.9254zm34.8384-8.8332c-.245-9.6906-5.6431-16.9282-16.8057-16.9282-10.9175 0-18.0327 9.2009-18.0327 16.9282z" fill="#4d4d4f"/><path d="m260.424 177.7623-20.6087-27.1095h14.2293l14.1072 20.6086 13.8621-20.6086h13.3705l-19.8724 27.1095 23.5527 31.036h-14.23l-17.1738-24.4114-17.1739 24.4114h-13.6158z" fill="#4d4d4f"/><path d="m302.006 150.6528h10.3048v9.0772h.2452c1.1048-3.4347 8.2185-10.55 18.6458-10.55 8.5872 0 14.4753 3.68 18.1557 10.795a21.0113 21.0113 0 0 1 18.4008-10.795c17.91 0 22.08 12.7577 22.08 25.7605v33.8575h-11.04v-32.3846c0-8.8323-1.84-16.9283-12.5126-16.9283s-14.843 7.2372-14.843 17.542v31.7712h-11.041v-30.4223c0-11.04-1.5941-18.8909-12.2665-18.8909-7.9735 0-15.0881 6.0107-15.0881 19.1361v30.1771h-11.0411z" fill="#4d4d4f"/><circle cx="428.4893" cy="179.0652" fill="#2574bb" r="7.0857"/><path d="m428.2353 159.49a20.2751 20.2751 0 0 1 19.93 16.6123h-3.8937l9.4735 9.3148 9.5016-9.3148h-4.75a30.4919 30.4919 0 0 0 -58.3778-8.1474l9.5141 3.7259a20.2878 20.2878 0 0 1 18.6023-12.1908z" fill="#4d4d4f"/><path d="m428.2353 200.0624a20.2757 20.2757 0 0 1 -19.825-16.0773h4.2965l-9.4734-9.3148-9.5016 9.3148h4.3082a30.4941 30.4941 0 0 0 58.2767 7.6945l-9.5166-3.7268a20.2865 20.2865 0 0 1 -18.5648 12.1096z" fill="#4d4d4f"/><path d="m477.5823 156.5237a7.0943 7.0943 0 1 1 -7.0723-7.1613 7.1462 7.1462 0 0 1 7.0723 7.1613zm-1.3771 0a5.7287 5.7287 0 1 0 -5.718 5.8115 5.7082 5.7082 0 0 0 5.718-5.8115zm-4.5963.8185 2.0291 2.916h-1.4226l-1.89-2.8h-1.0967v2.8h-1.19v-7.56h2.7291a2.2405 2.2405 0 0 1 2.5193 2.4031 2.1321 2.1321 0 0 1 -1.6782 2.2409zm-2.38-.98h1.2586c1.1217 0 1.5412-.5837 1.5412-1.2836a1.2758 1.2758 0 0 0 -1.4478-1.2836h-1.352z" fill="#4d4d4f"/><path d="m130.77 230.9994h-8.3522v-1.8556h18.7977v1.8556h-8.3522v15.4427h-2.0933z" fill="#4d4d4f"/><path d="m143.4926 229.1438h1.927v6.6619a7.8959 7.8959 0 0 1 5.2351-2.1882c1.5468 0 5.1395.3561 5.1395 4.6154v8.2092h-1.9275v-7.8285c.048-2.9508-2.0939-3.355-3.45-3.355a7.1529 7.1529 0 0 0 -4.9973 2.4987v8.6848h-1.927z" fill="#4d4d4f"/><path d="m171.6593 243.8486c-1.2844 1.3565-2.5221 2.9742-6.7573 2.9742-4.1878 0-7.0431-2.8559-7.0431-6.663 0-3.9488 2.9742-6.5423 6.8053-6.5423 3.9734 0 7.4473 2.07 7.3524 6.9945h-12.23a5.0341 5.0341 0 0 0 5.306 4.5685 5.5587 5.5587 0 0 0 5.0681-2.426zm-1.7366-4.8778c-.3807-2.0464-2.1414-3.7122-5.0922-3.7122-2.8313 0-4.4256 1.428-4.9732 3.7122z" fill="#4d4d4f"/><path d="m181.0019 229.1438h3.6168l6.4955 13.8005 6.615-13.8h3.6167l-8.4711 17.2983h-3.5213z" fill="#ff8300"/><path d="m199.4125 240.0415c0-3.4264 2.07-6.8047 7.162-6.8047s7.1621 3.3783 7.1621 6.8047c0 5.0922-3.6642 6.8294-7.1621 6.8294s-7.162-1.7372-7.162-6.8294zm11.3264-.048a4.1647 4.1647 0 1 0 -8.3282 0c0 2.713 1.5229 4.3553 4.1638 4.3553s4.1644-1.6423 4.1644-4.3553z" fill="#ff8300"/><path d="m215.1346 233.6643h2.9028v1.5943a6.1847 6.1847 0 0 1 4.7829-2.0218c2.665 0 4.9967 1.1175 4.9967 5.0207v8.1846h-2.9508v-7.0905c0-2.5221-.7614-3.5928-2.7359-3.5928a4.5715 4.5715 0 0 0 -4.0454 1.879v8.8043h-2.95z" fill="#ff8300"/><path d="m243.1824 244.3722a5.7565 5.7565 0 0 0 .2384 2.07h-3.0222a5.9637 5.9637 0 0 1 -.1664-1.285 10.7819 10.7819 0 0 1 -5.5917 1.7138c-1.6892 0-4.9493-.7146-4.9493-3.8552 0-4.3073 6.4247-4.9258 10.541-5.1636v-.57c0-.9758-.88-1.6658-3.3075-1.6658-2.7124 0-3.2834.9992-3.45 1.6892h-3.0691c.714-3.4744 4.1164-4.0683 6.4955-4.0683 6.1628 0 6.2817 2.9976 6.2817 4.7583zm-2.95-4.3787a23.4162 23.4162 0 0 0 -4.5925.6431c-1.8321.4276-2.6884 1.0461-2.7124 2.1648-.024 1.0952.69 1.7852 2.1413 1.7852a9.9458 9.9458 0 0 0 5.1636-1.6657z" fill="#ff8300"/><path d="m260.19 235.7342a3.0492 3.0492 0 0 0 -1.0706-.19 2.5358 2.5358 0 0 0 -.9518.2378 3.774 3.774 0 0 1 .5951 2.1179c0 3.4732-3.0932 4.7114-6.4721 4.7114a7.9564 7.9564 0 0 1 -2.689-.4053c-.3333.2144-.8088.5716-.8088 1.0238s.2858.7614 2.8553.7368h4.0214c2.8788.0961 4.5446.929 4.5446 2.9274 0 3.0457-4.45 3.9254-8.3042 3.9254-3.5693 0-6.6624-.7134-6.6624-2.8313 0-1.5228 1.3559-1.7372 2.57-1.975v-.0469a1.8742 1.8742 0 0 1 -1.927-1.975 2.6378 2.6378 0 0 1 2.2362-2.4037v-.0469a3.9238 3.9238 0 0 1 -2.1173-3.6653c0-3.7591 3.45-4.6388 6.591-4.6388a7.4923 7.4923 0 0 1 4.4256 1.1655 3.8814 3.8814 0 0 1 2.6889-1.38h.4756zm-10.0173 10.8743c-.69 0-1.6892.1909-1.6892.9277 0 1.0473 1.38 1.1668 3.7116 1.1668 2.3083 0 4.7829-.2624 4.7829-1.2851 0-.8809-.5236-.8329-3.7831-.8094zm5.6873-8.7085c0-1.9036-1.9516-2.4752-3.5219-2.4752-1.6177 0-3.4263.5716-3.4263 2.4986 0 1.9984 1.832 2.4986 3.4023 2.4986s3.5459-.642 3.5459-2.522z" fill="#ff8300"/><path d="m275.46 242.6116c-.2143 1.0461-1.9275 4.2593-6.6624 4.2593-4.5685 0-7.305-2.8559-7.305-6.8528 0-3.6173 2.3792-6.7813 7.0906-6.7813 4.8063.0468 7.1146 3.021 7.1146 7.6376h-11.2067c.1189.8083.571 3.4744 4.2112 3.6162a3.6473 3.6473 0 0 0 3.5219-1.879zm-2.9033-4.0215c-.4516-2.1659-1.927-2.9742-4.0449-2.9742a3.6444 3.6444 0 0 0 -3.926 2.9742z" fill="#ff8300"/><path d="m279.2714 231.2079a3.5266 3.5266 0 1 1 -3.5214 3.5221 3.5234 3.5234 0 0 1 3.5214-3.5221zm0 6.499a2.9719 2.9719 0 1 0 -2.9672-2.9672 2.9667 2.9667 0 0 0 2.9672 2.9672zm-.0375-2.7458h-.7667v1.8672h-.5546v-4.196h1.6634c.943 0 1.3588.4065 1.3588 1.1644a1.1291 1.1291 0 0 1 -1.0537 1.1644l1.2663 1.8672h-.6841zm-.7667-.499h.9149c.5547 0 .9981-.0645.9981-.6748 0-.5915-.49-.656-.9981-.656h-.9149z" fill="#ff8300"/><g fill="#4d4d4f"><path d="m298.0076 229.1567h2.5678l8.8688 17.2854h-2.3542l-2.2351-4.4935h-11.1505l-2.259 4.4935h-2.33zm5.92 10.9375-4.6365-9.2963-4.6365 9.2963z"/><path d="m312.1021 229.1567h10.1292c3.4944 0 6.6806.9992 6.6806 4.9457 0 3.97-3.1862 4.9692-6.6806 4.9692h-8.0359v7.3705h-2.0933zm2.0933 8.06h7.4889c3.4709 0 5.23-.7368 5.23-3.0913 0-2.3768-1.76-3.1148-5.23-3.1148h-7.4889z"/><path d="m331.88 229.1567h2.0921v17.2854h-2.0921z"/><path d="m347.07 229.1567h10.1293c3.4943 0 6.6806.9992 6.6806 4.9457 0 3.97-3.1863 4.9692-6.6806 4.9692h-8.0371v7.3705h-2.0922zm2.0922 8.06h7.49c3.4709 0 5.23-.7368 5.23-3.0913 0-2.3768-1.76-3.1148-5.23-3.1148h-7.49z"/><path d="m366.2766 229.1567h1.9258v17.2854h-1.9258z"/><path d="m383.8712 244.5163a9.9938 9.9938 0 0 0 .2132 1.9258h-1.9258a6.8241 6.8241 0 0 1 -.2378-1.4982 11.1722 11.1722 0 0 1 -6.205 1.8789c-2.0453 0-5.064-.57-5.064-3.78 0-4.3038 6.4428-4.47 11.2936-5.0406v-.4756c0-1.688-2.0218-2.33-3.9945-2.33-3.3057 0-4.47 1.3788-5.0886 2.0922l-1.45-.9992c.7134-.88 2.0687-2.6627 6.3959-2.6627 2.829 0 6.0632.8318 6.0632 4.018zm-1.9258-4.9457c-5.6591.5471-9.4638 1.0707-9.4638 3.4721 0 1.9492 2.1882 2.21 3.1394 2.21a13.6955 13.6955 0 0 0 6.3244-1.9492z"/><path d="m395.5409 235.6475h-4.9446v7.5135c0 1.3553.5939 2.0207 2.5432 2.0207a13.0539 13.0539 0 0 0 2.7341-.38v1.6634a22.3578 22.3578 0 0 1 -3.1383.3572c-4.0648 0-4.0648-2.4728-4.0648-3.472v-7.7033h-2.6392v-1.64h2.6392v-4.137h1.9258v4.1375h4.9446z"/><path d="m400.4608 235.9088h-3.1382v-1.64h3.1382v-.9512c0-2.0441.642-4.5884 4.4221-4.5884a11.667 11.667 0 0 1 3.2343.3326v1.7115a10.6166 10.6166 0 0 0 -2.6638-.4042c-2.6626 0-3.0668 1.2605-3.0668 3.0914v.8083h5.1121v1.64h-5.1121v10.5333h-1.9258z"/><path d="m408.4721 239.9993c0-3.5435 2.8056-6.3725 7.18-6.3725s7.1574 2.829 7.1574 6.3725c0 4.3975-2.925 6.8235-7.1574 6.8235s-7.18-2.426-7.18-6.8235zm12.41.2378a5.25 5.25 0 0 0 -10.4842 0c0 2.9719 1.9961 4.9446 5.2538 4.9446s5.2304-1.9727 5.2304-4.9446z"/><path d="m425.3487 234.0076h1.9258v2.5911c1.1176-1.26 2.6873-2.9719 5.1836-2.9719a5.6726 5.6726 0 0 1 1.1409.0949v1.9258a8.5445 8.5445 0 0 0 -1.5451-.1663c-2.7341 0-4.7079 3.1628-4.7794 3.5189v7.442h-1.9258z"/><path d="m435.8083 234.0076h1.8544v1.7348a7.3561 7.3561 0 0 1 4.9457-2.1156c2.7106 0 3.4474 1.3073 3.9465 2.2117 1.95-1.6412 3.2342-2.2117 5.0652-2.2117 1.1409 0 4.5638.2378 4.5638 3.8282v8.9871h-1.9258v-8.2737c0-.7614 0-2.9016-2.7341-2.9016a6.8428 6.8428 0 0 0 -4.565 2.1882v8.9871h-1.9258v-8.2737c0-.7614 0-2.9016-2.6861-2.9016a6.8612 6.8612 0 0 0 -4.613 2.1882v8.9871h-1.9258z"/></g></svg>