<svg viewBox="0 0 600 400" xmlns="http://www.w3.org/2000/svg"><g fill="#4c5859" fill-rule="evenodd"><path d="m452.5156 197.5654c.14-.7053.1879-1.3816.3662-2.1141a20.7793 20.7793 0 0 1 1.4678-4.2891 21.18 21.18 0 0 1 5.2934-7.009 20.8142 20.8142 0 0 1 7.1465-4.07 22.5434 22.5434 0 0 1 7.3345-1.0642 21.8328 21.8328 0 0 1 10.5609 3.0709 22.4733 22.4733 0 0 1 2.5921 1.7807l.8543.72.1366.1154a2.7042 2.7042 0 0 0 3.6038-4.0294s-.3533-.3366-1.015-.9649a27.308 27.308 0 0 0 -3.1349-2.4315 26.154 26.154 0 0 0 -13.45-4.257 28.0338 28.0338 0 0 0 -9.3757 1.356 26.8318 26.8318 0 0 0 -9.2006 5.2331 27.134 27.134 0 0 0 -8.6948 14.5421c-.2313.96-.3405 2.0308-.4963 3.0453-.0594.4953-.0546.888-.0851 1.3384l-.0706 1.4619a27.0748 27.0748 0 0 0 18.5474 25.6222 26.41 26.41 0 0 0 4.903 1.1156 16.6084 16.6084 0 0 0 2.2372.2019c.34.0176.6793.0337 1.0134.0513l.4094.0128.28-.008.5573-.0176a26.0126 26.0126 0 0 0 13.4259-4.257 27.4556 27.4556 0 0 0 3.175-2.4683c.6055-.577.93-.8848.93-.8848a2.708 2.708 0 0 0 -3.6263-4.02l-.0241.0209s-.3276.2772-.9427.7981a23.37 23.37 0 0 1 -2.5487 1.7439 21.727 21.727 0 0 1 -10.585 3.0725l-.4336.0064-.2055.0032-.106-.0048c-.3341-.0176-.6729-.0336-1.015-.0512a11.6193 11.6193 0 0 1 -1.9175-.178 21.1059 21.1059 0 0 1 -3.6328-.8414 20.84 20.84 0 0 1 -7.1465-4.07 21.2129 21.2129 0 0 1 -5.2934-7.009 20.9922 20.9922 0 0 1 -1.9791-8.8387l.0626-1.1572c.0289-.4215.0289-.9056.0819-1.2774zm-29.656-.7037c5.7013 0 9.6825-3.4652 9.6825-8.4274s-3.9812-8.4275-9.6825-8.4275h-18.3627v16.8549zm15.3885 24.4057a3.0092 3.0092 0 0 1 -4.9207 3.4653l-15.4607-21.86h-13.37v20.1273a3.0112 3.0112 0 0 1 -6.0224 0v-45.9984a3.0073 3.0073 0 0 1 3.0112-3.0053h21.3745c9.0995 0 15.7049 6.0714 15.7049 14.438 0 7.65-5.5294 13.364-13.4292 14.292zm99.3919-41.2606a3.0053 3.0053 0 1 0 0-6.0105h-30.7829a3.0084 3.0084 0 0 0 -3.0113 3.0053v45.9984a3.0084 3.0084 0 0 0 3.0113 3.0053h30.7829a3.0053 3.0053 0 1 0 0-6.0105h-27.7718v-17.097h19.5127a3.0052 3.0052 0 1 0 0-6.01h-19.5127v-16.881zm-311.6318 0a3.0053 3.0053 0 1 0 0-6.0105h-30.7814a3.0083 3.0083 0 0 0 -3.0112 3.0053v45.9984a3.0083 3.0083 0 0 0 3.0112 3.0053h30.7818a3.0053 3.0053 0 1 0 0-6.0105h-27.7706v-17.097h19.5111a3.0052 3.0052 0 1 0 0-6.01h-19.5111v-16.881zm-50.1302 19.9932c0-12.1459-9.1524-19.9932-23.3172-19.9932h-7.6765v39.988h7.6765c19.2734 0 23.3172-10.8733 23.3172-19.9948zm6.0224 0c0 16.5264-10.6942 26.0053-29.34 26.0053h-10.6873a3.0083 3.0083 0 0 1 -3.0112-3.0053v-45.9984a3.0083 3.0083 0 0 1 3.0112-3.0053h10.6877c20.2675 0 29.34 13.0612 29.34 26.0037zm93.4165 8.4034a13.4762 13.4762 0 0 0 -4.0471-5.8646 22.0818 22.0818 0 0 0 -5.6064-3.4364 36.1051 36.1051 0 0 0 -5.947-1.997c-1.0808-.2917-1.8581-.42-2.92-.6588-.8913-.1843-1.7794-.3734-2.64-.5978a28.4453 28.4453 0 0 1 -4.8516-1.6621 11.0774 11.0774 0 0 1 -3.5765-2.4683 5.8561 5.8561 0 0 1 -.9877-1.5323 6.1477 6.1477 0 0 1 -.4754-1.6461 7.0467 7.0467 0 0 1 2.4732-6.6964 13.0969 13.0969 0 0 1 6.8881-2.68 20.94 20.94 0 0 1 6.8173.2741 22.9527 22.9527 0 0 1 5.0332 1.7134 29.708 29.708 0 0 1 3.0738 1.6765c.3212.1907.636.4119.8207.5337l.2939.194.0273.0176a2.7072 2.7072 0 0 0 3.1316-4.4141l-1.1386-.8559a28.4939 28.4939 0 0 0 -3.6279-2.2727 25.9887 25.9887 0 0 0 -6.3211-2.377 25.4217 25.4217 0 0 0 -8.7863-.4616 18.9614 18.9614 0 0 0 -10.1161 4.0759 13.2275 13.2275 0 0 0 -3.7965 5.2588c-.212.5225-.3469 1.0755-.5123 1.62-.114.5514-.2136 1.1139-.2907 1.6749l-.0514.8431-.0209.4231-.01.2116.01.3286.0338.6683a6.4114 6.4114 0 0 0 .0706.7758 12.0344 12.0344 0 0 0 2.9534 6.6323 16.9626 16.9626 0 0 0 5.5342 3.9269 34.2534 34.2534 0 0 0 5.9084 2.0387c.9861.2581 1.97.4664 2.955.67.8062.1875 1.9207.3862 2.6868.609a22.55 22.55 0 0 1 9.0079 4.1208 6.8091 6.8091 0 0 1 1.7008 8.6743 4.1389 4.1389 0 0 1 -.5011.7726 5.0194 5.0194 0 0 1 -.6023.7116 10.27 10.27 0 0 1 -3.2135 2.2054 19.409 19.409 0 0 1 -7.8083 1.5531 16.7317 16.7317 0 0 1 -1.8533-.0737c-.501-.0385-1.0712-.1314-1.6332-.2308a21.457 21.457 0 0 1 -3.1526-.8655 28.65 28.65 0 0 1 -4.9753-2.2888 31.7609 31.7609 0 0 1 -2.9951-1.9185c-.66-.4777-.9765-.7469-.9765-.7469a2.7058 2.7058 0 0 0 -3.6343 4.007l.0723.0705s.395.3766 1.1563.9953a34.3285 34.3285 0 0 0 3.4271 2.4715 33.1309 33.1309 0 0 0 5.9068 2.9507 27.352 27.352 0 0 0 4.0021 1.1621 22.4848 22.4848 0 0 0 2.3511.3574 19.9247 19.9247 0 0 0 2.3608.12 25.3543 25.3543 0 0 0 10.2606-2.098 14.2134 14.2134 0 0 0 8.3655-9.5928l.1093-.4632.0481-.3333.098-.67.0257-.1683.0305-.2725.0032-.109.0145-.4375.0192-.8751c-.008-.5883-.0979-1.1941-.1605-1.79-.1269-.5946-.2586-1.1989-.4417-1.7839zm108.6781-34.4071a3.0083 3.0083 0 0 0 -3.0112 3.0053v28.11a15.3674 15.3674 0 1 1 -30.7175 0v-28.11a3.0113 3.0113 0 0 0 -6.0225 0v28.11c0 12.0722 9.5925 21.8925 21.382 21.8925 11.7879 0 21.38-9.82 21.38-21.8925v-28.11a3.0083 3.0083 0 0 0 -3.0112-3.0053zm-55.3211 26.0037c0-11.5754-8.8056-20.9933-19.6283-20.9933s-19.6282 9.4179-19.6282 20.9933c0 11.577 8.8056 20.9933 19.6282 20.9933s19.6283-9.4163 19.6283-20.9933zm6.0224 0c0 14.89-11.5068 27.0038-25.6507 27.0038s-25.6506-12.1138-25.6506-27.0038 11.5068-27.0038 25.6506-27.0038 25.6507 12.1138 25.6507 27.0038zm-212.1063 0c0-11.5754-8.804-20.9933-19.6267-20.9933s-19.6281 9.4179-19.6281 20.9933c0 11.577 8.8056 20.9933 19.6282 20.9933s19.6266-9.4163 19.6266-20.9933zm6.0224 0c0 14.89-11.5068 27.0038-25.6491 27.0038s-25.6505-12.1138-25.6505-27.0038 11.5068-27.0038 25.6506-27.0038 25.6491 12.1138 25.6491 27.0038zm-61.7834-22.9984v45.9984a3.0129 3.0129 0 0 1 -5.3752 1.8625l-31.0291-39.2075v37.345a3.0112 3.0112 0 0 1 -6.0224 0v-45.9984a3.0127 3.0127 0 0 1 5.3752-1.8625l31.029 39.2075v-37.345a3.0113 3.0113 0 0 1 6.0225 0z"/><path d="m559.9932 183.31h3.4037a1.3708 1.3708 0 1 1 0 2.7186h-3.4037zm-1.1632 10.4265a1.1984 1.1984 0 0 0 1.1633-1.2316v-4.0112h2.0667l3.1492 4.7222a1.1452 1.1452 0 0 0 .9528.5206 1.1188 1.1188 0 0 0 .67-.2248 1.2784 1.2784 0 0 0 .2793-1.7179l-2.3591-3.5371a3.72 3.72 0 0 0 2.5217-3.5877 3.7666 3.7666 0 0 0 -3.8762-3.8247h-4.5677a1.2017 1.2017 0 0 0 -1.1652 1.2337v10.4269a1.2 1.2 0 0 0 1.1652 1.2316zm3.2679-18.2181c6.13 0 11.1179 5.2813 11.1179 11.774 0 6.4907-4.9879 11.772-11.1179 11.772s-11.12-5.2813-11.12-11.772c0-6.4927 4.99-11.774 11.12-11.774zm-.002 26.0682c7.4445 0 13.5019-6.4117 13.5019-14.2962 0-7.8824-6.0574-14.2941-13.5019-14.2941s-13.5019 6.4117-13.5019 14.2941c0 7.8845 6.0574 14.2962 13.5019 14.2962z"/></g></svg>