<svg id="Ebene_1" data-name="Ebene 1" xmlns="http://www.w3.org/2000/svg" viewBox="0 0 600 400"><defs><style>.cls-1{fill:#4c5859;}</style></defs><title>nodesource</title><g id="NodeSource-Logos"><g id="Dark-Logo"><g id="Word-Mark"><g id="Logo-Fill"><path id="path-1" class="cls-1" d="M457.561,291.972c.129-.653.174-1.28.339-1.959a19.3,19.3,0,0,1,1.361-3.976,19.627,19.627,0,0,1,4.906-6.5,19.294,19.294,0,0,1,6.624-3.772,20.878,20.878,0,0,1,6.8-.987,20.231,20.231,0,0,1,9.788,2.847,20.852,20.852,0,0,1,2.4,1.65l.792.667.126.107a2.507,2.507,0,0,0,3.341-3.735l-.941-.894a25.406,25.406,0,0,0-2.906-2.254,24.243,24.243,0,0,0-12.467-3.945,26,26,0,0,0-8.69,1.256,24.888,24.888,0,0,0-8.528,4.851,25.159,25.159,0,0,0-8.059,13.479c-.214.89-.315,1.882-.46,2.823-.055.459-.05.823-.079,1.24l-.065,1.355a25.1,25.1,0,0,0,17.191,23.749,24.547,24.547,0,0,0,4.545,1.034,15.279,15.279,0,0,0,2.073.187c.316.016.63.031.94.048l.379.012.259-.008.517-.016a24.119,24.119,0,0,0,12.444-3.946A25.329,25.329,0,0,0,493.136,313c.561-.535.862-.82.862-.82a2.51,2.51,0,0,0-3.361-3.726l-.023.02-.873.739a21.621,21.621,0,0,1-2.363,1.617,20.143,20.143,0,0,1-9.811,2.848l-.4.006-.19,0-.1,0-.94-.047a10.8,10.8,0,0,1-1.778-.165,19.652,19.652,0,0,1-3.367-.78,19.327,19.327,0,0,1-6.624-3.772,19.662,19.662,0,0,1-4.906-6.5,19.447,19.447,0,0,1-1.834-8.193l.058-1.073c.027-.39.027-.839.076-1.184Zm-27.488-.652c5.284,0,8.975-3.212,8.975-7.811s-3.691-7.812-8.975-7.812h-17.02V291.32Zm14.263,22.622a2.789,2.789,0,0,1-4.56,3.211l-14.331-20.262H413.053v18.657a2.791,2.791,0,0,1-5.582,0V272.912a2.788,2.788,0,0,1,2.791-2.786h19.811c8.434,0,14.557,5.628,14.557,13.383,0,7.091-5.125,12.387-12.448,13.247ZM536.462,275.7a2.786,2.786,0,1,0,0-5.571H507.929a2.789,2.789,0,0,0-2.791,2.786v42.636a2.788,2.788,0,0,0,2.791,2.785h28.533a2.786,2.786,0,1,0,0-5.571H510.72V296.915h18.087a2.786,2.786,0,1,0,0-5.571H510.72V275.7Zm-288.848,0a2.786,2.786,0,1,0,0-5.571H219.082a2.789,2.789,0,0,0-2.791,2.786v42.636a2.788,2.788,0,0,0,2.791,2.785h28.532a2.786,2.786,0,1,0,0-5.571H221.873V296.915h18.085a2.786,2.786,0,1,0,0-5.571H221.873V275.7Zm-46.466,18.532c0-11.258-8.483-18.532-21.612-18.532H172.42v37.065h7.116c17.864,0,21.612-10.078,21.612-18.533Zm5.582,0c0,15.318-9.912,24.1-27.194,24.1h-9.907a2.788,2.788,0,0,1-2.791-2.785V272.912a2.789,2.789,0,0,1,2.791-2.786h9.907c18.785,0,27.194,12.107,27.194,24.1Zm86.587,7.789a12.487,12.487,0,0,0-3.751-5.436,20.468,20.468,0,0,0-5.2-3.185,33.436,33.436,0,0,0-5.512-1.851c-1-.27-1.722-.389-2.706-.611-.826-.17-1.649-.346-2.447-.554a26.3,26.3,0,0,1-4.5-1.54,10.277,10.277,0,0,1-3.315-2.288,5.451,5.451,0,0,1-.916-1.42,5.707,5.707,0,0,1-.44-1.526,6.531,6.531,0,0,1,2.292-6.207,12.142,12.142,0,0,1,6.385-2.484,19.392,19.392,0,0,1,6.318.254,21.333,21.333,0,0,1,4.666,1.588,27.6,27.6,0,0,1,2.849,1.554c.3.177.589.382.76.5l.273.18.025.016a2.509,2.509,0,0,0,2.9-4.091l-1.056-.794a26.343,26.343,0,0,0-3.362-2.106,24.074,24.074,0,0,0-5.859-2.2,23.54,23.54,0,0,0-8.144-.428,17.578,17.578,0,0,0-9.377,3.778,12.262,12.262,0,0,0-3.519,4.874c-.2.484-.321,1-.474,1.5-.106.511-.2,1.032-.27,1.552l-.048.782-.019.392-.009.2.009.305.031.619a6.015,6.015,0,0,0,.066.719,11.148,11.148,0,0,0,2.737,6.148,15.743,15.743,0,0,0,5.13,3.639,31.686,31.686,0,0,0,5.476,1.89c.914.239,1.827.432,2.739.621.748.174,1.781.358,2.491.565a20.9,20.9,0,0,1,8.349,3.819,6.308,6.308,0,0,1,1.576,8.04,3.8,3.8,0,0,1-.464.716,4.736,4.736,0,0,1-.558.66,9.526,9.526,0,0,1-2.979,2.044,18,18,0,0,1-7.237,1.44,15.48,15.48,0,0,1-1.718-.069c-.464-.035-.993-.122-1.514-.214a19.8,19.8,0,0,1-2.922-.8,26.642,26.642,0,0,1-4.612-2.121,29.68,29.68,0,0,1-2.776-1.779c-.611-.442-.905-.692-.905-.692a2.508,2.508,0,0,0-3.368,3.714l.067.065s.366.35,1.071.923A31.936,31.936,0,0,0,262.736,315a30.709,30.709,0,0,0,5.475,2.735,25.36,25.36,0,0,0,3.709,1.077,20.819,20.819,0,0,0,2.18.331,18.51,18.51,0,0,0,2.188.112,23.5,23.5,0,0,0,9.51-1.945,13.174,13.174,0,0,0,7.754-8.891l.1-.43.044-.309.091-.621.024-.156.028-.252,0-.1.013-.406.018-.811c-.007-.545-.09-1.107-.149-1.659-.117-.552-.239-1.112-.409-1.654ZM394.05,270.126a2.789,2.789,0,0,0-2.791,2.786v26.055a14.244,14.244,0,1,1-28.472,0V272.912a2.791,2.791,0,0,0-5.582,0v26.055a19.824,19.824,0,1,0,39.636,0V272.912a2.789,2.789,0,0,0-2.791-2.786Zm-51.277,24.1c0-10.729-8.162-19.459-18.193-19.459s-18.193,8.73-18.193,19.459,8.161,19.459,18.193,19.459,18.193-8.728,18.193-19.459Zm5.582,0c0,13.8-10.665,25.03-23.775,25.03s-23.775-11.229-23.775-25.03S311.47,269.2,324.58,269.2s23.775,11.229,23.775,25.03Zm-196.6,0c0-10.729-8.16-19.459-18.192-19.459s-18.193,8.73-18.193,19.459,8.162,19.459,18.193,19.459,18.192-8.728,18.192-19.459Zm5.582,0c0,13.8-10.665,25.03-23.774,25.03s-23.775-11.229-23.775-25.03,10.666-25.03,23.775-25.03,23.774,11.229,23.774,25.03Zm-57.266-21.317v42.636a2.793,2.793,0,0,1-4.983,1.726l-28.76-36.341v34.615a2.791,2.791,0,0,1-5.582,0V272.912a2.792,2.792,0,0,1,4.982-1.726l28.76,36.341V272.912a2.792,2.792,0,0,1,5.583,0Z"/></g></g><g id="Logo-Mark"><g id="Fill-1"><path id="path-3" class="cls-1" d="M359.442,88.211h2.61c.722,0,1.187.387,1.187.984s-.465.984-1.187.984h-2.61Zm-.892,7.551a.892.892,0,0,0,.892-.892V91.965h1.585l2.414,3.42a.893.893,0,0,0,1.459-1.03l-1.809-2.562a2.707,2.707,0,0,0,1.933-2.6,2.813,2.813,0,0,0-2.972-2.77h-3.5a.894.894,0,0,0-.893.894V94.87a.892.892,0,0,0,.893.892Zm2.506-13.194a8.526,8.526,0,1,1-8.527,8.527,8.535,8.535,0,0,1,8.527-8.527Zm0,18.879A10.353,10.353,0,1,0,350.7,91.093a10.365,10.365,0,0,0,10.353,10.354Zm-13.6,55.864a8.872,8.872,0,0,1,.478,2.745l-.016.67-.006.167,0,.083v.041l-.025.223-.036.229a7.731,7.731,0,0,1-.223,1.117,10.446,10.446,0,0,1-6.471,6.853,19.53,19.53,0,0,1-7.265,1.338,16.232,16.232,0,0,1-1.674-.1c-.634-.056-1.146-.158-1.667-.252a21.019,21.019,0,0,1-2.823-.794,24.007,24.007,0,0,1-4.166-2.008,21.39,21.39,0,0,1-3.259-2.387l-.119-.113a2.6,2.6,0,0,1,3.429-3.894,17.749,17.749,0,0,0,2.664,1.639,19.9,19.9,0,0,0,3.3,1.41,15.6,15.6,0,0,0,2.054.532c.36.053.746.12,1.046.137.2.044.955.045,1.19.052a13.918,13.918,0,0,0,5.082-.9A4.891,4.891,0,0,0,342,161.265c.4-1.648.059-2.572-1.335-3.775a15.525,15.525,0,0,0-5.892-2.516c-.493-.137-1.287-.273-1.808-.388-.68-.135-1.361-.27-2.048-.44a25.675,25.675,0,0,1-4.159-1.348,12.675,12.675,0,0,1-4.1-2.725,8.664,8.664,0,0,1-2.378-5.033c-.065-.5-.046-.662-.074-1.007l-.006-.223,0-.079.009-.161.016-.323c.016-.214.024-.427.052-.641a9.446,9.446,0,0,1,.694-2.5,9.7,9.7,0,0,1,3.026-3.8,14.468,14.468,0,0,1,7.352-2.683,18.724,18.724,0,0,1,10.641,1.991,19.859,19.859,0,0,1,2.572,1.564l.791.581a2.6,2.6,0,0,1-2.864,4.334l-.056-.033s-.265-.16-.766-.459a22.688,22.688,0,0,0-2.046-1.017,16.447,16.447,0,0,0-3.294-1.037,14.827,14.827,0,0,0-4.438-.174,8.872,8.872,0,0,0-4.384,1.521,3.9,3.9,0,0,0-1.24,1.517,3.624,3.624,0,0,0-.259.921l-.015.259-.009.129-.006.066v.008a6.1,6.1,0,0,0,.054.727,2.947,2.947,0,0,0,.8,1.552,7.081,7.081,0,0,0,2.236,1.427,20.087,20.087,0,0,0,3.2,1.027c.576.143,1.17.262,1.767.38.751.16,1.245.235,2.014.43A20.9,20.9,0,0,1,344.3,153a9.816,9.816,0,0,1,3.154,4.309Zm-66.667-20.253v30.181a2.886,2.886,0,0,1-1.962,2.734,2.843,2.843,0,0,1-.927.154A2.888,2.888,0,0,1,275.605,169l-17.921-23.413v21.657a2.888,2.888,0,1,1-5.776,0V137.058a2.887,2.887,0,0,1,5.18-1.754l17.922,23.412V137.058a2.889,2.889,0,0,1,5.777,0Zm20.888-17.667v65.516a1.675,1.675,0,1,1-3.349,0V119.391a1.675,1.675,0,1,1,3.349,0ZM300,217.844a65.7,65.7,0,1,1,65.7-65.695A65.77,65.77,0,0,1,300,217.844Zm0-137.1a71.408,71.408,0,1,0,71.408,71.408A71.489,71.489,0,0,0,300,80.741Z"/></g></g></g></g></svg>