<svg viewBox="0 0 600 400" xmlns="http://www.w3.org/2000/svg"><path d="m114.565 167.693c0-6.6178 4.3584-10.2173 9.9208-10.2173s9.9208 3.6055 9.9208 10.2173v8.4149h.3025c2.55-9.1678 7.5312-18.6381 18.2049-18.6381 6.9144 0 12.0263 4.5069 12.0263 10.6737 0 8.1124-5.4085 10.9708-10.8223 10.9708h-3.908c-8.8951 0-13.6748 6.1614-13.6748 24.3486v25.5524c0 5.859-2.4074 10.97-10.9708 10.97s-10.9708-5.1119-10.9708-10.97v-61.3222z" fill="#8bb119"/><path d="m176.9249 202.8584c0 11.5753 7.5134 19.99 20.2926 19.99 16.5327 0 19.9188-9.1321 26.1931-9.2391 5.26-.0891 9.0193 2.1347 9.0193 6.1911 0 13.2238-21.9827 20.1624-35.2065 20.1624-30.6638 0-42.2336-20.7549-42.2336-39.8262 0-25.5525 15.4772-42.6961 41.51-42.6961 25.25 0 39.6777 17.8847 39.6777 35.9184 0 7.5193-2.2535 9.4881-9.6183 9.4881h-49.6338zm38.4743-12.6252c-1.1861-10.0812-8.7168-17.4342-18.4842-17.4342-10.97 0-17.5827 6.7664-19.99 17.4342z" fill="#8bb119"/><g fill="#225d8b"><path d="m240.6789 225.3094v-80.0194c0-10.9708 5.71-14.4277 14.4278-14.4277h32.7752c18.0332 0 39.53 4.0564 39.53 27.9539 0 9.1678-4.9633 17.8846-15.1807 21.9411v.3025c11.4213 3.0064 18.9347 11.1188 18.9347 25.997 0 22.6941-18.4842 32.0223-39.8263 32.0223h-36.2211c-8.7168 0-14.4277-2.6623-14.4277-13.6391v-.1248zm24.6451-49.8124h20.3044c11.5693 0 17.1317-4.6549 17.1317-13.2237 0-10.3718-8.7173-13.2238-17.8846-13.2238h-19.54v26.448zm0 44.79h20.7549c9.6183 0 20.4411-1.951 20.4411-14.4277 0-13.046-11.4213-14.73-23.447-14.73h-17.7366v29.1579z"/><path d="m410.076 229.0159c0 6.6118-3.0064 10.97-9.9148 10.97s-9.9268-4.3643-9.9268-10.97v-2.8525h-.2965c-6.1614 8.1183-14.1312 13.8227-26.602 13.8227-13.2237 0-27.6574-6.6118-27.6574-28.8554v-42.696c0-5.8649 2.4074-10.9709 10.97-10.9709s10.97 5.106 10.97 10.9709v38.3253c0 8.8951 4.3584 15.1807 13.8228 15.1807a17.0472 17.0472 0 0 0 16.6828-17.0393c0-.087 0-.1734-.0016-.26v-36.2008c0-5.8649 2.4015-10.9708 10.97-10.9708s10.9708 5.1059 10.9708 10.9708v60.5753z"/><path d="m449.9493 216.99h.3024l13.3961-49.747c1.5-5.5624 4.507-9.7669 10.52-9.7669 8.7174 0 11.2674 7.2109 11.2674 9.9149a21.3181 21.3181 0 0 1 -1.6545 6.9143l-25.41 71.9906c-5.26 15.0268-11.2673 22.8426-25.096 22.8426-9.7669 0-13.8287-4.8094-13.8287-10.0812 0-5.8589 4.21-8.895 10.0812-8.895h2.2534c2.8585 0 6.0129-.1545 7.6679-6.9144l-22.86-65.0347c-1.7787-5.26-2.704-7.6673-2.704-10.2173v-.0372a10.4841 10.4841 0 0 1 10.4842-10.4842c.067 0 .1334.0005.2.0022 5.8487 0 9.9111 3.3029 11.2571 8.2663z"/></g></svg>