<svg data-name="Ebene 1" xmlns="http://www.w3.org/2000/svg" viewBox="0 0 600 400"><path d="M154.39 206.944c10.179 0 24.903-2.099 24.903-14.208a11.181 11.181 0 0 0-.25-2.782l-6.06-26.327c-1.404-5.8-2.633-8.426-12.8-13.512-7.897-4.035-25.086-10.702-30.172-10.702-4.736 0-6.11 6.106-11.759 6.106-5.437 0-9.472-4.559-14.558-4.559-4.88 0-8.063 3.328-10.523 10.173 0 0-6.838 19.3-7.719 22.099a5.067 5.067 0 0 0-.182 1.58c0 7.502 29.538 32.103 69.12 32.103m26.466-9.26c1.408 6.662 1.408 7.362 1.408 8.242 0 11.39-12.805 17.713-29.643 17.713-38.047.023-71.376-22.27-71.376-37.007a15.02 15.02 0 0 1 1.225-5.965c-13.684.684-31.396 3.127-31.396 18.765 0 25.614 60.69 57.184 108.748 57.184 36.844 0 46.137-16.661 46.137-29.822 0-10.35-8.948-22.098-25.086-29.11" fill="#e00"/><path d="M180.857 197.655c1.407 6.662 1.407 7.363 1.407 8.242 0 11.39-12.804 17.713-29.643 17.713-38.047.023-71.375-22.27-71.375-37.007a15.02 15.02 0 0 1 1.225-5.965l2.981-7.373a5.212 5.212 0 0 0-.182 1.547c0 7.502 29.538 32.103 69.12 32.103 10.179 0 24.903-2.103 24.903-14.212a11.221 11.221 0 0 0-.25-2.782l1.813 7.734zm341.542 16.868c0 9.671 5.82 14.374 16.432 14.374a42.118 42.118 0 0 0 9.673-1.364V216.31a20.004 20.004 0 0 1-6.25.946c-4.369 0-5.987-1.37-5.987-5.476v-17.195h12.659v-11.552h-12.66v-14.648l-13.834 2.994v11.654h-9.187v11.552h9.153v19.938zm-43.122.256c0-2.995 3-4.446 7.535-4.446a34.767 34.767 0 0 1 8.219 1.023v5.815a17.455 17.455 0 0 1-8.653 2.142c-4.44 0-7.1-1.708-7.1-4.534m4.228 14.29a21.19 21.19 0 0 0 12.5-3.506v2.744h13.683v-29.02c0-11.03-7.434-17.084-19.844-17.084a50.48 50.48 0 0 0-21.158 4.963l4.965 10.183c5.308-2.225 9.765-3.594 13.694-3.594 5.699 0 8.642 2.22 8.642 6.76v2.222a40.188 40.188 0 0 0-10.267-1.287c-11.647 0-18.658 4.887-18.658 13.618 0 7.958 6.327 14.03 16.427 14.03m-75.22-.77h14.72v-23.471h24.652v23.45h14.757V168.4h-14.702v23.016H423.05V168.4h-14.719l-.061 59.927zm-56.032-22.703c0-6.505 5.135-11.47 11.898-11.47a14.009 14.009 0 0 1 9.57 3.512v15.826a13.333 13.333 0 0 1-9.57 3.634c-6.673 0-11.898-4.963-11.898-11.47m21.652 22.683h13.695v-62.932l-13.829 2.993v17.028a23.329 23.329 0 1 0-12.387 43.468h.406a20.389 20.389 0 0 0 12.15-3.93zm-62.838-34.813a10.021 10.021 0 0 1 9.494 7.184H301.67c1.363-4.496 4.791-7.184 9.383-7.184m-23.328 12.209c0 13.177 10.778 23.45 24.635 23.45a27.175 27.175 0 0 0 18.92-6.855l-9.166-8.136a12.226 12.226 0 0 1-9.064 3.427 11.708 11.708 0 0 1-11.13-7.184h32.265v-3.445c0-14.38-9.666-24.73-22.85-24.73a23.247 23.247 0 0 0-23.6 22.9v.572m-23.878-24.758c4.88 0 7.613 3.077 7.613 6.767 0 3.684-2.733 6.761-7.613 6.761h-14.558v-13.528zm-29.295 47.33h14.72v-21.825h11.202l11.302 21.825h16.478l-13.177-23.968a18.128 18.128 0 0 0 11.291-16.856c0-10.785-8.47-19.082-21.158-19.082h-30.658z"/></svg>