<svg viewBox="0 0 600 400" xmlns="http://www.w3.org/2000/svg"><path d="m226.5179 195.4964a74.5563 74.5563 0 0 1 -4.9589-26.9264 75.4587 75.4587 0 0 1 75.39-75.2765 74.653 74.653 0 0 1 10.6661.7666l-8.4982 8.5154c-.7772-.0273-1.5418-.0456-2.32-.0456a66.1136 66.1136 0 0 0 -66.0386 66.04 67.2889 67.2889 0 0 0 2.4719 17.9654h57.7911l-24.134 45.5215 58.4105-58.9952h-79.43l89.2112-89.2105a92.9551 92.9551 0 0 0 -86.7538 164.0257l27.7617-52.3583z" fill="#e1251b"/><path d="m345.2663 89.2637-27.7624 52.3582h49.5479a75.2058 75.2058 0 0 1 -70.2556 102.2253 75.9684 75.9684 0 0 1 -11.0055-.8029l8.4057-8.4909c.8657.0335 1.7322.0566 2.6.0566a66.1221 66.1221 0 0 0 66.0485-66.04 73.6092 73.6092 0 0 0 -2.4819-17.9654h-57.793l24.1356-45.5215-59.3085 58.9959h79.6434l-88.5273 89.21a92.9549 92.9549 0 0 0 86.7531-164.0253z" fill="#e1251b"/><g fill="#636569"><path d="m181.26 319.62 1.7263-2.5231a.8645.8645 0 0 1 1.3721-.1769 8.1455 8.1455 0 0 0 5.4893 2.3018 3.8817 3.8817 0 0 0 3.94-3.7627c0-1.948-1.3277-3.232-3.8067-4.87-2.9219-1.9035-6.3745-4.4265-6.3745-8.8531s3.0544-9.2076 10.0043-9.2076a12.1527 12.1527 0 0 1 7.8795 2.8775 1.2577 1.2577 0 0 1 .1329 1.77l-1.7263 2.4349c-.3542.5313-.93.5751-1.5494.0881a7.3337 7.3337 0 0 0 -5.0024-1.9473 3.6192 3.6192 0 0 0 -3.7627 3.4526c0 1.7711 1.1953 2.6562 3.8512 4.4266 2.9219 1.9479 6.8174 4.3828 6.8174 9.252 0 5.1792-4.0284 9.5177-10.58 9.5177a12.343 12.343 0 0 1 -8.4105-3.4533c-.2659-.2643-.4872-.6632-.0005-1.3272z"/><path d="m203.0417 322.8077 16.6445-29.792a.8174.8174 0 0 1 .7523-.487h.3986a.664.664 0 0 1 .62.487l8.1452 29.792a.8736.8736 0 0 1 -.8411 1.1509h-3.8512c-.6642 0-1.0183-.2213-1.1512-.8858l-1.1064-4.9136h-11.0224l-2.5675 4.9136a1.5784 1.5784 0 0 1 -1.4165.8858h-4.0728c-.62 0-.8416-.5758-.5315-1.1509zm18.1939-9.4289-2.0808-9.6508h-.0884l-4.8251 9.6508z"/><path d="m238.1038 293.8121a.9853.9853 0 0 1 .8855-.8408h4.3822a.7056.7056 0 0 1 .6642.8408l-2.6557 18.6365a7.867 7.867 0 0 0 -.0884 1.4165c0 2.9219 1.505 4.693 4.5153 4.693 3.63 0 5.6663-2.3462 6.1973-6.0651l2.6562-18.6809a.9461.9461 0 0 1 .8852-.8408h4.3825a.7311.7311 0 0 1 .6642.8408l-2.7 18.9466c-.93 6.7289-5.6222 11.6425-12.5278 11.6425-5.9319 0-10.0931-4.0728-10.0931-9.8715a12.3885 12.3885 0 0 1 .1329-1.771z"/><path d="m281.9313 292.5287a11.8978 11.8978 0 0 1 9.2077 4.2053.9166.9166 0 0 1 -.1769 1.24l-2.3906 2.3018a1.0027 1.0027 0 0 1 -1.4609 0 7.9645 7.9645 0 0 0 -5.4893-2.2137c-5.3118 0-9.9156 5.4894-9.9156 11.82 0 4.6922 2.5234 8.7206 6.773 8.7206a9.1467 9.1467 0 0 0 6.0645-2.6118c.5751-.4863 1.0627-.3982 1.4165.0444l2.3018 2.8775a1.0381 1.0381 0 0 1 -.2213 1.1952 14.1342 14.1342 0 0 1 -10.0047 4.2941c-7.6579 0-12.6158-6.1532-12.6158-13.7674.0003-10.4037 7.3484-18.106 16.5116-18.106z"/><path d="m299.4641 293.8121a.9415.9415 0 0 1 .8408-.8408h16.3792a.7055.7055 0 0 1 .6639.8408l-.5314 3.63a.9458.9458 0 0 1 -.8852.8408h-11.3324l-1.0177 7.26h9.3845a.7309.7309 0 0 1 .6639.8408l-.5314 3.6745a.98.98 0 0 1 -.8852.8408h-9.3845l-1.1071 7.7467h11.3768c.4426 0 .6639.3989.62.8414l-.487 3.63a.9477.9477 0 0 1 -.8859.8415h-16.3783a.6571.6571 0 0 1 -.62-.8415z"/></g><path d="m327.8861 293.8121a.9846.9846 0 0 1 .8852-.8408h1.9035a.7309.7309 0 0 1 .6639.8408l-3.8515 27.18h11.2887a.7024.7024 0 0 1 .62.8415l-.1769 1.2833a.9861.9861 0 0 1 -.8858.8415h-13.9a.7061.7061 0 0 1 -.6639-.8415z" fill="#e1251b"/><path d="m343.0283 322.8077 16.3348-29.792a.8432.8432 0 0 1 .7527-.487h.3982a.6629.6629 0 0 1 .62.487l7.88 29.792a.9142.9142 0 0 1 -.8414 1.1509h-1.8592a.6466.6466 0 0 1 -.6639-.487l-1.77-7.304h-13.8128l-3.7627 7.304a.96.96 0 0 1 -.8407.487h-1.9033c-.62 0-.8417-.5758-.5317-1.1509zm20.0087-9.3852-3.497-14.5193h-.2657l-7.57 14.5193z" fill="#e1251b"/><path d="m390.4406 308.3765a6.6982 6.6982 0 0 1 3.7627 6.02c0 5.4449-3.8508 9.5621-9.96 9.5621h-9.1633a.7061.7061 0 0 1 -.6639-.8415l4.1172-29.305a.9846.9846 0 0 1 .8852-.8408h8.8094a6.8339 6.8339 0 0 1 7.1265 7.0384 8.8616 8.8616 0 0 1 -4.9136 8.2336zm-5.5774 12.6158c3.0544 0 5.6218-2.8331 5.6218-6.2857a4.6433 4.6433 0 0 0 -4.7366-4.781h-6.1976l-1.5491 11.0667zm1.3278-14.1212c3.2757 0 5.4005-2.6118 5.4005-6.507 0-2.5674-1.3278-4.3384-3.8952-4.3384h-6.1088l-1.55 10.8454z" fill="#e1251b"/><path d="m399.6517 319.31.7082-.752c.5307-.5314.8852-.7083 1.4166-.2213 1.3278 1.1946 2.8331 3.0981 6.5514 3.0981a5.2856 5.2856 0 0 0 5.5774-5.3561c0-2.7888-2.08-4.4266-5.7543-6.5514-3.5414-2.0368-5.9319-3.984-5.9319-8.0568 0-3.7183 2.3461-8.9419 9.6058-8.9419a11.3507 11.3507 0 0 1 6.8615 2.2573c.2213.1776.62.6639.0444 1.5054l-.487.7083c-.4426.6194-.8852.797-1.461.3981a9.0532 9.0532 0 0 0 -5.268-1.9035 5.7447 5.7447 0 0 0 -5.9319 5.5781c0 2.4787 1.6822 4.1165 4.4716 5.6218 4.25 2.3018 7.481 4.471 7.481 9.0308 0 4.9135-3.5414 8.6762-9.6946 8.6762a11.2519 11.2519 0 0 1 -8.278-3.8071c-.3101-.31-.487-.7082.0888-1.284z" fill="#e1251b"/></svg>