<svg viewBox="0 0 600 400" xmlns="http://www.w3.org/2000/svg"><path d="m172.7168 160.4913a1.202 1.202 0 0 0 -1.0865-1.01c-.4523-.0377-10.02-.7467-10.02-.7467s-6.645-6.5968-7.3744-7.3268-2.1543-.5084-2.7075-.3457c-.0822.0242-1.452.4473-3.7191 1.1484-2.22-6.3872-6.137-12.2573-13.0285-12.2573-.19 0-.3862.0087-.5829.0194-1.96-2.5923-4.3876-3.7185-6.4847-3.7185-16.0541 0-23.724 20.07-26.1288 30.2682-6.2382 1.9328-10.67 3.3068-11.2361 3.4846-3.4824 1.0929-3.5918 1.2023-4.0484 4.4832-.3458 2.484-9.4567 72.9447-9.4567 72.9447l70.9956 13.3016 38.4673-8.3222s-13.5037-91.2967-13.5893-91.9229zm-28.8322-7.0673c-1.7823.5515-3.8091 1.1787-6.0062 1.8588.0014-.423.0031-.84.0031-1.2951a29.4551 29.4551 0 0 0 -1.435-9.7c3.5512.4464 5.9168 4.4867 7.4381 9.1363zm-11.8422-8.35a29.7986 29.7986 0 0 1 1.6289 10.8151c0 .245-.002.47-.0039.6968-3.9079 1.21-8.1525 2.5238-12.4071 3.8413 2.3891-9.2193 6.8663-13.6724 10.7821-15.3527zm-4.7708-4.514a3.6263 3.6263 0 0 1 2.06.6949c-5.1457 2.4209-10.66 8.5191-12.99 20.6952-3.404 1.0542-6.7307 2.0846-9.8072 3.0376 2.729-9.2877 9.2062-24.4272 20.7372-24.4272z" fill="#95bf47"/><path d="m171.63 159.4809c-.4523-.0377-10.02-.7467-10.02-.7467s-6.645-6.5968-7.3744-7.3267a1.8157 1.8157 0 0 0 -1.0252-.4717l-5.368 109.7994 38.4634-8.3214s-13.5033-91.2963-13.589-91.9225a1.2018 1.2018 0 0 0 -1.0868-1.0104z" fill="#5e8e3e"/><path d="m134.78 180.736-4.7428 14.1094a21.8171 21.8171 0 0 0 -9.25-2.2187c-7.4688 0-7.844 4.6875-7.844 5.8682 0 6.4443 16.7971 8.913 16.7971 24.0068 0 11.875-7.5313 19.5224-17.6875 19.5224-12.1875 0-18.4194-7.5849-18.4194-7.5849l3.2631-10.7813s6.4063 5.5 11.8125 5.5a4.7655 4.7655 0 0 0 4.9688-4.8125c0-8.4062-13.7813-8.7812-13.7813-22.5937 0-11.625 8.3438-22.875 25.1875-22.875 6.4902 0 9.696 1.8593 9.696 1.8593z" fill="#fff"/><path d="m231.1488 207.186c-3.8363-2.0822-5.8093-3.836-5.8093-6.2478 0-3.0691 2.74-5.0417 7.0151-5.0417a25.0641 25.0641 0 0 1 9.4268 2.0824l3.5074-10.742s-3.2252-2.5212-12.7149-2.5212c-13.2084 0-22.3607 7.5633-22.3607 18.1959 0 6.028 4.2746 10.6321 9.9744 13.92 4.604 2.6306 6.2481 4.4946 6.2481 7.2347 0 2.85-2.3021 5.1519-6.5767 5.1519a29.5488 29.5488 0 0 1 -12.3864-3.2887l-3.7264 10.7423s5.5568 3.7264 14.9072 3.7264c13.5922 0 23.3471-6.6861 23.3471-18.7431 0-6.4671-4.9323-11.0711-10.8517-14.4691z"/><path d="m285.2973 184.6063c-6.6861 0-11.9475 3.1785-16.003 8.0014l-.22-.1094 5.81-30.3623h-15.1263l-14.688 77.2761h15.1264l5.0422-26.4162c1.973-9.9749 7.1248-16.1132 11.9479-16.1132 3.3974 0 4.7133 2.3017 4.7133 5.59a34.5653 34.5653 0 0 1 -.658 6.6861l-5.7 30.2528h15.1267l5.9187-31.2392a56.5059 56.5059 0 0 0 1.0965-9.8653c.0003-8.5489-4.4944-13.7008-12.3864-13.7008z"/><path d="m331.8834 184.6063c-18.1958 0-30.2527 16.4417-30.2527 34.7467 0 11.7286 7.234 21.1548 20.8259 21.1548 17.8669 0 29.9238-16.0029 29.9238-34.7467-.0004-10.8511-6.3572-21.1548-20.497-21.1548zm-7.4534 44.2831c-5.1519 0-7.3441-4.3845-7.3441-9.8647 0-8.66 4.4939-22.8 12.7149-22.8 5.3708 0 7.1246 4.6037 7.1246 9.0976-.0001 9.3177-4.494 23.5671-12.4954 23.5671z"/><path d="m391.0746 184.6063c-10.2091 0-16.0037 8.9882-16.0037 8.9882h-.2189l.8769-8.1114h-13.3722c-.658 5.4806-1.8639 13.8111-3.07 20.0591l-10.5226 55.3538h15.1267l4.1649-22.3608h.3291s3.1057 1.9726 8.879 1.9726c17.7568 0 29.3752-18.1951 29.3752-36.61 0-10.1936-4.4939-19.2915-15.5644-19.2915zm-14.4687 44.5019a9.6031 9.6031 0 0 1 -6.2478-2.1915l2.5213-14.14c1.7538-9.4263 6.6861-15.6743 11.9475-15.6743 4.6033 0 6.0282 4.2747 6.0282 8.33 0 9.7556-5.8094 23.6758-14.2492 23.6758z"/><path d="m428.2337 162.9031a8.6327 8.6327 0 0 0 -8.6587 8.769c0 4.4942 2.85 7.5634 7.1246 7.5634h.22a8.542 8.542 0 0 0 8.8783-8.769 7.1918 7.1918 0 0 0 -7.5642-7.5634z"/><path d="m407.079 239.412h15.127l10.303-53.6h-15.236z"/><path d="m470.982 185.7023h-10.5228l.5479-2.5208c.877-5.1519 3.9461-9.7556 8.9885-9.7556a15.7644 15.7644 0 0 1 4.8222.767l2.96-11.8379s-2.6308-1.3155-8.2209-1.3155a22.4569 22.4569 0 0 0 -14.7971 5.0426c-5.152 4.3844-7.5631 10.7416-8.769 17.0994l-.4385 2.5208h-7.015l-2.1923 11.4h7.015l-8.0022 42.31h15.1268l8.0014-42.31h10.4134z"/><path d="m507.3731 185.8121s-9.4555 23.825-13.7013 36.83h-.2188c-.2906-4.1869-3.7272-36.83-3.7272-36.83h-15.8935l9.0979 49.2155a3.22 3.22 0 0 1 -.329 2.5213 25.88 25.88 0 0 1 -8.221 9.0972 32.7219 32.7219 0 0 1 -8.5494 4.275l4.1648 12.8252a34.55 34.55 0 0 0 14.7978-8.2211c6.9058-6.4673 13.2629-16.4422 19.84-30.034l18.5242-39.6791z"/></svg>