<svg id="Ebene_1" data-name="Ebene 1" xmlns="http://www.w3.org/2000/svg" viewBox="0 0 600 400"><defs><style>.cls-1{fill:#656668;}.cls-2{fill:#3594d1;}.cls-3{fill:#1b75bb;}.cls-4{fill:#61b9e8;}</style></defs><title>simplabs</title><path class="cls-1" d="M381,161.929v50.448c0,3.946,1.026,6.863,2.986,8.729s5.259,2.884,9.946,2.986l1.046-6.242a19.967,19.967,0,0,1-2.98-.612,4.639,4.639,0,0,1-1.993-1.1,4.012,4.012,0,0,1-1.046-1.875,11.553,11.553,0,0,1-.336-3.039v-49.29Zm72,0v60.118c1.744.482,3.963.957,6.69,1.441a55.109,55.109,0,0,0,9.394.716,24.443,24.443,0,0,0,8.841-1.494,18.748,18.748,0,0,0,6.683-4.308,19,19,0,0,0,4.255-6.853,25.546,25.546,0,0,0,1.547-9.058,28.878,28.878,0,0,0-1.271-8.79,19.716,19.716,0,0,0-3.7-6.907,16.9,16.9,0,0,0-6.018-4.472,19.576,19.576,0,0,0-8.125-1.606,20.24,20.24,0,0,0-6.518.994,21.048,21.048,0,0,0-4.2,1.821v-21.6Zm-217.649,2.486a4.95,4.95,0,0,0-3.479,1.331,4.489,4.489,0,0,0-1.382,3.532,4.627,4.627,0,0,0,1.382,3.591,5.4,5.4,0,0,0,6.957,0,4.694,4.694,0,0,0,1.435-3.591,4.555,4.555,0,0,0-1.435-3.532,4.977,4.977,0,0,0-3.478-1.331Zm-30.615,16.25c-4.791,0-8.609,1.045-11.38,3.2a10.529,10.529,0,0,0-4.144,8.782,9.572,9.572,0,0,0,3.591,8.012,16.2,16.2,0,0,0,3.868,2.323c1.492.663,3.057,1.355,4.7,1.993a35.554,35.554,0,0,1,7.3,3.592,5,5,0,0,1,2.151,4.308,3.959,3.959,0,0,1-2.211,3.808c-1.494.8-3.8,1.218-6.907,1.218a24.53,24.53,0,0,1-7.625-.942c-1.854-.621-3.158-1.063-4.032-1.381v6.854c.752.261,1.649.553,2.816.882a33.64,33.64,0,0,0,8.841.888c5.4,0,9.513-.957,12.433-2.926a9.878,9.878,0,0,0,4.367-8.737,12.221,12.221,0,0,0-.888-4.973,9.6,9.6,0,0,0-2.54-3.479,17.146,17.146,0,0,0-4.091-2.54c-1.58-.716-3.342-1.467-5.353-2.21-1.527-.535-2.84-1.01-3.928-1.494a13.424,13.424,0,0,1-2.765-1.545,5.441,5.441,0,0,1-1.6-1.881,5.249,5.249,0,0,1-.55-2.427,4.077,4.077,0,0,1,2.374-3.868,11.9,11.9,0,0,1,5.578-1.217,24.712,24.712,0,0,1,6.242.665,19.6,19.6,0,0,1,3.815,1.322v-6.848c-.146-.044-.223-.068-.387-.113-.787-.214-1.728-.422-2.763-.6s-2.115-.371-3.315-.5a33.716,33.716,0,0,0-3.592-.163Zm215.939,0a44.029,44.029,0,0,0-7.46.6,28.624,28.624,0,0,0-3.921.942v6.407a23.548,23.548,0,0,1,4.145-1.045,36.549,36.549,0,0,1,6.58-.553,11.66,11.66,0,0,1,4.8.88,7.335,7.335,0,0,1,2.876,2.21,8.383,8.383,0,0,1,1.492,3.2,16.8,16.8,0,0,1,.389,3.651v2.1c-.224-.051-.621-.173-1.165-.276s-1.141-.2-1.874-.336-1.5-.25-2.323-.33-1.614-.11-2.374-.11a31.937,31.937,0,0,0-6.907.725,17.66,17.66,0,0,0-5.689,2.21,11.177,11.177,0,0,0-3.868,4.031,11.554,11.554,0,0,0-1.441,5.915,13.984,13.984,0,0,0,1.215,6.129,10.477,10.477,0,0,0,3.428,4.144,14.959,14.959,0,0,0,5.25,2.264,28.548,28.548,0,0,0,6.63.725c1.685,0,3.369-.1,5.086-.226s3.28-.285,4.748-.44,2.807-.311,3.98-.5,2.107-.336,2.763-.44V196.576a24.1,24.1,0,0,0-.829-6.467,12.025,12.025,0,0,0-7.8-8.288,22.678,22.678,0,0,0-7.736-1.156Zm96.811,0c-4.792,0-8.549,1.045-11.328,3.2a10.576,10.576,0,0,0-4.2,8.782,9.954,9.954,0,0,0,3.592,8.012,16.746,16.746,0,0,0,3.921,2.323c1.5.663,3.063,1.355,4.7,1.993a34.8,34.8,0,0,1,7.243,3.592,5.048,5.048,0,0,1,2.211,4.308,3.969,3.969,0,0,1-2.211,3.808,15.213,15.213,0,0,1-6.907,1.218,24.583,24.583,0,0,1-7.632-.942c-1.883-.629-3.211-1.114-4.084-1.434v6.907c.751.252,1.7.546,2.875.882a33.61,33.61,0,0,0,8.841.888c5.387,0,9.516-.957,12.433-2.926a9.891,9.891,0,0,0,4.361-8.737,12.327,12.327,0,0,0-.882-4.973,9.828,9.828,0,0,0-2.6-3.479,16.71,16.71,0,0,0-4.032-2.54c-1.58-.716-3.348-1.467-5.362-2.21-1.527-.535-2.831-1.01-3.919-1.494a13.136,13.136,0,0,1-2.762-1.545,5.188,5.188,0,0,1-2.16-4.308,4.08,4.08,0,0,1,2.376-3.868,11.674,11.674,0,0,1,5.526-1.217,25.212,25.212,0,0,1,6.3.665,19.952,19.952,0,0,1,3.755,1.268v-6.794c-.128-.044-.19-.068-.327-.113-.793-.214-1.735-.422-2.762-.6s-2.175-.371-3.376-.5a33.709,33.709,0,0,0-3.591-.163Zm-247.6.163a53.532,53.532,0,0,0-7.184.716c-2.866.485-5.163.9-6.907,1.331v40.388h7.573V188.175c.216-.051.665-.172,1.321-.276s1.364-.2,2.157-.276,1.616-.111,2.487-.164,1.666-.113,2.427-.113a10.5,10.5,0,0,1,4.48.829,6.32,6.32,0,0,1,2.763,2.6,12.566,12.566,0,0,1,1.434,4.421,40.812,40.812,0,0,1,.44,6.3v21.764h7.572V199.892a39.958,39.958,0,0,0-.329-5.2,27.478,27.478,0,0,0-.992-4.524,12.729,12.729,0,0,1,3.419-1.83,17.028,17.028,0,0,1,6.3-1,10.855,10.855,0,0,1,4.587.829,6.286,6.286,0,0,1,2.762,2.6,12.1,12.1,0,0,1,1.382,4.421,45.454,45.454,0,0,1,.387,6.3v21.764h7.572V199.892a43.7,43.7,0,0,0-.612-7.623,15.113,15.113,0,0,0-2.374-6.079,11.476,11.476,0,0,0-4.863-3.98,19.643,19.643,0,0,0-8.012-1.382,20.276,20.276,0,0,0-4.747.5,32.031,32.031,0,0,0-3.981,1.209,20.96,20.96,0,0,0-3.039,1.381c-.82.482-1.39.838-1.771,1.106a12.19,12.19,0,0,0-4.7-3.143,18.913,18.913,0,0,0-6.854-1.055c-.942,0-1.822-.026-2.7,0Zm73.214,0a46.922,46.922,0,0,0-6.794.716c-2.7.511-4.947,1.011-6.744,1.444v55.083h7.623V221.442a20.753,20.753,0,0,0,4.195,1.821,20.009,20.009,0,0,0,6.47.941,19.8,19.8,0,0,0,8.175-1.6A16.74,16.74,0,0,0,362,218.126a19.593,19.593,0,0,0,3.755-6.854,28.768,28.768,0,0,0,1.218-8.73,25.761,25.761,0,0,0-1.494-9.056,18.145,18.145,0,0,0-11-11.164,23.96,23.96,0,0,0-8.781-1.494c-.888,0-1.77-.033-2.6,0ZM231.6,181.71v41.553h7.623V181.71ZM470.3,187.3a12.463,12.463,0,0,1,5.576,1.155,10.366,10.366,0,0,1,3.817,3.205,13.365,13.365,0,0,1,2.151,4.808,26.441,26.441,0,0,1,.612,6.027c0,4.851-1.2,8.573-3.651,11.215a12.816,12.816,0,0,1-9.836,3.98,40.266,40.266,0,0,1-5.137-.276,25.721,25.721,0,0,1-3.262-.612V190.5a15.95,15.95,0,0,1,4.032-2.157,15.238,15.238,0,0,1,5.7-1.045Zm-124.716.163a12.89,12.89,0,0,1,9.834,3.921c2.453,2.615,3.644,6.31,3.644,11.162a26.137,26.137,0,0,1-.656,5.967,13.4,13.4,0,0,1-2.106,4.808,10.136,10.136,0,0,1-3.809,3.2,12.348,12.348,0,0,1-5.585,1.164,16.609,16.609,0,0,1-9.723-3.2V188.237a20.368,20.368,0,0,1,3.037-.552,45.7,45.7,0,0,1,5.364-.226Zm76.919,16.526a29.31,29.31,0,0,1,4.421.276,9.515,9.515,0,0,1,2.65.716V217.35a21.988,21.988,0,0,1-3.479.449c-1.391.077-2.962.1-4.757.1a13.928,13.928,0,0,1-7.123-1.547c-1.744-1.035-2.6-2.909-2.6-5.577a5.384,5.384,0,0,1,1.046-3.487,7.345,7.345,0,0,1,2.659-2.038,11.538,11.538,0,0,1,3.532-1,33.115,33.115,0,0,1,3.651-.276v.009Z"/><path class="cls-2" d="M109.136,200h40.433a40.434,40.434,0,0,0-40.434-40.434V200Z"/><path class="cls-3" d="M109.135,159.566A40.368,40.368,0,0,0,74.72,178.851L109.135,200Z"/><path class="cls-2" d="M109.135,200,74.72,178.851A40.177,40.177,0,0,0,68.7,200h40.435Z"/><path class="cls-4" d="M109.135,200v40.434a40.366,40.366,0,0,0,34.415-19.287L109.136,200Z"/><path class="cls-2" d="M109.136,200l34.414,21.147A40.178,40.178,0,0,0,149.569,200Z"/><path class="cls-2" d="M68.7,200a40.434,40.434,0,0,0,40.435,40.434V200Z"/></svg>