<svg id="Ebene_1" data-name="Ebene 1" xmlns="http://www.w3.org/2000/svg" viewBox="0 0 600 400"><title>sinnerschrader</title><path d="M19.7,212.7C7,212.7.4,205.8,0,192.1a1.146,1.146,0,0,1,1-1.3l9.7-1.6a1.028,1.028,0,0,1,1.2.7v.3c.3,8.3,2.8,11.6,8.1,11.6,5,0,7.4-2.7,7.4-11.2s-1.6-11.2-7.8-13.7L15,175C4.1,170.7.8,165,.8,152.8c0-13.5,6.2-21,19.1-21s18.6,6.9,19.3,19.2c0,.7-.4,1-1,1.3L29,153.7c-.7.1-1.3-.2-1.3-.9-.2-6.5-2.3-10.1-7.4-10.1-4.9,0-7.2,3-7.2,9.5,0,7.3,1.4,9.5,7.6,11.9l4.8,1.8c10.3,4.1,14.3,9.6,14.3,23C39.9,204.6,34.7,212.7,19.7,212.7Z"/><path d="M43.6,134.1a1.188,1.188,0,0,1,1-1.2H54.8a1.188,1.188,0,0,1,1.2,1v76.5a1.188,1.188,0,0,1-1,1.2H44.7a1.188,1.188,0,0,1-1.2-1V134.1Z"/><path d="M62.4,134.1a1.188,1.188,0,0,1,1-1.2H75.8a1.383,1.383,0,0,1,1.6,1.2L92,188.5h.6V134.1a1.188,1.188,0,0,1,1-1.2h8.7a1.188,1.188,0,0,1,1.2,1v76.5a1.188,1.188,0,0,1-1,1.2H90.9a1.383,1.383,0,0,1-1.6-1.2L74,156.1h-.7v54.4a1.188,1.188,0,0,1-1,1.2H63.6a1.188,1.188,0,0,1-1.2-1V134.1Z"/><path d="M110,134.1a1.188,1.188,0,0,1,1-1.2h12.3a1.383,1.383,0,0,1,1.6,1.2l14.6,54.4h.6V134.1a1.188,1.188,0,0,1,1-1.2h8.8a1.188,1.188,0,0,1,1.2,1v76.5a1.188,1.188,0,0,1-1,1.2H138.5a1.383,1.383,0,0,1-1.6-1.2L121.6,156h-.7v54.4a1.188,1.188,0,0,1-1,1.2h-8.7a1.188,1.188,0,0,1-1.2-1V134.1Z"/><path d="M157.6,134.1a1.188,1.188,0,0,1,1-1.2H191a1.188,1.188,0,0,1,1.2,1v9a1.188,1.188,0,0,1-1,1.2H170.7a.752.752,0,0,0-.7.5v20.9a.752.752,0,0,0,.5.7h17.8a1.188,1.188,0,0,1,1.2,1v9a1.188,1.188,0,0,1-1,1.2H170.8a.752.752,0,0,0-.7.5v21.7a.752.752,0,0,0,.5.7H191a1.188,1.188,0,0,1,1.2,1v9a1.188,1.188,0,0,1-1,1.2H158.8a1.188,1.188,0,0,1-1.2-1V134.1Z"/><path d="M228.1,211.6a1.213,1.213,0,0,1-1.3-.8l-9.6-31.4h-5.9a.752.752,0,0,0-.7.5v30.5a1.188,1.188,0,0,1-1,1.2H199.5a1.188,1.188,0,0,1-1.2-1V134.1a1.188,1.188,0,0,1,1-1.2h16c14,0,22.5,6.1,22.5,23.4,0,10.3-3.5,16.8-9.4,20.1l11.1,34c.2.6,0,1.2-.6,1.2Zm-2.8-55.3c0-9.3-3-12.2-10-12.2h-4a.752.752,0,0,0-.7.5v23.2a.752.752,0,0,0,.5.7h4.2C222.3,168.5,225.3,165.7,225.3,156.3Z"/><path d="M262.3,212.7c-12.7,0-19.3-6.8-19.7-20.6,0-.7.2-1.2.9-1.3l9.7-1.6a1.028,1.028,0,0,1,1.2.7v.3c.4,8.3,2.8,11.6,8.1,11.6,5,0,7.4-2.7,7.4-11.2s-1.6-11.2-7.8-13.7l-4.7-1.8c-10.9-4.3-14.1-10-14.1-22.2,0-13.5,6.1-21,19.1-21s18.6,6.9,19.3,19.2c0,.7-.3,1-1,1.3l-9.3,1.4c-.7.1-1.3-.2-1.3-.9-.2-6.5-2.3-10.1-7.4-10.1-4.9,0-7.2,3-7.2,9.5,0,7.3,1.4,9.5,7.6,11.9l4.8,1.8c10.3,4.1,14.4,9.6,14.4,23C282.5,204.6,277.3,212.7,262.3,212.7Z"/><path d="M287.1,172.3c0-21.9.5-25.1,1.5-28.4,2.4-7.5,8.2-12,17.8-12,11.2,0,18.3,5.8,19,18.9.1.7-.1,1.3-.8,1.4l-9.4,1.6a1.028,1.028,0,0,1-1.2-.7v-.3c-.4-6.7-2.7-9.6-7.2-9.6-3.5,0-5.3,1.5-6.2,4.4-.6,1.8-.8,3.5-.8,24.8s.2,22.9.8,24.8c.9,2.9,2.8,4.4,6.2,4.4,4.5,0,6.8-2.9,7.2-9.6a.945.945,0,0,1,1-1h.3l9.4,1.6c.7.1.9.7.8,1.4-.7,13.1-7.8,18.9-19,18.9-9.6,0-15.4-4.5-17.8-12C287.6,197.4,287.1,194.1,287.1,172.3Z"/><path d="M332.1,134.1a1.188,1.188,0,0,1,1-1.2h10.2a1.188,1.188,0,0,1,1.2,1V165a.752.752,0,0,0,.5.7h13.5a.752.752,0,0,0,.7-.5V134a1.188,1.188,0,0,1,1-1.2h10.2a1.188,1.188,0,0,1,1.2,1v76.5a1.188,1.188,0,0,1-1,1.2H360.5a1.188,1.188,0,0,1-1.2-1V177.7a.752.752,0,0,0-.5-.7H345.2a.752.752,0,0,0-.7.5v33a1.188,1.188,0,0,1-1,1.2H333.3a1.188,1.188,0,0,1-1.2-1V134.1Z"/><path d="M408,211.6a1.213,1.213,0,0,1-1.3-.8l-9.6-31.4h-5.9c-.3-.1-.6.2-.7.5v30.5a1.188,1.188,0,0,1-1,1.2H379.3a1.188,1.188,0,0,1-1.2-1V134.1a1.188,1.188,0,0,1,1-1.2h16c14,0,22.5,6.1,22.5,23.4,0,10.3-3.5,16.8-9.4,20.1l11.1,34c.2.6,0,1.2-.6,1.2Zm-2.8-55.3c0-9.3-3-12.2-10-12.2h-4c-.3-.1-.6.2-.7.5v23.2a.752.752,0,0,0,.5.7h4.2C402.2,168.5,405.2,165.7,405.2,156.3Z"/><path d="M439.7,134.1c.2-.7.6-1.2,1.3-1.2h9.7a1.3,1.3,0,0,1,1.3,1.2l16.7,76.4a.8.8,0,0,1-.6,1.1c-.1,0-.2.1-.4,0h-9.8a1.3,1.3,0,0,1-1.3-1.1v-.1l-3.1-15.9H437.9l-3.1,15.9a1.216,1.216,0,0,1-1.2,1.2h-9.9a.974.974,0,0,1-1-.8v-.4Zm11.7,50.1-5.6-29.3h-.3l-5.8,29.3Z"/><path d="M472.6,134.1a1.188,1.188,0,0,1,1-1.2H492c10.3,0,16.3,4.2,19.1,12.6,1.4,4.3,2,9.6,2,26.7s-.6,22.5-2,26.7c-2.8,8.4-8.8,12.6-19.1,12.6H473.8a1.188,1.188,0,0,1-1.2-1V134.1Zm13.1,66.3h5c4.4,0,7-1.7,8.3-5.7.9-2.9,1.4-6.7,1.4-22.5s-.4-19.5-1.3-22.4c-1.4-3.9-3.9-5.7-8.3-5.7h-5a.752.752,0,0,0-.7.5v55.1c-.1.3.2.6.5.7Z"/><path d="M518.1,134.1a1.188,1.188,0,0,1,1-1.2h32.4a1.188,1.188,0,0,1,1.2,1v9a1.188,1.188,0,0,1-1,1.2H531.2c-.3-.1-.6.2-.7.5v20.9a.752.752,0,0,0,.5.7h17.8a1.188,1.188,0,0,1,1.2,1v9a1.188,1.188,0,0,1-1,1.2H531.3c-.3-.1-.6.2-.7.5v21.7a.752.752,0,0,0,.5.7h20.6a1.188,1.188,0,0,1,1.2,1v9a1.188,1.188,0,0,1-1,1.2H519.5a1.188,1.188,0,0,1-1.2-1v-.1Z"/><path d="M588.6,211.6a1.213,1.213,0,0,1-1.3-.8l-9.6-31.4h-5.9a.752.752,0,0,0-.7.5v30.5a1.188,1.188,0,0,1-1,1.2H559.9a1.188,1.188,0,0,1-1.2-1V134.1a1.188,1.188,0,0,1,1-1.2h16c14,0,22.5,6.1,22.5,23.4,0,10.3-3.5,16.8-9.4,20.1l11.1,34c.2.6,0,1.2-.6,1.2Zm-2.8-55.3c0-9.3-3-12.2-10-12.2h-4a.752.752,0,0,0-.7.5v23.2a.752.752,0,0,0,.5.7h4.2C582.8,168.5,585.8,165.7,585.8,156.3Z"/><path d="M0,235H9.3c6.3,0,11.5,2.8,11.5,9.6v.2c0,7-5.2,9.7-11.5,9.7H4v13.3H0Zm9.6,16.3c4.7,0,7.2-2.3,7.2-6.5v-.2c0-4.6-2.8-6.4-7.2-6.4H4v13.1Z"/><path d="M23.8,261.1c0-5.6,5.9-7.4,12-7.4h3.4V252c0-3.8-1.5-5.4-5.1-5.4-3.3,0-5.1,1.4-5.5,4.3H24.8c.5-5.5,4.9-7.5,9.5-7.5s8.8,1.9,8.8,8.6v15.8H39.3v-3a8.673,8.673,0,0,1-7.5,3.4C27.4,268.2,23.8,266.1,23.8,261.1Zm15.5-1.7v-3H36c-4.8,0-8.3,1.2-8.3,4.7,0,2.5,1.2,4,4.5,4,4,.1,7.1-2,7.1-5.7Z"/><path d="M50.3,243.8h3.8v4.3c1.5-2.7,3.6-4.6,7.9-4.7V247c-4.8.2-7.9,1.7-7.9,7.7v13.1H50.3Z"/><path d="M68.2,261.8V247H64.8v-3.2h3.4v-5.5H72v5.5h5.6V247H72v14.4c0,2.3,1.1,3.5,3,3.5a7.1,7.1,0,0,0,2.9-.5v3.2a9.123,9.123,0,0,1-3.3.5C70.3,268.1,68.2,265.6,68.2,261.8Z"/><path d="M93.4,256v-.4c0-7.2,5-12.2,11.8-12.2s11.8,5,11.8,12.2v.4c0,7.2-5,12.2-11.8,12.2S93.4,263,93.4,256Zm19.6,0v-.3c0-5.6-3.1-9.1-7.8-9.1s-7.8,3.6-7.8,9.1v.4c0,5.5,3,9,7.8,9s7.8-3.7,7.8-9.1Z"/><path d="M123.4,247H120v-3.2h3.4v-3.9c0-4.9,2.4-7.7,7.1-7.7a6.632,6.632,0,0,1,2.8.5v3.2a8.574,8.574,0,0,0-2.7-.5c-2.5,0-3.5,1.7-3.5,4.1v4.3H133V247h-5.9v20.8h-3.8V247Z"/><path d="M159,235h5.2l11.1,32.8h-3.9l-3.2-9.5H154.6l-3.2,9.5h-3.8Zm-3.3,20.2h11.4l-5.7-16.9Z"/><path d="M178,256.1v-.4c0-7.3,5.2-12.3,11.6-12.3,5,0,9.7,2.3,10.4,8.4h-3.8c-.6-3.8-3.4-5.2-6.6-5.2-4.4,0-7.7,3.5-7.7,9.1v.4c0,5.9,3.2,9,7.8,9,3.4,0,6.5-2,6.9-5.9h3.5c-.5,5.2-4.7,9-10.5,9C183.1,268.2,178,263.5,178,256.1Z"/><path d="M203.8,256.1v-.4c0-7.3,5.2-12.3,11.6-12.3,5,0,9.7,2.3,10.4,8.4H222c-.6-3.8-3.4-5.2-6.6-5.2-4.4,0-7.7,3.5-7.7,9.1v.4c0,5.9,3.2,9,7.8,9,3.4,0,6.5-2,6.9-5.9h3.5c-.5,5.2-4.7,9-10.5,9C208.9,268.2,203.8,263.5,203.8,256.1Z"/><path d="M229.7,256.1v-.4c0-7.2,4.6-12.3,11.2-12.3,5.5,0,10.8,3.4,10.8,11.9v1.2H233.6c.2,5.5,2.8,8.5,7.7,8.5,3.7,0,5.9-1.4,6.4-4.2h3.8c-.8,4.8-4.8,7.3-10.2,7.3C234.4,268.2,229.7,263.5,229.7,256.1Zm18.1-2.6c-.4-5-2.9-6.9-6.9-6.9s-6.5,2.7-7.1,6.9Z"/><path d="M257.2,243.8H261v3.8c1.1-2.2,3.8-4.2,7.7-4.2,5,0,8.4,2.7,8.4,9.7v14.7h-3.8v-15c0-4.2-1.8-6.1-5.6-6.1-3.5,0-6.7,2.2-6.7,6.6v14.5h-3.8Z"/><path d="M285.1,261.8V247h-3.4v-3.2h3.4v-5.5h3.8v5.5h5.6V247h-5.6v14.4c0,2.3,1.1,3.5,3,3.5a7.1,7.1,0,0,0,2.9-.5v3.2a8.591,8.591,0,0,1-3.2.5C287.2,268.1,285.1,265.6,285.1,261.8Z"/><path d="M300,259V243.8h3.8v15c0,4.2,1.8,6.1,5.5,6.1a6.279,6.279,0,0,0,6.6-6V243.8h3.8v24h-3.8V264a8.3,8.3,0,0,1-7.6,4.2C303.6,268.2,300,265.6,300,259Z"/><path d="M327.1,243.8h3.8v4.3c1.5-2.7,3.6-4.6,7.9-4.7V247c-4.8.2-7.9,1.7-7.9,7.7v13.1h-3.8Z"/><path d="M341.6,256.1v-.4c0-7.2,4.6-12.3,11.2-12.3,5.5,0,10.8,3.4,10.8,11.9v1.2H345.5c.2,5.5,2.8,8.5,7.7,8.5,3.7,0,5.9-1.4,6.4-4.2h3.8c-.8,4.8-4.8,7.3-10.2,7.3C346.4,268.2,341.6,263.5,341.6,256.1Zm18.1-2.6c-.4-5-2.9-6.9-6.9-6.9s-6.5,2.7-7.1,6.9Z"/><path d="M381.4,235h4v32.8h-4Z"/><path d="M393.3,243.8h3.8v3.8c1.1-2.2,3.8-4.2,7.7-4.2,5,0,8.4,2.7,8.4,9.7v14.7h-3.8v-15c0-4.2-1.8-6.1-5.6-6.1-3.5,0-6.7,2.2-6.7,6.6v14.5h-3.8Z"/><path d="M421.2,261.8V247h-3.4v-3.2h3.4v-5.5H425v5.5h5.6V247H425v14.4c0,2.3,1.1,3.5,3,3.5a7.1,7.1,0,0,0,2.9-.5v3.2a8.591,8.591,0,0,1-3.2.5C423.3,268.1,421.2,265.6,421.2,261.8Z"/><path d="M434.5,256.1v-.4c0-7.2,4.6-12.3,11.2-12.3,5.5,0,10.8,3.4,10.8,11.9v1.2h-18c.2,5.5,2.8,8.5,7.7,8.5,3.7,0,5.9-1.4,6.4-4.2h3.9c-.8,4.8-4.8,7.3-10.2,7.3C439.4,268.2,434.5,263.5,434.5,256.1Zm18.1-2.6c-.4-5-2.9-6.9-6.9-6.9s-6.5,2.7-7.2,6.9Z"/><path d="M462,243.8h3.8v4.3c1.5-2.7,3.6-4.6,7.9-4.7V247c-4.8.2-7.9,1.7-7.9,7.7v13.1H462Z"/><path d="M476.8,261.1c0-5.6,5.9-7.4,12-7.4h3.4V252c0-3.8-1.5-5.4-5.1-5.4-3.3,0-5.1,1.4-5.5,4.3h-3.8c.5-5.5,4.9-7.5,9.5-7.5s8.8,1.9,8.8,8.6v15.8h-3.8v-3a8.673,8.673,0,0,1-7.5,3.4C480.3,268.2,476.8,266.1,476.8,261.1Zm15.4-1.7v-3h-3.3c-4.8,0-8.3,1.2-8.3,4.7,0,2.5,1.2,4,4.5,4,4,.1,7.1-2,7.1-5.7Z"/><path d="M501.4,256.1v-.4c0-7.3,5.2-12.3,11.7-12.3,5,0,9.7,2.3,10.4,8.4h-3.8c-.6-3.8-3.3-5.2-6.7-5.2-4.4,0-7.7,3.5-7.7,9.1v.4c0,5.9,3.2,9,7.8,9,3.4,0,6.5-2,6.9-5.9h3.5c-.5,5.2-4.7,9-10.5,9C506.4,268.2,501.4,263.5,501.4,256.1Z"/><path d="M529.8,261.8V247h-3.4v-3.2h3.4v-5.5h3.8v5.5h5.6V247h-5.6v14.4c0,2.3,1.1,3.5,3,3.5a7.1,7.1,0,0,0,2.9-.5v3.2a8.591,8.591,0,0,1-3.2.5C531.9,268.1,529.8,265.6,529.8,261.8Z"/><path d="M544.3,236.3a2.5,2.5,0,1,1,2.5,2.5A2.61,2.61,0,0,1,544.3,236.3Zm.7,7.5h3.8v24H545Z"/><path d="M553.6,243.8h4.1l7.1,20.1,7-20.1h3.9l-8.6,24h-4.8Z"/><path d="M578,256.1v-.4c0-7.2,4.6-12.3,11.2-12.3,5.5,0,10.8,3.4,10.8,11.9v1.2H581.9c.2,5.5,2.8,8.5,7.7,8.5,3.7,0,5.9-1.4,6.4-4.2h3.8c-.8,4.8-4.8,7.3-10.2,7.3C582.8,268.2,578,263.5,578,256.1Zm18.1-2.6c-.4-5-2.9-6.9-6.9-6.9s-6.5,2.7-7.2,6.9Z"/></svg>