<svg viewBox="0 0 600 400" xmlns="http://www.w3.org/2000/svg"><path d="m221.3158 231.7729 5.4568-12.6739a36.3778 36.3778 0 0 0 21.4753 6.689c5.7209 0 9.33-2.2 9.33-5.5448-.088-9.3295-34.2373-2.0244-34.5014-25.436-.088-11.8819 10.4736-21.0353 25.436-21.0353 8.8894 0 17.7787 2.2 24.1157 7.2171l-5.1047 12.9381c-5.809-3.6966-13.0261-6.337-19.8911-6.337-4.6648 0-7.7453 2.2-7.7453 5.0167.0881 9.1535 34.5014 4.1367 34.8535 26.4922 0 12.1459-10.2977 20.6832-25.0839 20.6832-10.8257 0-20.7713-2.5524-28.34-8.0093"/><path d="m430.7 214.5223a15.7545 15.7545 0 1 1 0-15.49l15.05-8.3613a33.0051 33.0051 0 1 0 0 32.213z"/><path d="m282.3092 146.3997h18.8349v92.1503h-18.8349z"/><path d="m453.144 146.4v92.15h18.835v-27.636l22.355 27.636h24.116l-28.428-32.829 26.316-30.629h-23.06l-21.299 25.436v-54.128z"/><path d="m357.1209 214.6983a17.3687 17.3687 0 0 1 -14.6983 7.8332 15.7545 15.7545 0 1 1 0-31.5089 17.3775 17.3775 0 0 1 14.6983 8.0973zm0-39.6062v7.4812c-3.0805-5.1928-10.7377-8.8014-18.7469-8.8014-16.5466 0-29.5726 14.61-29.5726 32.9171s13.026 33.0932 29.5726 33.0932c8.0092 0 15.6664-3.6086 18.7469-8.8014v7.4812h18.8349v-63.37z"/><path d="m104.8736 214.61a11.6178 11.6178 0 1 1 -11.6178-11.6178h11.6178z" fill="#e01e5a"/><path d="m110.6825 214.61a11.6179 11.6179 0 0 1 23.2357 0v29.0445a11.6179 11.6179 0 0 1 -23.2357 0z" fill="#e01e5a"/><path d="m122.3 167.963a11.6178 11.6178 0 1 1 11.6178-11.6178v11.6178z" fill="#36c5f0"/><path d="m122.3 173.86a11.6178 11.6178 0 1 1 0 23.2356h-29.1322a11.6178 11.6178 0 0 1 0-23.2356z" fill="#36c5f0"/><path d="m168.86 185.4777a11.6178 11.6178 0 1 1 11.6178 11.6178h-11.6178z" fill="#2eb67d"/><path d="m163.0507 185.4777a11.6178 11.6178 0 0 1 -23.2356 0v-29.1325a11.6178 11.6178 0 1 1 23.2356 0z" fill="#2eb67d"/><g fill="#ecb22e"><path d="m151.4329 232.037a11.6178 11.6178 0 1 1 -11.6178 11.6178v-11.6178z"/><path d="m151.4329 226.2281a11.6178 11.6178 0 1 1 0-23.2356h29.1325a11.6178 11.6178 0 0 1 0 23.2356z"/></g></svg>