<svg data-name="Ebene 1" xmlns="http://www.w3.org/2000/svg" viewBox="0 0 600 400"><path d="M417.244 146.707v21.317H374.61v63.952h42.634v21.317H374.61l-21.317-21.317v-63.952l21.317-21.317zm-19.185 2.132l17.053 17.054v-17.054zm-130.035-2.132h42.635l21.317 21.317v21.318L321.317 200l10.659 10.659v42.634h-21.317v-42.635h-21.317v42.635h-21.318zm21.318 21.317v21.318h21.317v-21.318zm-19.186-2.131l17.054-17.054h-17.054zm-87.4 2.131l21.317-21.317h42.634v21.317h-42.634v21.318h42.634v42.634l-21.317 21.317h-42.634v-21.317h42.634v-21.317h-42.634zm44.766 23.45l17.054 17.053v-17.054z"/></svg>