<svg id="Ebene_1" data-name="Ebene 1" xmlns="http://www.w3.org/2000/svg" viewBox="0 0 600 400"><defs><style>.cls-1{fill:#6772e5;fill-rule:evenodd}</style></defs><path class="cls-1" d="M492.027 202.667c0-27.31-13.229-48.86-38.512-48.86-25.39 0-40.752 21.55-40.752 48.647 0 32.111 18.135 48.327 44.166 48.327 12.695 0 22.296-2.88 29.55-6.935V222.51a56.648 56.648 0 0 1-26.137 5.867c-10.348 0-19.522-3.627-20.696-16.215h52.168c0-1.387.213-6.935.213-9.495zm-52.7-10.135c0-12.055 7.36-17.069 14.081-17.069 6.508 0 13.442 5.014 13.442 17.07zm-67.744-38.725a30.138 30.138 0 0 0-20.91 8.321l-1.387-6.614h-23.47v124.39l26.67-5.654.107-30.19c3.84 2.773 9.495 6.72 18.883 6.72 19.096 0 36.485-15.362 36.485-49.18-.106-30.938-17.708-47.793-36.378-47.793zm-6.4 73.504c-6.295 0-10.029-2.24-12.589-5.015l-.107-39.578c2.774-3.094 6.615-5.228 12.696-5.228 9.708 0 16.429 10.882 16.429 24.857 0 14.295-6.615 24.963-16.43 24.963zm-76.065-79.798l26.778-5.761v-21.657l-26.778 5.655v21.763z"/><path fill="#6772e5" d="M289.118 155.62h26.777v93.347h-26.777z"/><path class="cls-1" d="M260.421 163.515l-1.707-7.895h-23.043v93.347h26.67v-63.262c6.295-8.215 16.963-6.721 20.27-5.548V155.62c-3.414-1.28-15.896-3.627-22.19 7.895zM207.08 132.47l-26.03 5.548-.107 85.452c0 15.789 11.842 27.417 27.63 27.417 8.749 0 15.15-1.6 18.67-3.52V225.71c-3.414 1.387-20.27 6.294-20.27-9.495v-37.872h20.27V155.62h-20.27zm-72.116 50.248c0-4.161 3.413-5.761 9.067-5.761a59.503 59.503 0 0 1 26.458 6.827v-25.07a70.353 70.353 0 0 0-26.458-4.907c-21.656 0-36.058 11.308-36.058 30.191 0 29.444 40.539 24.75 40.539 37.445 0 4.908-4.267 6.508-10.241 6.508-8.855 0-20.163-3.627-29.124-8.535v25.39a73.953 73.953 0 0 0 29.124 6.081c22.19 0 37.445-10.988 37.445-30.084-.107-31.791-40.752-26.137-40.752-38.085z"/></svg>