<svg viewBox="0 0 600 400" xmlns="http://www.w3.org/2000/svg"><path d="m252.2227 173.46v53.08h-10.6164v-42.464h-21.2291v42.464h-10.6164v-42.464h-21.2327v42.464h-10.6164v-53.08zm-191.0937 10.616v21.232h31.8491v10.616h-31.8491v10.616h42.4655v-31.848h-31.8491v-10.616zm10.6164 0v-10.616h31.8491v10.616zm53.0819-10.616h-10.6164v42.464h10.6164zm42.468 10.616v42.464h-42.468v-10.616h31.8517v-31.848zm106.16 31.848h-10.6163v10.616h10.6164zm21.3454 10.616v-10.616h31.8493v10.616zm0-42.464h31.8493v-10.616h-42.4655v42.464h10.6163zm106.0585 0h10.6163v42.464h-10.6162zm10.6163-10.616v10.616h21.2328v31.848h10.6164v-31.848h21.229v42.464h10.6163v-53.08zm-31.8491 0v42.464h-31.8446l-.007-31.848h-10.6164l.007 42.464h53.0775v-53.08zm148.6282 10.616v31.848h-31.8516l.0069-31.848h31.8422v-10.616h-42.4585v53.08h53.0774v-42.464z" fill="#2b2f32"/></svg>