<svg viewBox="0 0 600 400" xmlns="http://www.w3.org/2000/svg"><path d="m380.4693 170.641h-.2143a18.1189 18.1189 0 0 0 -12.8579 5.3575 18.5082 18.5082 0 0 0 -12.858-5.3575h-.2143a17.9713 17.9713 0 0 0 -18.0011 18.0011v34.9308a5.1478 5.1478 0 0 0 10.2863 0v-34.9308a7.6827 7.6827 0 0 1 7.7148-7.7147h.2143a7.6367 7.6367 0 0 1 7.7148 7.5v35.1451c.2593 2.533 2.0423 4.9289 4.9289 4.9289a5.1728 5.1728 0 0 0 5.1431-4.9289v-35.359a7.9327 7.9327 0 0 1 7.7148-7.5h.2143a7.6827 7.6827 0 0 1 7.7148 7.7147v35.1451a5.1478 5.1478 0 0 0 10.2863 0v-34.9312a17.7894 17.7894 0 0 0 -17.7868-18.0011zm-60.8609 0a5.173 5.173 0 0 0 -5.1432 4.9289v34.9307a7.7325 7.7325 0 0 1 -7.9291 7.7148h-.2143a7.8674 7.8674 0 0 1 -7.929-7.7148v-35.145a5.1479 5.1479 0 0 0 -10.2864 0v34.9308a18.1557 18.1557 0 0 0 18.2154 18.0011h.2143a18.1556 18.1556 0 0 0 18.2154-18.0011v-34.7164a5.0326 5.0326 0 0 0 -5.1431-4.929zm121.7218 0a5.1729 5.1729 0 0 0 -5.1431 4.9289v34.9307a7.7325 7.7325 0 0 1 -7.9291 7.7148h-.2143a7.8675 7.8675 0 0 1 -7.9291-7.7148v-35.145a5.1478 5.1478 0 0 0 -10.2863 0v34.9308a18.1557 18.1557 0 0 0 18.2154 18.0011h.2144a18.1557 18.1557 0 0 0 18.2154-18.0011v-34.7164a5.173 5.173 0 0 0 -5.1432-4.9289z" fill-rule="evenodd"/><path d="m475.4038 170.641h-.2138a18.2474 18.2474 0 0 0 -18.43 18.2154v63.4326a5.1432 5.1432 0 1 0 10.2863 0v-26.359c1.9287 1.7144 5.1432 2.5716 8.1434 2.5716h.2143c10.2863 0 18.0011-8.7863 18.0011-18.8583v-21.2154c-.0002-10.0721-7.7151-17.7869-18.0013-17.7869zm8.1434 39.4311c0 5.5717-3.6431 7.929-7.9291 7.929h-.2143c-4.5 0-7.929-2.3573-7.929-7.929v-21.2157a8.0513 8.0513 0 0 1 7.929-7.929h.2143a7.779 7.779 0 0 1 7.9291 7.929z"/><path d="m262.8191 193.571c-5.7861-2.3573-9.4292-3.8574-9.4292-7.2861 0-2.7859 2.143-5.3575 7.0719-5.3575a9.0567 9.0567 0 0 1 7.5005 3.8574c1.2858 1.5 2.5716 2.3573 4.0717 2.3573a5.2625 5.2625 0 0 0 5.3575-5.1432 3.9518 3.9518 0 0 0 -.8572-2.7859c-3.2145-4.9289-9.8578-8.3577-16.0725-8.3577-8.5719 0-17.3582 5.3575-17.3582 15.6439 0 10.5006 8.572 13.9294 15.6438 16.501 5.5718 2.143 10.5007 4.0717 10.5007 8.572 0 3.4287-3.2145 6.8575-9.2149 6.8575a9.9729 9.9729 0 0 1 -7.7147-3.2145 5.5024 5.5024 0 0 0 -4.0717-2.143 5.4058 5.4058 0 0 0 -5.3575 5.1432 5.12 5.12 0 0 0 1.0715 3c3.2145 4.9289 10.5007 7.2862 16.0724 7.2862 9.4292 0 19.7155-6 19.7155-16.93-.2143-11.5716-9.4287-15.2147-16.9296-18.0006z" fill-rule="evenodd"/><path d="m195.5292 133.9959h-113.7928a9.5129 9.5129 0 0 0 -9.4292 9.4291v113.15a9.5129 9.5129 0 0 0 9.4292 9.4291h113.7928a9.5129 9.5129 0 0 0 9.4292-9.4291v-113.15a9.3746 9.3746 0 0 0 -9.4292-9.4291zm-40.0739 99.22a31.0785 31.0785 0 0 1 -42.217 1.5l-.2143-.2143a2.0017 2.0017 0 0 1 0-2.7859l41.146-40.9306a2.2531 2.2531 0 0 1 2.7859 0 30.9074 30.9074 0 0 1 -1.5006 42.4313zm8.5719-65.3613-41.1454 40.9312a2.2531 2.2531 0 0 1 -2.7859 0 30.9042 30.9042 0 0 1 43.5027-43.7171.21.21 0 0 1 .2143.2143 1.5139 1.5139 0 0 1 .2143 2.5721z"/><path d="m517.4064 170.641a10.2864 10.2864 0 1 0 10.2864 10.2864 10.2886 10.2886 0 0 0 -10.2864-10.2864zm0 18.0011a7.7148 7.7148 0 1 1 7.7148-7.7147 7.6826 7.6826 0 0 1 -7.7148 7.7147z"/><path d="m518.4779 181.356a2.5455 2.5455 0 0 0 2.143-2.5716c0-1.7144-1.2858-2.7859-3.2145-2.7859h-2.5716a1.0123 1.0123 0 0 0 -1.0715 1.0715v7.0719a1.0715 1.0715 0 0 0 2.143 0v-2.5719l2.5716 3.2145c.2143.4286.4286.4286 1.0715.4286a1 1 0 0 0 1.0715-1.0715 1.1134 1.1134 0 0 0 -.4286-.8572zm-.8572-1.5h-1.2858v-2.143h1.2858a1.0123 1.0123 0 0 1 1.0715 1.0715 1.148 1.148 0 0 1 -1.0715 1.0714z"/></svg>