<svg id="Ebene_1" data-name="Ebene 1" xmlns="http://www.w3.org/2000/svg" xmlns:xlink="http://www.w3.org/1999/xlink" viewBox="0 0 600 400"><defs><style>.cls-1{fill:none}.cls-6{fill:#425066}</style><clipPath id="clip-path"><path class="cls-1" d="M362.384 104.275l-60.739-34.701v142.245l24.263-14.091v-40.019l18.327 10.604-.102-27.372-18.225-10.413v-15.897l36.559 21.124-.083-31.48z"/></clipPath><linearGradient id="linear-gradient" x1="229.833" y1="140.527" x2="378.994" y2="140.527" gradientUnits="userSpaceOnUse"><stop offset="0" stop-color="#ff6f00"/><stop offset="1" stop-color="#ffa800"/></linearGradient><clipPath id="clip-path-2"><path class="cls-1" d="M235.443 104.275l60.739-34.701v142.245l-24.263-14.091v-83.097l-36.559 21.124.083-31.48z"/></clipPath><linearGradient id="linear-gradient-2" x1="228.825" y1="140.527" x2="377.985" y2="140.527" xlink:href="#linear-gradient"/></defs><g clip-path="url(#clip-path)"><path fill="url(#linear-gradient)" d="M229.833 69.054h149.16v142.945h-149.16z"/></g><g clip-path="url(#clip-path-2)"><path fill="url(#linear-gradient-2)" d="M228.825 69.054h149.16v142.945h-149.16z"/></g><path class="cls-6" d="M113.245 269.007H91.323v60.454h-12.12v-60.454H57.475v-9.85h55.77z"/><path class="cls-6" d="M127.79 330.426q-11.154 0-18.083-7.025t-6.929-18.711v-1.449a31.345 31.345 0 0 1 3.018-13.978 22.965 22.965 0 0 1 8.474-9.585 22.405 22.405 0 0 1 12.168-3.428q10.671 0 16.49 6.808t5.818 19.266v4.732h-34.138a15.684 15.684 0 0 0 4.322 10.236 12.974 12.974 0 0 0 9.536 3.767 15.887 15.887 0 0 0 13.134-6.519l6.325 6.036a21.122 21.122 0 0 1-8.377 7.267 26.237 26.237 0 0 1-11.758 2.583zm-1.4-44.76a9.882 9.882 0 0 0-7.798 3.38q-2.97 3.38-3.79 9.415h22.355v-.869q-.387-5.89-3.138-8.908a9.808 9.808 0 0 0-7.629-3.018zm42.346-8.45l.338 6.035a18.786 18.786 0 0 1 15.21-7q16.32 0 16.61 18.686v34.524h-11.733v-33.848q0-4.973-2.149-7.364t-7.025-2.39a11.306 11.306 0 0 0-10.575 6.422v37.18H157.68v-52.245zm70.23 38.049a5.32 5.32 0 0 0-2.584-4.78q-2.583-1.641-8.57-2.897a44.025 44.025 0 0 1-9.995-3.187q-8.789-4.249-8.788-12.313a13.906 13.906 0 0 1 5.697-11.299q5.697-4.538 14.486-4.539 9.367 0 15.137 4.636a14.71 14.71 0 0 1 5.77 12.023h-11.733a7.234 7.234 0 0 0-2.51-5.625 9.623 9.623 0 0 0-6.664-2.246 10.399 10.399 0 0 0-6.301 1.787 5.632 5.632 0 0 0-2.439 4.78 4.754 4.754 0 0 0 2.27 4.2q2.269 1.498 9.174 3.019a43.431 43.431 0 0 1 10.84 3.621 15.361 15.361 0 0 1 5.843 5.046 12.873 12.873 0 0 1 1.907 7.146 13.612 13.612 0 0 1-5.842 11.42q-5.843 4.37-15.307 4.37a27.011 27.011 0 0 1-11.443-2.318 18.828 18.828 0 0 1-7.823-6.373 15.085 15.085 0 0 1-2.8-8.74h11.395a8.266 8.266 0 0 0 3.139 6.398 12.196 12.196 0 0 0 7.677 2.245q4.635 0 7.05-1.763a5.455 5.455 0 0 0 2.414-4.611zm17.577-12.41a30.808 30.808 0 0 1 3.042-13.833 22.218 22.218 0 0 1 8.547-9.464 24.084 24.084 0 0 1 12.651-3.308q10.574 0 17.165 6.808t7.122 18.059l.049 2.752a31.083 31.083 0 0 1-2.97 13.81 21.953 21.953 0 0 1-8.498 9.416 24.26 24.26 0 0 1-12.772 3.331q-11.057 0-17.696-7.363t-6.64-19.628zm11.734 1.014q0 8.065 3.332 12.627a10.83 10.83 0 0 0 9.27 4.563 10.713 10.713 0 0 0 9.247-4.635q3.307-4.636 3.308-13.569 0-7.918-3.405-12.554a11.474 11.474 0 0 0-18.372-.072q-3.38 4.563-3.38 13.64zm72.14-15.934a29.057 29.057 0 0 0-4.78-.386q-8.064 0-10.864 6.18v35.731H313.04v-52.244h11.203l.29 5.842q4.248-6.808 11.781-6.808a10.991 10.991 0 0 1 4.153.676zm49.058 11.733H361.18v29.793h-12.216v-70.304h44.664v9.85H361.18v20.908h28.295zm23.179 29.792h-11.733v-70.457h11.733zm8.596-26.605a30.808 30.808 0 0 1 3.043-13.833 22.217 22.217 0 0 1 8.546-9.464 24.084 24.084 0 0 1 12.651-3.308q10.575 0 17.166 6.808t7.121 18.059l.049 2.752a31.081 31.081 0 0 1-2.97 13.81 21.951 21.951 0 0 1-8.498 9.416 24.259 24.259 0 0 1-12.771 3.331q-11.059 0-17.697-7.363t-6.64-19.628zm11.734 1.014q0 8.065 3.332 12.627a10.831 10.831 0 0 0 9.27 4.563 10.713 10.713 0 0 0 9.247-4.635q3.307-4.636 3.308-13.569 0-7.918-3.404-12.554a11.474 11.474 0 0 0-18.373-.072q-3.38 4.563-3.38 13.64zm89.792 9.416l8.305-36.07h11.444l-14.244 52.246h-9.657l-11.202-35.877-11.01 35.877h-9.657l-14.292-52.245h11.443l8.45 35.683 10.72-35.683h8.836z"/></svg>