<svg id="Ebene_1" data-name="Ebene 1" xmlns="http://www.w3.org/2000/svg" viewBox="0 0 600 400"><defs><style>.cls-1{fill:#ff574d;}</style></defs><title>thinktecture</title><g id="Wortmarke"><path class="cls-1" d="M314.093,85.8v115.55h14.4V160.4h.306l21.395,40.951h15.114L343.4,159.33l19.352-34.67h-14.91L328.8,157.492h-.306V85.8Zm-124.129,0v115.55h14.552V146.871l.051-.715v-.765l.052-.664.051-.715.051-.664.1-.613.1-.612.153-.613.153-.562.153-.561.205-.511.2-.46.2-.459.255-.46.256-.408.255-.409.306-.357.307-.358.306-.306.358-.306.357-.307.357-.255.409-.2.408-.2.46-.154.459-.2.46-.153.46-.1.459-.051.562-.051.561-.051h1.124l.51.051.511.051.46.1.51.051.46.153.459.153.409.154.408.153.409.2.357.2.358.307.306.255.357.306.307.307.255.357.255.357.256.358.255.357.2.46.2.408.154.46.153.459.153.46.153.562.1.561.1.562.051.613.052.612.051.613.051.664v56.422h14.143v-60.2l-.051-1.072-.051-1.072-.051-1.021-.153-1.022-.153-.919-.153-.919-.2-.868-.256-.868-.255-.817-.306-.817-.307-.715-.357-.714-.409-.664-.408-.664-.46-.562-.51-.561-.511-.511-.562-.511-.561-.459-.613-.46-.664-.357-.715-.357-.715-.307-.765-.306-.766-.256-.766-.255-.868-.153-.868-.153-.919-.1-.92-.1-.97-.051h-.97l-1.021.051-1.021.051-1.021.153-1.022.2-1.021.255-1.021.358-1.021.357-1.022.46-.97.459-.97.562-.97.613-.97.663-.97.766-.919.817-.92.868-.97.919V85.8Zm60.3,7.557h-.409l-.357.051-.358.051-.357.051-.357.1-.409.1-.357.1-.358.153-.357.153-.358.154-.357.2-.306.2-.307.2-.306.256-.306.306-.307.255-.255.307-.255.306-.256.306-.2.307-.2.357-.2.307-.154.357-.153.357-.153.358-.1.357-.1.358-.1.357-.051.358-.051.357v.409l-.052.357.052.408v.409l.051.357.051.409.1.357.1.358.1.357.153.358.153.408.154.306.2.358.2.306.2.358.256.255.255.306.255.307.307.255.306.255.306.307.307.2.357.2.306.2.358.2.357.153.358.153.357.153.358.1.357.051.408.051.358.051.408.051h.817l.358-.051.357-.051.358-.051.408-.051.409-.1.357-.153.357-.153.358-.153.357-.2.358-.2.306-.2.306-.2.307-.307.306-.255.307-.255.255-.307.255-.255.255-.306.2-.358.255-.306.153-.358.2-.306.154-.357.153-.358.1-.357.1-.358.051-.357.051-.409.051-.357v-.46l.051-.408-.051-.357v-.409l-.051-.357-.051-.358-.051-.357-.1-.358-.1-.357-.153-.358-.154-.357-.2-.357-.153-.307-.255-.357-.2-.307-.255-.306-.255-.306-.255-.256-.307-.255-.306-.306-.307-.256-.306-.255-.306-.2-.358-.2-.357-.154-.358-.153-.357-.153-.357-.1-.409-.1-.408-.1-.358-.051-.357-.051-.358-.051ZM292.7,123.332l-1.123.051-1.123.1-.562.051-.562.052-.561.153-.511.1-.511.153-.51.2-.511.153-.51.154-.46.2-.46.255-.459.256-.46.255-.459.255-.46.255-.459.307-.46.357-.408.307-.46.357-.408.357-.409.358-.817.817-.766.919-.715.919-.714,1.021h-.358v-7.3H262.93v76.948h14.348V145.646l.051-.664.051-.664.051-.613.051-.561.051-.613.1-.562.154-.561.153-.511.153-.51.153-.46.2-.46.2-.459.255-.46.255-.408.256-.409.306-.357.306-.357.307-.358.357-.306.357-.307.358-.255.357-.255.409-.2.408-.2.409-.153.459-.153.409-.1.459-.153.46-.051.459-.052.511-.051h1.021l.562.051.511.052.51.051.46.1.459.153.46.1.408.2.409.153.408.205.358.255.357.255.357.256.307.306.306.306.256.358.255.357.255.358.255.408.2.409.2.51.153.46.153.51.153.511.154.562.1.561.1.562.051.613.051.612.051.664v.715l.051.715v55.707h14.195V141.51l-.051-1.123-.051-1.073-.051-1.021-.153-1.021-.154-.97-.153-.919-.2-.92-.255-.868-.256-.817-.306-.816-.357-.766-.358-.715-.408-.664-.46-.664-.459-.613-.511-.561-.562-.562-.561-.51-.613-.46-.613-.46-.664-.408-.714-.358-.715-.357-.766-.306-.766-.256-.817-.255-.868-.153-.919-.153-.919-.153-.97-.052-1.022-.051H292.7Zm-49.58,78.021h14.195V124.66H243.118Z"/><path class="cls-1" d="M202.933,263.443l.1-2.451.051-1.123.1-1.124.051-1.072.1-1.021.153-.97.153-.97.154-.868.2-.817.153-.817.153-.766.2-.715.256-.664.255-.664.255-.561.307-.562.357-.511.358-.459.408-.46.408-.357.46-.358.511-.306.51-.255.562-.256.562-.153.612-.153.613-.1.664-.051.664-.051.561.051.562.051.562.051.51.153.46.153.51.205.46.255.459.255.409.358.357.357.358.409.357.459.307.46.306.51.255.562.256.613.2.663.255.715.153.766.153.766.154.817.153.919.153.97.153.97.1,1.022.1,1.072.052,1.174.051,1.226.051,2.553.051,2.757H202.985Zm7.915-28.237-1.481.154-1.43.2-1.378.255-1.328.358-1.276.459-1.226.511-1.174.612-1.123.715-1.124.766-1.021.817-.97.919L196.4,242l-.97,1.073-.868,1.174-.817,1.226-.715,1.327-.664,1.379-.664,1.481-.562,1.582-.561,1.634-.511,1.736-.459,1.788-.409,1.889-.408,1.94-.307,2.094-.255,2.144-.2,2.2-.2,2.246-.1,2.4-.051,2.451-.051,2.553.051,2.3.051,2.3.1,2.195.2,2.094.2,2.042.255,1.941.307,1.889.357,1.787.409,1.787.408,1.634.511,1.583.51,1.532.562,1.481.613,1.327.663,1.328.715,1.225.766,1.123.817,1.073.868,1.021.919.919.97.817,1.022.817,1.072.664,1.123.613,1.124.561,1.174.46,1.225.408,1.277.358,1.328.255,1.378.2,1.43.1,1.481.051,1.378-.051,1.328-.051,1.276-.153,1.226-.153,1.225-.255,1.175-.307,1.123-.357,1.072-.358,1.022-.459,1.021-.511.919-.561.868-.562.868-.664.817-.715.766-.766.715-.817.715-.868.663-.919.562-.97.613-1.021.51-1.072.46-1.124.459-1.174.409-1.226.357-1.276.307-1.328.255-1.429.255-1.43.153-1.481.154-1.532.1-1.634.051-1.634H221.315l-.051,1.89-.1,1.787-.153,1.634-.2,1.532-.153.663-.154.715-.153.613-.153.613-.153.561-.153.562-.2.511-.2.459-.255.46-.255.408-.256.358-.306.357-.358.358-.357.306-.357.306-.409.256-.408.2-.46.2-.459.153-.511.153-.511.1-.561.051-.562.051h-1.379l-.766-.051-.714-.154-.664-.153-.613-.2-.613-.255-.561-.307-.511-.408-.511-.409-.459-.459-.409-.511-.408-.561-.357-.613-.256-.664-.255-.715-.255-.817-.205-.766-.2-.868-.153-.919-.153-.97-.153-1.021-.154-1.072-.153-1.073-.1-1.123-.2-2.5-.1-2.6-.1-2.809-.051-3.012h32.27v-5.923l-.051-2.706-.051-2.605-.153-2.5-.154-2.4-.255-2.247-.255-2.145-.153-1.021-.154-1.021-.2-.97-.2-.919-.2-.919-.256-.868-.255-.868-.255-.766-.255-.817-.256-.766-.306-.715-.306-.715-.307-.715-.357-.613-.358-.612-.357-.562-.358-.511-.357-.561-.408-.46-.409-.459-.868-.868-.868-.817-.868-.715-.919-.715-.97-.613-.919-.561-.971-.562-.97-.46-1.021-.408-1.021-.358-1.072-.306-1.073-.255-1.123-.2-1.123-.154-1.124-.051-1.174-.051Z"/><polygon class="cls-1" points="262.317 235.002 261.194 235.053 260.07 235.155 258.947 235.308 257.875 235.513 256.803 235.819 255.73 236.177 254.709 236.636 253.688 237.147 252.718 237.657 251.697 238.321 250.726 239.036 249.807 239.802 248.888 240.619 247.969 241.538 247.05 242.508 246.182 243.529 245.773 244.04 245.365 244.653 244.957 245.214 244.599 245.827 244.191 246.491 243.833 247.155 243.527 247.869 243.169 248.635 242.863 249.401 242.557 250.167 242.25 250.984 241.995 251.801 241.74 252.669 241.484 253.537 241.229 254.456 241.025 255.426 240.77 256.397 240.616 257.367 240.412 258.388 240.259 259.46 239.953 261.605 239.748 263.903 239.544 266.251 239.391 268.753 239.34 271.357 239.289 274.064 239.34 276.617 239.391 279.068 239.493 281.416 239.646 283.714 239.799 285.91 240.055 288.054 240.31 290.046 240.616 291.986 241.025 293.875 241.382 295.611 241.842 297.296 242.352 298.93 242.608 299.696 242.863 300.411 243.118 301.126 243.425 301.841 243.731 302.504 244.037 303.168 244.395 303.832 244.701 304.445 245.059 305.006 245.416 305.619 245.773 306.13 246.182 306.691 246.539 307.202 246.948 307.713 247.356 308.172 247.816 308.632 248.275 309.091 248.684 309.5 249.195 309.908 249.654 310.317 250.165 310.674 250.675 310.981 251.186 311.338 251.748 311.644 252.258 311.951 252.82 312.206 253.382 312.461 253.994 312.717 254.556 312.921 255.169 313.125 255.781 313.329 256.394 313.483 257.058 313.636 257.722 313.738 258.385 313.84 259.049 313.942 259.764 313.993 260.479 314.044 261.143 314.044 261.909 314.044 262.624 314.044 263.389 313.993 264.155 313.942 264.921 313.891 265.687 313.738 266.453 313.585 267.27 313.431 268.087 313.227 268.904 313.023 269.721 312.717 270.538 312.461 271.406 312.155 272.223 311.798 273.091 311.44 274.01 311.083 274.878 310.674 274.878 298.777 273.499 299.441 272.223 300.002 271.049 300.462 269.925 300.819 268.853 301.126 267.883 301.381 267.372 301.432 266.964 301.483 266.504 301.483 266.096 301.483 265.381 301.483 264.768 301.381 264.104 301.279 263.44 301.126 262.828 300.871 262.266 300.615 261.653 300.258 261.143 299.9 260.632 299.441 260.122 298.981 259.662 298.42 259.202 297.858 258.794 297.245 258.385 296.53 257.977 295.764 257.62 294.999 257.262 294.182 256.956 293.262 256.649 292.343 256.394 291.322 256.088 290.301 255.884 289.229 255.679 288.054 255.475 286.88 255.322 285.654 255.169 284.327 255.067 282.948 254.964 281.57 254.913 280.14 254.811 278.608 254.811 277.025 254.811 275.442 254.811 273.655 254.811 271.97 254.913 270.336 254.964 268.753 255.067 267.17 255.169 265.741 255.322 264.362 255.475 262.983 255.679 261.707 255.884 260.43 256.088 259.256 256.394 258.184 256.649 257.163 256.905 256.141 257.262 255.222 257.569 254.354 257.977 253.537 258.334 252.771 258.743 252.056 259.202 251.393 259.713 250.831 260.173 250.269 260.734 249.759 261.245 249.299 261.807 248.891 262.419 248.584 263.083 248.278 263.747 248.023 264.411 247.869 265.126 247.716 265.891 247.665 266.657 247.614 267.423 247.665 268.24 247.767 269.159 247.921 270.129 248.227 271.202 248.533 272.274 248.942 273.448 249.401 274.674 249.963 274.674 237.708 272.785 237.096 270.997 236.534 269.312 236.074 267.73 235.666 266.198 235.36 264.819 235.155 264.155 235.104 263.543 235.053 262.93 235.002 262.317 235.002"/><polygon class="cls-1" points="160.706 215.446 160.706 236.279 151.515 236.279 151.515 247.614 160.706 247.614 160.706 282.795 160.808 282.795 160.808 289.535 160.808 291.118 160.859 292.599 160.962 294.079 161.115 295.509 161.37 296.888 161.574 298.215 161.881 299.441 162.187 300.666 162.544 301.79 162.953 302.862 163.412 303.883 163.872 304.853 164.434 305.823 165.046 306.691 165.353 307.1 165.659 307.457 165.966 307.815 166.323 308.223 166.68 308.581 167.038 308.938 167.446 309.296 167.804 309.602 168.621 310.215 169.489 310.776 170.408 311.338 171.429 311.798 172.45 312.206 173.522 312.563 174.646 312.921 175.871 313.227 177.097 313.483 178.424 313.687 179.752 313.891 181.182 313.993 182.611 314.044 184.143 314.044 184.143 302.402 183.581 302.351 183.02 302.351 182.509 302.249 181.999 302.198 181.539 302.096 181.028 301.943 180.569 301.79 180.109 301.585 179.701 301.381 179.292 301.126 178.935 300.871 178.578 300.615 178.271 300.309 177.914 299.951 177.607 299.594 177.301 299.186 176.995 298.828 176.739 298.369 176.535 297.909 176.28 297.449 176.076 296.939 175.922 296.377 175.718 295.816 175.616 295.254 175.463 294.641 175.31 293.977 175.208 293.314 175.156 292.65 175.054 291.935 175.054 291.22 175.003 290.454 175.003 289.688 175.003 282.795 175.105 282.795 175.105 247.614 184.398 247.614 184.398 236.279 175.105 236.279 175.105 215.446 160.706 215.446"/><polygon class="cls-1" points="288.716 215.446 288.716 236.279 279.525 236.279 279.525 247.614 288.716 247.614 288.716 314.044 303.115 314.044 303.115 247.614 312.357 247.614 312.357 236.279 303.115 236.279 303.115 215.446 288.716 215.446"/><path class="cls-1" d="M416.316,263.188l.051-3.319.1-1.736.153-1.787.1-.92.153-.868.153-.868.153-.868.256-.817.255-.766.255-.765.307-.766.357-.664.409-.715.408-.613.511-.612.561-.511.562-.46.664-.408.664-.358.765-.255.817-.2.817-.1.919-.051.613.051.562.051.562.051.51.153.511.153.459.256.46.255.408.255.409.358.357.357.358.409.357.459.306.46.256.51.255.562.255.562.2.663.2.715.2.766.153.766.153.817.154.919.153.97.153.97.1,1.022.1,1.072.051,1.174.051,1.226.051,2.553.051,2.757H416.367v-2.859Zm7.966-27.982-1.481.154-1.43.2-1.378.255-1.328.358-1.276.459-1.226.511-1.174.612-1.123.715-1.124.766-1.021.817-1.021.919L409.781,242l-.868,1.073-.868,1.174-.817,1.226-.715,1.327-.715,1.379-.664,1.481-.562,1.582-.561,1.634-.511,1.736-.459,1.788-.409,1.889-.357,1.94-.307,2.094-.255,2.144-.2,2.2-.153,2.246-.1,2.4-.052,2.451-.051,2.553v2.3l.1,2.3.1,2.195.153,2.094.2,2.042.255,1.941.307,1.889.357,1.787.409,1.787.408,1.634.511,1.583.51,1.532.562,1.481.613,1.327.664,1.328.714,1.225.766,1.123.817,1.073.868,1.021.919.919.971.817.97.817,1.072.664,1.072.613,1.175.561,1.174.46,1.225.408,1.277.358,1.328.255,1.378.2,1.43.1,1.481.051,1.378-.051,1.277-.051,1.276-.153,1.277-.153,1.225-.255,1.175-.307,1.072-.357,1.072-.358,1.021-.459,1.022-.511.919-.561.868-.562.868-.664.817-.715.766-.766.715-.817.714-.868.664-.919.613-.97.562-1.021.51-1.072.46-1.124.459-1.174.358-1.226.357-1.276.307-1.328.255-1.429.255-1.43.153-1.481.154-1.532.1-1.634.051-1.634H434.647l-.051,1.89-.1,1.787-.153,1.634-.2,1.532-.154.663-.153.715-.153.613-.153.613-.153.561-.153.562-.205.511-.2.459-.255.46-.256.408-.255.358-.306.357-.358.358-.357.306-.358.306-.408.256-.408.2-.46.2-.46.153-.51.153-.511.1-.561.051-.613.051h-1.379l-.766-.051-.664-.154-.714-.153-.613-.2-.613-.255-.562-.307-.51-.408-.511-.46-.459-.459-.409-.511-.408-.562-.358-.612-.306-.664-.255-.715-.256-.817-.2-.766-.2-.868-.153-.919-.154-.97-.153-1.021-.153-1.073-.153-1.072-.1-1.123-.2-2.451-.1-2.655-.1-2.809-.051-3.012h32.271v-5.719l-.051-2.553-.051-2.6-.154-2.5-.153-2.4-.255-2.247-.306-2.144-.154-1.021-.153-.971-.2-.97-.2-.97-.2-.919-.255-.868-.255-.868-.255-.766-.256-.817-.255-.766-.306-.715-.307-.715-.306-.714-.358-.613-.357-.613-.357-.562-.358-.51-.357-.562-.409-.459-.408-.46-.868-.868-.868-.817-.919-.715-.868-.715-.92-.612-.97-.562-1.021-.562-.97-.459-1.021-.409-1.021-.357-1.073-.306-1.072-.256-1.123-.2-1.124-.153-1.123-.051-1.174-.051Z"/><polygon class="cls-1" points="398.445 235.002 397.832 235.053 397.22 235.155 396.607 235.257 396.045 235.411 395.382 235.564 394.82 235.819 394.207 236.074 393.696 236.33 393.084 236.636 392.573 237.045 392.012 237.351 391.501 237.81 390.939 238.219 390.429 238.679 389.918 239.189 389.407 239.7 388.897 240.21 388.437 240.772 387.927 241.385 387.467 241.997 387.008 242.661 386.548 243.274 386.088 243.938 385.68 244.653 384.863 246.133 384.046 247.614 383.689 247.614 383.689 236.279 369.136 236.279 369.136 314.044 383.689 314.044 383.689 267.017 383.689 265.536 383.74 264.107 383.791 262.779 383.944 261.503 384.097 260.328 384.25 259.154 384.455 258.082 384.71 257.06 385.016 256.09 385.323 255.222 385.68 254.405 386.037 253.69 386.446 253.027 386.854 252.414 387.11 252.159 387.365 251.852 387.62 251.648 387.876 251.393 388.437 250.984 388.999 250.576 389.612 250.218 390.327 249.861 391.041 249.554 391.807 249.197 392.624 248.942 393.492 248.686 394.411 248.482 395.33 248.278 396.301 248.125 397.424 247.972 398.445 247.818 399.62 247.716 400.743 247.665 401.968 247.614 401.968 235.308 401.049 235.155 400.385 235.053 399.722 235.002 399.058 234.951 398.445 235.002"/><polygon class="cls-1" points="349.172 236.074 349.172 288.361 349.172 290.199 349.069 291.833 348.967 292.65 348.916 293.416 348.814 294.182 348.712 294.845 348.559 295.509 348.457 296.122 348.252 296.735 348.099 297.245 347.895 297.807 347.691 298.266 347.487 298.726 347.231 299.134 346.976 299.543 346.67 299.9 346.363 300.258 346.057 300.564 345.699 300.819 345.342 301.126 344.933 301.381 344.525 301.585 344.117 301.79 343.657 301.892 343.146 302.045 342.636 302.198 342.125 302.249 341.563 302.351 341.002 302.351 340.44 302.402 339.878 302.351 339.317 302.351 338.806 302.249 338.296 302.198 337.785 302.096 337.325 301.943 336.866 301.79 336.406 301.585 335.998 301.381 335.589 301.126 335.232 300.871 334.875 300.615 334.517 300.309 334.16 299.951 333.904 299.594 333.547 299.186 333.292 298.828 333.036 298.369 332.832 297.909 332.577 297.449 332.373 296.939 332.168 296.377 332.015 295.816 331.862 295.254 331.76 294.641 331.607 293.977 331.504 293.314 331.453 292.65 331.351 291.935 331.351 291.22 331.3 290.454 331.3 289.688 331.3 236.074 317.105 236.074 317.105 289.535 317.105 291.067 317.156 292.599 317.259 294.079 317.412 295.509 317.616 296.888 317.82 298.215 318.178 299.441 318.484 300.666 318.841 301.79 319.25 302.862 319.709 303.883 320.169 304.853 320.731 305.823 321.343 306.691 321.65 307.1 321.956 307.457 322.262 307.815 322.62 308.223 322.977 308.581 323.335 308.938 323.743 309.296 324.101 309.602 324.918 310.215 325.786 310.776 326.705 311.338 327.726 311.798 328.747 312.206 329.819 312.563 330.943 312.921 332.168 313.227 333.394 313.483 334.721 313.687 336.049 313.891 337.479 313.993 338.908 314.044 340.44 314.044 341.921 314.044 343.351 313.993 344.78 313.891 346.108 313.687 347.384 313.483 348.661 313.227 349.835 312.921 350.959 312.563 352.031 312.155 353.052 311.746 354.022 311.236 354.941 310.725 355.401 310.47 355.809 310.164 356.218 309.857 356.575 309.5 356.984 309.193 357.341 308.836 357.699 308.479 358.056 308.121 358.362 307.764 358.669 307.355 358.975 306.998 359.282 306.589 359.843 305.67 360.354 304.7 360.864 303.73 361.324 302.658 361.681 301.534 362.039 300.309 362.396 299.083 362.652 297.807 362.856 296.428 363.06 295.05 363.213 293.518 363.315 292.037 363.366 290.454 363.366 288.82 363.366 236.074 349.172 236.074"/><polygon class="cls-1" points="175.003 167.959 175.105 167.959 175.105 135.995 184.398 135.995 184.398 124.66 175.105 124.66 175.105 103.776 160.706 103.776 160.706 124.66 151.515 124.66 151.515 135.995 160.706 135.995 160.706 167.959 160.808 167.959 160.808 176.793 160.808 178.376 160.859 179.908 160.962 181.388 161.115 182.767 161.37 184.146 161.574 185.473 161.881 186.699 162.187 187.924 162.544 189.047 162.953 190.12 163.412 191.141 163.872 192.162 164.434 193.081 165.046 193.949 165.353 194.358 165.659 194.766 165.966 195.124 166.323 195.481 166.68 195.89 167.038 196.196 167.446 196.553 167.804 196.86 168.621 197.472 169.489 198.034 170.408 198.596 171.429 199.106 172.45 199.515 173.522 199.872 174.646 200.23 175.871 200.536 177.097 200.74 178.424 200.996 179.752 201.149 181.182 201.251 182.611 201.302 184.143 201.353 184.143 189.66 183.581 189.66 183.02 189.609 182.509 189.558 181.999 189.456 181.539 189.354 181.028 189.252 180.569 189.047 180.109 188.894 179.701 188.639 179.292 188.435 178.935 188.179 178.578 187.873 178.271 187.567 177.914 187.209 177.607 186.903 177.301 186.494 176.995 186.086 176.739 185.626 176.535 185.218 176.28 184.707 176.076 184.197 175.922 183.635 175.718 183.073 175.616 182.512 175.463 181.95 175.31 181.286 175.208 180.622 175.156 179.908 175.054 179.244 175.054 178.529 175.003 177.763 175.003 176.946 175.003 167.959"/></g></svg>