<svg id="Ebene_1" data-name="Ebene 1" xmlns="http://www.w3.org/2000/svg" viewBox="0 0 600 400"><defs><style>.cls-1{fill:#e02429;}</style></defs><title>twilio</title><rect class="cls-1" x="371.924" y="155.803" width="28.295" height="17.459" rx="1.294" ry="1.294"/><path class="cls-1" d="M398.444,177.958h-49.3a1.772,1.772,0,0,0-1.621,1.252L341.2,203.436h0l-.327,1.252-7.7-25.732a1.848,1.848,0,0,0-1.664-1.239H312.3a1.845,1.845,0,0,0-1.663,1.24l-7.209,24.25h0l-.368,1.24-.319-1.254h0L299.69,191.2l-3.052-11.991a1.755,1.755,0,0,0-1.613-1.254H256.271V157.1a1.354,1.354,0,0,0-1.707-1.157l-24.331,7.6c-.73.24-1.294.582-1.294,1.294v13.128h-6.412a1.3,1.3,0,0,0-1.294,1.294v18.483a1.3,1.3,0,0,0,1.294,1.294h6.412v22.636c0,16.014,8.669,23.479,24.8,23.479,6.622,0,13.124-1.445,17.458-3.732v-19.4a.987.987,0,0,0-1.368-1.03,16.275,16.275,0,0,1-6.94,1.4c-4.335,0-6.622-1.806-6.622-6.742V199.029h13.877a1.3,1.3,0,0,0,1.294-1.294V182.13l18.244,60.812a1.851,1.851,0,0,0,1.666,1.239h20.169a1.894,1.894,0,0,0,1.689-1.232l8.635-26.943,4.395,14.088,4.009,12.852a1.877,1.877,0,0,0,1.679,1.235h20.29a1.858,1.858,0,0,0,1.67-1.238l18.518-60.988v60.957a1.3,1.3,0,0,0,1.294,1.294h24.744a1.3,1.3,0,0,0,1.294-1.294v-63.66A1.3,1.3,0,0,0,398.444,177.958Z"/><rect class="cls-1" x="404.971" y="155.803" width="27.332" height="88.403" rx="1.294" ry="1.294"/><rect class="cls-1" x="437.027" y="155.803" width="28.295" height="17.459" rx="1.294" ry="1.294"/><rect class="cls-1" x="437.509" y="177.958" width="27.332" height="66.248" rx="1.294" ry="1.294"/><path class="cls-1" d="M504.491,176.393c-21.672,0-37.084,15.893-37.084,34.435v.242c0,18.541,15.291,34.195,36.844,34.195,21.673,0,37.085-15.894,37.085-34.437v-.24C541.336,192.045,526.044,176.393,504.491,176.393Zm10.6,34.677c0,6.26-4.455,11.438-10.6,11.438-6.02,0-10.836-5.178-10.836-11.68v-.24c0-6.262,4.455-11.439,10.6-11.439,6.02,0,10.836,5.177,10.836,11.679Z"/><path class="cls-1" d="M131.287,127.377A72.623,72.623,0,1,0,203.909,200,72.624,72.624,0,0,0,131.287,127.377Zm0,126.106A53.483,53.483,0,1,1,184.77,200,53.483,53.483,0,0,1,131.287,253.483Z"/><circle class="cls-1" cx="149.373" cy="181.913" r="15.1"/><circle class="cls-1" cx="149.373" cy="218.086" r="15.1"/><circle class="cls-1" cx="113.201" cy="218.086" r="15.1"/><circle class="cls-1" cx="113.201" cy="181.914" r="15.1"/></svg>