<svg viewBox="0 0 600 400" xmlns="http://www.w3.org/2000/svg"><g fill="#e02429"><rect height="15.6995" rx="1.1636" width="25.4434" x="364.6759" y="160.2572"/><path d="m388.5232 180.1794h-44.3315a1.5936 1.5936 0 0 0 -1.4577 1.1258l-5.6857 21.7848-.2941 1.1258-6.924-23.1386a1.6617 1.6617 0 0 0 -1.4963-1.1142h-17.2731a1.6592 1.6592 0 0 0 -1.4954 1.1151l-6.4824 21.806-.331 1.1151-.2868-1.1277-2.7435-10.7843-2.7444-10.7826a1.5782 1.5782 0 0 0 -1.4505-1.1276h-34.8483v-18.7535a1.2176 1.2176 0 0 0 -1.535-1.04l-21.8789 6.8341c-.6564.2158-1.1635.5233-1.1635 1.1636v11.8049h-5.7658a1.1689 1.1689 0 0 0 -1.1636 1.1636v16.62a1.1689 1.1689 0 0 0 1.1636 1.1636h5.7658v20.3547c0 14.4 7.7953 21.1128 22.3006 21.1128 5.9546 0 11.8013-1.2994 15.6985-3.3559v-17.4449a.8874.8874 0 0 0 -1.23-.9262 14.6343 14.6343 0 0 1 -6.2406 1.2589c-3.8981 0-5.9546-1.624-5.9546-6.0626v-14.9432h12.4785a1.1691 1.1691 0 0 0 1.1636-1.1636v-14.0323l16.4053 54.6833a1.6645 1.6645 0 0 0 1.4981 1.1141h18.1363a1.703 1.703 0 0 0 1.5188-1.1078l7.7648-24.2277 3.952 12.6682 3.605 11.5568a1.6879 1.6879 0 0 0 1.51 1.1105h18.2451a1.6706 1.6706 0 0 0 1.5017-1.1132l16.6518-54.8416v54.8137a1.1689 1.1689 0 0 0 1.1636 1.1636h22.25a1.1689 1.1689 0 0 0 1.1636-1.1636v-57.2443a1.1689 1.1689 0 0 0 -1.16-1.1636z"/><rect height="79.4937" rx="1.1636" width="24.5775" x="394.3924" y="160.2572"/><rect height="15.6995" rx="1.1636" width="25.4434" x="423.2177" y="160.2572"/><rect height="59.5715" rx="1.1636" width="24.5775" x="423.6512" y="180.1794"/><path d="m483.8826 178.7722c-19.4878 0-33.3466 14.2912-33.3466 30.9646v.2176c0 16.6724 13.75 30.7488 33.1308 30.7488 19.4887 0 33.3476-14.2922 33.3476-30.9664v-.2159c0-16.6742-13.7509-30.7487-33.1318-30.7487zm9.5318 31.1822c0 5.6291-4.0061 10.2852-9.5318 10.2852-5.4133 0-9.7439-4.6561-9.7439-10.5028v-.2159c0-5.6309 4.006-10.2861 9.5317-10.2861 5.4133 0 9.744 4.6552 9.744 10.502z"/><path d="m148.2905 134.696a65.304 65.304 0 1 0 65.3031 65.3049v-.0009a65.3049 65.3049 0 0 0 -65.3031-65.304zm0 113.3969a48.0929 48.0929 0 1 1 48.093-48.0929 48.0929 48.0929 0 0 1 -48.093 48.0929z"/><circle cx="164.5538" cy="183.7358" r="13.5782"/><circle cx="164.5538" cy="216.2633" r="13.5782"/><circle cx="132.0273" cy="216.2633" r="13.5782"/><circle cx="132.0273" cy="183.7367" r="13.5782"/></g></svg>