<svg id="Ebene_1" data-name="Ebene 1" xmlns="http://www.w3.org/2000/svg" viewBox="0 0 600 400"><defs><style>.cls-1{fill:#1d1d1b}</style></defs><path class="cls-1" d="M317.348 169.5h10.51v20.483a14.322 14.322 0 0 1 4.1-2.41 18.036 18.036 0 0 1 7.3-1.337 18.39 18.39 0 0 1 8.054 1.691 18.627 18.627 0 0 1 6.009 4.569 19.341 19.341 0 0 1 3.78 6.763 26.265 26.265 0 0 1 1.292 8.283 23.755 23.755 0 0 1-1.645 8.865 21.16 21.16 0 0 1-4.718 7.208 22.91 22.91 0 0 1-7.437 4.9 28.056 28.056 0 0 1-10.35 1.828 89.92 89.92 0 0 1-16.908-1.428zm10.51 50.848a14.809 14.809 0 0 0 2.582.674 27.961 27.961 0 0 0 4.18.229 13.258 13.258 0 0 0 5.61-1.143 12.573 12.573 0 0 0 4.1-2.981 12.418 12.418 0 0 0 2.536-4.319 15.3 15.3 0 0 0 .846-5.026 18.365 18.365 0 0 0-.583-4.638 11.891 11.891 0 0 0-1.828-3.964 9.14 9.14 0 0 0-3.164-2.765 9.584 9.584 0 0 0-4.57-1.028q-4.81 0-7.254 2.444a9.142 9.142 0 0 0-2.445 6.729zM443.012 169.5h10.51v20.483a14.322 14.322 0 0 1 4.1-2.41 18.036 18.036 0 0 1 7.3-1.337 18.39 18.39 0 0 1 8.054 1.691 18.602 18.602 0 0 1 6.009 4.569 19.341 19.341 0 0 1 3.78 6.763 26.356 26.356 0 0 1 1.292 8.283 23.755 23.755 0 0 1-1.645 8.865 21.16 21.16 0 0 1-4.718 7.208 22.91 22.91 0 0 1-7.437 4.9 28.056 28.056 0 0 1-10.35 1.828 89.88 89.88 0 0 1-16.9-1.451zm10.51 50.848a14.825 14.825 0 0 0 2.58.674 27.987 27.987 0 0 0 4.183.229 13.242 13.242 0 0 0 5.609-1.143 12.573 12.573 0 0 0 4.1-2.981 12.409 12.409 0 0 0 2.536-4.319 15.247 15.247 0 0 0 .846-5.026 18.366 18.366 0 0 0-.583-4.638 11.862 11.862 0 0 0-1.828-3.964 9.14 9.14 0 0 0-3.164-2.765 9.584 9.584 0 0 0-4.57-1.028q-4.81 0-7.254 2.444a9.142 9.142 0 0 0-2.445 6.729zM261.496 169.5h11.218v35.529a25.617 25.617 0 0 0 .663 6.1 11.937 11.937 0 0 0 2.182 4.627 9.623 9.623 0 0 0 4.009 2.936 18.95 18.95 0 0 0 12.293 0 9.641 9.641 0 0 0 4.01-2.936 11.937 11.937 0 0 0 2.18-4.627 25.497 25.497 0 0 0 .664-6.1V169.5h11.218v37.528a26.098 26.098 0 0 1-1.61 9.265 20.901 20.901 0 0 1-4.718 7.437 22.33 22.33 0 0 1-7.61 4.992 29.866 29.866 0 0 1-20.563 0 22.28 22.28 0 0 1-7.608-4.992 20.898 20.898 0 0 1-4.719-7.437 26.164 26.164 0 0 1-1.6-9.265zm102.587 0h10.51v10.51h-10.51zm0 17.627h10.51v41.766h-10.51zm17.902-17.627h10.51v59.4h-10.51zm43.548 55.473a14.41 14.41 0 0 1-5.164 3.656 18.285 18.285 0 0 1-7.745 1.6 16.834 16.834 0 0 1-5.118-.8 14.314 14.314 0 0 1-4.627-2.445 12.224 12.224 0 0 1-3.427-4.226 13.38 13.38 0 0 1-1.291-6.055 14.59 14.59 0 0 1 1.337-6.363 13.199 13.199 0 0 1 3.735-4.718 16.582 16.582 0 0 1 5.792-2.891 26.836 26.836 0 0 1 7.483-.982h2.765q1.518 0 2.936.137l3.29.183v-.983a5.712 5.712 0 0 0-2.491-4.9 10.948 10.948 0 0 0-6.5-1.782 18.184 18.184 0 0 0-7.13 1.143 31.995 31.995 0 0 0-4.717 2.49l-4.81-7.117q1.246-.891 2.845-1.828a22.285 22.285 0 0 1 3.747-1.691 31.073 31.073 0 0 1 4.936-1.245 38.887 38.887 0 0 1 6.546-.491 22.295 22.295 0 0 1 7.254 1.142 16.651 16.651 0 0 1 5.609 3.085 13.586 13.586 0 0 1 3.564 4.809 14.84 14.84 0 0 1 1.245 6.1v28.057h-9.79zm0-14.954l-3.12-.183q-1.244-.091-2.626-.137h-2.354q-5.071 0-7.128 2a6.248 6.248 0 0 0-2.045 4.57 5.038 5.038 0 0 0 1.919 4.181 8.98 8.98 0 0 0 5.655 1.508 10.841 10.841 0 0 0 6.683-2.285 9.139 9.139 0 0 0 2.182-2.49 5.844 5.844 0 0 0 .845-3.028zm67.459 6.934a15.671 15.671 0 0 0 4.946 3.245 16.959 16.959 0 0 0 6.855 1.291 13.785 13.785 0 0 0 5.426-.892 3.027 3.027 0 0 0 2.045-2.935 3.291 3.291 0 0 0-1.874-3.119 16.971 16.971 0 0 0-3.21-1.428 55.742 55.742 0 0 0-5.518-1.52 38.483 38.483 0 0 1-4.455-1.428 16.767 16.767 0 0 1-4.318-2.444 13.233 13.233 0 0 1-3.29-3.736 10.056 10.056 0 0 1-1.291-5.209 10.359 10.359 0 0 1 1.508-5.564 13.35 13.35 0 0 1 3.964-4.1 19.586 19.586 0 0 1 5.517-2.536 22.115 22.115 0 0 1 6.192-.891 33.11 33.11 0 0 1 9.39 1.142 22.319 22.319 0 0 1 6.992 3.427l-5.438 7.392a18.263 18.263 0 0 0-4.455-2.285 18.666 18.666 0 0 0-6.5-1.028q-3.736 0-5.21 1.142a3.312 3.312 0 0 0-1.473 2.719q0 1.965 2.445 3.073a45.79 45.79 0 0 0 7.608 2.365 33.666 33.666 0 0 1 5.712 1.782 15.877 15.877 0 0 1 4.364 2.673 10.947 10.947 0 0 1 2.81 3.782 12.7 12.7 0 0 1 .983 5.209 10.684 10.684 0 0 1-1.428 5.472 12.884 12.884 0 0 1-3.873 4.147 19.35 19.35 0 0 1-5.712 2.627 24.824 24.824 0 0 1-6.855.937 32.03 32.03 0 0 1-10.6-1.645 17.683 17.683 0 0 1-7.574-4.855zm-342.298-90.364a73.411 73.411 0 1 0 73.408 73.414V200a73.41 73.41 0 0 0-73.41-73.411h.002zm-24.127 94.26a20.861 20.861 0 1 1 20.86-20.862v.002a20.86 20.86 0 0 1-20.86 20.86zm36.9-.057h-8v-41.721h8zm15.994 0h-8v-41.721h8zm15.994 0h-8v-41.721h8z"/><path class="cls-1" d="M126.567 187.045a12.944 12.944 0 1 0 12.943 12.945v-.001a12.955 12.955 0 0 0-12.943-12.944z"/></svg>