<svg id="Ebene_1" data-name="Ebene 1" xmlns="http://www.w3.org/2000/svg" viewBox="0 0 600 400"><defs><style>.cls-1{fill:#1d1d1b;}</style></defs><title>ubilabs</title><path class="cls-1" d="M317.346,169.5h10.51v20.483a14.322,14.322,0,0,1,4.1-2.41,18.036,18.036,0,0,1,7.3-1.337,18.389,18.389,0,0,1,8.054,1.691,18.627,18.627,0,0,1,6.009,4.569,19.34,19.34,0,0,1,3.781,6.763,26.264,26.264,0,0,1,1.291,8.283,23.753,23.753,0,0,1-1.645,8.865,21.159,21.159,0,0,1-4.718,7.208,22.908,22.908,0,0,1-7.437,4.9,28.056,28.056,0,0,1-10.35,1.828,89.913,89.913,0,0,1-16.908-1.428Zm10.51,50.848a14.812,14.812,0,0,0,2.582.674,27.957,27.957,0,0,0,4.181.229,13.258,13.258,0,0,0,5.609-1.143,12.571,12.571,0,0,0,4.1-2.981,12.417,12.417,0,0,0,2.536-4.319,15.3,15.3,0,0,0,.846-5.026,18.363,18.363,0,0,0-.583-4.638,11.892,11.892,0,0,0-1.828-3.964,9.138,9.138,0,0,0-3.164-2.765,9.584,9.584,0,0,0-4.57-1.028q-4.809,0-7.254,2.444a9.142,9.142,0,0,0-2.445,6.729Z"/><path class="cls-1" d="M443.01,169.5h10.51v20.483a14.322,14.322,0,0,1,4.1-2.41,18.036,18.036,0,0,1,7.3-1.337,18.389,18.389,0,0,1,8.054,1.691,18.6,18.6,0,0,1,6.009,4.569,19.34,19.34,0,0,1,3.781,6.763,26.354,26.354,0,0,1,1.291,8.283,23.753,23.753,0,0,1-1.645,8.865,21.159,21.159,0,0,1-4.718,7.208,22.908,22.908,0,0,1-7.437,4.9,28.056,28.056,0,0,1-10.35,1.828,89.876,89.876,0,0,1-16.9-1.451Zm10.51,50.848a14.824,14.824,0,0,0,2.581.674,27.978,27.978,0,0,0,4.182.229,13.242,13.242,0,0,0,5.609-1.143,12.571,12.571,0,0,0,4.1-2.981,12.408,12.408,0,0,0,2.536-4.319,15.246,15.246,0,0,0,.846-5.026,18.368,18.368,0,0,0-.583-4.638,11.863,11.863,0,0,0-1.828-3.964,9.138,9.138,0,0,0-3.164-2.765,9.584,9.584,0,0,0-4.57-1.028q-4.809,0-7.254,2.444a9.142,9.142,0,0,0-2.445,6.729Z"/><path class="cls-1" d="M261.494,169.5h11.218v35.529a25.613,25.613,0,0,0,.663,6.1,11.936,11.936,0,0,0,2.182,4.627,9.623,9.623,0,0,0,4.009,2.936,18.95,18.95,0,0,0,12.293,0,9.641,9.641,0,0,0,4.01-2.936,11.934,11.934,0,0,0,2.181-4.627,25.5,25.5,0,0,0,.663-6.1V169.5h11.218v37.528a26.1,26.1,0,0,1-1.61,9.265,20.9,20.9,0,0,1-4.718,7.437,22.328,22.328,0,0,1-7.609,4.992,29.866,29.866,0,0,1-20.563,0,22.28,22.28,0,0,1-7.608-4.992,20.9,20.9,0,0,1-4.719-7.437,26.166,26.166,0,0,1-1.6-9.265Z"/><path class="cls-1" d="M364.081,169.5h10.51v10.51h-10.51Zm0,17.627h10.51v41.766h-10.51Z"/><path class="cls-1" d="M381.983,169.5h10.51V228.9h-10.51Z"/><path class="cls-1" d="M425.531,224.973a14.409,14.409,0,0,1-5.164,3.656,18.285,18.285,0,0,1-7.745,1.6,16.835,16.835,0,0,1-5.118-.8,14.313,14.313,0,0,1-4.627-2.445,12.223,12.223,0,0,1-3.427-4.226,13.379,13.379,0,0,1-1.291-6.055,14.591,14.591,0,0,1,1.337-6.363,13.2,13.2,0,0,1,3.735-4.718,16.581,16.581,0,0,1,5.792-2.891,26.838,26.838,0,0,1,7.483-.982h2.765q1.518,0,2.936.137l3.29.183v-.983a5.712,5.712,0,0,0-2.491-4.9,10.948,10.948,0,0,0-6.5-1.782,18.184,18.184,0,0,0-7.129,1.143,32,32,0,0,0-4.718,2.49l-4.809-7.117q1.245-.891,2.844-1.828a22.284,22.284,0,0,1,3.747-1.691,31.076,31.076,0,0,1,4.936-1.245,38.884,38.884,0,0,1,6.546-.491,22.293,22.293,0,0,1,7.254,1.142,16.653,16.653,0,0,1,5.609,3.085,13.586,13.586,0,0,1,3.564,4.809,14.839,14.839,0,0,1,1.245,6.1v28.057h-9.79Zm0-14.954-3.119-.183q-1.245-.091-2.627-.137h-2.354q-5.071,0-7.128,2a6.248,6.248,0,0,0-2.045,4.57,5.038,5.038,0,0,0,1.919,4.181,8.98,8.98,0,0,0,5.655,1.508,10.841,10.841,0,0,0,6.683-2.285,9.138,9.138,0,0,0,2.182-2.49,5.844,5.844,0,0,0,.845-3.028Z"/><path class="cls-1" d="M492.99,216.953a15.671,15.671,0,0,0,4.946,3.245,16.959,16.959,0,0,0,6.855,1.291,13.784,13.784,0,0,0,5.426-.892,3.027,3.027,0,0,0,2.045-2.935,3.291,3.291,0,0,0-1.874-3.119,16.972,16.972,0,0,0-3.21-1.428,55.742,55.742,0,0,0-5.518-1.52,38.481,38.481,0,0,1-4.455-1.428,16.766,16.766,0,0,1-4.318-2.444,13.232,13.232,0,0,1-3.29-3.736,10.056,10.056,0,0,1-1.291-5.209,10.359,10.359,0,0,1,1.508-5.564,13.349,13.349,0,0,1,3.964-4.1,19.583,19.583,0,0,1,5.517-2.536,22.115,22.115,0,0,1,6.192-.891,33.112,33.112,0,0,1,9.391,1.142,22.319,22.319,0,0,1,6.991,3.427l-5.438,7.392a18.261,18.261,0,0,0-4.455-2.285,18.666,18.666,0,0,0-6.5-1.028q-3.736,0-5.21,1.142a3.312,3.312,0,0,0-1.473,2.719q0,1.965,2.445,3.073a45.781,45.781,0,0,0,7.608,2.365,33.666,33.666,0,0,1,5.712,1.782,15.877,15.877,0,0,1,4.364,2.673,10.947,10.947,0,0,1,2.81,3.782,12.7,12.7,0,0,1,.983,5.209,10.683,10.683,0,0,1-1.428,5.472,12.884,12.884,0,0,1-3.873,4.147,19.349,19.349,0,0,1-5.712,2.627,24.821,24.821,0,0,1-6.855.937,32.029,32.029,0,0,1-10.6-1.645,17.683,17.683,0,0,1-7.574-4.855Z"/><path class="cls-1" d="M150.692,126.589A73.411,73.411,0,1,0,224.1,200a73.41,73.41,0,0,0-73.411-73.411Zm-24.127,94.26a20.861,20.861,0,1,1,20.86-20.86A20.86,20.86,0,0,1,126.565,220.849Zm36.9-.057h-8V179.071h8Zm15.994,0h-8V179.071h8Zm15.994,0h-8V179.071h8Z"/><path class="cls-1" d="M126.565,187.045a12.944,12.944,0,1,0,12.943,12.944h0A12.955,12.955,0,0,0,126.565,187.045Z"/></svg>