<svg id="Ebene_1" data-name="Ebene 1" xmlns="http://www.w3.org/2000/svg" viewBox="0 0 600 400"><defs><style>.cls-1{fill:#17479d;}.cls-2,.cls-3{fill:#fff;}.cls-2{fill-rule:evenodd;}</style></defs><title>united-internet</title><polygon class="cls-1" points="205.561 105.556 394.439 105.556 394.439 294.444 205.561 294.444 205.561 105.556 205.561 105.556"/><path class="cls-2" d="M322.3,195.244c.139,2.2.289,4.2.317,4.889.226,5.764-.88,12.867-2.164,14.027l-15.406-20.9c10.4-8.652,13.782-14.77,13.782-23.009,0-11.26-8.737-19.476-21.08-19.476-13.313,0-22.711,8.078-22.711,19.064,0,6.454,1.649,10.018,9.694,20.317-12.5,7.216-19.015,17.246-18.314,27,1.171,16.3,13.58,25.457,31.609,25.559,9.21.053,14.913-1.891,21.407-7.089l3.972,5.351h17.613l-11.388-15.109c5.409-6.867,7.172-13.977,7.172-25.237,0-.687-.188-3.46-.188-5.382Zm-25.741-12.657c-5.132-6.592-6.241-8.618-6.241-12.325,0-3.846,3.051-6.672,7.35-6.672,4.438,0,7.236,2.552,7.236,6.534s-2.254,8.069-8.345,12.463Zm13.925,41.444a18.336,18.336,0,0,1-12.457,4.686c-9.015,0-15.148-4.686-15.374-12.014-.148-4.8,3.024-9.909,10.936-15.142l16.895,22.47Z"/><polygon class="cls-3" points="255.453 240.984 255.453 151.836 223.38 151.836 223.38 166.119 237.644 166.119 237.644 240.986 255.453 240.984 255.453 240.984"/><polygon class="cls-3" points="369.493 240.984 369.493 151.836 337.419 151.836 337.419 166.119 351.683 166.119 351.683 240.986 369.493 240.984 369.493 240.984"/></svg>