<svg xmlns="http://www.w3.org/2000/svg" viewBox="0 0 600 400"><defs><style>.cls-1{isolation:isolate;}.cls-2{fill:#ff6900;mix-blend-mode:multiply;}</style></defs><title>zalando</title><g class="cls-1"><g id="Ebene_1" data-name="Ebene 1"><path d="M280.372,174.607c-3.889-2.139-9.671-3.179-17.679-3.184-10.955.006-21.126,2.278-24.973,3.713a2.46,2.46,0,0,0-1.814,2.313l0,.283,1.078,5.448.027.1a2.18,2.18,0,0,0,2.1,1.608h0a3.123,3.123,0,0,0,.678-.115l1.824-.425c4.772-1.195,11.984-3,20.04-3,4.885,0,8.17.425,10.372,1.356,3.573,1.352,3.6,3.662,3.632,7.485v5.718c-.41-.007-1.1-.014-2.165-.014a128.821,128.821,0,0,0-19.33,1.405c-11.642,1.788-21.274,4.575-21.213,20.615,0,20.361,18.89,20.4,27.965,20.418h0a78.66,78.66,0,0,0,15.559-1.679c8.472-1.966,10.635-4.656,10.522-13.075V189.72c.012-5.164.027-11.592-6.632-15.113m-4.65,52.3a47.466,47.466,0,0,1-14.669,2.205v.476l-.007-.476c-8.349-.064-16.5-1.019-16.513-11.669.053-8.471,4.573-9.478,10.294-10.756l.4-.089c5.089-1.086,17.864-1.291,20.5-1.322Zm105.69-37.19v33.858c.114,8.419-2.049,11.109-10.523,13.075a78.619,78.619,0,0,1-15.557,1.679h0c-9.078-.018-27.962-.057-27.968-20.418-.061-16.04,9.573-18.827,21.214-20.615a128.813,128.813,0,0,1,19.33-1.405c1.064,0,1.756.007,2.164.014V190.19c-.036-3.823-.058-6.133-3.63-7.485-2.2-.931-5.487-1.356-10.373-1.356-8.054,0-15.268,1.805-20.04,3l-1.824.425a3.145,3.145,0,0,1-.678.115h0a2.181,2.181,0,0,1-2.1-1.608l-.026-.1-1.079-5.448v-.283a2.46,2.46,0,0,1,1.813-2.313c3.849-1.435,14.019-3.707,24.975-3.713,8.007,0,13.788,1.045,17.679,3.184,6.658,3.521,6.642,9.949,6.631,15.113M370.13,205.279c-2.635.031-15.41.236-20.5,1.322l-.4.089c-5.721,1.278-10.239,2.285-10.293,10.756.01,10.65,8.163,11.6,16.513,11.669l0,.476v-.476a47.449,47.449,0,0,0,14.67-2.205Zm182.295-33.856c-26.3.037-28.529,17.318-28.555,33.516.026,16.137,2.254,33.358,28.555,33.393h0c26.28-.035,28.521-17.21,28.558-33.395-.029-16.938-2.257-33.477-28.561-33.514m0,57.456c-15.953-.071-16.755-8.26-16.863-23.938.108-15.764.908-23.994,16.86-24.064,15.957.07,16.757,8.3,16.865,24.056-.108,15.686-.91,23.875-16.862,23.946m-47.2,7.071-.686.173a63.789,63.789,0,0,1-17.55,2.209h-.019c-24.343-.035-29.119-12.314-29.145-33.512.03-24.313,7.736-33.363,28.436-33.4a65.274,65.274,0,0,1,15.944,1.817l-.022-19.582c-.031-.859.358-1.984,2.391-2.371l6.464-1.649h.352c1.486.037,2.013,1.361,2.015,2.482V225.7c.1,4.646-.447,8.632-8.18,10.249m-3.037-53.285a64.022,64.022,0,0,0-14.97-1.906c-12.461.115-17.689,3.5-17.818,24.181.145,22.71,6.907,23.937,17.93,24.057l.007.475V229a58.694,58.694,0,0,0,14.846-2.009Zm-58.1,54.134h-5.781a2.669,2.669,0,0,1-2.722-2.721V190.426c-.1-7.384-2.31-9.438-10.262-9.549a87.138,87.138,0,0,0-21.1,3.075v50.125a2.581,2.581,0,0,1-2.6,2.722h-5.9a2.665,2.665,0,0,1-2.72-2.721V185.117c-.086-4.532.338-7.665,6.786-9.75,6.172-2.131,17.982-3.938,25.785-3.944,14.869.02,21.219,5.385,21.239,17.941v44.713a2.665,2.665,0,0,1-2.719,2.722M313.12,237.978h0c3.323-.065,5.781-.722,6.744-1.8a1.656,1.656,0,0,0,.457-1.262,45.671,45.671,0,0,0-.934-4.63l-.022-.1a1.783,1.783,0,0,0-1.651-1.625c-.062,0-.122,0-.09.008,0,0-.834-.041-1.659-.041h-.008c-2.368-.075-4.331-.419-4.371-3.886V152.12a2.3,2.3,0,0,0-2.132-2.482l-.413,0-6.476,1.659a2.3,2.3,0,0,0-2.2,2.356v71.219c.012,8.436,4.539,13.088,12.748,13.1ZM221.653,236.8h-46.4a2.668,2.668,0,0,1-2.721-2.721v-5.664a4.062,4.062,0,0,1,1.268-3.066l36.932-42.936H174.546a2.67,2.67,0,0,1-2.722-2.721v-4.012a2.667,2.667,0,0,1,2.721-2.72h46.871a2.667,2.667,0,0,1,2.722,2.719v5.783a3.971,3.971,0,0,1-1.174,2.86l-37.025,43.024h35.713a2.671,2.671,0,0,1,2.722,2.72v4.012a2.668,2.668,0,0,1-2.721,2.722"/><path class="cls-2" d="M139.82,190.155c-7.617-9.346-18.268-18.416-32.215-26.6l-.053-.028c-14.06-7.987-27.24-12.676-39.142-14.6-7.428-1.2-10.979.194-12.592,1.128s-4.6,3.307-7.274,10.341c-4.285,11.27-6.816,25.027-6.929,41.2v.059c.113,16.172,2.644,29.931,6.929,41.2,2.673,7.035,5.658,9.41,7.274,10.341s5.164,2.331,12.592,1.13c11.9-1.925,25.082-6.613,39.142-14.6l.053-.03c13.947-8.183,24.6-17.254,32.215-26.6,4.754-5.832,5.319-9.6,5.319-11.468S144.574,195.989,139.82,190.155Z"/></g></g></svg>